<svg height="26" viewBox="0 0 200 26" width="200" xmlns="http://www.w3.org/2000/svg"><path d="m140.791955.3c6.851037 0 12.382149 5.53111251 12.382149 12.3821496 0 4.7140163-2.576995 8.7994972-6.473915 10.8736644v-11.3764928h.062853l3.771213 1.6970459.87995-3.95977376-5.468259-2.4512885h-4.399749v17.59899436h-.754242c-.314268 0-.628536-.0628536-.942804-.0628536v-17.59899431h-4.399748l-5.468259 2.4512885.87995 3.95977371 3.771213-1.6970459h.062853v11.3136393c-3.771213-2.1370208-6.285355-6.1596481-6.285355-10.7479573 0-6.85103709 5.531113-12.3821496 12.38215-12.3821496zm-128.6612196 2.4512885v19.7988686h-6.72532999v-14.07919544h-.06285356l-4.14833438 1.75989944-1.19421747-4.46260214 6.53676933-3.01697046zm13.4506599 0v19.7988686h-6.6624764v-14.07919544h-.0628535l-4.1483344 1.75989944-1.257071-4.46260214 6.5367693-3.01697046zm166.0590827 1.19421747c5.153991.1257071 7.919547 2.01131364 7.919547 5.65681961v.18856066h-6.473916v-.12570711c0-.50282841-.125707-.94280327-.314267-1.31992457-.251415-.43997486-.628536-.69138907-1.131364-.69138907-.377122 0-.754243.12570711-1.005657.37712131-.314268.31426776-.439975.62853551-.439975 1.00565682 0 .62853551.87995 1.13136388 2.514142 1.50848518 2.388435.5028285 3.959774.9428033 4.651163 1.3199246 1.697046.8170962 2.514142 2.2627279 2.639849 4.2740415 0 1.6970459-.754243 3.3940918-2.074167 4.2740415-1.382778.8799497-3.331238 1.3199246-5.84538 1.3199246-5.468259 0-8.296669-2.0741672-8.610937-5.5311125l-.062854-1.1942175h6.851038c0 .7542426.062853 1.3199246.18856 1.6970459.188561.5656819.628536.8799497 1.319925.8799497.377121 0 .628535-.1885607.87995-.4399749.251414-.3142677.377121-.5656819.377121-.9428032 0-.8799498-.817096-1.5084853-2.451289-1.8856066-2.639849-.6285355-4.148334-1.0685103-4.588309-1.257071-1.634192-.7542426-2.451288-2.0741672-2.451288-3.83406663 0-.2514142 0-.50282841.062853-.75424261h-3.708359v12.82212444h-7.291012v-12.75927089h-3.834067c-.062854 2.19987429-1.131364 3.51979889-3.142678 3.95977369 1.194218.1885607 2.074168.7542427 2.514143 1.6341924.314267.5656819.565681 1.5713388.691389 3.0169704.125707 1.6970459.377121 3.0169705.691389 4.0854809h-7.039598c-.314268-1.131364-.565682-2.3255814-.754243-3.7712131-.062853-.4399749-.125707-.9428033-.314267-1.5713388-.251415-.5028284-.754243-.7542426-1.508486-.7542426h-.251414v6.0967945h-6.788183c1.697045-2.388435 2.702702-5.3425519 2.702702-8.548083 0-3.26838467-1.06851-6.28535513-2.891263-8.73664363zm-86.486487-.31426776c4.588309 0 7.165305 1.69704589 7.856694 4.39974859v-4.02262728h9.428033c2.199874 0 3.89692.43997486 5.342552 1.88560654-1.068511 2.01131364-1.697046 4.33689504-1.697046 6.85103704 0 .6913891.062853 1.4456317.18856 2.1370208h-.062853c-1.257071.5656819-3.268385.8799497-6.096795.8799497v5.468259h-7.102451v-3.0169705c-.314268.6285355-1.131364 1.6341923-1.822753 2.0741672-1.382778.8799497-3.331238 1.3199246-5.84538 1.3199246-3.959774 0-6.2225017-1.3199246-7.4795727-3.1426776.0628535.9428033.0628535 1.822753.1257071 2.7655563h-6.1596481c-.0628535-3.4569454-.1885606-6.72533-.3771213-9.9308611-.5656819 2.6398491-1.3827781 5.9710873-2.3884349 9.9308611h-6.159648l-2.5141421-9.8680076c0 2.8284098-.1257071 6.0967945-.3142677 9.8680076h-12.2564425l-.565682-2.7027027h-4.2111879l-.6285355 2.7027027h-19.2960403v-12.82212449h-4.0226272v12.82212449h-7.291012v-12.82212449h-4.2740415v-4.46260214h29.0383407v4.52545569h-6.4739158v1.69704584h6.2225016v4.7768699h-6.2225016v1.7598995h6.7881836l3.6455059-12.69641738h9.4280327l4.0854808 14.45631678c.1885607-2.9541169.4399749-7.7309868.7542427-14.45631678h9.239472c.4399748 2.01131364 1.0685104 5.21684475 1.8856065 9.74230048.4399749-2.4512885 1.0685104-5.7196732 1.9484601-9.74230048h9.1766185c.0628535 1.13136392.1257071 2.38843495.1885606 3.83406663.3771214-1.19421748 1.2570711-2.4512885 2.5769956-3.14267756 1.4456317-.69138907 3.2055307-1.06851038 5.3425517-1.06851038zm-7.668133 7.41671909c.0628535 1.1942174.1257071 2.514142.1885606 3.8969201h6.1596484c0 .7542427.062853 1.2570711.18856 1.6341924.188561.5656819.628536.8799497 1.319925.8799497.377121 0 .628535-.1885607.87995-.4399749.251414-.3142677.377121-.5656819.377121-.8170961 0-.8799498-.817096-1.5084853-2.451289-1.8856066-2.639849-.6285355-4.148334-1.0685103-4.5883089-1.257071-1.0056568-.5028284-1.6970458-1.1313639-2.0741671-2.0113136zm-32.3067254-2.63984919-1.257071 5.78252669h2.4512885zm40.1634194-.75424262c-.377121 0-.754243.12570711-1.005657.37712131-.314268.31426776-.439975.62853551-.439975 1.00565682 0 .69138906.87995 1.19421748 2.514142 1.57133878 2.388435.4399749 3.959774.8799497 4.651163 1.257071.942803.4399749 1.571339 1.1313639 2.011314 1.9484601v-4.02262726h-6.285355v-.12570711c0-.50282841-.125708-.94280327-.314268-1.31992457-.251414-.43997486-.628536-.69138907-1.131364-.69138907zm16.46763.43997486c-.18856-.18856065-.691389-.31426775-1.759899-.2514142v3.64550595h.251414c1.508485 0 2.199874-.6285355 2.199874-1.82275297 0-.81709616-.314267-1.31992457-.691389-1.57133878zm38.40352-.18856065h-.87995v3.079824h.87995c1.319925 0 1.94846-.565682 1.885607-1.63419232 0-.94280327-.628536-1.44563168-1.885607-1.44563168z" fill="#fff"/></svg>