<svg width="178" height="64" xmlns="http://www.w3.org/2000/svg"><g fill="#333537" fill-rule="evenodd"><path d="M74.953 46.194c-8.33 0-14.293-6.584-14.293-14.764s5.963-14.904 14.293-14.904c6.664 0 11.715 3.84 13.328 10.214H80.67a6.612 6.612 0 00-5.752-3.568c-3.92 0-7.085 3.734-7.085 8.293 0 4.56 3.165 8.127 7.085 8.127a6.506 6.506 0 005.84-3.647h7.576C86.72 42.372 81.67 46.16 74.953 46.16M102.828 45.493c-8.12.876-12.416-4.12-12.416-11.854V10.091h7.093v7.189h4.998v6.391h-4.998v10.021c0 3.954 1.754 5.436 5.323 5.216v6.585zM105.046 17.28h7.094v28.274h-7.094zM157.719 16.561c7.777 0 12.372 5.217 12.372 12.625v16.403h-7.138V29.028c0-1.596-.543-5.383-5.26-5.383a5.174 5.174 0 00-5.402 5.383v16.561h-7.138V29.195c0-7.19 4.972-12.625 12.54-12.625M127.765 45.589c-7.733 0-13.538-6.365-13.538-14.273 0-7.908 5.857-14.711 14.24-14.711s14.187 6.698 14.187 14.904v14.08l-7.093-7.014v-7.013c0-4.34-3.166-7.89-7.094-7.89-3.928 0-7.094 3.453-7.094 7.688a7.092 7.092 0 007.252 7.242h4.507v7.013l-5.367-.026zM40.47 51.963a6.743 6.743 0 01-2.283 1.762c-11.259 3.665-20.545 4.471-32.198 2.472a4.471 4.471 0 01-2.806-3.06h-.018a107.477 107.477 0 01-1.411-36.032 3.761 3.761 0 012.876-2.867c2.076-.243 4.157-.426 6.24-.55.084-2.886.31-5.772.678-8.647a3.262 3.262 0 012.674-2.56 153.55 153.55 0 0135.381-1.034 2.937 2.937 0 012.56 2.63c.154 2.045.269 4.092.345 6.14a54.32 54.32 0 012.418.558 4.384 4.384 0 012.727 3.41 132.074 132.074 0 01-.746 35.384 3.683 3.683 0 01-3.191 2.867 125.03 125.03 0 01-13.246-.473zm-1.696-6.427l4.946-.07v-7.013h-4.104a7.112 7.112 0 01-7.287-7.242c0-4.226 3.183-7.689 7.13-7.689 3.945 0 7.128 3.55 7.128 7.89v7.014l7.12 7.058V31.456c0-8.206-5.849-14.904-14.249-14.904s-14.284 6.812-14.284 14.712c0 7.899 5.831 14.272 13.6 14.272z"/><path d="M177.193 19.62h-.394v-2.962l-1.114 2.954h-.316l-1.078-2.954v2.954h-.395v-3.296h.737l.92 2.437.877-2.437h.737l.026 3.305zm-3.91-2.962h-1.026v2.99h-.395v-2.99h-1.026v-.316h2.455l-.008.316zM66.64 60.958v-.877a2.692 2.692 0 01-2.297.964 2.63 2.63 0 01-1.201-.263 1.92 1.92 0 01-.798-.718 1.946 1.946 0 01-.28-1.035 1.683 1.683 0 01.648-1.394 2.92 2.92 0 011.815-.526h2.113v-.307a1.359 1.359 0 00-.43-1.07 1.833 1.833 0 00-1.244-.376 3.578 3.578 0 00-2.026.71l-.508-.833a6.033 6.033 0 011.306-.666 4.481 4.481 0 011.43-.21 2.745 2.745 0 011.902.604c.462.435.711 1.05.684 1.683v4.323l-1.114-.01zm-.701-1.342c.361-.222.615-.584.701-.999v-.658h-1.955c-.4-.025-.8.056-1.157.237a.815.815 0 00-.377.745.964.964 0 00.385.807 1.64 1.64 0 001.035.298c.49.002.968-.148 1.368-.43z" fill-rule="nonzero"/><path d="M72.56 55.382a2.28 2.28 0 00-1.15.29 2.025 2.025 0 00-.789.806c-.197.37-.296.782-.29 1.2-.007.418.09.831.282 1.202.176.338.443.62.771.815.34.197.729.297 1.123.29.39.006.777-.066 1.14-.21.338-.126.639-.334.876-.606l.658.667c-.3.383-.692.685-1.14.876a3.894 3.894 0 01-1.56.298 3.385 3.385 0 01-1.702-.42 2.981 2.981 0 01-1.157-1.175 3.778 3.778 0 010-3.446 2.972 2.972 0 011.157-1.183 3.385 3.385 0 011.684-.43 4.166 4.166 0 011.5.254c.422.156.804.408 1.113.737l-.632.798a2.63 2.63 0 00-1.885-.763zM80.328 60.493a2.833 2.833 0 01-1.543.482c-.466.02-.92-.148-1.263-.464a1.867 1.867 0 01-.482-1.412v-3.603h-.93v-.877h.93v-1.753h1.166v1.753h2.008v.877h-2.008v3.42c-.023.275.048.55.202.78a.737.737 0 00.596.236 2.07 2.07 0 001.017-.316l.307.877z"/><path d="M82.818 51.98a.798.798 0 010 1.07.737.737 0 01-1.034 0 .798.798 0 010-1.07.737.737 0 011.034 0zm-1.087 2.376h1.157v6.567h-1.157v-6.567z" fill-rule="nonzero"/><path d="M84.046 54.356h1.227l1.973 5.427 1.956-5.427h1.166l-2.56 6.567h-1.193z"/><path d="M95.305 60.958v-.877a2.692 2.692 0 01-2.298.964 2.63 2.63 0 01-1.201-.263 1.92 1.92 0 01-.798-.718 1.946 1.946 0 01-.28-1.035 1.683 1.683 0 01.648-1.394 2.92 2.92 0 011.815-.526h2.087v-.307a1.359 1.359 0 00-.43-1.07 1.833 1.833 0 00-1.245-.376 3.578 3.578 0 00-2.025.71l-.474-.833a6.033 6.033 0 011.307-.666 4.481 4.481 0 011.412-.21 2.745 2.745 0 011.902.604c.476.425.742 1.037.728 1.675v4.322h-1.148zm-.693-1.342c.36-.235.604-.61.675-1.034v-.658h-1.92c-.4-.025-.8.056-1.158.237a.815.815 0 00-.377.745.964.964 0 00.386.807 1.64 1.64 0 001.035.298c.482.01.957-.127 1.359-.395z" fill-rule="nonzero"/><path d="M102.03 60.493a2.833 2.833 0 01-1.543.482c-.466.02-.92-.148-1.263-.464a1.867 1.867 0 01-.482-1.412v-3.603h-.93v-.877h.93v-1.753h1.166v1.753h2.008v.877h-2.008v3.42c-.023.275.048.55.202.78a.737.737 0 00.596.236 2.07 2.07 0 001.008-.316l.316.877z"/><path d="M108.29 55.233a3.69 3.69 0 01.781 2.499v.368h-5.19c.066.541.328 1.04.736 1.402.412.35.94.535 1.482.518.372.003.742-.068 1.087-.21.33-.138.628-.34.877-.597l.631.658c-.326.35-.724.625-1.166.806a3.885 3.885 0 01-1.517.29 3.508 3.508 0 01-1.754-.412 2.92 2.92 0 01-1.166-1.175 3.778 3.778 0 010-3.446c.269-.494.67-.904 1.157-1.183a3.35 3.35 0 011.701-.43 2.894 2.894 0 012.342.912zm-.262 1.981a1.902 1.902 0 00-2.035-1.92 2.078 2.078 0 00-1.446.518 2.192 2.192 0 00-.693 1.402h4.174z" fill-rule="nonzero"/><path d="M115.367 63.027c-.35.259-.775.395-1.21.386a2.28 2.28 0 01-.772-.123 2.315 2.315 0 01-.666-.386l.5-.877c.252.192.56.3.876.307a1.201 1.201 0 001.114-.876l.245-.58-2.718-6.487h1.254l2.087 5.26 1.973-5.26h1.184l-3.008 7.496a2.63 2.63 0 01-.86 1.14z"/><path d="M124.512 54.768c.5.272.913.68 1.193 1.175a3.682 3.682 0 010 3.445c-.278.5-.691.91-1.193 1.184a3.841 3.841 0 01-3.507 0c-.5-.272-.913-.68-1.193-1.175a3.69 3.69 0 010-3.454c.28-.495.693-.902 1.193-1.175a3.841 3.841 0 013.507 0zm-2.893.877a2.06 2.06 0 00-.78.824 2.525 2.525 0 00-.281 1.201c-.006.423.09.841.28 1.219.176.344.447.63.78.824.711.387 1.57.387 2.28 0 .335-.194.605-.48.78-.824.193-.377.29-.796.282-1.219a2.516 2.516 0 00-.281-1.201 2.06 2.06 0 00-.78-.824 2.341 2.341 0 00-2.28 0z" fill-rule="nonzero"/><path d="M133.579 54.356v6.567h-1.175v-1.36a2.473 2.473 0 01-2.438 1.43 2.35 2.35 0 01-1.753-.675 2.63 2.63 0 01-.65-1.868v-4.094h1.167v3.752c-.031.477.134.946.456 1.298.332.322.783.49 1.245.465a1.842 1.842 0 001.456-.65c.373-.459.566-1.038.543-1.63v-3.235h1.149zM137.893 54.733a2.736 2.736 0 011.412-.377v1.114a2.113 2.113 0 00-2.333 2.025v3.507h-1.148v-6.646h1.157v1.412c.195-.428.512-.788.912-1.035z"/><path d="M149.94 51.726v9.232h-1.157v-1.342a2.63 2.63 0 01-1 1.009 2.92 2.92 0 01-1.455.35 3.14 3.14 0 01-1.648-.43 2.955 2.955 0 01-1.114-1.192 3.726 3.726 0 01-.394-1.753 3.63 3.63 0 01.394-1.753 2.92 2.92 0 011.114-1.088 3.148 3.148 0 011.63-.42c.514-.01 1.02.11 1.474.35.42.233.765.584.99 1.009v-3.972h1.167zm-2.226 7.978c.335-.198.609-.487.789-.833.195-.37.294-.783.29-1.2a2.542 2.542 0 00-.29-1.22 2.095 2.095 0 00-.79-.832 2.21 2.21 0 00-1.148-.298c-.404-.007-.802.1-1.149.306a2.14 2.14 0 00-.789.877 2.674 2.674 0 000 2.411c.18.346.454.635.79.833a2.359 2.359 0 002.297 0v-.044zM156.272 60.958v-.877a2.692 2.692 0 01-2.298.964 2.63 2.63 0 01-1.2-.263 1.92 1.92 0 01-.799-.718 1.946 1.946 0 01-.28-1.035 1.683 1.683 0 01.648-1.394 2.92 2.92 0 011.816-.526h2.086v-.307a1.359 1.359 0 00-.43-1.07 1.833 1.833 0 00-1.244-.376 3.578 3.578 0 00-2.026.71l-.482-.798a6.033 6.033 0 011.306-.666c.466-.145.951-.213 1.438-.202a2.745 2.745 0 011.903.605c.462.435.712 1.05.684 1.683v4.322l-1.122-.052zm-.693-1.342c.36-.235.604-.61.675-1.034v-.658h-1.929c-.4-.025-.8.056-1.157.237a.815.815 0 00-.377.745.964.964 0 00.385.807 1.64 1.64 0 001.035.298c.486.012.964-.125 1.368-.395z" fill-rule="nonzero"/><path d="M162.997 60.493a2.833 2.833 0 01-1.543.482c-.466.02-.92-.148-1.263-.464a1.867 1.867 0 01-.482-1.412v-3.603h-.93v-.877h.93v-1.753h1.166v1.753h2.008v.877h-2.008v3.42c-.023.275.048.55.202.78a.737.737 0 00.596.236 2.07 2.07 0 001.017-.307l.307.868z"/><path d="M168.407 60.958v-.877a2.692 2.692 0 01-2.297.964 2.63 2.63 0 01-1.201-.263 1.92 1.92 0 01-.798-.718 1.946 1.946 0 01-.28-1.035 1.683 1.683 0 01.648-1.394 2.92 2.92 0 011.815-.526h2.087v-.307a1.359 1.359 0 00-.43-1.07 1.833 1.833 0 00-1.245-.376 3.578 3.578 0 00-2.025.71l-.483-.798a6.033 6.033 0 011.307-.666c.465-.145.95-.213 1.438-.202a2.745 2.745 0 011.903.605c.461.435.711 1.05.684 1.683v4.322l-1.123-.052zm-.684-1.342c.36-.235.604-.61.676-1.034v-.658h-1.92c-.4-.025-.8.056-1.158.237a.815.815 0 00-.377.745.964.964 0 00.386.807 1.64 1.64 0 001.034.298c.483.01.957-.127 1.36-.395z" fill-rule="nonzero"/></g></svg>