<?xml version="1.0" encoding="UTF-8"?>
<svg width="178px" height="64px" viewBox="0 0 178 64" version="1.1" xmlns="http://www.w3.org/2000/svg" xmlns:xlink="http://www.w3.org/1999/xlink">
    <!-- Generator: Sketch 52.5 (67469) - http://www.bohemiancoding.com/sketch -->
    <title>Actian@3x</title>
    <desc>Created with Sketch.</desc>
    <g id="Page-1" stroke="none" stroke-width="1" fill="none" fill-rule="evenodd">
        <g id="Grafiken" transform="translate(-64.000000, -1485.000000)" fill="#FFFFFF">
            <g id="Actian" transform="translate(64.000000, 1485.000000)">
                <path d="M74.9529064,46.1939726 C66.6228571,46.1939726 60.6602956,39.609863 60.6602956,31.430137 C60.6602956,23.250411 66.6228571,16.5260274 74.9529064,16.5260274 C81.6169458,16.5260274 86.6675862,20.3660274 88.2809852,26.739726 L80.6699507,26.739726 C79.5531567,24.5846693 77.3449805,23.2148684 74.9178325,23.1715068 C70.9983251,23.1715068 67.8329064,26.9063014 67.8329064,31.4652055 C67.8329064,36.0241096 70.9983251,39.5923288 74.9178325,39.5923288 C77.4010301,39.5904903 79.6666353,38.1755553 80.7576355,35.9452055 L88.3335961,35.9452055 C86.720197,42.3715068 81.6695567,46.1589041 74.9529064,46.1589041" id="Path"></path>
                <path d="M102.827882,45.4926027 C94.7082759,46.3693151 90.4117241,41.3720548 90.4117241,33.6394521 L90.4117241,10.0909589 L97.5054187,10.0909589 L97.5054187,17.28 L102.503448,17.28 L102.503448,23.6712329 L97.5054187,23.6712329 L97.5054187,33.6920548 C97.5054187,37.6460274 99.2591133,39.1276712 102.827882,38.9084932 L102.827882,45.4926027 Z" id="Path"></path>
                <rect id="Rectangle" x="105.046305" y="17.28" width="7.09369458" height="28.2739726"></rect>
                <path d="M157.718522,16.5610959 C165.496158,16.5610959 170.090837,21.7775342 170.090837,29.1857534 L170.090837,45.5890411 L162.9533,45.5890411 L162.9533,29.0279452 C162.9533,27.4323288 162.409655,23.6449315 157.692217,23.6449315 C156.243769,23.5797866 154.834455,24.1253672 153.807547,25.1487841 C152.780638,26.1722009 152.230393,27.5795163 152.290837,29.0279452 L152.290837,45.5890411 L145.1533,45.5890411 L145.1533,29.1945205 C145.1533,22.0054795 150.125025,16.569863 157.692217,16.569863" id="Path"></path>
                <path d="M127.765419,45.5890411 C120.031626,45.5890411 114.226897,39.2241096 114.226897,31.3161644 C114.226897,23.4082192 120.084236,16.6049315 128.466897,16.6049315 C136.849557,16.6049315 142.654286,23.3030137 142.654286,31.5090411 L142.654286,45.5890411 L135.560591,38.5753425 L135.560591,31.5616438 C135.560591,27.2219178 132.395172,23.6712329 128.466897,23.6712329 C124.538621,23.6712329 121.373202,27.1254795 121.373202,31.36 C121.332048,33.2944544 122.083115,35.1617461 123.452328,36.5290934 C124.821542,37.8964406 126.690028,38.6451322 128.624729,38.6016438 L133.131724,38.6016438 L133.131724,45.6153425 L127.765419,45.5890411 Z" id="Path"></path>
                <path d="M40.4703441,51.9633712 C39.8490695,52.7036372 39.0717384,53.3066243 38.1866995,53.7249315 C26.9279803,57.389589 17.6421675,58.1961644 5.988867,56.1972603 C4.60801816,55.6995819 3.55935326,54.5560577 3.18295567,53.1375342 L3.16541872,53.1375342 C0.668879913,41.2917472 0.191590739,29.1094083 1.75369458,17.1046575 C2.06978051,15.669255 3.1931717,14.5494611 4.62975369,14.2378082 C6.70610037,13.9946791 8.78696131,13.8117478 10.8697462,13.6888873 C10.9541855,10.8015872 11.1801117,7.91552683 11.5480788,5.04109589 C11.8218815,3.71557281 12.8860738,2.69689632 14.2224631,2.48109589 C25.9367261,0.773556967 37.8092067,0.426410231 49.6032512,1.44657534 C50.9669859,1.61649559 52.0306119,2.70909392 52.1636453,4.07671233 C52.3170049,6.12175549 52.4316826,8.16866522 52.5077127,10.2163493 C53.3166386,10.3838052 54.1228517,10.5699465 54.9257143,10.7747945 C56.3765861,11.3458654 57.4149318,12.6444323 57.6527094,14.1852055 C58.9928669,25.9599376 58.7421773,37.8614385 56.9073892,49.5693151 C56.5675621,51.1098862 55.2839516,52.2628423 53.715665,52.4361644 C49.2903675,52.512936 44.869093,52.3545968 40.4703441,51.9633712 Z M38.7741872,45.5364384 L43.7196059,45.4663014 L43.7196059,38.4526027 L39.6159606,38.4526027 C37.6767085,38.5007768 35.801944,37.7547589 34.4261298,36.3874332 C33.0503155,35.0201076 32.2928823,33.1501679 32.3293596,31.2109589 C32.3293596,26.9852055 35.5123153,23.5221918 39.4581281,23.5221918 C43.4039409,23.5221918 46.5868966,27.0728767 46.5868966,31.4126027 L46.5868966,38.4263014 L53.7068966,45.4838356 L53.7068966,31.4564384 C53.7068966,23.250411 47.8583251,16.5523288 39.4581281,16.5523288 C31.057931,16.5523288 25.1742857,23.3643836 25.1742857,31.2635616 C25.1742857,39.1627397 31.0053202,45.5364384 38.7741872,45.5364384 Z" id="Combined-Shape"></path>
                <path d="M177.1933,19.6208219 L176.798719,19.6208219 L176.798719,16.6575342 L175.685123,19.6120548 L175.369458,19.6120548 L174.290936,16.6575342 L174.290936,19.6120548 L173.896355,19.6120548 L173.896355,16.3156164 L174.632906,16.3156164 L175.553596,18.7528767 L176.430443,16.3156164 L177.166995,16.3156164 L177.1933,19.6208219 Z M173.282562,16.6575342 L172.25665,16.6575342 L172.25665,19.6471233 L171.862069,19.6471233 L171.862069,16.6575342 L170.836158,16.6575342 L170.836158,16.3419178 L173.29133,16.3419178 L173.282562,16.6575342 Z" id="Shape" fill-rule="nonzero"></path>
                <path d="M66.6403941,60.9578082 L66.6403941,60.0810959 C66.0784489,60.7588791 65.2204948,61.1190334 64.3430542,61.0454795 C63.9274678,61.0539369 63.5157925,60.9638029 63.1417734,60.7824658 C62.8128179,60.6235976 62.5360114,60.374206 62.3438424,60.0635616 C62.1553121,59.7517773 62.0580945,59.3933427 62.0632512,59.0290411 C62.0422602,58.4869914 62.2838188,57.9680467 62.7121182,57.6350685 C63.2420962,57.2634033 63.8805756,57.0783653 64.5271921,57.1090411 L66.6403941,57.1090411 L66.6403941,56.8021918 C66.6629891,56.3995831 66.5055832,56.0077349 66.2107389,55.7326027 C65.8557765,55.4589178 65.4128012,55.324798 64.9656158,55.3556164 C64.2336623,55.3794637 63.5266606,55.6273352 62.9400985,56.0657534 L62.4315271,55.2328767 C62.8383045,54.9584756 63.2770469,54.734722 63.7380296,54.5665753 C64.1999306,54.4196023 64.6826236,54.3485419 65.1672906,54.3561644 C65.8550096,54.3118033 66.5342513,54.5277501 67.0700493,54.9610959 C67.5318251,55.3961732 67.7814656,56.0105785 67.7539901,56.6443836 L67.7539901,60.9665753 L66.6403941,60.9578082 Z M65.9389163,59.6164384 C66.3002359,59.3938923 66.5539535,59.0324003 66.6403941,58.6169863 L66.6403941,57.9594521 L64.6850246,57.9594521 C64.2849934,57.9336085 63.8853386,58.0153435 63.5275862,58.1961644 C63.2745514,58.3564707 63.1297907,58.6425814 63.1505419,58.9413699 C63.1392007,59.2571934 63.2833416,59.5585325 63.5363547,59.7479452 C63.8378548,59.9609275 64.2024147,60.065954 64.5710345,60.0460274 C65.060532,60.0482158 65.5385846,59.8980813 65.9389163,59.6164384 Z" id="Shape" fill-rule="nonzero"></path>
                <path d="M72.5591133,55.3819178 C72.1574159,55.3754773 71.7611495,55.4752848 71.4104433,55.6712329 C71.0762797,55.8599142 70.8026022,56.1396304 70.6212808,56.4778082 C70.4243586,56.8471006 70.324774,57.2604639 70.3319212,57.6789041 C70.3239683,58.0963837 70.4204167,58.5092399 70.6125123,58.88 C70.7889079,59.21822 71.0561199,59.500571 71.3841379,59.6953425 C71.7248535,59.8923565 72.1129882,59.9924071 72.5065025,59.9846575 C72.8966563,59.9906862 73.2841215,59.9191651 73.6464039,59.7742466 C73.9845013,59.648742 74.2859013,59.440808 74.5232512,59.1693151 L75.1808867,59.8356164 C74.8807646,60.2191102 74.4886884,60.5206609 74.0409852,60.7123288 C73.5467508,60.9179177 73.015423,61.0193917 72.480197,61.010411 C71.8860528,61.0218798 71.2993605,60.8767412 70.7791133,60.589589 C70.2904843,60.3146095 69.8893183,59.9074279 69.6216749,59.4147945 C69.0675042,58.3331304 69.0675042,57.0509792 69.6216749,55.9693151 C69.8876025,55.473163 70.2889852,55.0627211 70.7791133,54.7857534 C71.2933479,54.4985231 71.8736515,54.3504476 72.4626601,54.3561644 C72.9738335,54.3481868 73.4821079,54.4343721 73.962069,54.610411 C74.3854624,54.7660289 74.7667488,55.0181794 75.075665,55.3468493 L74.444335,56.1446575 C73.9436116,55.6479916 73.2643796,55.3731819 72.5591133,55.3819178 Z" id="Path"></path>
                <path d="M80.3279803,60.4931507 C79.8713518,60.8003977 79.3350788,60.9679572 78.7847291,60.9753425 C78.3187942,60.994469 77.8644271,60.8272624 77.522069,60.5106849 C77.1721961,60.1275878 76.997483,59.6162335 77.039803,59.0991781 L77.039803,55.4958904 L76.1103448,55.4958904 L76.1103448,54.6191781 L77.039803,54.6191781 L77.039803,52.8657534 L78.2060099,52.8657534 L78.2060099,54.6191781 L80.2139901,54.6191781 L80.2139901,55.4958904 L78.2060099,55.4958904 L78.2060099,58.9150685 C78.1827847,59.1905014 78.2539006,59.4656464 78.4076847,59.6953425 C78.5598235,59.8611913 78.7794554,59.9483846 79.0039409,59.9320548 C79.3647219,59.9173773 79.7153826,59.8085683 80.0210837,59.6164384 L80.3279803,60.4931507 Z" id="Path"></path>
                <path d="M82.8182266,51.980274 C83.0926474,52.2840145 83.0926474,52.7461225 82.8182266,53.049863 C82.5313995,53.3328505 82.0703739,53.3328505 81.7835468,53.049863 C81.509126,52.7461225 81.509126,52.2840145 81.7835468,51.980274 C82.0703739,51.6972865 82.5313995,51.6972865 82.8182266,51.980274 Z M81.730936,54.3561644 L82.8883744,54.3561644 L82.8883744,60.9227397 L81.730936,60.9227397 L81.730936,54.3561644 Z" id="Shape" fill-rule="nonzero"></path>
                <polygon id="Path" points="84.0458128 54.3561644 85.273399 54.3561644 87.2463054 59.7830137 89.2016749 54.3561644 90.3678818 54.3561644 87.8074877 60.9227397 86.6149754 60.9227397"></polygon>
                <path d="M95.304532,60.9578082 L95.304532,60.0810959 C94.7425869,60.7588791 93.8846327,61.1190334 93.0071921,61.0454795 C92.5916057,61.0539369 92.1799305,60.9638029 91.8059113,60.7824658 C91.4769558,60.6235976 91.2001494,60.374206 91.0079803,60.0635616 C90.81945,59.7517773 90.7222325,59.3933427 90.7273892,59.0290411 C90.7063981,58.4869914 90.9479568,57.9680467 91.3762562,57.6350685 C91.9062341,57.2634033 92.5447136,57.0783653 93.19133,57.1090411 L95.2782266,57.1090411 L95.2782266,56.8021918 C95.3008216,56.3995831 95.1434158,56.0077349 94.8485714,55.7326027 C94.493609,55.4589178 94.0506337,55.324798 93.6034483,55.3556164 C92.8714948,55.3794637 92.1644931,55.6273352 91.577931,56.0657534 L91.1044335,55.2328767 C91.5112109,54.9584756 91.9499533,54.734722 92.410936,54.5665753 C92.8672432,54.4214683 93.3438637,54.3504302 93.8226601,54.3561644 C94.5103791,54.3118033 95.1896207,54.5277501 95.7254187,54.9610959 C96.2010283,55.3861631 96.4669208,55.9979419 96.453202,56.6356164 L96.453202,60.9578082 L95.304532,60.9578082 Z M94.6118227,59.6164384 C94.9711403,59.3806464 95.2158357,59.0057163 95.2869951,58.5819178 L95.2869951,57.9243836 L93.3666995,57.9243836 C92.9666683,57.89854 92.5670135,57.980275 92.2092611,58.1610959 C91.9562263,58.3214022 91.8114656,58.6075129 91.8322167,58.9063014 C91.8208756,59.2221249 91.9650165,59.523464 92.2180296,59.7128767 C92.5195297,59.925859 92.8840896,60.0308855 93.2527094,60.0109589 C93.7354558,60.021646 94.2098528,59.8839391 94.6118227,59.6164384 Z" id="Shape" fill-rule="nonzero"></path>
                <path d="M102.029951,60.4931507 C101.573322,60.8003977 101.037049,60.9679572 100.4867,60.9753425 C100.020765,60.994469 99.5663975,60.8272624 99.2240394,60.5106849 C98.8741666,60.1275878 98.6994534,59.6162335 98.7417734,59.0991781 L98.7417734,55.4958904 L97.8123153,55.4958904 L97.8123153,54.6191781 L98.7417734,54.6191781 L98.7417734,52.8657534 L99.9079803,52.8657534 L99.9079803,54.6191781 L101.915961,54.6191781 L101.915961,55.4958904 L99.9079803,55.4958904 L99.9079803,58.9150685 C99.8847552,59.1905014 99.955871,59.4656464 100.109655,59.6953425 C100.261794,59.8611913 100.481426,59.9483846 100.705911,59.9320548 C101.063689,59.915868 101.41114,59.8071174 101.714286,59.6164384 L102.029951,60.4931507 Z" id="Path"></path>
                <path d="M108.29064,55.2328767 C108.847339,55.9424581 109.124942,56.8312742 109.071034,57.7315068 C109.071034,57.8980822 109.071034,58.0208219 109.071034,58.099726 L103.880099,58.099726 C103.946908,58.6412819 104.208751,59.1399545 104.61665,59.5024658 C105.029403,59.8525846 105.557514,60.0369264 106.098522,60.019726 C106.471421,60.0234598 106.841237,59.9518936 107.185813,59.8093151 C107.515539,59.6721648 107.813882,59.4693229 108.06266,59.2131507 L108.69399,59.8706849 C108.368001,60.2205119 107.970162,60.4956667 107.527783,60.6772603 C107.046597,60.874237 106.530756,60.9726193 106.010837,60.9665753 C105.400362,60.9842255 104.795857,60.8421888 104.257143,60.5545205 C103.763195,60.2836125 103.358178,59.8756136 103.090936,59.379726 C102.536765,58.2980619 102.536765,57.0159107 103.090936,55.9342466 C103.359546,55.4400686 103.760281,55.0302896 104.248374,54.7506849 C104.767155,54.4589123 105.354327,54.3106288 105.949458,54.3210959 C106.827997,54.2527396 107.689812,54.5883761 108.29064,55.2328767 Z M108.027586,57.2142466 C108.033757,56.683009 107.817479,56.1733915 107.431084,55.8087045 C107.04469,55.4440175 106.523382,55.2574868 105.9933,55.2942466 C105.462652,55.2755292 104.944966,55.4606127 104.546502,55.8115068 C104.150882,56.1779702 103.904257,56.6773885 103.853793,57.2142466 L108.027586,57.2142466 Z" id="Shape" fill-rule="nonzero"></path>
                <path d="M115.366798,63.0268493 C115.017306,63.2858722 114.591695,63.4215533 114.156749,63.4126027 C113.894392,63.4163909 113.633351,63.374868 113.385123,63.289863 C113.143007,63.1993796 112.917756,63.0689915 112.718719,62.9041096 L113.218522,62.0273973 C113.471232,62.2193804 113.778076,62.3267593 114.095369,62.3342466 C114.617823,62.3154215 115.068113,61.9609171 115.208966,61.4575342 L115.454483,60.8789041 L112.736256,54.3912329 L113.990148,54.3912329 L116.077044,59.6515068 L118.049951,54.3912329 L119.233695,54.3912329 L116.226108,61.8871233 C116.050216,62.3389632 115.752828,62.7333965 115.366798,63.0268493 Z" id="Path"></path>
                <path d="M124.512315,54.7682192 C125.01215,55.0402417 125.425388,55.4473403 125.704828,55.9430137 C126.27539,57.020666 126.27539,58.3108408 125.704828,59.3884932 C125.427081,59.8876909 125.013626,60.2980425 124.512315,60.5720548 C123.411452,61.1369889 122.10579,61.1369889 121.004926,60.5720548 C120.505374,60.2996506 120.09223,59.8926449 119.812414,59.3972603 C119.240294,58.316892 119.240294,57.0233819 119.812414,55.9430137 C120.09223,55.4476291 120.505374,55.0406233 121.004926,54.7682192 C122.10579,54.2032851 123.411452,54.2032851 124.512315,54.7682192 Z M121.618719,55.6449315 C121.286554,55.8411698 121.016163,56.1267072 120.838325,56.4690411 C120.646925,56.8400577 120.550518,57.2527355 120.557734,57.670137 C120.551918,58.0929943 120.648169,58.5110189 120.838325,58.8887671 C121.013773,59.2327953 121.284732,59.5189323 121.618719,59.7128767 C122.329455,60.0995351 123.187786,60.0995351 123.898522,59.7128767 C124.23251,59.5189323 124.503468,59.2327953 124.678916,58.8887671 C124.871076,58.5117442 124.967442,58.0932175 124.959507,57.670137 C124.96709,57.2526965 124.870663,56.83993 124.678916,56.4690411 C124.501078,56.1267072 124.230687,55.8411698 123.898522,55.6449315 C123.189915,55.2499959 122.327326,55.2499959 121.618719,55.6449315 Z" id="Shape" fill-rule="nonzero"></path>
                <path d="M133.578916,54.3561644 L133.578916,60.9227397 L132.403941,60.9227397 L132.403941,59.5638356 C131.970455,60.5031933 130.997854,61.0733714 129.966305,60.9928767 C129.31328,61.0215101 128.677833,60.7769007 128.212611,60.3178082 C127.761682,59.8033894 127.528935,59.1335578 127.563744,58.450411 L127.563744,54.3561644 L128.729951,54.3561644 L128.729951,58.1084932 C128.698872,58.5850405 128.863542,59.0536455 129.185911,59.4060274 C129.517942,59.7278127 129.969334,59.8962643 130.431034,59.8706849 C130.989538,59.8864244 131.524981,59.6477696 131.886601,59.2219178 C132.259869,58.7624056 132.453111,58.1827688 132.430246,57.5912329 L132.430246,54.3561644 L133.578916,54.3561644 Z" id="Path"></path>
                <path d="M137.893005,54.7331507 C138.320691,54.481838 138.808673,54.3515276 139.304729,54.3561644 L139.304729,55.469589 C138.722335,55.4084721 138.140689,55.5917251 137.698547,55.9756314 C137.256405,56.3595377 136.993415,56.9096721 136.972315,57.4947945 L136.972315,61.0016438 L135.823645,61.0016438 L135.823645,54.3561644 L136.981084,54.3561644 L136.981084,55.7676712 C137.176083,55.3402744 137.493426,54.9802679 137.893005,54.7331507 Z" id="Path"></path>
                <path d="M149.940887,51.7260274 L149.940887,60.9578082 L148.783448,60.9578082 L148.783448,59.6164384 C148.548974,60.0377692 148.203174,60.3865485 147.783842,60.6246575 C147.337384,60.8660548 146.835702,60.9869234 146.328276,60.9753425 C145.749686,60.9868104 145.179185,60.8381391 144.679803,60.5457534 C144.204043,60.2606823 143.818131,59.8474865 143.566207,59.3534247 C143.293555,58.809897 143.158087,58.2079107 143.171626,57.6 C143.154055,56.9916935 143.289742,56.388734 143.566207,55.8465753 C143.832198,55.3901397 144.21707,55.0144175 144.679803,54.7594521 C145.175124,54.473658 145.738955,54.3281756 146.310739,54.3386301 C146.823567,54.3287683 147.330483,54.4494439 147.783842,54.6893151 C148.204907,54.9222232 148.549158,55.2725139 148.77468,55.6975342 L148.77468,51.7260274 L149.940887,51.7260274 Z M147.713695,59.7041096 C148.049418,59.5056666 148.322807,59.217133 148.502857,58.8712329 C148.697645,58.501133 148.797096,58.0883245 148.792217,57.670137 C148.79891,57.2461566 148.699439,56.8272352 148.502857,56.4515068 C148.322424,56.1058801 148.049124,55.8174413 147.713695,55.6186301 C147.365153,55.4164025 146.967936,55.313324 146.565025,55.3205479 C146.16106,55.3141558 145.763301,55.4204109 145.416355,55.6273973 C145.076327,55.8399175 144.802877,56.1437038 144.627192,56.5041096 C144.244274,57.2621641 144.244274,58.1570139 144.627192,58.9150685 C144.807242,59.2609686 145.080632,59.5495022 145.416355,59.7479452 C146.130389,60.14601 146.999661,60.14601 147.713695,59.7479452 L147.713695,59.7041096 Z" id="Shape" fill-rule="nonzero"></path>
                <path d="M156.271724,60.9578082 L156.271724,60.0810959 C155.709779,60.7588791 154.851825,61.1190334 153.974384,61.0454795 C153.558798,61.0539369 153.147123,60.9638029 152.773103,60.7824658 C152.444148,60.6235976 152.167341,60.374206 151.975172,60.0635616 C151.786642,59.7517773 151.689425,59.3933427 151.694581,59.0290411 C151.67359,58.4869914 151.915149,57.9680467 152.343448,57.6350685 C152.873426,57.2634033 153.511906,57.0783653 154.158522,57.1090411 L156.245419,57.1090411 L156.245419,56.8021918 C156.268014,56.3995831 156.110608,56.0077349 155.815764,55.7326027 C155.460801,55.4589178 155.017826,55.324798 154.57064,55.3556164 C153.838687,55.3794637 153.131685,55.6273352 152.545123,56.0657534 L152.062857,55.2679452 C152.469635,54.993544 152.908377,54.7697904 153.36936,54.6016438 C153.834549,54.4566989 154.320269,54.3885901 154.807389,54.4 C155.495108,54.3556389 156.17435,54.5715857 156.710148,55.0049315 C157.171924,55.4400088 157.421564,56.0544141 157.394089,56.6882192 L157.394089,61.010411 L156.271724,60.9578082 Z M155.579015,59.6164384 C155.938332,59.3806464 156.183028,59.0057163 156.254187,58.5819178 L156.254187,57.9243836 L154.325123,57.9243836 C153.925092,57.89854 153.525437,57.980275 153.167685,58.1610959 C152.91465,58.3214022 152.769889,58.6075129 152.79064,58.9063014 C152.779299,59.2221249 152.92344,59.523464 153.176453,59.7128767 C153.477953,59.925859 153.842513,60.0308855 154.211133,60.0109589 C154.696851,60.023456 155.174578,59.8856714 155.579015,59.6164384 Z" id="Shape" fill-rule="nonzero"></path>
                <path d="M162.997143,60.4931507 C162.540514,60.8003977 162.004241,60.9679572 161.453892,60.9753425 C160.987957,60.994469 160.53359,60.8272624 160.191232,60.5106849 C159.841359,60.1275878 159.666646,59.6162335 159.708966,59.0991781 L159.708966,55.4958904 L158.779507,55.4958904 L158.779507,54.6191781 L159.708966,54.6191781 L159.708966,52.8657534 L160.875172,52.8657534 L160.875172,54.6191781 L162.883153,54.6191781 L162.883153,55.4958904 L160.875172,55.4958904 L160.875172,58.9150685 C160.851947,59.1905014 160.923063,59.4656464 161.076847,59.6953425 C161.228986,59.8611913 161.448618,59.9483846 161.673103,59.9320548 C162.033082,59.9200197 162.383685,59.8142506 162.690246,59.6252055 L162.997143,60.4931507 Z" id="Path"></path>
                <path d="M168.407291,60.9578082 L168.407291,60.0810959 C167.845345,60.7588791 166.987391,61.1190334 166.109951,61.0454795 C165.694364,61.0539369 165.282689,60.9638029 164.90867,60.7824658 C164.579714,60.6235976 164.302908,60.374206 164.110739,60.0635616 C163.922209,59.7517773 163.824991,59.3933427 163.830148,59.0290411 C163.809157,58.4869914 164.050715,57.9680467 164.479015,57.6350685 C165.008993,57.2634033 165.647472,57.0783653 166.294089,57.1090411 L168.380985,57.1090411 L168.380985,56.8021918 C168.40358,56.3995831 168.246174,56.0077349 167.95133,55.7326027 C167.596368,55.4589178 167.153392,55.324798 166.706207,55.3556164 C165.974253,55.3794637 165.267252,55.6273352 164.68069,56.0657534 L164.198424,55.2679452 C164.605201,54.993544 165.043943,54.7697904 165.504926,54.6016438 C165.970115,54.4566989 166.455835,54.3885901 166.942956,54.4 C167.630675,54.3556389 168.309916,54.5715857 168.845714,55.0049315 C169.30749,55.4400088 169.557131,56.0544141 169.529655,56.6882192 L169.529655,61.010411 L168.407291,60.9578082 Z M167.72335,59.6164384 C168.082667,59.3806464 168.327363,59.0057163 168.398522,58.5819178 L168.398522,57.9243836 L166.478227,57.9243836 C166.078195,57.89854 165.678541,57.980275 165.320788,58.1610959 C165.067753,58.3214022 164.922993,58.6075129 164.943744,58.9063014 C164.932403,59.2221249 165.076544,59.523464 165.329557,59.7128767 C165.631057,59.925859 165.995617,60.0308855 166.364236,60.0109589 C166.846983,60.021646 167.32138,59.8839391 167.72335,59.6164384 Z" id="Shape" fill-rule="nonzero"></path>
            </g>
        </g>
    </g>
</svg>