<?xml version="1.0" encoding="UTF-8"?>
<svg width="320px" height="43px" viewBox="0 0 320 43" version="1.1" xmlns="http://www.w3.org/2000/svg" xmlns:xlink="http://www.w3.org/1999/xlink">
    <!-- Generator: Sketch 52.5 (67469) - http://www.bohemiancoding.com/sketch -->
    <title>path1464@3x</title>
    <desc>Created with Sketch.</desc>
    <g id="Page-1" stroke="none" stroke-width="1" fill="none" fill-rule="evenodd">
        <g id="Grafiken" transform="translate(-334.000000, -1379.000000)" fill="#ffffff">
            <path d="M645.811384,1403.57637 C645.811384,1405.79216 647.213307,1406.6478 648.298187,1406.6478 C649.70011,1406.6478 649.70011,1404.93156 651.468613,1404.93156 C652.870536,1404.93156 654,1405.88118 654,1407.59742 C654,1409.54118 652.642661,1410.26329 651.106986,1410.26329 C648.753936,1410.26329 646.712974,1408.18599 645.900553,1406.87532 L645.811384,1409.99126 L645.311052,1410.26329 C642.735081,1409.08615 640.287908,1408.0475 637.890274,1407.59742 L637.890274,1406.51426 L639.341734,1406.24224 C640.471198,1406.05924 640.743657,1405.60916 640.743657,1404.12043 L640.743657,1391.82977 C640.743657,1390.83563 639.792529,1390.65758 638.256854,1390.65758 L637.801105,1390.65758 L637.801105,1389.29745 C639.703361,1389.34691 641.556078,1389.48045 643.458334,1389.48045 C645.58351,1389.48045 647.708686,1389.34691 649.838816,1389.29745 L649.838816,1390.65758 L649.160147,1390.65758 C647.034971,1390.65758 645.811384,1390.65758 645.811384,1391.69623 L645.811384,1403.57637 Z M548.915244,1393.90706 C548.915244,1390.83563 550.406335,1388.6248 554.433766,1388.6248 C557.059275,1388.6248 559.6402,1390.56361 561.582086,1392.19082 L561.582086,1388.98585 L562.037835,1388.6248 C564.257133,1389.52496 566.877688,1389.88601 569.230738,1390.29653 L569.230738,1391.37969 L567.8734,1391.37969 C566.927226,1391.37969 566.654767,1391.78525 566.654767,1393.0069 L566.654767,1405.9257 C566.654767,1407.3254 566.699351,1408.7251 566.877688,1409.99126 L566.426893,1410.26329 C564.301717,1409.40269 560.546744,1409.08615 558.238277,1408.95261 L558.238277,1407.86945 L560.50216,1407.14734 C561.403749,1406.8308 561.582086,1406.6478 561.582086,1405.69818 L561.582086,1394.13458 C560.546744,1393.27398 559.006115,1392.23533 557.331734,1392.23533 C555.251142,1392.23533 553.982971,1393.27398 553.982971,1395.93984 L553.982971,1405.9257 C553.982971,1407.3254 554.116724,1408.7251 554.210846,1409.99126 L553.760051,1410.26329 C551.585337,1409.54118 548.687369,1409.08615 546.066814,1408.95261 L546.066814,1407.86945 L547.964116,1407.3254 C548.781491,1407.09788 548.915244,1406.8308 548.915244,1406.15321 L548.915244,1393.90706 Z M551.669551,1415.83241 C551.669551,1414.43271 552.803969,1413.30504 554.205892,1413.30504 C555.607815,1413.30504 556.742233,1414.43271 556.742233,1415.83241 C556.742233,1417.23706 555.607815,1418.36473 554.205892,1418.36473 C552.803969,1418.36473 551.669551,1417.23706 551.669551,1415.83241 Z M558.916947,1415.83241 C558.916947,1414.43271 560.051365,1413.30504 561.453287,1413.30504 C562.85521,1413.30504 563.984674,1414.43271 563.984674,1415.83241 C563.984674,1417.23706 562.85521,1418.36473 561.453287,1418.36473 C560.051365,1418.36473 558.916947,1417.23706 558.916947,1415.83241 Z M545.611066,1419.09179 C545.566481,1416.53474 545.665557,1414.0865 545.957831,1411.54428 L544.352803,1411.31182 C543.064817,1415.92639 540.805889,1419.37865 535.847145,1419.37865 C529.858012,1419.37865 526.974906,1412.79066 526.974906,1405.09478 C526.974906,1397.73522 529.47657,1390.89499 536.694243,1390.89499 C540.929734,1390.89499 543.728625,1392.77444 546.012323,1395.71728 L546.388811,1395.58374 L545.432729,1391.63688 C542.80722,1389.45077 539.403966,1388.56545 535.797607,1388.56545 C526.766847,1388.56545 520.287289,1394.60444 520.287289,1405.09478 C520.287289,1414.4525 526.702447,1421.51035 535.594501,1421.51035 C537.85343,1421.51035 539.275168,1421.10973 540.746443,1420.62997 C542.658606,1420.00679 543.555243,1419.60617 545.616019,1419.27479 L545.611066,1419.09179 Z M503.627692,1405.38164 C504.623404,1406.01472 506.297785,1406.91983 507.788876,1406.91983 C509.824884,1406.91983 511.226806,1405.88118 511.226806,1403.12629 L511.226806,1391.82977 C511.226806,1390.65758 509.919006,1390.65758 509.012462,1390.65758 L508.561667,1390.65758 L508.561667,1389.29745 C510.3698,1389.39142 512.13335,1389.48045 513.946437,1389.48045 C515.665402,1389.48045 517.339784,1389.39142 519.058749,1389.29745 L519.058749,1390.65758 L518.513832,1390.65758 C517.428952,1390.65758 516.299488,1390.65758 516.299488,1391.91879 L516.299488,1404.43697 C516.299488,1408.68058 513.946437,1410.26329 510.686843,1410.26329 C507.927582,1410.26329 505.619115,1408.31953 503.627692,1406.96434 L503.627692,1421.59443 L503.127359,1422 C500.913015,1420.96135 497.925879,1419.82873 495.889871,1419.33414 L495.889871,1418.24603 L497.380962,1417.66241 C498.426212,1417.2519 498.559964,1416.84633 498.559964,1415.8522 L498.559964,1392.05728 C498.559964,1390.65758 497.336378,1390.65758 495.889871,1390.65758 L495.889871,1389.29745 C497.65342,1389.39142 499.466508,1389.48045 501.319225,1389.48045 C503.038191,1389.48045 504.757156,1389.39142 506.476121,1389.29745 L506.476121,1390.65758 L505.797452,1390.65758 C504.667988,1390.65758 503.627692,1390.65758 503.627692,1391.74074 L503.627692,1405.38164 Z M495.384584,1409.58569 L489.99486,1409.58569 L489.99486,1414.32885 L489.454897,1414.60087 C487.418889,1412.02404 484.659628,1409.4472 482.217409,1408.14148 L482.217409,1407.05337 L484.932087,1407.05337 L484.932087,1393.27398 C484.932087,1390.79112 486.061551,1388.6248 489.499481,1388.6248 C492.080406,1388.6248 493.982662,1390.11353 495.657043,1392.28479 L495.067542,1393.05141 C494.205582,1392.50736 493.526913,1392.23533 492.397449,1392.23533 C491.129278,1392.23533 489.99486,1392.77939 489.99486,1394.67863 L489.99486,1407.05337 L495.384584,1407.05337 L495.384584,1409.58569 Z M451.176959,1403.57637 C451.176959,1405.79216 452.578881,1406.6478 453.663761,1406.6478 C455.070638,1406.6478 455.070638,1404.93156 456.834187,1404.93156 C458.23611,1404.93156 459.365574,1405.88118 459.365574,1407.59742 C459.365574,1409.54118 458.008236,1410.26329 456.472561,1410.26329 C454.11951,1410.26329 452.083502,1408.18599 451.266127,1406.87532 L451.176959,1409.99126 L450.68158,1410.26329 C448.100655,1409.08615 445.658436,1408.0475 443.255848,1407.59742 L443.255848,1406.51426 L444.707308,1406.24224 C445.836773,1406.05924 446.109231,1405.60916 446.109231,1404.12043 L446.109231,1391.82977 C446.109231,1390.83563 445.158103,1390.65758 443.622428,1390.65758 L443.16668,1390.65758 L443.16668,1389.29745 C445.068935,1389.34691 446.921653,1389.48045 448.823908,1389.48045 C450.949084,1389.48045 453.079214,1389.34691 455.20439,1389.29745 L455.20439,1390.65758 L454.525721,1390.65758 C452.400545,1390.65758 451.176959,1390.65758 451.176959,1391.69623 L451.176959,1403.57637 Z M434.82945,1392.05728 C434.82945,1390.65758 433.610818,1390.65758 432.159357,1390.65758 L432.159357,1389.29745 C433.833738,1389.39142 435.69141,1389.48045 437.544127,1389.48045 C439.307677,1389.48045 441.031596,1389.39142 442.750561,1389.29745 L442.750561,1390.65758 L442.250228,1390.65758 C440.982058,1390.65758 439.897178,1390.74661 439.897178,1392.05728 L439.897178,1421.59443 L439.401799,1422 C437.182501,1420.96135 434.195365,1419.82873 432.159357,1419.33414 L432.159357,1418.24603 C432.65969,1418.06798 433.155069,1417.84046 433.655402,1417.66241 C434.695698,1417.2519 434.82945,1416.84633 434.82945,1415.8522 L434.82945,1392.05728 Z M601.133149,1405.97021 C602.222982,1406.6478 603.486199,1407.19186 604.798954,1407.19186 C609.27718,1407.19186 611.090267,1402.31021 611.090267,1398.56119 C611.090267,1395.12871 609.916219,1391.01863 605.750081,1391.01863 C603.307863,1391.01863 601.72265,1393.18496 601.133149,1393.90706 L601.133149,1405.97021 Z M596.065421,1381.26029 C596.065421,1380.3997 594.980541,1380.35519 593.851077,1380.35519 L593.261576,1380.35519 L593.261576,1379 C595.252999,1379.04451 597.244423,1379.17805 599.235847,1379.17805 C601.271855,1379.17805 603.263278,1379.04451 605.299286,1379 L605.299286,1380.35519 L604.437327,1380.35519 C602.584609,1380.35519 601.133149,1380.35519 601.133149,1381.7994 L601.133149,1389.66345 C602.222982,1389.25788 603.669489,1389.03037 605.16058,1389.03037 C611.001099,1389.03037 616.157995,1394.31263 616.157995,1401.27157 C616.157995,1406.05924 613.260028,1410.26329 608.147716,1410.26329 C605.522207,1410.26329 603.035404,1409.13561 601.133149,1407.36991 L601.133149,1410.26329 L600.726938,1410.57983 C598.418471,1409.31366 595.931669,1408.40856 593.400282,1407.64194 L593.400282,1406.8308 C593.895661,1406.73683 594.346456,1406.60329 594.841835,1406.51426 C595.525458,1406.33126 596.065421,1406.15321 596.065421,1405.33713 L596.065421,1381.26029 Z M395.570661,1405.97021 C396.655541,1406.6478 397.923712,1407.19186 399.236466,1407.19186 C403.714693,1407.19186 405.52778,1402.31021 405.52778,1398.56119 C405.52778,1395.12871 404.348778,1391.01863 400.187594,1391.01863 C397.740421,1391.01863 396.160162,1393.18496 395.570661,1393.90706 L395.570661,1405.97021 Z M390.502934,1381.26029 C390.502934,1380.3997 389.418053,1380.35519 388.283635,1380.35519 L387.699088,1380.35519 L387.699088,1379 C389.690512,1379.04451 391.681936,1379.17805 393.668406,1379.17805 C395.704414,1379.17805 397.695837,1379.04451 399.731845,1379 L399.731845,1380.35519 L398.874839,1380.35519 C397.017168,1380.35519 395.570661,1380.35519 395.570661,1381.7994 L395.570661,1389.66345 C396.655541,1389.25788 398.107002,1389.03037 399.598093,1389.03037 C405.433658,1389.03037 410.595508,1394.31263 410.595508,1401.27157 C410.595508,1406.05924 407.69754,1410.26329 402.585228,1410.26329 C399.959719,1410.26329 397.472917,1409.13561 395.570661,1407.36991 L395.570661,1410.26329 L395.16445,1410.57983 C392.855984,1409.31366 390.369181,1408.40856 387.832841,1407.64194 L387.832841,1406.8308 C388.333173,1406.73683 388.783968,1406.60329 389.279347,1406.51426 C389.958017,1406.33126 390.502934,1406.15321 390.502934,1405.33713 L390.502934,1381.26029 Z M343.243773,1399.54049 L342.010279,1395.76179 C341.509946,1394.23844 341.069059,1393.05141 341.069059,1392.23533 C341.069059,1390.88015 342.946546,1390.65758 344.44259,1390.65758 L344.937969,1390.65758 L344.937969,1389.29745 C343.129836,1389.39142 340.697525,1389.48045 338.889391,1389.48045 C337.259594,1389.48045 335.629797,1389.39142 334,1389.29745 L334,1390.65758 L334.272458,1390.65758 C336.036008,1390.65758 337.527099,1391.69623 338.205768,1393.59052 L345.44821,1414.32885 C346.037711,1416.00058 346.850132,1418.26087 347.122591,1419.92765 C348.569098,1420.42719 350.367324,1421.32735 351.239191,1421.87141 C351.363035,1421.95054 351.481926,1422 351.615679,1422 C351.769246,1422 351.883183,1421.92086 351.942629,1421.7527 L352.329025,1420.69922 L360.651392,1397.07246 C361.196309,1395.48976 361.736273,1393.81804 362.325774,1392.46285 C362.870691,1391.19669 363.821818,1390.65758 365.312909,1390.65758 L365.585368,1390.65758 L365.585368,1389.29745 C363.54936,1389.39142 361.513352,1389.48045 359.338638,1389.48045 C357.124294,1389.48045 354.860411,1389.39142 352.551945,1389.29745 L352.551945,1390.65758 L353.047324,1390.65758 C354.092574,1390.65758 355.821447,1390.83563 355.821447,1391.96331 C355.821447,1392.55187 355.405328,1393.77352 354.914903,1395.22268 L353.458489,1399.54049 L343.243773,1399.54049 Z M348.276824,1414.90752 L344.051241,1402.01346 L352.626252,1402.01346 L348.276824,1414.90752 Z M371.832097,1405.97021 C372.921931,1406.6478 374.185148,1407.19186 375.497902,1407.19186 C379.976129,1407.19186 381.789216,1402.31021 381.789216,1398.56119 C381.789216,1395.12871 380.610214,1391.01863 376.44903,1391.01863 C374.006811,1391.01863 372.421599,1393.18496 371.832097,1393.90706 L371.832097,1405.97021 Z M366.76437,1381.26029 C366.76437,1380.3997 365.67949,1380.35519 364.550026,1380.35519 L363.960524,1380.35519 L363.960524,1379 C365.951948,1379.04451 367.943372,1379.17805 369.934796,1379.17805 C371.970804,1379.17805 373.962227,1379.04451 375.998235,1379 L375.998235,1380.35519 L375.136276,1380.35519 C373.283558,1380.35519 371.832097,1380.35519 371.832097,1381.7994 L371.832097,1389.66345 C372.921931,1389.25788 374.368438,1389.03037 375.859529,1389.03037 C381.700048,1389.03037 386.856944,1394.31263 386.856944,1401.27157 C386.856944,1406.05924 383.958976,1410.26329 378.846665,1410.26329 C376.221156,1410.26329 373.734353,1409.13561 371.832097,1407.36991 L371.832097,1410.26329 L371.425887,1410.57983 C369.11742,1409.31366 366.630618,1408.40856 364.094277,1407.64194 L364.094277,1406.8308 C364.59461,1406.73683 365.045405,1406.60329 365.545737,1406.51426 C366.224407,1406.33126 366.76437,1406.15321 366.76437,1405.33713 L366.76437,1381.26029 Z M478.987538,1406.01967 L478.987538,1393.0069 C478.987538,1391.61215 479.413564,1391.37969 480.206171,1391.37969 L481.568463,1391.37969 L481.568463,1390.29653 C479.309534,1389.93053 476.332306,1389.45077 474.370605,1388.6248 L473.939626,1388.99574 L473.939626,1391.51817 C471.769865,1389.88601 469.832933,1388.55556 467.029088,1388.55556 C461.396628,1388.55556 458.394631,1393.04647 458.394631,1398.53646 C458.394631,1405.55475 463.68528,1410.26329 469.431676,1410.26329 C472.706132,1410.26329 474.633156,1409.6302 476.352122,1408.57177 C476.986207,1408.97734 478.170163,1409.58075 478.764618,1410.26329 L479.215412,1409.99126 C479.151013,1409.40269 478.987538,1408.21072 478.987538,1406.01967 Z M469.397,1408.36404 C465.305169,1408.36404 464.121213,1403.94732 464.121213,1400.36151 C464.121213,1395.50955 465.646981,1391.64677 470.169791,1391.64677 C471.596483,1391.64677 473.062805,1392.3936 473.850457,1392.97723 L473.850457,1405.45089 C473.156927,1406.77145 471.725281,1408.36404 469.397,1408.36404 Z M577.399539,1405.97021 C578.484419,1406.6478 579.752589,1407.19186 581.065344,1407.19186 C585.54357,1407.19186 587.356657,1402.31021 587.356657,1398.56119 C587.356657,1395.12871 586.177655,1391.01863 582.016471,1391.01863 C579.569299,1391.01863 577.98904,1393.18496 577.399539,1393.90706 L577.399539,1405.97021 Z M572.331811,1381.26029 C572.331811,1380.3997 571.246931,1380.35519 570.112513,1380.35519 L569.527966,1380.35519 L569.527966,1379 C571.519389,1379.04451 573.510813,1379.17805 575.497283,1379.17805 C577.538245,1379.17805 579.529669,1379.04451 581.560723,1379 L581.560723,1380.35519 L580.703717,1380.35519 C578.846045,1380.35519 577.399539,1380.35519 577.399539,1381.7994 L577.399539,1389.66345 C578.484419,1389.25788 579.935879,1389.03037 581.42697,1389.03037 C587.262535,1389.03037 592.424385,1394.31263 592.424385,1401.27157 C592.424385,1406.05924 589.526418,1410.26329 584.414106,1410.26329 C581.788597,1410.26329 579.301794,1409.13561 577.399539,1407.36991 L577.399539,1410.26329 L576.993328,1410.57983 C574.684862,1409.31366 572.198059,1408.40856 569.661718,1407.64194 L569.661718,1406.8308 C570.162051,1406.73683 570.612846,1406.60329 571.113179,1406.51426 C571.791848,1406.33126 572.331811,1406.15321 572.331811,1405.33713 L572.331811,1381.26029 Z M418.268929,1401.94916 L423.698283,1401.94916 C426.140502,1401.94916 426.502129,1401.99367 426.502129,1403.62089 C426.502129,1405.33713 425.694661,1408.6608 422.68771,1408.6608 C420.052293,1408.6608 418.600833,1406.07902 418.268929,1401.94916 Z M418.194622,1399.99057 C418.194622,1394.36703 421.256065,1391.85944 424.332368,1391.85944 C427.126306,1391.85944 428.909671,1393.04647 430.613775,1394.78249 L431.337028,1394.26812 C429.756769,1391.30055 427.032184,1388.6248 422.306268,1388.6248 C415.935694,1388.6248 412.606746,1393.48171 412.606746,1399.01622 C412.606746,1405.00575 416.341904,1410.26329 422.950261,1410.26329 C428.706565,1410.26329 431.411335,1405.33218 431.322167,1400.86105 L430.782204,1400.36151 L418.194622,1400.36151 L418.194622,1399.99057 Z M623.841324,1401.94916 L629.270678,1401.94916 C631.712897,1401.94916 632.074524,1401.99367 632.074524,1403.62089 C632.074524,1405.33713 631.267056,1408.6608 628.265059,1408.6608 C625.629642,1408.6608 624.173228,1406.07902 623.841324,1401.94916 Z M623.767017,1399.99057 C623.767017,1394.36703 626.82846,1391.85944 629.904763,1391.85944 C632.703655,1391.85944 634.482066,1393.04647 636.191123,1394.78249 L636.914377,1394.26812 C635.329164,1391.30055 632.604579,1388.6248 627.878663,1388.6248 C621.508089,1388.6248 618.179141,1393.48171 618.179141,1399.01622 C618.179141,1405.00575 621.914299,1410.26329 628.522656,1410.26329 C634.283914,1410.26329 636.988684,1405.33218 636.894562,1400.86105 L636.354599,1400.36151 L623.767017,1400.36151 L623.767017,1399.99057 Z" id="path1464" transform="translate(494.000000, 1400.500000) scale(1, -1) translate(-494.000000, -1400.500000) "></path>
        </g>
    </g>
</svg>
