<svg width="320" height="43" xmlns="http://www.w3.org/2000/svg"><path d="M311.811 18.424c0-2.216 1.402-3.072 2.487-3.072 1.402 0 1.402 1.716 3.17 1.716 1.403 0 2.532-.95 2.532-2.665 0-1.944-1.357-2.666-2.893-2.666-2.353 0-4.394 2.077-5.206 3.388l-.09-3.116-.5-.272c-2.576 1.177-5.023 2.216-7.42 2.666v1.083l1.45.272c1.13.183 1.403.633 1.403 2.122v12.29c0 .994-.951 1.172-2.487 1.172h-.456v1.36c1.902-.049 3.755-.182 5.657-.182 2.126 0 4.25.133 6.38.183v-1.36h-.678c-2.125 0-3.349 0-3.349-1.04v-11.88zm-96.896 9.669c0 3.071 1.491 5.282 5.519 5.282 2.625 0 5.206-1.939 7.148-3.566v3.205l.456.361c2.22-.9 4.84-1.261 7.193-1.672V30.62h-1.358c-.946 0-1.218-.405-1.218-1.627V16.074c0-1.4.044-2.8.223-4.065l-.451-.272c-2.125.86-5.88 1.177-8.189 1.31v1.084l2.264.722c.902.316 1.08.5 1.08 1.449v11.563c-1.035.861-2.576 1.9-4.25 1.9-2.08 0-3.349-1.039-3.349-3.705v-9.986c0-1.4.134-2.8.228-4.065l-.45-.272c-2.176.722-5.074 1.177-7.694 1.31v1.084l1.897.544c.817.227.951.494.951 1.172v12.246zm2.755-21.925c0 1.4 1.134 2.527 2.536 2.527a2.529 2.529 0 100-5.06 2.53 2.53 0 00-2.536 2.533zm7.247 0c0 1.4 1.134 2.527 2.536 2.527a2.524 2.524 0 002.532-2.527 2.526 2.526 0 00-2.532-2.533 2.53 2.53 0 00-2.536 2.533zm-13.306-3.26a56.496 56.496 0 00.347 7.548l-1.605.232c-1.288-4.614-3.547-8.067-8.506-8.067-5.989 0-8.872 6.588-8.872 14.284 0 7.36 2.502 14.2 9.72 14.2 4.235 0 7.034-1.88 9.317-4.822l.377.133-.956 3.947c-2.626 2.186-6.029 3.072-9.635 3.072-9.031 0-15.51-6.04-15.51-16.53 0-9.358 6.414-16.415 15.307-16.415 2.258 0 3.68.4 5.151.88 1.913.623 2.81 1.024 4.87 1.355l-.005.183zm-41.983 13.71c.995-.633 2.67-1.538 4.16-1.538 2.037 0 3.439 1.039 3.439 3.794V30.17c0 1.172-1.308 1.172-2.215 1.172h-.45v1.36c1.808-.093 3.571-.182 5.384-.182 1.72 0 3.394.089 5.113.183v-1.36h-.545c-1.085 0-2.215 0-2.215-1.262V17.563c0-4.244-2.353-5.826-5.612-5.826-2.76 0-5.068 1.943-7.06 3.299V.406l-.5-.406c-2.214 1.039-5.201 2.171-7.237 2.666v1.088l1.491.584c1.045.41 1.179.816 1.179 1.81v23.795c0 1.4-1.224 1.4-2.67 1.4v1.36c1.763-.094 3.577-.183 5.43-.183 1.718 0 3.437.089 5.156.183v-1.36h-.679c-1.129 0-2.17 0-2.17-1.084V16.62zm-8.243-4.204h-5.39V7.671l-.54-.272c-2.036 2.577-4.795 5.154-7.238 6.46v1.088h2.715v13.779c0 2.483 1.13 4.65 4.567 4.65 2.581 0 4.484-1.49 6.158-3.66l-.59-.767c-.861.544-1.54.816-2.67.816-1.268 0-2.402-.544-2.402-2.444V14.947h5.39v-2.533zm-44.208 6.01c0-2.216 1.402-3.072 2.487-3.072 1.407 0 1.407 1.716 3.17 1.716 1.402 0 2.532-.95 2.532-2.665 0-1.944-1.358-2.666-2.893-2.666-2.353 0-4.39 2.077-5.207 3.388l-.089-3.116-.495-.272c-2.581 1.177-5.024 2.216-7.426 2.666v1.083l1.451.272c1.13.183 1.402.633 1.402 2.122v12.29c0 .994-.95 1.172-2.487 1.172h-.455v1.36c1.902-.049 3.755-.182 5.657-.182 2.125 0 4.255.133 6.38.183v-1.36h-.678c-2.125 0-3.349 0-3.349-1.04v-11.88zm-16.348 11.519c0 1.4-1.218 1.4-2.67 1.4v1.36c1.675-.094 3.532-.183 5.385-.183 1.764 0 3.488.089 5.207.183v-1.36h-.5c-1.269 0-2.354-.09-2.354-1.4V.406L105.402 0c-2.22 1.039-5.207 2.171-7.243 2.666v1.088c.5.178.996.406 1.496.584 1.04.41 1.174.816 1.174 1.81v23.795zM267.133 16.03c1.09-.678 2.353-1.222 3.666-1.222 4.478 0 6.291 4.882 6.291 8.63 0 3.433-1.174 7.543-5.34 7.543-2.442 0-4.027-2.166-4.617-2.888V16.03zm-5.068 24.71c0 .86-1.084.905-2.214.905h-.59V43c1.992-.045 3.983-.178 5.975-.178 2.036 0 4.027.133 6.063.178v-1.355h-.862c-1.852 0-3.304 0-3.304-1.444v-7.864c1.09.405 2.536.633 4.028.633 5.84 0 10.997-5.283 10.997-12.242 0-4.787-2.898-8.991-8.01-8.991-2.626 0-5.113 1.127-7.015 2.893v-2.893l-.406-.317c-2.309 1.266-4.795 2.171-7.327 2.938v.811c.496.094.946.228 1.442.317.683.183 1.223.36 1.223 1.177V40.74zM61.571 16.03c1.085-.678 2.353-1.222 3.665-1.222 4.479 0 6.292 4.882 6.292 8.63 0 3.433-1.18 7.543-5.34 7.543-2.448 0-4.028-2.166-4.617-2.888V16.03zm-5.068 24.71c0 .86-1.085.905-2.22.905H53.7V43c1.992-.045 3.983-.178 5.97-.178 2.035 0 4.027.133 6.063.178v-1.355h-.857c-1.858 0-3.304 0-3.304-1.444v-7.864c1.085.405 2.536.633 4.027.633 5.836 0 10.998-5.283 10.998-12.242 0-4.787-2.898-8.991-8.01-8.991-2.626 0-5.113 1.127-7.015 2.893v-2.893l-.407-.317c-2.308 1.266-4.795 2.171-7.331 2.938v.811c.5.094.951.228 1.446.317.679.183 1.224.36 1.224 1.177V40.74zM9.243 22.46L8.01 26.238c-.5 1.524-.94 2.71-.94 3.527 0 1.355 1.877 1.577 3.373 1.577h.495v1.36c-1.808-.093-4.24-.182-6.049-.182-1.63 0-3.26.089-4.889.183v-1.36h.272c1.764 0 3.255-1.04 3.934-2.934l7.242-20.738C12.038 6 12.85 3.74 13.123 2.072c1.446-.5 3.244-1.4 4.116-1.943A.69.69 0 0117.616 0c.153 0 .267.08.327.247l.386 1.054 8.322 23.627c.545 1.582 1.085 3.254 1.675 4.61.545 1.265 1.496 1.804 2.987 1.804h.272v1.36c-2.036-.093-4.072-.182-6.246-.182-2.215 0-4.479.089-6.787.183v-1.36h.495c1.046 0 2.774-.179 2.774-1.306 0-.589-.416-1.81-.906-3.26l-1.457-4.317H9.244zm5.034-15.368L10.05 19.987h8.575l-4.35-12.895zm23.555 8.938c1.09-.678 2.353-1.222 3.666-1.222 4.478 0 6.291 4.882 6.291 8.63 0 3.433-1.179 7.543-5.34 7.543-2.442 0-4.027-2.166-4.617-2.888V16.03zm-5.068 24.71c0 .86-1.085.905-2.214.905h-.59V43c1.992-.045 3.983-.178 5.975-.178 2.036 0 4.027.133 6.063.178v-1.355h-.862c-1.852 0-3.304 0-3.304-1.444v-7.864c1.09.405 2.536.633 4.028.633 5.84 0 10.997-5.283 10.997-12.242 0-4.787-2.898-8.991-8.01-8.991-2.626 0-5.113 1.127-7.015 2.893v-2.893l-.406-.317c-2.309 1.266-4.795 2.171-7.332 2.938v.811c.5.094.951.228 1.452.317.678.183 1.218.36 1.218 1.177V40.74zm112.224-24.76v13.013c0 1.395.426 1.627 1.218 1.627h1.362v1.083c-2.258.366-5.236.846-7.197 1.672l-.431-.37v-2.523c-2.17 1.632-4.107 2.962-6.91 2.962-5.633 0-8.635-4.49-8.635-9.98 0-7.019 5.29-11.727 11.037-11.727 3.274 0 5.201.633 6.92 1.691.634-.405 1.818-1.009 2.413-1.691l.45.272c-.064.588-.227 1.78-.227 3.971zm-9.591-2.344c-4.092 0-5.276 4.417-5.276 8.002 0 4.852 1.526 8.715 6.049 8.715 1.426 0 2.893-.747 3.68-1.33V16.549c-.693-1.32-2.125-2.913-4.453-2.913zM243.4 16.03c1.084-.678 2.353-1.222 3.665-1.222 4.479 0 6.292 4.882 6.292 8.63 0 3.433-1.18 7.543-5.34 7.543-2.448 0-4.028-2.166-4.617-2.888V16.03zm-5.068 24.71c0 .86-1.085.905-2.22.905h-.584V43c1.991-.045 3.983-.178 5.97-.178 2.04 0 4.032.133 6.063.178v-1.355h-.857c-1.858 0-3.304 0-3.304-1.444v-7.864c1.084.405 2.536.633 4.027.633 5.836 0 10.997-5.283 10.997-12.242 0-4.787-2.898-8.991-8.01-8.991-2.625 0-5.112 1.127-7.014 2.893v-2.893l-.407-.317c-2.308 1.266-4.795 2.171-7.331 2.938v.811c.5.094.95.228 1.451.317.679.183 1.219.36 1.219 1.177V40.74zM84.269 20.05h5.43c2.442 0 2.803-.044 2.803-1.67 0-1.717-.807-5.04-3.814-5.04-2.636 0-4.087 2.581-4.42 6.71zm-.074 1.96c0 5.623 3.061 8.13 6.137 8.13 2.794 0 4.578-1.186 6.282-2.922l.723.514c-1.58 2.967-4.305 5.643-9.03 5.643-6.371 0-9.7-4.857-9.7-10.391 0-5.99 3.735-11.247 10.343-11.247 5.757 0 8.461 4.93 8.372 9.402l-.54.5H84.195v.37zm205.646-1.96h5.43c2.442 0 2.804-.044 2.804-1.67 0-1.717-.808-5.04-3.81-5.04-2.635 0-4.092 2.581-4.424 6.71zm-.074 1.96c0 5.623 3.061 8.13 6.138 8.13 2.799 0 4.577-1.186 6.286-2.922l.723.514c-1.585 2.967-4.31 5.643-9.035 5.643-6.37 0-9.7-4.857-9.7-10.391 0-5.99 3.735-11.247 10.344-11.247 5.76 0 8.466 4.93 8.372 9.402l-.54.5h-12.588v.37z" fill="#333537" fill-rule="evenodd"/></svg>