<svg width="256" height="50" xmlns="http://www.w3.org/2000/svg"><g fill="#333537" fill-rule="nonzero"><path d="M5.38 29.68c0 11.163 9.08 20.24 20.24 20.24 11.16 0 20.24-9.077 20.24-20.237 0-11.162-9.08-20.24-20.242-20.24-11.16 0-20.239 9.076-20.239 20.236m3.234 0c0-9.375 7.627-17.004 17.005-17.004s17.01 7.63 17.01 17.006c0 9.38-7.63 17.008-17.009 17.008-9.377 0-17.005-7.628-17.005-17.008"/><path d="M0 44.458h51.243L25.618.081 0 44.458zm25.62-37.91l20.02 34.68H5.601l20.02-34.68h-.002zm213.386 24.737l-.103.101c0 1.511-.136 3.361-.375 4.903l.097.208c1.344.72 3.847 1.44 6.385 1.44 7.516 0 10.433-4.733 10.433-8.472 0-3.57-2.233-5.01-6.214-5.594-5.625-.858-7.272-1.407-7.272-4.492 0-2.437 1.68-4.53 5.389-4.53 2.603 0 4.282 1.1 4.833 1.716.208.242.208.618.208 2.677l.098.102 1.1.103.102-.101c0-.961.242-3.43.584-4.632l-.103-.239c-1.68-.928-4.562-1.407-6.483-1.407-5.761 0-9.161 2.95-9.161 7.649 0 9.366 13.486 3.294 13.486 10.191 0 3.26-2.264 5.245-6.178 5.245-3.842 0-5.456-1.952-5.528-2.465-.097-.619-.097-1.028-.097-2.3l-.104-.102h-1.097v-.001zm-7.24-5.216c0 5.56-2.71 10.223-8.3 10.223-5.181 0-9.162-4.764-9.162-12.213 0-5.694 3.635-9.367 8.472-9.367 3.745 0 8.99 2.54 8.99 11.357zm-21.51-.754c0 5.8 2.887 12.625 12.248 12.625 7.825 0 13.315-5.833 13.315-13.036 0-8.094-5.527-11.833-12.45-11.833-7.381 0-13.112 4.56-13.112 12.246v-.002zm-12.588-10.703l.108.103c1.303 0 2.33.172 2.64.445.374.344.48.652.48 8.61v3.47c0 7.959-.103 8.267-.48 8.611-.31.27-1.338.44-2.64.44l-.108.103v.998l.108.101c1.714-.07 3.361-.17 5.007-.17 1.646 0 3.295.1 5.009.17l.102-.101v-.998l-.102-.104c-1.3 0-2.334-.172-2.642-.444-.375-.342-.478-.65-.478-8.608v-3.469c0-7.958.1-8.268.478-8.61.31-.276 1.343-.445 2.642-.445l.102-.104v-.996l-.102-.102c-1.714.07-3.361.173-5.007.173-1.646 0-3.292-.103-5.006-.173l-.108.102v.996l-.003.003zM183.501 24.94l.445 1.167c.51.102 1.303.24 2.4.24 4.53 0 8.028-2.813 8.028-7.206 0-4.666-3.362-5.625-8.303-5.625-1.921 0-3.98.171-6.042.171-1.644 0-3.291-.103-5.005-.172l-.106.1v.996l.106.101c1.305 0 2.333.172 2.638.445.375.344.484.652.484 8.61v3.47c0 7.958-.106 8.268-.483 8.611-.306.271-1.334.442-2.64.442l-.105.104v.997l.106.103c1.714-.07 3.36-.17 5.005-.17 1.65 0 3.299.1 5.046.171l.104-.1v-.997l-.103-.104c-1.336 0-2.366-.17-2.673-.442-.375-.343-.48-.652-.48-8.61 0-8.237.1-10.362.134-11.667.789-.24 1.953-.412 2.951-.412 3.259 0 5.459 1.442 5.459 4.531 0 3.5-2.2 5.215-5.153 5.215-.58 0-1.092-.136-1.507-.272l-.306.306v-.003zm-31.736-10.326l.103.102c1.303 0 2.333.172 2.639.445.375.344.48.652.48 8.61 0 11.22-.136 11.6-.238 11.908-.07.205-.31.375-1.44.894l-.14.172v.653l.102.1c1.201-.139 2.129-.17 2.951-.17 4.045 0 9.23.031 13.792.17l.278-.17c.064-1.89.236-4.15.375-5.592l-.105-.102h-1.097l-.101.102c0 .516-.483 3.294-.893 3.533-.757.447-7.82.447-9.643.447-.066-3.153-.066-6.38-.066-9.57a71.392 71.392 0 013.017-.071c2.917 0 4.049.17 4.222.618.24.616.48 1.958.48 2.472l.1.097h.89l.107-.097c0-1.203-.07-2.577-.07-3.503 0-1.372.07-2.743.07-4.083l-.106-.1h-.891l-.1.103c0 .55-.14 1.819-.448 2.366-.205.375-1.372.48-3.26.48-1.306 0-2.71-.033-4.015-.069 0-2.95 0-5.898.17-8.92.689-.031 1.923-.135 3.328-.135 2.61 0 5.486.241 5.833.55.311.275.311 2.436.311 3.12l.103.105h.993l.103-.104c.104-1.68.243-3.5.413-5.284l-.202-.172c-2.232.067-6.59.17-12.936.17-1.648 0-3.292-.102-5.007-.171l-.103.1v.997l.001-.002zm-21.136 0l.102.102c1.305 0 2.333.172 2.641.445.375.344.484.652.484 8.61 0 11.22-.14 11.6-.242 11.908-.07.205-.311.375-1.477.925l-.102.105v.684l.102.101a24.69 24.69 0 012.952-.17c4.047 0 9.23.031 14.062.17.209-2.125.375-4.458.521-6.036l-.105-.106h-1.098l-.104.105c-.34 1.986-.684 3.291-.991 3.631-.549.619-7.859.619-9.677.619-.072-3.153-.072-6.381-.072-9.57v-2.37c0-7.96.103-8.269.483-8.612.31-.275 1.34-.444 2.642-.444l.1-.104v-.996l-.1-.1c-1.717.07-3.364.172-5.01.172s-3.291-.103-5.008-.172l-.101.101v1l-.002.002zm-8.303.17c-3.5 3.705-7.134 7.653-10.326 10.156v-1.167c0-7.958.101-8.27.482-8.614.308-.273 1.339-.444 2.639-.444l.105-.103v-.997l-.104-.102c-1.716.067-3.36.171-5.008.171-1.65 0-3.297-.102-5.011-.172l-.103.1v.996l.103.101c1.303 0 2.333.173 2.641.445.375.344.481.653.481 8.61v3.47c0 7.959-.104 8.268-.48 8.611-.309.271-1.34.442-2.642.442l-.103.104v.998l.103.102c1.714-.07 3.36-.17 5.01-.17 1.644 0 3.291.1 5.006.172l.105-.102v-.996l-.105-.104c-1.302 0-2.333-.17-2.638-.441-.381-.343-.484-.653-.484-8.611v-1.514l11.29 11.77a20.18 20.18 0 012.471-.17c.992 0 1.986.1 2.98.17l.106-.1v-.998l-.104-.104c-.993 0-1.541-.24-2.914-1.646l-10.36-10.635 6.347-5.867c3.122-2.884 4.356-3.329 5.934-3.43l.1-.104v-.997l-.1-.102c-.86.136-1.715.203-2.539.203-.858 0-2.091-.033-2.745-.204l-.14.1v1.166l.003.007zM85.75 31.285l-.103.101c0 1.511-.139 3.361-.375 4.903l.1.208c1.34.72 3.843 1.44 6.382 1.44 7.514 0 10.43-4.733 10.43-8.472 0-3.57-2.23-5.01-6.21-5.594-5.625-.858-7.273-1.407-7.273-4.492 0-2.437 1.68-4.53 5.387-4.53 2.608 0 4.288 1.1 4.836 1.716.208.242.208.618.208 2.677l.103.102 1.097.103.104-.101c0-.961.239-3.43.58-4.632l-.1-.239c-1.681-.928-4.565-1.407-6.484-1.407-5.764 0-9.161 2.95-9.161 7.649 0 9.366 13.482 3.294 13.482 10.191 0 3.26-2.261 5.245-6.172 5.245-3.845 0-5.459-1.952-5.528-2.465-.102-.619-.102-1.028-.102-2.3l-.102-.102H85.75l-.001-.001zm-11.972-3.328H66.09l3.847-9.164 3.84 9.163zm.308 9.433l.104.102c1.475-.07 3.052-.171 4.63-.171 1.579 0 3.156.1 4.631.17l.102-.1v-.998l-.102-.104c-1.544-.033-1.851-.239-2.232-.889-.923-1.58-1.952-4.05-9.502-21.889h-1.44c-2.402 5.833-5.935 13.961-8.99 20.483-.958 2.056-1.065 2.228-3.155 2.292l-.103.106v.997l.104.101c1.236-.07 2.609-.17 3.945-.17 1.339 0 2.712.1 3.947.17l.101-.101v-.997l-.101-.105c-1.889-.1-2.78-.138-2.78-.958 0-.447.069-.958 2.162-5.728h9.056c1.958 4.802 2.3 5.625 2.3 6.14 0 .342-.07.547-2.573.547l-.104.104v.998z"/><path d="M30.08 22.947c0 .18-.098.347-.258.435a.49.49 0 01-.514 0 .511.511 0 01-.254-.435.513.513 0 01.768-.44.507.507 0 01.253.44h.004zm-3.96-7.093a.807.807 0 01-.39.68.778.778 0 01-.779 0 .812.812 0 01-.397-.68c0-.27.153-.533.39-.675a.778.778 0 011.167.674h.008l.002.001zm-.892 2.622l.014-1.01.422.023v1.023l-.436-.037v.001zm5.28 3.556c-.633-1.472-2.451-3.2-4.245-3.461l.019-1.188c.575-.23.98-.764.98-1.38 0-.834-.726-1.511-1.625-1.511-.897 0-1.625.676-1.625 1.514 0 .577.369 1.069.89 1.319l-.021 1.189c-1.271.25-2.362.951-2.764 1.726-.39.742-.65 1.825.152 2.945.745.833 1.312 1.187 2.48 1.52l.033-2.605c-1.05-.426-.465-1.676.836-1.178l-.024 4.147-.597.162c-1.305.425-2.16.805-2.883 1.55-.814.944-.403 2.175.155 2.722.581.555 1.556.705 2.484.922l-.007-1.743s-1.06-.261-.375-.913c0 0 .247-.194.898-.258v3.258l-.605.171c-1.23.435-2.445 1.334-2.364 2.75.32 1.635 1.532 1.848 2.444 2.064l.003-1.726c-1.146-.282-.246-1.365.528-1.459l-.004 3.9c-.903.306-1.417.462-2.299.887-.523.468-.422 1.094.463 1.037.416-.062.67-.111 1.089-.18l.014 1.416.204.23.037-1.709.588-.153.002 1.816c.121.479.459.462.56.088l.056-2.218c.32-.083.73-.43.958-.808.292-.442.31-.774-.111-1.486a2.77 2.77 0 00-.77-.845l-.036-2.102c.648-.299 1.223-.292 1.878-.74.649-.444.928-1.552.064-2.263-.497-.38-1.236-.5-1.797-.775l.018-1.583c.542-.181 1.083-.25 1.532-.603.791-.618.714-1.678.425-2.16-.44-.736-1.17-1.232-1.875-1.655l.036-1.623c.903.343 1.903 1.142 2.361 2.33.536 1.391 3.19 1.822 1.833-1.34l.007.002z"/></g></svg>