<svg height="100" viewBox="0 0 352 100" width="352" xmlns="http://www.w3.org/2000/svg"><g fill="#282c39" fill-rule="evenodd"><path d="m287.286822 16.8475452h7.751938v22.9198967c1.576227-3.5917313 3.591731-6.8992248 5.994832-9.9483205 2.42894-3.0490956 5.167958-5.6589147 8.217054-7.8294573 3.049096-2.1705427 6.408269-3.7984496 10.02584-4.9095607 3.643411-1.1111112 7.44186-1.6020672 11.447028-1.4987081v8.5271318h-.801033c-4.625323 0-9.069768.878553-13.281654 2.6098192-4.211886 1.7312661-7.932817 4.3152454-11.136951 7.7519379s-5.762274 7.6485788-7.674419 12.635659c-1.886305 5.0129198-2.842377 10.7751938-2.842377 17.3126615v33.0232558h-7.751938v-80.5943153z"/><path d="m40.9302326 99.250646c-4.005168 0-7.7002584-.5167959-11.0594316-1.5762274-3.3850129-1.0594315-6.4082687-2.4806202-9.0956072-4.2635659s-5.1162791-3.8501292-7.2609819-6.1498708c-2.1705426-2.3255814-4.08268735-4.7286822-5.76227392-7.2609819v17.3901809h-7.75193798v-97.36434111h7.75193798v34.75452201c1.67958657-2.635659 3.64341082-5.1679587 5.83979332-7.5968993 2.2222222-2.4289405 4.6511628-4.5219638 7.3385013-6.3307493 2.6873385-1.7829458 5.6847545-3.2299742 9.0180878-4.3410853s6.9767442-1.6537468 10.9819122-1.6537468c4.8320413 0 9.6124031.9560724 14.2894056 2.8423773 4.6770026 1.8863049 8.8630491 4.625323 12.5581396 8.2170543 3.6950904 3.5917312 6.6666666 7.9844961 8.9405685 13.2041343 2.2739018 5.2196383 3.3850129 11.0852713 3.3850129 17.622739v.3100776c0 6.5374677-1.1369509 12.4031007-3.3850129 17.622739-2.2739019 5.2196382-5.2454781 9.6382429-8.9405685 13.2816537-3.6950905 3.6434109-7.881137 6.4341086-12.5581396 8.3720931-4.6770025 1.9638242-9.4573643 2.9198966-14.2894056 2.9198966zm-.6976745-7.4160207c4.4444445 0 8.5788114-.8010336 12.4289406-2.377261 3.8501292-1.5762273 7.2093023-3.8501292 10.0516796-6.7958656s5.0904393-6.5633075 6.7183462-10.8268734c1.627907-4.2635659 2.4547804-9.0956072 2.4547804-14.4702842v-.3100775c0-5.2713179-.8527132-10.0516796-2.5322997-14.3669251-1.6795866-4.3152455-3.9793282-7.9844961-6.8992248-10.9819121-2.8940569-2.9974161-6.2790698-5.3229975-10.129199-6.9509044-3.8501292-1.627907-7.9069767-2.4547804-12.1188631-2.4547804-4.2377261 0-8.3204134.8527132-12.2739018 2.5322997-3.9534883 1.6795866-7.4677002 4.0568476-10.5426356 7.1059432s-5.5297158 6.6925065-7.3643411 10.9043928c-1.83462533 4.2118863-2.76485789 8.9147286-2.76485789 14.0568475v.3100775c0 5.1679587.93023256 9.8708011 2.76485789 14.134367 1.8346253 4.2635658 4.3152455 7.9069767 7.3643411 10.9043927s6.5633075 5.3488372 10.5426356 7.0284238c3.9793282 1.7054263 8.0620155 2.5581395 12.2997416 2.5581395z" fill-rule="nonzero"/><path d="m128.78553 99.250646c-3.79845 0-7.54522-.5167959-11.214471-1.5762274-3.69509-1.0594315-7.002584-2.6356589-9.94832-4.7286822-2.945736-2.0930232-5.348837-4.7286821-7.183463-7.9069767-1.8346248-3.1524548-2.7648574-6.8475452-2.7648574-11.0594315v-.3100776c0-4.2118863.878553-7.9586563 2.6098194-11.2144702 1.731266-3.255814 4.134367-5.9948321 7.183462-8.2170543 3.049096-2.2222222 6.744186-3.9018088 11.059432-5.0645995 4.315245-1.1627907 9.121447-1.7312661 14.392765-1.7312661 5.684754 0 10.594315.3100775 14.702842.9560723 4.108527.6201551 8.113695 1.4728682 12.015504 2.5322998v-3.4625323c0-8.1653747-2.351421-14.2894057-7.028424-18.3720931-4.677002-4.0826873-11.18863-6.124031-19.509044-6.124031-4.96124 0-9.483204.5943153-13.591731 1.8087856-4.108527 1.2144702-8.010336 2.7648578-11.679587 4.6511627l-2.842377-6.7958656c4.418605-2.1447028 8.888889-3.875969 13.436693-5.1679586 4.521963-1.2919897 9.586563-1.9379845 15.167958-1.9379845 11.059432 0 19.534884 2.9457364 25.452197 8.8372093 5.478036 5.4780361 8.217054 13.0749354 8.217054 22.7648578v50.258398h-7.596899v-13.4366925c-1.369509 1.8863049-3.023256 3.7726098-4.98708 5.6072351-1.937985 1.8346253-4.186047 3.4883721-6.718347 4.9095607-2.532299 1.4211887-5.400516 2.5839794-8.604651 3.4883721-3.281654.8527132-6.770026 1.2919897-10.568475 1.2919897zm.465116-7.4160207c4.108527 0 8.010336-.5943152 11.705426-1.8087855 3.695091-1.2144703 6.925065-2.8940569 9.715763-5.0387597 2.790697-2.1447028 5.01292-4.754522 6.640826-7.7777778 1.627907-3.0490956 2.454781-6.4082687 2.454781-10.0775194v-9.121447c-3.385013-.8268734-7.312662-1.6537468-11.860465-2.4289406-4.521964-.7751937-9.689923-1.1886304-15.478036-1.1886304-8.527132 0-15.09044 1.7054263-19.664083 5.116279-4.573644 3.4108527-6.873385 7.9328166-6.873385 13.6175711v.3100775c0 2.9457364.620155 5.5297158 1.886305 7.7777778s2.971576 4.1602067 5.142119 5.7364341c2.170542 1.5762274 4.651162 2.7906977 7.49354 3.6175711 2.842377.8527131 5.788113 1.2661498 8.837209 1.2661498z" fill-rule="nonzero"/><path d="m254.366925 16.7700258v47.881137c0 8.3204134-2.222222 14.9870801-6.640827 20-4.418604 5.0129199-11.18863 8.5788114-19.405685 8.5788114-.413436 0-.801033 0-1.21447 0-8.217054 0-14.883721-3.5917313-19.328165-8.5788114-4.418605-5.0129199-6.640827-11.6537468-6.640827-20v-47.881137h-7.751938v49.3023256c0 4.8578812.723514 9.3023256 2.118863 13.3591731 1.421189 4.0568476 3.540052 7.5710595 6.330749 10.5167959 2.790698 2.9457364 6.175711 5.245478 10.206719 6.873385 4.005168 1.627907 9.431524 2.997416 14.496124 2.997416h2.42894c5.0646 0 10.490956-1.369509 14.496124-2.997416s7.416021-3.9276486 10.206719-6.873385c2.790697-2.9457364 4.90956-6.4599483 6.330749-10.5167959 1.421189-4.0568475 2.118863-8.5012919 2.118863-13.3591731v-49.3023256z"/><path d="m340.361757 76.0206718c3.023256 0 5.710594 1.1627907 7.751938 3.1782946 2.093023 2.0413437 3.307494 4.7803618 3.307494 7.9069768 0 3.1266149-1.214471 5.8914728-3.307494 7.9586563-2.067183 2.0155039-4.754522 3.2041344-7.751938 3.2041344s-5.710594-1.1627907-7.751938-3.2041344c-2.093023-2.0671835-3.307493-4.8320414-3.307493-7.9586563 0-3.1007752 1.21447-5.8656331 3.307493-7.9069768 2.041344-2.0155039 4.728682-3.1782946 7.751938-3.1782946z"/></g></svg>