<?xml version="1.0" encoding="UTF-8"?>
<svg width="211px" height="48px" viewBox="0 0 211 48" version="1.1" xmlns="http://www.w3.org/2000/svg" xmlns:xlink="http://www.w3.org/1999/xlink">
    <!-- Generator: Sketch 52.5 (67469) - http://www.bohemiancoding.com/sketch -->
    <title>Baur_Versand_logo@3x</title>
    <desc>Created with Sketch.</desc>
    <g id="Page-1" stroke="none" stroke-width="1" fill="none" fill-rule="evenodd">
        <g id="Grafiken" transform="translate(-48.000000, -1377.000000)" fill="#ffffff">
            <g id="Baur_Versand_logo" transform="translate(48.000000, 1377.000000)">
                <g id="Group" transform="translate(181.666667, 0.000000)">
                    <rect id="Rectangle" x="0.0633333333" y="0.000166469194" width="13.8213333" height="13.8049573"></rect>
                    <rect id="Rectangle" x="15.4223333" y="0.000166469194" width="13.8213333" height="13.8049573"></rect>
                    <rect id="Rectangle" x="0.0633333333" y="15.3419674" width="13.8213333" height="13.8049573"></rect>
                    <rect id="Rectangle" x="15.4223333" y="15.3419674" width="13.8213333" height="13.8046244"></rect>
                </g>
                <g id="Group">
                    <path d="M159.7535,28.6684923 C167.663833,26.8882707 172.372333,21.6080344 172.372333,14.4891457 L172.372333,14.3647932 C172.372333,10.6150746 171.0345,7.21011374 168.602833,4.77633412 C165.524333,1.69648756 160.767333,0 155.203667,0 L134.8345,0 L134.8345,46.4980089 L142.474667,46.4980089 L142.474667,7.26771209 L154.828333,7.26771209 C161.081833,7.26771209 164.668167,9.9225628 164.668167,14.5517382 L164.668167,14.676923 C164.668167,19.8319745 161.429833,22.3380018 154.766667,22.3380018 L144.001333,22.3380018 L144.001333,29.4795302 L150.849667,29.4795302 L165.5895,46.4290906 L165.6495,46.4980089 L175.2615,46.4980089 L159.7535,28.6684923 Z" id="Path"></path>
                    <path d="M107.218667,47.1881902 C101.412,47.1881902 96.526,45.3681825 93.0901667,41.9274307 C89.5296667,38.3598294 87.6471667,33.1348608 87.6471667,26.8171884 L87.6471667,0 L95.2965,0 L95.2965,26.5037269 C95.2965,35.0312778 99.6876667,39.9214769 107.344167,39.9214769 C114.990667,39.9214769 119.2035,35.2671647 119.2035,26.8173549 L119.2035,0 L126.852667,0 L126.852667,26.4413009 C126.852667,39.4328898 119.512833,47.1881902 107.218667,47.1881902 Z" id="Path"></path>
                    <polygon id="Path" points="66.4036667 0.00166469194 59.7433333 0.00166469194 38.7071667 46.4980089 46.7453333 46.4980089 63.0076667 10.105346 70.8773333 27.7790474 56.8071667 27.7790474 53.6228333 34.9214082 74.0175 34.9214082 79.1481667 46.4980089 87.44 46.4980089"></polygon>
                    <path d="M20.8213333,46.4980089 L0,46.4980089 L0,0 L20.0075,0 C25.2581667,0 29.546,1.47458412 32.4085,4.26244372 C34.5578333,6.48480746 35.6326667,9.15747038 35.6326667,12.2366511 L35.6326667,12.3625018 C35.6326667,16.5342198 33.879,19.9463389 30.5561667,22.2541013 C35.5448333,24.4997707 38.074,28.1384544 38.074,33.0721019 L38.074,33.1974532 C38.074,37.2909307 36.3773333,40.7057133 33.1668333,43.074237 C30.1298333,45.3139135 25.8611667,46.4980089 20.8213333,46.4980089 Z M7.58566667,39.3564805 L20.9466667,39.3564805 C26.8436667,39.3564805 30.3625,36.9375166 30.3625,32.8844911 L30.3625,32.7586404 C30.3625,27.6691777 24.7658333,26.600279 20.0703333,26.600279 L7.58566667,26.600279 L7.58566667,39.3564805 Z M7.58566667,19.521343 L19.1938333,19.521343 C21.8175,19.521343 27.9218333,18.8914236 27.9218333,13.0510184 L27.9218333,12.9250012 C27.9218333,9.25019372 24.8775,7.14252725 19.5698333,7.14252725 L7.58566667,7.14252725 L7.58566667,19.521343 Z" id="Shape" fill-rule="nonzero"></path>
                </g>
            </g>
        </g>
    </g>
</svg>
