<svg width="211" height="48" xmlns="http://www.w3.org/2000/svg"><g fill="#333537" fill-rule="evenodd"><path d="M181.73 0h13.82v13.805h-13.82zM197.089 0h13.82v13.805h-13.82zM181.73 15.342h13.82v13.805h-13.82zM197.089 15.342h13.82v13.805h-13.82z"/><g><path d="M159.754 28.668c7.91-1.78 12.618-7.06 12.618-14.179v-.124c0-3.75-1.338-7.155-3.77-9.589C165.525 1.696 160.768 0 155.205 0h-20.37v46.498h7.64V7.268h12.354c6.254 0 9.84 2.655 9.84 7.284v.125c0 5.155-3.238 7.661-9.901 7.661H144v7.142h6.849l14.74 16.95.06.068h9.612l-15.508-17.83zM107.219 47.188c-5.807 0-10.693-1.82-14.129-5.26-3.56-3.568-5.443-8.793-5.443-15.11V0h7.65v26.504c0 8.527 4.39 13.417 12.047 13.417 7.647 0 11.86-4.654 11.86-13.104V0h7.649v26.441c0 12.992-7.34 20.747-19.634 20.747zM66.404.002h-6.66L38.706 46.498h8.038l16.263-36.393 7.87 17.674h-14.07l-3.185 7.142h20.395l5.13 11.577h8.292z"/><path d="M20.821 46.498H0V0h20.008c5.25 0 9.538 1.475 12.4 4.262 2.15 2.223 3.225 4.895 3.225 7.975v.126c0 4.171-1.754 7.583-5.077 9.891 4.989 2.246 7.518 5.884 7.518 10.818v.125c0 4.094-1.697 7.509-4.907 9.877-3.037 2.24-7.306 3.424-12.346 3.424zM7.586 39.356h13.36c5.898 0 9.416-2.418 9.416-6.472v-.125c0-5.09-5.596-6.159-10.292-6.159H7.586v12.756zm0-19.835h11.608c2.623 0 8.728-.63 8.728-6.47v-.126c0-3.675-3.044-5.782-8.352-5.782H7.586V19.52z" fill-rule="nonzero"/></g></g></svg>