<?xml version="1.0" encoding="UTF-8"?>
<svg width="73px" height="72px" viewBox="0 0 73 72" version="1.1" xmlns="http://www.w3.org/2000/svg" xmlns:xlink="http://www.w3.org/1999/xlink">
    <!-- Generator: Sketch 52.5 (67469) - http://www.bohemiancoding.com/sketch -->
    <title>Group 2@3x</title>
    <desc>Created with Sketch.</desc>
    <g id="Page-1" stroke="none" stroke-width="1" fill="none" fill-rule="evenodd">
        <g id="Group-2" fill="#282C39" fill-rule="nonzero">
            <g id="logo-light">
                <path d="M36.619,0 C16.63,0 0.425,16.079 0.425,35.911 C0.425,55.744 16.63,71.823 36.619,71.823 C56.608,71.823 72.813,55.744 72.813,35.911 C72.813,16.08 56.608,0 36.619,0 Z M70.459,35.911 C70.459,54.454 55.309,69.487 36.619,69.487 C17.929,69.487 2.779,54.454 2.779,35.911 C2.779,17.369 17.93,2.335 36.619,2.335 C55.308,2.335 70.459,17.369 70.459,35.911 Z" id="Shape"></path>
                <g id="Group" transform="translate(10.000000, 4.000000)">
                    <path d="M44.161,16.675 C44.652,17.199 45.361,18.044 45.759,18.557 L53.088,13.941 C52.722,13.466 52.138,12.744 51.703,12.235 L47.061,15.28 L46.744,15.55 L46.98,15.208 L49.03,11.15 L47.58,9.712 L43.488,11.745 L43.144,11.979 L43.418,11.665 L46.488,7.062 C45.948,6.606 45.429,6.188 44.768,5.682 L40.115,12.947 C40.705,13.397 41.482,14.057 41.977,14.507 L46.357,12.252 L46.637,12.047 L46.431,12.326 L44.161,16.676 L44.161,16.675 Z M27.53,7.467 L29.533,3.017 L29.66,2.622 L29.624,3.033 L29.834,8.981 C30.537,9.047 31.263,9.144 31.978,9.262 L31.652,0.453 C30.652,0.343 29.656,0.265 28.66,0.223 L26.687,5.081 L26.617,5.442 L26.547,5.082 L24.577,0.223 C23.58,0.265 22.584,0.343 21.584,0.453 L21.259,9.263 C21.974,9.143 22.699,9.049 23.402,8.981 L23.612,3.033 L23.576,2.622 L23.704,3.016 L25.706,7.467 L27.53,7.467 Z M11.333,14.488 C12.491,13.278 13.146,11.88 11.989,10.546 C11.359,9.822 10.301,9.663 9.424,10.02 L9.337,10.054 L9.365,9.978 C9.495,9.634 9.578,8.536 8.635,7.778 C8.175,7.408 7.599,7.271 7.015,7.33 C5.928,7.44 5.092,8.177 2.815,10.696 C2.127,11.456 1.127,12.656 0.527,13.432 L6.781,19.319 C8.854,17.043 9.699,16.196 11.333,14.488 Z M3.173,13.048 C4.431,11.519 5.77,10.132 6.377,9.583 C6.569,9.41 6.777,9.237 7.03,9.169 C7.441,9.057 7.865,9.347 7.96,9.765 C8.056,10.185 7.79,10.584 7.494,10.913 C6.828,11.659 4.385,14.194 4.385,14.194 L3.172,13.048 L3.173,13.048 Z M5.622,15.354 C5.622,15.354 8.001,12.858 8.778,12.06 C9.086,11.743 9.284,11.55 9.497,11.447 C9.771,11.314 10.071,11.287 10.34,11.464 C10.603,11.64 10.725,11.941 10.659,12.241 C10.58,12.598 10.286,12.938 10.044,13.198 L6.89,16.547 L5.622,15.354 Z" id="Shape"></path>
                </g>
                <path d="M36.619,14.615 L36.619,35.911 L15.155,35.911 C15.155,24.142 24.757,14.615 36.619,14.615 Z M58.083,35.911 C58.083,47.681 48.481,57.207 36.619,57.207 L36.619,35.911 L58.083,35.911 Z" id="Shape"></path>
            </g>
            <path d="M36.6,56.5 C47.9218374,56.5 57.1,47.3218374 57.1,36 C57.1,24.6781626 47.9218374,15.5 36.6,15.5 C25.2781626,15.5 16.1,24.6781626 16.1,36 C16.1,47.3218374 25.2781626,56.5 36.6,56.5 Z M36.6,57.5 C24.7258779,57.5 15.1,47.8741221 15.1,36 C15.1,24.1258779 24.7258779,14.5 36.6,14.5 C48.4741221,14.5 58.1,24.1258779 58.1,36 C58.1,47.8741221 48.4741221,57.5 36.6,57.5 Z" id="Oval"></path>
        </g>
    </g>
</svg>