<svg height="100" viewBox="0 0 465 100" width="465" xmlns="http://www.w3.org/2000/svg"><path d="m93.0885816 82.3883799-5.5964748 17.1007989h-3.6620951l-4.2724441-14.2901617-4.2779552 14.2901617h-3.6111178l-5.647452-17.1007989h3.1661001l4.2986218 14.3135835 4.2738219-14.3135835h3.5918291l4.2738219 14.3135835 4.2999995-14.3135835zm24.4021184 8.527253c.052673 2.6998167-1.239757 5.2493062-3.448542 6.8027066-4.568791 3.0316315-10.511515 3.0220695-15.0705269-.0242486-2.1735917-1.5726484-3.4567167-4.0958982-3.4471295-6.7787385.0095874-2.6828404 1.3107131-5.1968552 3.495489-6.7539288 2.1763714-1.5868058 4.8197364-2.4025728 7.5118414-2.3182247 2.685905-.0911013 5.324143.7255852 7.488833 2.3182247 2.19992 1.5412392 3.498204 4.0682694 3.470035 6.7542093zm-2.954751 0c.027008-1.9487941-.932084-3.7793927-2.549689-4.8665358-1.596113-1.1122149-3.510266-1.675983-5.454428-1.606472-2.094804-.092238-4.154598.5603064-5.814161 1.8419318-1.4396184 1.1006173-2.2714192 2.8191813-2.2414836 4.631076-.0522175 1.8256339.7620075 3.5684234 2.1957416 4.6998264 1.688408 1.2527201 3.759976 1.8791587 5.859628 1.7719414 2.087941.1078484 4.146347-.5291843 5.808374-1.7975679 1.430976-1.1223374 2.245606-2.8562687 2.196018-4.6741999zm27.16784 8.5735459h-3.285966l-4.628458-6.5201274h-8.645879v6.5201274h-2.835024v-17.1010745h13.485686c1.547285-.0888441 3.067083.4367523 4.228907 1.4624959 1.050053 1.0270015 1.60903 2.4551512 1.535104 3.9220789.059769 1.2842828-.389359 2.5403217-1.249907 3.4955235-.857925.8640304-1.982497 1.4130143-3.191451 1.5579747zm-6.334543-9.0940649c2.191746 0 3.286517-.874099 3.284312-2.622297 0-1.8743093-1.180284-2.8111884-3.540852-2.8106373l-9.968531-.0000003v5.4330723zm30.591995 9.0940649h-3.638673l-8.219736-8.9981726-5.151457 3.8012491v5.1969235h-2.834059v-17.1007989h2.834059v8.8576406l11.978274-8.8576406h4.085069l-8.737776 6.4699768zm9.943043-17.1010745h2.832268v17.1009366h-2.832268zm27.752563 17.1010745h-3.495386l-13.085996-14.0311421v14.0311421h-2.832681v-17.1007989h3.518807l13.062575 14.0311421v-14.0311421h2.832681zm26.3624-17.1010745c1.524576-.0807809 3.01918.4449923 4.157401 1.4624959 1.044095 1.012069 1.603227 2.4238232 1.535241 3.8763371.094554 1.4778261-.498879 2.9164563-1.60785 3.8978304-1.334827.9843182-2.976681 1.4608582-4.631076 1.3441459h-10.180431v6.5202652h-2.833508v-17.1010745zm-.497924 8.0068718c2.186052 0 3.280822-.874099 3.284312-2.622297 0-1.8743093-1.157091-2.8111883-3.471275-2.8106373l-10.041828-.0000002v5.4330723zm28.840307 9.0942027h-3.283073l-4.628319-6.5201274h-8.645053v6.5201274h-2.833645v-17.1010745h13.484308c1.546837-.0886108 3.06612.4369787 4.227528 1.4624959 1.051473 1.0262454 1.611556 2.4546511 1.53786 3.9220789.060554 1.2846478-.389229 2.5411399-1.251285 3.4955235-.857757.8634868-1.9817 1.4124009-3.190073 1.5579747zm-6.330547-9.0940649c2.19193 0 3.286241-.874099 3.282934-2.622297 0-1.8737582-1.17716-2.8106373-3.542504-2.8106373h-9.966328v5.433072zm31.816414.520519c.051967 2.6992949-1.239631 5.248262-3.447027 6.8027066-4.569531 3.0318325-10.512978 3.0222715-15.07273-.0242486-2.173049-1.5731242-3.455614-4.0964117-3.445755-6.7790894.00986-2.6826779 1.310939-5.1964694 3.495491-6.7535779 2.175453-1.5863411 4.817707-2.4020943 7.508811-2.3182247 2.686389-.0915434 5.325204.7251716 7.49021 2.3182247 2.200789 1.5405862 3.499598 4.0679375 3.471 6.7542093zm-2.94924 0c.025335-1.9493669-.935161-3.7797749-2.553685-4.8665358-1.597096-1.1124356-3.512233-1.6761943-5.457321-1.606472-2.09257-.0919903-4.150027.5606179-5.806997 1.8419318-1.442209 1.0989184-2.275921 2.8181551-2.245754 4.631076-.051755 1.8258457.762975 3.5686234 2.19712 4.6998264 1.687038 1.2523081 3.757169 1.8787544 5.855493 1.7719414 2.089782.1083075 4.150163-.5287017 5.814162-1.7975679 1.430226-1.1230229 2.24495-2.8563916 2.196982-4.6741999zm28.74469-.2609484c.087438 2.5924515-1.019701 5.0816355-3.003525 6.7528316-2.229039 1.8032687-5.044816 2.7211439-7.908361 2.577933-2.696773.0978099-5.348846-.7087183-7.534574-2.2913582-2.162399-1.5796829-3.437105-4.0997193-3.428326-6.7776454s1.299981-5.1895508 3.47269-6.7550219c2.243929-1.6120994 4.962251-2.4280566 7.723052-2.3182247 3.553975-.0944514 6.959513 1.4257463 9.262152 4.1345301l-2.646546 1.3240306c-3.29-3.27522-8.424583-3.797841-12.307009-1.2526625-1.534561 1.0767117-2.476645 2.8096682-2.545817 4.6830075s.742547 3.6710536 2.193523 4.8580038c1.664922 1.2647092 3.722764 1.90128 5.810993 1.7975679 3.776725 0 6.233139-1.472829 7.369242-4.4184871h-7.961267v-2.5739376h11.504324zm24.208956 8.8344943h-3.282935l-4.629285-6.5201274h-8.64202v6.5201274h-2.834887v-17.1010745h13.485686c1.547176-.0883549 3.066749.437181 4.228769 1.4624959 1.05117 1.0263627 1.610817 2.4548113 1.53662 3.9220789.059869 1.2852896-.391485 2.5420181-1.255418 3.4955235-.85576.8647168-1.979301 1.4139086-3.187319 1.5579747zm-6.329032-9.0940649c2.189173 0 3.283945-.874099 3.284312-2.622297 0-1.8743093-1.1818-2.8111884-3.545398-2.8106373l-9.964536-.0000003v5.4330723zm28.65238 9.0940649h-17.904035v-17.1007989h17.242709v2.5736619h-14.410028v4.3688877h10.016341v2.5764174h-10.016341v5.0067921h15.071354zm18.446323-13.086272c-2.389415-1.2560584-5.045163-1.920905-7.744546-1.9387887-1.366763-.0622845-2.732305.1471829-4.017558.6162736-.92852.4076343-1.392736.9749513-1.392643 1.7019511 0 .7531773.495582 1.3035019 1.486745 1.6509738 1.131015.321419 2.298498.4968539 3.47403.5220346 2.361394.1573405 3.919002.2824414 4.672822.3753027 1.691021.1254915 3.324197.6700095 4.752181 1.5844279 1.024211.7721195 1.59881 2.0019346 1.533865 3.2829345.039991 1.74031-.887201 3.3596085-2.408332 4.206036-2.131143 1.1109126-4.523273 1.6241887-6.922571 1.4853667-4.360621 0-7.753456-.9606685-10.178503-2.8820054l1.558113-2.0545208c2.593565 1.6143793 5.589695 2.4649314 8.644639 2.4540722 1.593475.0780278 3.184093-.2033676 4.654084-.8233514.923135-.346143 1.547724-1.2132532 1.583602-2.198497 0-1.0844376-.697012-1.81107-2.081526-2.1716306-1.937367-.3238166-3.893827-.5206593-5.856871-.5892694-2.027896-.0257216-4.035276-.4097348-5.929481-1.1343126-1.283312-.596838-2.070207-1.9186629-1.983153-3.331294-.013832-1.5853381.849692-3.048489 2.24424-3.8026269 1.960364-1.0351551 4.165581-1.5170167 6.379044-1.3938832 3.270431-.1158668 6.498795.7653782 9.256778 2.526818zm21.589552 0c-2.390664-1.2565468-5.047823-1.9214039-7.748542-1.9387887-1.365884-.0618375-2.730483.1476216-4.014939.6162736-.928337.4076343-1.392186.9749513-1.391542 1.7019511 0 .7531773.495169 1.3035019 1.485505 1.6509738 1.131069.3209536 2.298446.4963797 3.473893.5220346 2.361302.1573405 3.919828.2824414 4.675577.3753027 1.689326.1255967 3.320736.6701419 4.746808 1.5844279 1.02508.7715363 1.600309 2.0015979 1.535242 3.2829345.04124 1.7406627-.886361 3.3605812-2.408468 4.206036-2.129361 1.1117328-4.520397 1.6250807-6.918439 1.4853667-4.361999 0-7.756164-.9606685-10.182498-2.8820054l1.55949-2.0545208c2.594588 1.6142472 5.591513 2.464768 8.647256 2.4540722 1.593013.0777773 3.183128-.2036125 4.652707-.8233514.921566-.3474178 1.544379-1.2142503 1.579607-2.198497 0-1.0844376-.69026-1.81107-2.076152-2.1716306-1.937825-.3235096-3.894679-.5203501-5.858112-.5892694-2.027899-.02569-4.035286-.409704-5.929481-1.1343126-1.283852-.5963457-2.071207-1.9183907-1.983979-3.331294-.013125-1.584816.849616-3.0474473 2.242999-3.8026269 1.960697-1.0342485 4.165659-1.5160544 6.379044-1.3938832 3.271358-.1164126 6.500763.7648536 9.259535 2.526818zm61.009841-32.7756127v1.7638127h1.108687c.961953 0 1.454505-.2663217 1.454505-.9323325 0-.5785228-.476293-.8314802-1.145059-.8314802zm-.980829 5.3643217.000138-6.2521524h2.369614c1.438386 0 2.147382.5799007 2.147382 1.7625727.035585.4476002-.116248.8898853-.419248 1.2212515-.303.3313663-.729967.5220708-1.178957.5265791l1.791092 2.7417491h-1.184876l-1.792195-2.7111627h-.752121v2.7111627zm6.326413-3.1254562c.021667-2.3952151-1.898256-4.3566632-4.293386-4.3862474-2.361431-.0011498-4.281169 1.903708-4.298394 4.2650767-.017226 2.3613687 1.874518 4.2940299 4.235716 4.3273302 2.361197.0333 4.306691-1.8452442 4.356064-4.2061595zm-9.658121 0h.000276c-.000513-1.4227256.564512-2.7873111 1.570635-3.7932266 1.006121-1.0059157 2.370823-1.5706596 3.793548-1.5698551 2.961769.000761 5.362212 2.4022312 5.361704 5.364-.000506 2.9617688-2.401772 5.3624168-5.36354 5.3621632-2.961769-.0002536-5.362623-2.4013127-5.362623-5.3630815zm-405.3137325 5.30742h-30.0443345c0 .3820538-17.550363-1.5311084-17.550363-26.0820248 0-24.5454054 17.505999-23.7872223 17.505999-23.7872223l29.9204737-.1540339s3.5821847.2066645 3.5821847 5.0233252c0 5.5157378-3.5991312 5.5089868-3.5991312 5.5089868h-27.5414896s-8.2866956-.4756039-8.1830877 12.0967623c.065857 7.7438568 0 3.9590031 0 3.9590031s.9888207 12.2276498 8.8747249 12.7605687h27.0358504s3.4135466.1129765 3.4135466 5.4369297c-.0008267 5.2327453-3.4143733 5.2377052-3.4143733 5.2377052zm19.4622853-39.5988479s-4.1239213.1346075-4.084655-5.126933c.0336174-5.0455072 3.9839405-5.1612393 3.9839405-5.1612393l45.3733297.0188753s8.087471-.569154 8.087471 8.7556862v34.825449s.39156 6.2780543-5.991341 6.2780543c-6.663415.0026177-45.4474542.0483595-45.4474542.0483595s-14.6898507-.2650817-14.6898507-16.6260217c0 0 .0107465-16.1133558 14.825836-16.1947816 11.0354712-.0611727 32.0383719-.0147421 32.0383719-.0147421s3.23981.1008523 3.23981 5.4989291c0 5.1080577-3.23981 5.1101244-3.23981 5.1101244h-26.3484848s-6.376151-.5341589-6.376151 5.8118192c.0349982 1.6292918.7372969 3.1727838 1.9426712 4.2695469 1.2053743 1.0967633 2.8081298 1.6506272 4.4334798 1.5320768h28.4594938s4.310883.0659948 4.310883-3.4012844v-23.1092248c.203294-.6387969.063327-1.3372592-.370409-1.8483989-.433734-.5111397-1.100105-.7629154-1.76347-.6662949zm62.4756442-6.1467534s.378058-4.3061994 6.275299-4.3061994c5.903854 0 6.2826 4.1178591 6.2826 4.1178591v40.7933688s-.024248 4.9486504-6.096327 4.9486504c-6.342671 0-6.461021-4.9486504-6.461021-4.9486504zm15.497082-1.6099165c-.02321-.1753972.071456-.3452331.232843-.4177379 4.598032-1.6308097 9.456125-2.4046825 14.333285-2.2832294 8.941684 0 19.600888 2.8537613 19.791846 16.5546534 0 0-.33769 7.1431519-2.303345 9.6994542 0 0-.115732.3115122-.328321.2799614-3.393739-.8948908-6.717798-2.0357573-9.945798-3.4135465-.299939-.146594-.17346-.3766805-.17346-.4776705 0 0 2.665282-6.2786055-.950657-10.8464421-3.465902-4.3788075-15.793163-3.3724892-18.33803-1.9166066-.089417.034142-.189098.0289025-.274443-.0144258-.085344-.0433283-.1484-.1207086-.173606-.2130429-.780713-2.272043-1.405149-4.594813-1.868936-6.9520562zm42.468591-9.55685558s.06324-4.24695556 6.494501-4.23951564c6.185193.00936879 6.341294 4.23951564 6.341294 4.23951564v52.43243808s-.092862 4.4735976-6.334542 4.4735976c-6.419276 0-6.501253-4.3713676-6.501253-4.3713676zm14.899685 10.40927778s-.072609-.1689138.805992-.7056904c0 0 2.751393-2.0754628 14.847191-2.5678753 12.275871.0114354 24.153982 4.1272278 24.153982 23.2518233 0 0-.904226 14.0486397-5.434312 24.7196925-.244721.9485929-1.134323 1.5852418-2.111146 1.5108552h-10.268609s-2.516071.5019192-1.509615-1.7100798c1.005767-2.2146168 6.643989-15.4594694 6.643989-22.9079337 0-7.1814537-2.016908-15.4016033-16.307208-15.4016033-2.837505.0203294-5.642917.6021833-8.254456 1.7120088 0 0-1.508238.803236-1.81231-.5052258-.575655-2.4214039-.829012-4.9082269-.753498-7.3959715zm184.810008-9.79231535s.022871-4.81872736 5.586417-4.85702918c1.396515-.12598497 2.784441.31961093 3.846631 1.23496762 1.062191.91535669 1.707881 2.22225392 1.789523 3.62206156v6.40921735h14.494071s3.305806.0699904 3.305806 5.1659238c0 5.0212585-3.203575 5.1154976-3.203575 5.1154976h-14.596302v34.5388742c-.064168 1.4245604-.696556 2.7639873-1.755753 3.7187609-1.059196.9547737-2.456844 1.445247-3.880401 1.3617415-1.430883.1135116-2.845463-.3665246-3.911739-1.3274445-1.066276-.9609198-1.690364-2.3181171-1.725793-3.7530579v-34.485417h-6.255046s-3.157833-.0632394-3.157833-5.1693682c0-5.0959333 3.070345-5.2842736 3.070345-5.2842736l6.393649.1183499zm46.301805 0s.025488-4.81872736 5.586279-4.85702918c1.396916-.12653733 2.785436.31878397 3.848188 1.23417647 1.062751.91539252 1.708888 2.22260707 1.790722 3.62285271v6.34460035h15.907518s4.353732-.0826658 4.353732 5.1679903c0 5.0839468-4.253018 5.1881058-4.253018 5.1881058h-16.008232v34.5288165c-.064442 1.4249614-.6973 2.7646505-1.757036 3.7194429-1.059736.9547923-2.45793 1.4450261-3.881874 1.3610595-1.430617.1129502-2.844738-.3673223-3.910668-1.3281645-1.065929-.9608423-1.689876-2.317711-1.725486-3.7523379v-34.4783904h-6.253669s-3.159211-.0688882-3.159211-5.2790382c0-5.0361384 3.070346-5.1803902 3.070346-5.1803902l6.392822.1183499zm-111.633828 10.54980965s.379436-4.3061994 6.280672-4.3061994c5.898481 0 6.280672 4.1178591 6.280672 4.1178591v40.7933688s-.027555 4.9486504-6.103492 4.9486504c-6.339915 0-6.458266-4.9486504-6.458266-4.9486504zm15.501078-1.6099165c-.024348-.1741272.067993-.3437074.227469-.4177379 4.599501-1.6304685 9.458839-2.404324 14.33728-2.2832294 8.941684 0 19.598133 2.8537613 19.789229 16.5546534 0 0-.33769 7.1431519-2.300865 9.6994542 0 0-.11711.3115122-.329699.2799614-3.394288-.894855-6.718898-2.0357212-9.947451-3.4135465-.301317-.146594-.170843-.3766805-.170843-.4776705 0 0 2.662666-6.2786055-.953963-10.8464421-3.46728-4.3788075-15.790408-3.3724892-18.33803-1.9166066-.089606.0340679-.189418.0288121-.27495-.0144785-.085533-.0432904-.148871-.1206099-.174477-.2129902-.778846-2.2721895-1.401484-4.5949541-1.863563-6.9520562zm-78.076334 7.7566699s-4.121166.1346075-4.088927-5.126933c.036373-5.0455072 3.985319-5.1612393 3.985319-5.1612393l45.374707.0188753s8.090364-.569154 8.090364 8.7556862v34.825449s.390184 6.2780543-5.996852 6.2780543l-45.429819.0174975s-14.703352-.4359243-14.703352-16.5951597c0 0 .009506-16.1133558 14.821703-16.1947816 11.035609-.0611727 32.041127-.0147421 32.041127-.0147421s3.23857.1008523 3.23857 5.4989291c0 5.1080577-3.23857 5.1101244-3.23857 5.1101244h-26.348347s-6.376289-.5341589-6.376289 5.8118192c.035312 1.6292097.737724 3.172532 1.943055 4.2692316 1.20533 1.0966996 2.807938 1.6506576 4.433234 1.5323921h28.457978s4.309643.0659948 4.309643-3.4012844v-23.1092248c.204294-.6381519.065299-1.3365368-.367764-1.8478402-.433061-.5113032-1.099048-.7633383-1.76212-.6668536z" fill="#fff"/></svg>