<?xml version="1.0" encoding="UTF-8"?>
<svg width="802px" height="128px" viewBox="0 0 802 128" version="1.1" xmlns="http://www.w3.org/2000/svg" xmlns:xlink="http://www.w3.org/1999/xlink">
    <!-- Generator: Sketch 52.5 (67469) - http://www.bohemiancoding.com/sketch -->
    <title>Group@3x</title>
    <desc>Created with Sketch.</desc>
    <g id="Page-1" stroke="none" stroke-width="1" fill="none" fill-rule="evenodd">
        <g id="Group" fill="#333537">
            <path d="M312.491897,53.9426745 L296.965171,81.513949 L312.491897,81.513949 L312.491897,53.9426745 Z M284.194252,107.016167 C280.483157,110.863731 276.882119,113.927696 273.576031,116.216864 C263.037051,123.216437 251.969802,126.887911 236.768842,127.543846 C226.181437,127.504226 206.393336,123.392527 190.04339,106.307406 C180.50372,95.7596211 173.970785,81.1309535 173.763879,63.1257623 C174.226115,47.7090924 177.752315,37.2801687 186.503983,25.6098112 C200.74085,7.37570308 219.151048,-0.248989153 237.473201,0.125201863 C256.455692,0.798745693 269.997004,7.41092106 279.241723,15.6959504 C282.87798,18.394528 284.115011,19.7196044 287.024897,22.774764 L270.745386,51.0900183 C268.315346,47.4493598 266.197865,45.4155216 262.957811,42.5980833 C263.129498,42.5540609 251.983008,30.8528877 236.768842,30.5667416 C218.891316,30.8528877 205.490875,45.1866047 204.909779,63.1257623 C204.614828,81.1529647 219.674916,97.929929 237.473201,97.1067088 C255.346325,95.8872863 264.164027,82.4780412 265.084096,80.8227962 L309.678861,2.96024909 L341.533522,2.96024909 L341.533522,124.713201 L312.509506,124.713201 L312.509506,107.016167 L284.194252,107.016167 Z" id="Combined-Shape"></path>
            <polyline id="path3099" transform="translate(385.498765, 64.448638) scale(-1, 1) rotate(90.000000) translate(-385.498765, -64.448638) " points="446.472091 49.0715879 352.823085 49.0715879 352.823085 26.1314775 324.52544 26.1314775 324.52544 102.765798 352.823085 102.765798 352.823085 79.306222 446.472091 79.306222"></polyline>
            <polyline id="path3103" transform="translate(474.919377, 64.446436) scale(-1, 1) rotate(90.000000) translate(-474.919377, -64.446436) " points="489.239888 79.821285 489.239888 48.895498 535.894904 48.895498 535.894904 18.6564617 413.943851 18.6564617 413.943851 48.895498 460.255492 48.895498 460.255492 79.821285 413.943851 79.821285 413.943851 110.236411 535.894904 110.236411 535.894904 79.821285"></polyline>
            <polyline id="path3107" transform="translate(564.269589, 64.448638) scale(-1, 1) rotate(90.000000) translate(-564.269589, -64.448638) " points="625.242914 31.7795607 503.296263 31.7795607 503.296263 61.8381049 598.314368 61.8381049 598.314368 97.1177144 625.242914 97.1177144"></polyline>
            <path d="M593.187951,19.7019954 C581.350308,31.8654045 575.350045,47.1544092 575.350045,64.706169 C575.350045,81.2189985 581.693683,96.8513784 593.359638,108.847502 C605.536254,121.358689 621.142221,127.957658 637.782715,127.957658 C655.277246,127.957658 670.883213,121.702064 682.720855,110.066925 C695.069159,98.0708009 701.756172,81.7384636 701.756172,64.5344814 C701.756172,46.2915688 695.236444,30.6503843 682.549168,18.4825729 C670.372552,6.84303117 655.277246,0.935215357 637.267653,0.935215357 C620.459873,0.935215357 605.021191,7.54298848 593.187951,19.7019954 M671.569963,64.5344814 C671.569963,82.2579288 657.504783,96.6796908 637.611028,96.6796908 C619.773122,96.6796908 605.536254,82.2579288 605.536254,64.8822589 C605.536254,46.4676587 619.773122,32.0370922 637.611028,32.0370922 C656.818033,32.0370922 671.569963,47.5109913 671.569963,64.5344814" id="path3111" fill-rule="nonzero" transform="translate(638.553109, 64.446436) scale(-1, 1) rotate(90.000000) translate(-638.553109, -64.446436) "></path>
            <polyline id="path3115" transform="translate(750.445062, 64.448638) scale(-1, 1) rotate(90.000000) translate(-750.445062, -64.448638) " points="811.418388 13.0127807 689.471737 13.0127807 689.471737 40.2979091 757.21792 85.6454581 689.471737 85.6454581 689.471737 115.884494 811.418388 115.884494 811.418388 89.294921 743.500517 43.2474148 811.418388 43.2474148"></polyline>
            <polyline id="path3119" transform="translate(140.139515, 63.836725) scale(-1, 1) rotate(90.000000) translate(-140.139515, -63.836725) " points="79.2630387 30.2123607 79.2630387 97.4610897 106.160769 97.4610897 106.160769 59.9451386 125.979686 59.9451386 125.979686 92.5085615 152.173058 92.5085615 152.173058 59.9451386 174.827022 59.9451386 174.827022 97.4610897 201.015991 97.4610897 201.015991 30.2123607"></polyline>
            <path d="M115.09513,11.1880492 L-6.8515209,11.1880492 L-6.8515209,53.4144048 C-6.8515209,73.0484276 -4.2806085,86.7790367 7.72431975,99.6335987 C18.7035244,111.453633 34.6528662,117.709226 54.7227114,117.709226 C73.2429656,117.709226 88.509959,111.62532 99.9998244,99.8096886 C112.695905,86.6029468 115.09513,74.9634051 115.09513,57.583333 L115.09513,11.1880492 Z M53.6925855,87.6462794 C31.7385785,87.6462794 19.390275,75.6545579 19.390275,53.4144048 L19.390275,41.4226833 L88.3382714,41.4226833 L88.3382714,53.5860925 C88.3382714,76.6978905 77.7068443,87.6462794 53.6925855,87.6462794 Z" id="path3123" fill-rule="nonzero" transform="translate(54.121805, 64.448638) scale(-1, 1) rotate(90.000000) translate(-54.121805, -64.448638) "></path>
        </g>
    </g>
</svg>