<svg height="100" viewBox="0 0 674 100" width="674" xmlns="http://www.w3.org/2000/svg"><path d="m260.052066.36909487h.000972 28.112126v99.63090513h-25.621743l-.175224-14.9949305h-29.523584c-9.251503 9.3530736-22.587538 14.9949305-35.923574 14.9949305-27.57673 0-50.164278-22.3889669-50.164278-49.7383897 0-27.5116601 25.252495-50.2616103 52.820778-50.2616103 14.767951 0 29.531698 6.542284 39.488928 16.7633357l-12.800654 19.3997143c-6.404196-6.5301153-15.830278-10.411681-25.082128-10.411681-1.245019 0-3.02965.1865746-4.35999.3569262-13.421384 0-24.453635 10.9308446-24.453635 24.3398898 0 13.2143588 11.032251 24.1654838 24.360173 24.1654838 8.184945 0 16.004856-4.0600287 20.462538-10.7767188zm-11.725633 62.76617143h.00097 14.216018l-.175224-19.5578971zm88.927994 36.8635015h-25.613628v-76.365816h-19.918719v-23.09876219l65.442952-.16645871v23.2650592h-19.910605v76.3658484zm105.293357-99.62967293-.000971-.00161535v99.63090508h-25.613628v-39.3307631h-30.419795v39.3307631h-25.783651v-99.63090508h25.593194l.191429 37.20543418h30.241333l.17846-37.19732257zm205.250714 0h.003882 25.621743l-.032457 99.63090513h-23.293266l-35.023505-48.4850934v48.4850934h-25.799855l-.175225-36.16305c-6.221854 21.1681195-25.970227 36.16305-48.379653 36.16305-12.804537 0-25.609396-5.2930447-35.035476-13.9403775v13.9403775h-59.66725v-99.63090513h26.100027v75.46947843h25.374163c-4.26267-7.7712431-6.927609-16.7430556-6.927609-25.576963 0-27.5116601 22.59177-49.89251543 50.156145-49.89251543 22.409426 0 42.510812 15.33563093 48.379653 36.49969593l.175225-36.33745606 23.309494-.16223987 35.213964 46.36381893zm-107.077689 75.29506973c14.236479 0 25.795998-11.2837137 25.795998-25.4025543 0-13.9241519-11.559519-25.3822741-25.795998-25.3822741-14.049878 0-25.609397 11.4581222-25.609397 25.3822741 0 14.1188406 11.559519 25.4025543 25.609397 25.4025543zm-424.939671.1760314h.001296 30.24555l.051916 24.1573697h-58.3897772v-34.0296068c-6.0472935 18.5195698-23.4840804 32.2733726-43.2204431 34.0296068h-44.4696797v-99.626848l44.2873238.16223737c19.9187186 1.76434826 37.3555055 15.52626263 43.402799 34.21618413v-34.21618413l58.3372122-.16223737.051915 24.5102414h-30.298112v12.6911358h27.438815l.048672 24.3236666h-27.487487zm-56.3737995-10.4076264c1.6061655-4.7617101 2.4942622-10.0425861 2.4942622-15.1693365 0-4.9280069-.8880967-10.2169947-2.4942622-14.8042986-1.5941586-6.8667612-8.0025946-11.8272147-14.9383084-11.8272147h-16.3617918v53.4374351h16.3617918c6.9357138-.1784631 13.3441498-4.928007 14.9383084-11.6365853z" fill="#282c39"/></svg>