<?xml version="1.0" encoding="UTF-8"?>
<svg width="618px" height="110px" viewBox="0 0 618 110" version="1.1" xmlns="http://www.w3.org/2000/svg" xmlns:xlink="http://www.w3.org/1999/xlink">
    <!-- Generator: Sketch 52.5 (67469) - http://www.bohemiancoding.com/sketch -->
    <title>Combined Shape@3x</title>
    <desc>Created with Sketch.</desc>
    <g id="Page-1" stroke="none" stroke-width="1" fill="none" fill-rule="evenodd">
        <path d="M475,109.7 C426.5,109.8 408.9,61.5 424.1,30.7 C433.6,11.5 458.5,-1.8 480.7,0.9 C496.4,2.9 509.8,9.1 519.8,21.5 C532.5,37.3 533.7,55.2 527.7,73.9 C520.8,95.6 499.5,110.3 475,109.7 Z M445.9,53.8 C445.9,70.8 458.7,84.5 474.9,84.5 C490.9,84.6 504.1,70.8 504.3,54 C504.4,39.1 490.5,25.8 474.9,25.9 C459.1,26.2 445.9,38.9 445.9,53.8 Z M0.6,106.5 C0.6,72.4 0.6,38.8 0.6,4.9 C1.9,4.7 3.2,4.4 4.4,4.4 C15.9,4.4 27.4,4.2 38.9,4.4 C65.6,4.8 87,25.1 88.9,51.4 C90.8,78.5 72.6,102 45.7,105.5 C34.4,107 22.8,106.2 11.3,106.5 C7.8,106.5 4.4,106.5 0.6,106.5 Z M26.5,83.7 C38.7,86.4 51.6,81.6 57.6,72.3 C64.4,61.8 63.9,46.5 56.3,36.6 C50.2,28.5 36.8,24.3 26.5,27.3 C26.5,46 26.5,64.9 26.5,83.7 Z M319.5,4.6 C328.2,4.6 336.4,4.6 345.2,4.6 C345.2,17.6 345.2,30.4 345.2,43.5 C358.3,43.5 370.8,43.5 384,43.5 C384,30.6 384,17.9 384,4.7 C392.9,4.7 401.1,4.7 409.7,4.7 C409.7,38.5 409.7,72.2 409.7,106.2 C401.3,106.2 393.1,106.2 384.3,106.2 C384.3,92.5 384.3,78.9 384.3,64.9 C371.2,64.9 358.7,64.9 345.5,64.9 C345.5,78.4 345.5,92.1 345.5,106.2 C336.5,106.2 328.2,106.2 319.5,106.2 C319.5,72.3 319.5,38.8 319.5,4.6 Z M540.5,4.6 C542.5,4.5 544.1,4.3 545.7,4.3 C557.7,4.3 569.7,4.1 581.6,4.4 C586.2,4.5 590.9,5.1 595.4,6.3 C608,9.7 615.1,18.3 616.7,31.1 C617.3,35.8 617.2,40.8 616.7,45.5 C614.9,60.2 606.1,69.4 591.3,71.4 C583.3,72.5 575.1,72.3 566.2,72.8 C566.2,83.7 566.2,94.7 566.2,106.1 C557.2,106.1 549,106.1 540.5,106.1 C540.5,72.3 540.5,38.8 540.5,4.6 Z M566.3,24.8 C566.3,34.3 566.3,42.6 566.3,51.8 C572,51.3 577.3,51.3 582.4,50.2 C587.6,49.1 590.3,44.4 590.2,38.3 C590.1,31.8 587.4,27.2 582,26.1 C577.1,25.2 571.9,25.3 566.3,24.8 Z M155.1,4.6 C155.1,11.9 155.1,18.7 155.1,26.2 C144.7,26.2 134.5,26.2 123.9,26.2 C123.9,32.3 123.9,37.7 123.9,43.8 C133.6,43.8 143.2,43.8 153.1,43.8 C153.1,51.4 153.1,58.3 153.1,65.9 C143.5,65.9 134,65.9 124,65.9 C124,72.3 124,78 124,84.2 C134.4,84.2 144.5,84.2 154.9,84.2 C154.9,91.8 154.9,98.8 154.9,106.1 C136,106.1 117.3,106.1 98.2,106.1 C98.2,72.2 98.2,38.5 98.2,4.5 C117.2,4.6 135.9,4.6 155.1,4.6 Z M233.9,97.2 C236.6,90.5 239.5,83.7 242.3,76.6 C247,79.2 251.2,81.5 255.5,83.8 C260.5,86.4 265.8,87.7 271.4,86.8 C276.9,85.9 280.8,82.3 281.3,77.7 C281.8,73.3 279.6,69.7 274.1,67.5 C268.4,65.2 262.4,63.7 256.6,61.6 C249.6,59.1 243,56 239.9,47.8 C245.7,33.5 251.7,18.9 257.8,4 C274.1,-1.8 289,2.3 304.2,9.5 C301.6,16 299.1,22.1 296.4,28.7 C292.3,27.2 288.7,25.8 284.9,24.6 C280.4,23.1 275.8,22.2 271.2,24 C267.9,25.3 265.4,27.3 264.9,31.1 C264.4,35 266.6,37.4 269.7,39.1 C272,40.4 274.5,41.3 277,42.2 C280,43.2 283.1,44 286.1,44.9 C304,50.5 311.1,62.4 307.8,80.9 C305.7,92.6 299.1,100.6 288.1,105.4 C269.9,113.5 246.4,107.3 233.9,97.2 Z M241.5,4.7 C239.7,9.2 238.3,13.3 236.6,17.3 C235.4,20.2 234,23 232.6,26.4 C219.9,26.4 207.4,26.4 194.5,26.4 C194.5,32.4 194.5,37.8 194.5,44 C204.7,44 214.8,44 225.5,44 C222.3,52 219.4,59 216.4,66.3 C208.9,66.3 201.8,66.3 194.3,66.3 C194.3,79.8 194.3,92.7 194.3,106.1 C185.6,106.1 177.4,106.1 168.7,106.1 C168.7,72.6 168.7,38.9 168.7,4.8 C192.6,4.7 216.7,4.7 241.5,4.7 Z M606.8,85 C608.5,85 610.1,85.4 611.7,86.3 C613.3,87.2 614.5,88.4 615.4,90 C616.3,91.6 616.7,93.3 616.7,95 C616.7,96.7 616.3,98.4 615.4,100 C614.5,101.6 613.3,102.8 611.7,103.7 C610.1,104.6 608.5,105 606.7,105 C605,105 603.3,104.6 601.7,103.7 C600.1,102.8 598.9,101.6 598,100 C597.1,98.4 596.7,96.8 596.7,95 C596.7,93.3 597.1,91.6 598,90 C598.9,88.4 600.1,87.2 601.7,86.3 C603.5,85.4 605.1,85 606.8,85 Z M606.8,86.6 C605.4,86.6 604,87 602.7,87.7 C601.4,88.4 600.3,89.4 599.6,90.8 C598.8,92.1 598.5,93.5 598.5,95 C598.5,96.4 598.9,97.8 599.6,99.1 C600.3,100.4 601.4,101.4 602.7,102.2 C604,103 605.4,103.3 606.8,103.3 C608.2,103.3 609.6,102.9 610.9,102.2 C612.2,101.5 613.3,100.4 614,99.1 C614.7,97.8 615.1,96.4 615.1,95 C615.1,93.6 614.7,92.2 614,90.8 C613.3,89.5 612.2,88.4 610.9,87.7 C609.6,87 608.2,86.6 606.8,86.6 Z M602.4,100.5 L602.4,89.7 L606.1,89.7 C607.4,89.7 608.3,89.8 608.8,90 C609.4,90.2 609.8,90.5 610.2,91 C610.5,91.5 610.7,92 610.7,92.6 C610.7,93.4 610.4,94.1 609.9,94.7 C609.3,95.3 608.6,95.6 607.7,95.7 C608.1,95.9 608.4,96 608.6,96.3 C609,96.7 609.6,97.4 610.2,98.4 L611.5,100.5 L609.3,100.5 L608.3,98.8 C607.5,97.5 606.9,96.6 606.5,96.3 C606.2,96.1 605.7,95.9 605.1,95.9 L604.1,95.9 L604.1,100.5 L602.4,100.5 Z M604.1,94.4 L606.2,94.4 C607.2,94.4 607.9,94.2 608.3,93.9 C608.7,93.6 608.8,93.2 608.8,92.7 C608.8,92.4 608.7,92.1 608.5,91.8 C608.3,91.5 608.1,91.4 607.8,91.2 C607.5,91.1 606.9,91 606.1,91 L604.1,91 L604.1,94.4 Z" id="Combined-Shape" fill="#333537" fill-rule="nonzero"></path>
    </g>
</svg>