<svg width="297" height="48" xmlns="http://www.w3.org/2000/svg"><path d="M31.129 24.907v.74H6.934c.08 1.598.39 2.335.926 3.253.538.918 1.205 1.914 2.003 2.593a8.897 8.897 0 002.75 1.587c1.036.38 2.091.57 3.168.57 1.674 0 3.217-.389 4.632-1.168 1.415-.777 2.66-1.885 3.737-3.323l5.26 2.934c-1.755 2.195-3.777 3.91-6.068 5.15a15.846 15.846 0 01-7.382 1.915c-2.511 0-4.763-.44-6.754-1.317-1.994-.879-3.669-2.026-5.023-3.442a14.722 14.722 0 01-3.107-4.881A15.342 15.342 0 010 23.889c0-1.916.359-3.79 1.078-5.628a14.767 14.767 0 013.11-4.88c1.354-1.417 3.03-2.564 5.023-3.442 1.992-.878 4.25-1.318 6.759-1.318 1.515 0 3.16.32 4.913.958 1.753.64 3.398 1.617 4.893 2.934 1.493 1.318 2.78 3.004 3.776 5.059.996 2.058 1.577 4.502 1.577 7.335zm-24.195-4.05h16.737c-.677-2.394-1.772-3.906-3.287-5.044-1.516-1.139-3.267-1.693-5.26-1.693-1.994 0-3.728.58-5.202 1.758-1.473 1.178-2.47 2.585-2.988 4.98zm28.518-.619c0-1.836.288-3.474.867-4.91.577-1.437 1.344-2.655 2.302-3.652a9.594 9.594 0 013.347-2.275c1.274-.519 2.63-.78 4.064-.78 2.192 0 4.045.481 5.56 1.44 1.514.956 2.55 2.195 3.108 3.711h.12c.557-1.516 1.593-2.755 3.108-3.712 1.515-.958 3.366-1.439 5.56-1.439 1.434 0 2.787.26 4.064.78a9.621 9.621 0 013.348 2.275c.958.999 1.723 2.216 2.3 3.653.58 1.436.869 3.074.869 4.91V38.38H67.85V20.296c0-1.755-.479-3.103-1.434-4.04-.958-.938-2.072-1.408-3.348-1.408-1.514 0-2.76.48-3.736 1.438-.977.958-1.465 2.574-1.465 4.848V38.38h-6.216V21.134c0-2.274-.488-3.89-1.464-4.848-.976-.958-2.222-1.438-3.736-1.438-1.276 0-2.39.469-3.347 1.407-.958.938-1.436 2.286-1.436 4.041V38.38h-6.216V20.24h-.001zm74.882-1.887a15.763 15.763 0 011.016 5.545c0 1.795-.36 3.599-1.077 5.395a16.668 16.668 0 01-3.048 4.922 15.347 15.347 0 01-4.812 3.615c-1.893.918-4.015 1.426-6.366 1.426-2.152 0-4.026-.315-5.62-1.133-1.592-.817-2.787-2.095-3.585-2.893h.078V48h-6.377V9.68h6.377v3.194h-.078c1.115-1.597 2.48-2.436 4.095-3.174 1.614-.739 3.414-1.08 5.408-1.08 2.392 0 4.513.45 6.366 1.348 1.854.898 3.418 2.065 4.693 3.503a15.436 15.436 0 012.93 4.88zm-6.307 9.22c.498-1.136.748-2.364.746-3.683 0-1.316-.248-2.544-.746-3.683a9.588 9.588 0 00-2.003-2.962 9.67 9.67 0 00-2.929-2.006 8.549 8.549 0 00-3.527-.75c-1.237 0-2.402.25-3.498.75a9.803 9.803 0 00-2.9 2.006 9.202 9.202 0 00-1.972 2.962c-.478 1.14-.717 2.367-.717 3.683 0 1.319.239 2.545.717 3.683a9.194 9.194 0 001.973 2.964 9.864 9.864 0 002.9 2.006c1.095.5 2.26.748 3.497.748a8.544 8.544 0 003.527-.748 9.736 9.736 0 002.93-2.006 9.565 9.565 0 002.002-2.964zM115.48 3.473c0-.958.338-1.777 1.016-2.454A3.336 3.336 0 01118.946 0c.957 0 1.773.34 2.452 1.019a3.347 3.347 0 011.015 2.454c0 .958-.339 1.776-1.015 2.454a3.336 3.336 0 01-2.451 1.019 3.332 3.332 0 01-2.451-1.02 3.344 3.344 0 01-1.016-2.453zm.359 5.927h6.217v28.98h-6.217V9.4zm12.828 0h5.858v3.174h.12c.516-1.198 1.274-2.157 2.27-2.874.996-.72 2.132-1.08 3.408-1.08 1.355 0 2.49.3 3.408.899l-2.211 6.168c-.32-.24-.71-.438-1.166-.599-.458-.159-.846-.239-1.166-.239-1.156 0-2.162.4-3.019 1.198-.858.797-1.285 1.855-1.285 3.172v19.16h-6.216V9.4h-.001zm17.559-5.927c0-.958.338-1.777 1.016-2.454A3.34 3.34 0 01149.694 0c.954 0 1.771.34 2.45 1.019a3.344 3.344 0 011.016 2.454c0 .958-.338 1.776-1.016 2.454-.68.68-1.496 1.019-2.45 1.019a3.336 3.336 0 01-2.452-1.02 3.348 3.348 0 01-1.016-2.453zm.36 5.927h6.216v28.98h-6.216V9.4zm41.554 15.507h.001v.74h-23.7c.081 1.598.389 2.335.928 3.253.535.918 1.203 1.914 2 2.593a8.933 8.933 0 002.75 1.587c1.036.38 2.092.57 3.17.57 1.672 0 3.215-.389 4.633-1.168 1.411-.777 2.659-1.885 3.734-3.323l5.26 2.934c-1.753 2.194-3.775 3.91-6.065 5.15a15.858 15.858 0 01-7.383 1.915c-2.511 0-4.762-.44-6.754-1.317-1.997-.879-3.67-2.026-5.022-3.442a14.75 14.75 0 01-3.111-4.881 15.39 15.39 0 01-1.075-5.629c0-1.916.357-3.79 1.073-5.628a14.776 14.776 0 013.105-4.88c1.357-1.417 3.024-2.564 5.018-3.442 1.99-.878 4.233-1.318 6.742-1.318 1.515 0 3.128.32 4.882.958 1.754.64 3.337 1.617 4.832 2.934 1.494 1.318 2.657 3.004 3.651 5.059.998 2.057 1.331 4.502 1.331 7.335zm-23.7-4.05h16.737c-.68-2.394-1.776-3.906-3.286-5.044-1.518-1.139-3.272-1.693-5.264-1.693-1.993 0-3.724.58-5.2 1.758-1.474 1.178-2.47 2.585-2.987 4.98zM214.9 18.86c-.837-1.277-1.85-2.325-3.047-3.144-1.195-.817-2.69-1.226-4.484-1.226-1.354 0-2.609.25-3.767.75a9.519 9.519 0 00-2.988 2.005 8.798 8.798 0 00-1.942 2.962c-.46 1.139-.688 2.365-.688 3.682 0 1.318.229 2.546.688 3.682a8.766 8.766 0 001.942 2.964 9.546 9.546 0 002.988 2.006c1.156.5 2.413.748 3.767.748 1.711 0 3.19-.398 4.424-1.197 1.234-.798 2.27-1.856 3.106-3.173l5.438 3.234a12.98 12.98 0 01-2.33 2.812 16.806 16.806 0 01-3.05 2.216 14.8 14.8 0 01-3.615 1.467c-1.297.337-2.62.508-3.974.508-2.51 0-4.762-.44-6.755-1.316-1.994-.879-3.665-2.025-5.022-3.442a14.725 14.725 0 01-3.106-4.88 15.345 15.345 0 01-1.078-5.63c0-1.916.36-3.792 1.078-5.628a14.752 14.752 0 013.106-4.879c1.356-1.417 3.028-2.564 5.022-3.442 1.994-.878 4.245-1.318 6.755-1.318 3.068 0 5.649.66 7.742 1.976a17.713 17.713 0 015.23 5.03l-5.44 3.233zm43.48 1.378c0-1.836.29-3.474.87-4.91.578-1.437 1.342-2.655 2.3-3.652a9.599 9.599 0 013.349-2.275c1.274-.519 2.63-.78 4.063-.78 2.19 0 4.044.481 5.562 1.438 1.51.958 2.548 2.195 3.105 3.712h.12c.56-1.517 1.596-2.755 3.11-3.712 1.514-.958 3.365-1.438 5.558-1.438 1.438 0 2.79.26 4.066.78a9.599 9.599 0 013.348 2.275c.957.999 1.724 2.216 2.301 3.653.578 1.436.867 3.074.867 4.91V38.38h-6.218V20.296c0-1.755-.478-3.103-1.432-4.04-.96-.938-2.075-1.408-3.351-1.408-1.513 0-2.758.48-3.734 1.438-.978.958-1.465 2.574-1.465 4.848V38.38h-6.218V21.134c0-2.274-.487-3.89-1.465-4.848-.976-.958-2.221-1.438-3.734-1.438-1.28 0-2.392.469-3.348 1.407-.96.938-1.436 2.286-1.436 4.041V38.38h-6.217V20.24zm-26.375-3.273c-.112.098-.238.176-.343.281a8.767 8.767 0 00-1.94 2.963c-.461 1.137-.69 2.365-.69 3.682 0 1.317.229 2.545.69 3.683a8.797 8.797 0 001.94 2.962 9.581 9.581 0 002.99 2.008c1.087.467 2.266.709 3.53.734l-5.087 5.096c-.491-.155-.971-.33-1.433-.531-1.992-.88-3.666-2.028-5.022-3.444a14.803 14.803 0 01-3.106-4.881 15.343 15.343 0 01-1.078-5.629c0-1.914.36-3.79 1.078-5.628a14.81 14.81 0 013.106-4.879c1.357-1.417 3.03-2.565 5.022-3.443 1.993-.878 4.245-1.318 6.757-1.318.628 0 1.236.028 1.833.083l-8.247 8.26zm22.374 6.924c0 1.915-.36 3.793-1.079 5.63a14.764 14.764 0 01-3.105 4.88c-1.358 1.417-3.031 2.563-5.025 3.442-1.993.876-4.243 1.317-6.752 1.317-.582 0-1.143-.03-1.695-.077l8.874-9.067c.618-.725 1.145-1.521 1.52-2.443.456-1.136.683-2.364.683-3.682 0-1.316-.226-2.545-.683-3.681a8.799 8.799 0 00-1.946-2.964c-.836-.84-1.833-1.506-2.988-2.006-1.046-.454-2.178-.69-3.393-.732l5.055-5.063c.452.148.9.306 1.326.496 1.994.878 3.668 2.025 5.025 3.442a14.783 14.783 0 013.106 4.88 15.289 15.289 0 011.077 5.628z" fill="#333537" fill-rule="nonzero"/></svg>