<?xml version="1.0" encoding="UTF-8"?>
<svg width="297px" height="48px" viewBox="0 0 297 48" version="1.1" xmlns="http://www.w3.org/2000/svg" xmlns:xlink="http://www.w3.org/1999/xlink">
    <!-- Generator: Sketch 52.5 (67469) - http://www.bohemiancoding.com/sketch -->
    <title>Combined Shape@3x</title>
    <desc>Created with Sketch.</desc>
    <g id="Page-1" stroke="none" stroke-width="1" fill="none" fill-rule="evenodd">
        <g id="Grafiken" transform="translate(-1027.000000, -1377.000000)" fill="#FFFFFF" fill-rule="nonzero">
            <path d="M1058.12898,1401.90706 L1058.12898,1402.64655 L1033.93398,1402.64655 C1034.01399,1404.24452 1034.32311,1404.98158 1034.86013,1405.89957 C1035.39836,1406.81756 1036.06509,1407.81447 1036.86274,1408.49325 C1037.65918,1409.17324 1038.57684,1409.70144 1039.61331,1410.08029 C1040.64855,1410.46036 1041.70441,1410.64978 1042.78088,1410.64978 C1044.45497,1410.64978 1045.99815,1410.26122 1047.41283,1409.48166 C1048.8275,1408.70453 1050.07368,1407.59712 1051.15015,1406.15942 L1056.41003,1409.09309 C1054.65472,1411.28849 1052.63271,1413.00304 1050.34158,1414.2428 C1048.05046,1415.47771 1045.58962,1416.11763 1042.96029,1416.1577 C1040.44854,1416.1577 1038.19741,1415.71814 1036.20571,1414.84144 C1034.21159,1413.96231 1032.53749,1412.81482 1031.18342,1411.39899 C1029.82693,1409.98194 1028.7929,1408.35482 1028.07646,1406.51763 C1027.35882,1404.68166 1027,1402.8044 1027,1400.8895 C1027,1398.97339 1027.35882,1397.09856 1028.07768,1395.26137 C1028.79411,1393.42661 1029.83178,1391.79828 1031.18706,1390.38123 C1032.54234,1388.96418 1034.21765,1387.8167 1036.21056,1386.93878 C1038.20348,1386.06087 1040.46066,1385.6213 1042.96998,1385.6213 C1044.48528,1385.6213 1046.12907,1385.94187 1047.88317,1386.57936 C1049.63606,1387.21806 1051.28107,1388.19555 1052.77575,1389.51303 C1054.26923,1390.83051 1055.55541,1392.51713 1056.55186,1394.57167 C1057.54832,1396.62985 1058.12898,1399.07417 1058.12898,1401.90706 Z M1033.93398,1397.85748 L1050.67131,1397.85748 C1049.99367,1395.46294 1048.89903,1393.95118 1047.38373,1392.81341 C1045.86844,1391.67442 1044.11676,1391.1195 1042.12384,1391.1195 C1040.12972,1391.1195 1038.39622,1391.69992 1036.92214,1392.87776 C1035.44928,1394.0556 1034.45161,1395.46294 1033.93398,1397.85748 Z M1062.45181,1397.2382 C1062.45181,1395.40223 1062.74032,1393.76418 1063.31856,1392.32891 C1063.89558,1390.89122 1064.66293,1389.67331 1065.62059,1388.6764 C1066.57705,1387.67827 1067.69109,1386.92057 1068.96758,1386.40086 C1070.24163,1385.88237 1071.59813,1385.6213 1073.0322,1385.6213 C1075.22392,1385.6213 1077.07743,1386.10215 1078.59151,1387.06021 C1080.10559,1388.01705 1081.14205,1389.2556 1081.69968,1390.77222 L1081.81969,1390.77222 C1082.37732,1389.2556 1083.41257,1388.01705 1084.92786,1387.06021 C1086.44316,1386.10215 1088.29424,1385.6213 1090.48717,1385.6213 C1091.92246,1385.6213 1093.27531,1385.88115 1094.5518,1386.40086 C1095.82707,1386.92057 1096.94232,1387.67827 1097.89999,1388.6764 C1098.85765,1389.67453 1099.62257,1390.89244 1100.20081,1392.32891 C1100.77905,1393.76539 1101.06877,1395.40344 1101.06877,1397.2382 L1101.06877,1415.38057 L1094.85122,1415.38057 L1094.85122,1397.29648 C1094.85122,1395.54065 1094.37238,1394.19282 1093.41714,1393.2554 C1092.45948,1392.31799 1091.34543,1391.84806 1090.06895,1391.84806 C1088.55487,1391.84806 1087.3099,1392.3277 1086.33284,1393.28576 C1085.35578,1394.24381 1084.86846,1395.86001 1084.86846,1398.13433 L1084.86846,1415.37936 L1078.65212,1415.37936 L1078.65212,1398.13433 C1078.65212,1395.86001 1078.16359,1394.24381 1077.18774,1393.28576 C1076.21189,1392.3277 1074.96571,1391.84806 1073.45163,1391.84806 C1072.17636,1391.84806 1071.06111,1392.31677 1070.10465,1393.2554 C1069.14699,1394.19282 1068.66937,1395.54065 1068.66937,1397.29648 L1068.66937,1415.37936 L1062.45302,1415.37936 L1062.45302,1397.2382 L1062.45181,1397.2382 Z M1137.33399,1395.35123 C1138.01163,1397.16777 1138.34985,1399.01953 1138.34985,1400.89557 C1138.34985,1402.69147 1137.98981,1404.49466 1137.27338,1406.29056 C1136.55574,1408.08768 1135.53989,1409.73423 1134.22461,1411.21321 C1132.90934,1412.68975 1131.30555,1413.91131 1129.41325,1414.82808 C1127.51974,1415.74607 1125.39833,1416.25363 1123.04659,1416.25363 C1120.89487,1416.25363 1119.02076,1415.93913 1117.42788,1415.12072 C1115.83501,1414.30352 1114.63974,1413.02611 1113.84209,1412.22833 L1113.91967,1412.22833 L1113.91967,1425 L1107.54332,1425 L1107.54332,1386.68014 L1113.91967,1386.68014 L1113.91967,1389.87367 L1113.84209,1389.87367 C1114.95735,1388.2769 1116.32232,1387.43784 1117.93702,1386.69957 C1119.55051,1385.9613 1121.35067,1385.62009 1123.3448,1385.62009 C1125.73654,1385.62009 1127.85795,1386.06937 1129.71146,1386.96792 C1131.56497,1387.86648 1133.12875,1389.03339 1134.40402,1390.47109 C1135.67929,1391.90878 1136.65514,1393.5359 1137.33399,1395.35123 Z M1131.02673,1404.57116 C1131.52496,1403.43461 1131.77468,1402.20698 1131.77347,1400.88829 C1131.77347,1399.57202 1131.52496,1398.3444 1131.02673,1397.20541 C1130.52851,1396.06886 1129.86178,1395.08045 1129.02412,1394.2426 C1128.18768,1393.40233 1127.21062,1392.73691 1126.09536,1392.23663 C1124.97889,1391.73757 1123.80303,1391.48743 1122.56776,1391.48743 C1121.33128,1391.48743 1120.16632,1391.73757 1119.07046,1392.23663 C1117.97339,1392.73691 1117.00845,1393.40354 1116.17079,1394.2426 C1115.33556,1395.08045 1114.67611,1396.06886 1114.19849,1397.20541 C1113.71966,1398.3444 1113.48085,1399.57202 1113.48085,1400.88829 C1113.48085,1402.20698 1113.71966,1403.43339 1114.19849,1404.57116 C1114.67611,1405.70893 1115.33556,1406.69734 1116.17079,1407.53519 C1117.00845,1408.37182 1117.9746,1409.04088 1119.07046,1409.54116 C1120.16632,1410.04022 1121.33128,1410.28915 1122.56776,1410.28915 C1123.80303,1410.28915 1124.98011,1410.04022 1126.09536,1409.54116 C1127.21062,1409.04088 1128.18768,1408.37182 1129.02412,1407.53519 C1129.86178,1406.69734 1130.52851,1405.71014 1131.02673,1404.57116 Z M1142.47993,1380.47281 C1142.47993,1379.51475 1142.81814,1378.69633 1143.49578,1378.01877 C1144.17342,1377.33999 1144.98926,1377 1145.94692,1377 C1146.90338,1377 1147.71921,1377.33999 1148.39806,1378.01877 C1149.07449,1378.69633 1149.4127,1379.51475 1149.4127,1380.47281 C1149.4127,1381.43086 1149.07449,1382.24928 1148.39806,1382.92684 C1147.71921,1383.60683 1146.90338,1383.94561 1145.94692,1383.94561 C1144.98926,1383.94561 1144.17342,1383.60683 1143.49578,1382.92684 C1142.81814,1382.24928 1142.47993,1381.43086 1142.47993,1380.47281 Z M1142.83875,1386.39965 L1149.05631,1386.39965 L1149.05631,1415.37936 L1142.83875,1415.37936 L1142.83875,1386.39965 Z M1155.66662,1386.39965 L1161.52535,1386.39965 L1161.52535,1389.57374 L1161.64415,1389.57374 C1162.16057,1388.37647 1162.91943,1387.4172 1163.91588,1386.69957 C1164.91113,1385.98072 1166.04699,1385.62009 1167.32347,1385.62009 C1168.67754,1385.62009 1169.81341,1385.92001 1170.73107,1386.51864 L1168.51995,1392.68712 C1168.19992,1392.44791 1167.81079,1392.24877 1167.35378,1392.08849 C1166.89556,1391.92942 1166.50764,1391.84928 1166.18761,1391.84928 C1165.03235,1391.84928 1164.0262,1392.24877 1163.16915,1393.04655 C1162.31088,1393.84432 1161.88418,1394.90195 1161.88418,1396.21943 L1161.88418,1415.37936 L1155.66784,1415.37936 L1155.66784,1386.39965 L1155.66662,1386.39965 Z M1173.22585,1380.47281 C1173.22585,1379.51475 1173.56406,1378.69633 1174.2417,1378.01877 C1174.92055,1377.33999 1175.73639,1377 1176.69405,1377 C1177.64808,1377 1178.46513,1377.33999 1179.14398,1378.01877 C1179.82162,1378.69633 1180.15983,1379.51475 1180.15983,1380.47281 C1180.15983,1381.43086 1179.82162,1382.24928 1179.14398,1382.92684 C1178.46391,1383.60683 1177.64808,1383.94561 1176.69405,1383.94561 C1175.73639,1383.94561 1174.92055,1383.60683 1174.2417,1382.92684 C1173.56527,1382.24928 1173.22585,1381.43086 1173.22585,1380.47281 Z M1173.58588,1386.39965 L1179.80222,1386.39965 L1179.80222,1415.37936 L1173.58588,1415.37936 L1173.58588,1386.39965 Z M1215.14008,1401.90706 L1215.1413,1401.90706 L1215.1413,1402.64655 L1191.44089,1402.64655 C1191.52211,1404.24452 1191.83002,1404.98158 1192.36946,1405.89957 C1192.90406,1406.81756 1193.572,1407.81447 1194.36965,1408.49325 C1195.16851,1409.17324 1196.08375,1409.70144 1197.119,1410.08029 C1198.15546,1410.46036 1199.21132,1410.64978 1200.28899,1410.64978 C1201.96067,1410.64978 1203.50384,1410.26122 1204.92216,1409.48166 C1206.3332,1408.70453 1207.58059,1407.59712 1208.65584,1406.15942 L1213.91694,1409.09309 C1212.16284,1411.28728 1210.14083,1413.00304 1207.85092,1414.2428 C1205.55615,1415.47771 1203.09895,1416.11763 1200.4684,1416.1577 C1197.95665,1416.1577 1195.70553,1415.71814 1193.71383,1414.84144 C1191.71728,1413.96231 1190.04318,1412.81482 1188.69154,1411.39899 C1187.33505,1409.98194 1186.29859,1408.35482 1185.58095,1406.51763 C1184.86573,1404.68166 1184.50569,1402.8044 1184.50569,1400.8895 C1184.50569,1398.97339 1184.8633,1397.09856 1185.57852,1395.26137 C1186.29495,1393.42661 1187.3302,1391.79828 1188.68427,1390.38123 C1190.04076,1388.96418 1191.70758,1387.8167 1193.70171,1386.93878 C1195.6922,1386.06087 1197.93483,1385.6213 1200.44416,1385.6213 C1201.95945,1385.6213 1203.57173,1385.94187 1205.32583,1386.57936 C1207.07993,1387.21806 1208.66311,1388.19555 1210.1578,1389.51303 C1211.65248,1390.83051 1212.81502,1392.51713 1213.80905,1394.57167 C1214.80672,1396.62864 1215.14008,1399.07417 1215.14008,1401.90706 Z M1191.43968,1397.85748 L1208.17701,1397.85748 C1207.49694,1395.46294 1206.40108,1393.95118 1204.89064,1392.81341 C1203.37292,1391.67442 1201.61882,1391.1195 1199.62711,1391.1195 C1197.6342,1391.1195 1195.90313,1391.69992 1194.42784,1392.87776 C1192.95255,1394.0556 1191.95609,1395.46294 1191.43968,1397.85748 Z M1241.90138,1395.86001 C1241.06373,1394.5826 1240.0503,1393.53468 1238.85383,1392.71627 C1237.65856,1391.89906 1236.16388,1391.48986 1234.36977,1391.48986 C1233.0157,1391.48986 1231.76104,1391.73999 1230.60335,1392.23906 C1229.44809,1392.73934 1228.45406,1393.40597 1227.61519,1394.24503 C1226.77997,1395.08166 1226.13021,1396.07129 1225.67319,1397.20663 C1225.21376,1398.34561 1224.98465,1399.57202 1224.98465,1400.8895 C1224.98465,1402.20698 1225.21376,1403.43461 1225.67319,1404.57116 C1226.13021,1405.71014 1226.77875,1406.69734 1227.61519,1407.53519 C1228.45285,1408.37182 1229.44809,1409.04088 1230.60335,1409.54116 C1231.75861,1410.04022 1233.0157,1410.28915 1234.36977,1410.28915 C1236.08144,1410.28915 1237.55916,1409.89087 1238.79443,1409.09188 C1240.02848,1408.29411 1241.06494,1407.23648 1241.90017,1405.919 L1247.33826,1409.15259 C1246.70184,1410.19079 1245.92479,1411.12821 1245.00834,1411.96484 C1244.09432,1412.8039 1243.07604,1413.54338 1241.95836,1414.18088 C1240.8431,1414.81958 1239.63814,1415.30772 1238.34347,1415.64771 C1237.04638,1415.98528 1235.72262,1416.15649 1234.36856,1416.15649 C1231.85923,1416.15649 1229.6069,1415.71571 1227.61398,1414.84022 C1225.61986,1413.96109 1223.9494,1412.81482 1222.59169,1411.39777 C1221.23763,1409.98072 1220.19995,1408.3536 1219.48595,1406.51763 C1218.7683,1404.68045 1218.40827,1402.80562 1218.40827,1400.88829 C1218.40827,1398.97217 1218.7683,1397.09613 1219.48595,1395.26016 C1220.20117,1393.4254 1221.23763,1391.79828 1222.59169,1390.38123 C1223.94818,1388.96418 1225.61986,1387.8167 1227.61398,1386.93878 C1229.60811,1386.06087 1231.85923,1385.6213 1234.36856,1385.6213 C1237.43672,1385.6213 1240.01757,1386.28065 1242.1111,1387.59691 C1244.20463,1388.91439 1245.94419,1390.59008 1247.34068,1392.62641 L1241.90138,1395.86001 Z M1285.38183,1397.2382 C1285.38183,1395.40223 1285.67034,1393.76418 1286.251,1392.32891 C1286.82924,1390.89122 1287.59295,1389.67331 1288.55182,1388.6764 C1289.50828,1387.67827 1290.62353,1386.92057 1291.90002,1386.40086 C1293.17408,1385.88237 1294.53057,1385.6213 1295.96343,1385.6213 C1298.15394,1385.6213 1300.00744,1386.10215 1301.52516,1387.05899 C1303.03561,1388.01705 1304.07328,1389.25439 1304.6297,1390.77101 L1304.75092,1390.77101 C1305.30976,1389.25439 1306.34622,1388.01584 1307.85909,1387.05899 C1309.37438,1386.10094 1311.22547,1385.6213 1313.4184,1385.6213 C1314.85611,1385.6213 1316.20775,1385.88115 1317.48424,1386.40086 C1318.76072,1386.92057 1319.87598,1387.67827 1320.83243,1388.6764 C1321.78888,1389.67453 1322.55623,1390.89244 1323.13325,1392.32891 C1323.71149,1393.76539 1324,1395.40344 1324,1397.2382 L1324,1415.38057 L1317.78245,1415.38057 L1317.78245,1397.29648 C1317.78245,1395.54065 1317.30361,1394.19282 1316.34958,1393.2554 C1315.39071,1392.31799 1314.27545,1391.84806 1312.99897,1391.84806 C1311.4861,1391.84806 1310.24113,1392.3277 1309.26528,1393.28576 C1308.28701,1394.24381 1307.79969,1395.86001 1307.79969,1398.13433 L1307.79969,1415.37936 L1301.58214,1415.37936 L1301.58214,1398.13433 C1301.58214,1395.86001 1301.09482,1394.24381 1300.11655,1393.28576 C1299.1407,1392.3277 1297.89573,1391.84806 1296.38286,1391.84806 C1295.10395,1391.84806 1293.99112,1392.31677 1293.03467,1393.2554 C1292.07579,1394.19282 1291.59938,1395.54065 1291.59938,1397.29648 L1291.59938,1415.37936 L1285.38183,1415.37936 L1285.38183,1397.2382 Z M1259.00602,1393.96453 C1258.89449,1394.06289 1258.76842,1394.1406 1258.66296,1394.24624 C1257.82652,1395.08409 1257.18039,1396.07129 1256.72338,1397.20906 C1256.26152,1398.34561 1256.03241,1399.57445 1256.03241,1400.89072 C1256.03241,1402.2082 1256.26152,1403.43582 1256.72338,1404.57359 C1257.18039,1405.71014 1257.82773,1406.69856 1258.66296,1407.5364 C1259.50425,1408.37425 1260.49828,1409.04331 1261.65354,1409.54359 C1262.7397,1410.01108 1263.91921,1410.25272 1265.18357,1410.27822 L1260.09582,1415.3745 C1259.60486,1415.21907 1259.12482,1415.04422 1258.66296,1414.84265 C1256.67126,1413.96352 1254.99716,1412.81482 1253.64067,1411.39899 C1252.28903,1409.98194 1251.25257,1408.35603 1250.53492,1406.51763 C1249.81728,1404.68166 1249.45725,1402.8044 1249.45725,1400.8895 C1249.45725,1398.9746 1249.81728,1397.09856 1250.53492,1395.26137 C1251.25135,1393.42661 1252.28903,1391.79949 1253.64067,1390.38244 C1254.99837,1388.96539 1256.67126,1387.8167 1258.66296,1386.93878 C1260.65587,1386.06087 1262.9082,1385.6213 1265.41996,1385.6213 C1266.04789,1385.6213 1266.65644,1385.64923 1267.25286,1385.70387 L1259.00602,1393.96453 Z M1281.38024,1400.8895 C1281.38024,1402.8044 1281.02021,1404.68166 1280.30135,1406.51885 C1279.58735,1408.35482 1278.54725,1409.98194 1277.19561,1411.39899 C1275.8379,1412.81604 1274.16502,1413.96231 1272.17089,1414.84144 C1270.17798,1415.71692 1267.92807,1416.1577 1265.41874,1416.1577 C1264.83687,1416.1577 1264.27561,1416.12856 1263.72404,1416.0812 L1272.5976,1407.01427 C1273.21584,1406.28935 1273.74316,1405.49279 1274.11774,1404.57116 C1274.57354,1403.43461 1274.80144,1402.20698 1274.80144,1400.8895 C1274.80144,1399.57324 1274.57475,1398.3444 1274.11774,1397.20784 C1273.65952,1396.07007 1273.00976,1395.08287 1272.1721,1394.24381 C1271.33566,1393.40476 1270.33921,1392.73812 1269.18395,1392.23784 C1268.13779,1391.78371 1267.00556,1391.54814 1265.7909,1391.50564 L1270.84592,1386.44336 C1271.29808,1386.5915 1271.7454,1386.74935 1272.1721,1386.93878 C1274.16623,1387.8167 1275.84033,1388.96418 1277.19682,1390.38123 C1278.54846,1391.79828 1279.58735,1393.4254 1280.30256,1395.26137 C1281.02263,1397.09734 1281.38024,1398.97339 1281.38024,1400.8895 Z" id="Combined-Shape"></path>
        </g>
    </g>
</svg>