<?xml version="1.0" encoding="UTF-8"?>
<svg width="303px" height="44px" viewBox="0 0 303 44" version="1.1" xmlns="http://www.w3.org/2000/svg" xmlns:xlink="http://www.w3.org/1999/xlink">
    <!-- Generator: Sketch 52.5 (67469) - http://www.bohemiancoding.com/sketch -->
    <title>fussballdaten_logo@3x</title>
    <desc>Created with Sketch.</desc>
    <g id="Page-1" stroke="none" stroke-width="1" fill="none" fill-rule="evenodd">
        <g id="Grafiken" transform="translate(-343.000000, -1495.000000)" fill="#FFFFFF">
            <g id="fussballdaten_logo" transform="translate(343.000000, 1495.000000)">
                <g id="Group" transform="translate(58.029563, 5.451327)">
                    <path d="M52.6822751,14.2069381 C51.5688085,13.1318584 49.5011645,12.259646 47.8720527,12.259646 C46.5989075,12.259646 44.6099344,12.6579823 44.6099344,14.2867611 C44.6099344,14.6453805 44.7707815,14.8412389 45.0480771,15.0406018 C47.6313663,16.7523186 54.9867108,16.392531 54.9867108,22.1970265 C54.9867108,27.8403186 49.6990103,29.6303009 45.0083522,29.6303009 C41.5106105,29.6303009 38.2484923,28.7545841 35.9440566,26.4105133 L39.4414087,22.5930265 C40.7542789,24.1443186 42.9407082,25.0979115 45.0083522,25.0979115 C46.3208329,25.0979115 48.5871015,24.9787611 48.5871015,23.1506195 C48.5871015,20.2886726 38.6881928,21.9197876 38.6881928,15.0818761 C38.6881928,10.032 43.0999974,7.80746903 47.8720527,7.80746903 C51.1306658,7.80746903 53.4370488,8.32339823 55.9011632,10.3107965 L52.6822751,14.2069381 Z" id="Path"></path>
                    <path d="M72.7297365,14.2069381 C71.6162699,13.1318584 69.5505733,12.259646 67.9195141,12.259646 C66.6467584,12.259646 64.6573959,12.6579823 64.6573959,14.2867611 C64.6573959,14.6453805 64.8186324,14.8412389 65.0970964,15.0406018 C67.6807751,16.7523186 75.036509,16.392531 75.036509,22.1970265 C75.036509,27.8403186 69.7468612,29.6303009 65.0562031,29.6303009 C61.5584614,29.6303009 58.2982905,28.7545841 55.9919075,26.4105133 L59.4912069,22.5930265 C60.8036877,24.1443186 62.9905064,25.0979115 65.0562031,25.0979115 C66.3702416,25.0979115 68.6349524,24.9787611 68.6349524,23.1506195 C68.6349524,20.2886726 58.7360437,21.9197876 58.7360437,15.0818761 C58.7360437,10.032 63.1478483,7.80746903 67.9199036,7.80746903 C71.1800746,7.80746903 73.4848997,8.32339823 75.950572,10.3107965 L72.7297365,14.2069381 Z" id="Path"></path>
                    <path d="M128.362951,28.8266195 C128.330237,29.0057345 128.154201,29.1521416 127.971933,29.1521416 L122.394085,29.1521416 C122.211817,29.1521416 122.088748,29.0053451 122.120684,28.8258407 L126.682431,3.01458407 C126.714366,2.83546903 126.884171,2.64895575 127.059428,2.60028319 L133.194594,0.900247788 C133.369851,0.851575221 133.486689,0.958265487 133.453974,1.13738053 L128.362951,28.8266195 Z" id="Path"></path>
                    <path d="M137.179161,28.8266195 C137.146446,29.0057345 136.97041,29.1521416 136.788143,29.1521416 L131.210294,29.1521416 C131.028027,29.1521416 130.904958,29.0053451 130.936893,28.8258407 L135.497861,3.01458407 C135.529797,2.83546903 135.699602,2.64895575 135.874859,2.60028319 L142.010803,0.900247788 C142.18606,0.851575221 142.302898,0.958265487 142.270184,1.13738053 L137.179161,28.8266195 Z" id="Path"></path>
                    <path d="M165.059445,0.986300885 L159.584414,2.48230088 C159.230395,2.57886726 158.890785,2.95384071 158.828082,3.31518584 L157.857158,8.90240708 C156.346832,8.25019469 154.607503,7.93635398 152.903225,7.87015929 C152.741988,7.85964602 152.579584,7.84718584 152.423799,7.84718584 C152.364212,7.84718584 152.307351,7.85341593 152.247763,7.85497345 C152.234132,7.85497345 152.218943,7.85341593 152.205312,7.85341593 C151.538557,7.85341593 151.08873,7.89469027 150.779109,7.97918584 C146.877108,8.60063717 143.890338,11.431823 143.119986,15.5600354 C142.762851,17.6650265 142.36638,19.8116814 142.008077,21.9197876 C141.888902,22.5135929 141.84762,23.1120708 141.84762,23.7066549 C141.84762,26.8945133 143.588896,28.7748319 146.223983,29.3962832 C146.524257,29.5446372 147.028997,29.6178407 147.916967,29.6178407 C147.92904,29.6178407 147.941503,29.6178407 147.952407,29.6178407 C148.078203,29.6225133 148.200883,29.6299115 148.327847,29.6299115 C148.479347,29.6299115 148.637468,29.6178407 148.797925,29.5964248 C150.858949,29.4967434 152.961644,29.0329912 154.626976,28.0389027 L154.537789,28.4987611 C154.468855,28.8585487 154.711099,29.152531 155.07836,29.152531 L160.026841,29.152531 C160.392544,29.152531 160.745005,28.8569912 160.809266,28.495646 L165.587553,1.46679646 C165.650645,1.10700885 165.413464,0.889734513 165.059445,0.986300885 Z M148.526082,21.6409912 C148.57087,21.3769912 148.658109,20.867292 148.72237,20.5063363 L149.48026,16.232885 C149.838952,14.1672212 151.388225,12.536885 153.575433,12.536885 C155.246217,12.536885 156.717598,13.4523186 156.717598,15.2804602 C156.69462,15.2574867 156.659568,15.5962478 156.63659,15.7368142 C156.61517,15.8789381 156.546625,16.2909027 156.483532,16.6522478 L155.723695,21.0436814 C155.325667,23.1903363 153.694608,24.6602478 151.467675,24.6602478 C149.798838,24.6602478 148.525693,23.6283894 148.525693,21.8777345 C148.526082,21.6409912 148.526082,21.6409912 148.526082,21.6409912 Z" id="Shape" fill-rule="nonzero"></path>
                    <path d="M186.555308,8.20541593 L181.527767,8.20541593 C181.161675,8.20541593 180.808045,8.49939823 180.743005,8.86074336 L180.735995,8.90357522 C179.00835,8.14545133 176.971473,7.83161062 175.032351,7.83161062 C174.392078,7.83161062 173.953936,7.86976991 173.645094,7.94647788 C169.638717,8.49161062 166.662463,11.4084602 165.910415,15.5592566 C165.554059,17.6642478 165.15681,19.8109027 164.798896,21.9190088 C164.678942,22.5128142 164.637659,23.0704071 164.637659,23.7058761 C164.637659,26.9945841 166.492269,28.891646 169.269509,29.4507965 C169.440093,29.4998584 169.661695,29.5333451 169.934707,29.5563186 C170.315599,29.6022655 170.710901,29.6295221 171.119445,29.6295221 C171.354289,29.6295221 171.605102,29.5960354 171.862535,29.5469735 C173.834761,29.4231504 175.827239,28.9636814 177.421299,28.0170973 L177.329387,28.4979823 C177.258895,28.8577699 177.502307,29.1517522 177.868789,29.1517522 L182.816491,29.1517522 C183.184141,29.1517522 183.536213,28.8562124 183.600474,28.4964248 L187.104447,8.8599646 C187.169098,8.50095575 186.922569,8.20541593 186.555308,8.20541593 Z M171.319238,21.6409912 C171.362078,21.3769912 171.450875,20.867292 171.515136,20.5063363 L172.273026,16.232885 C172.631719,14.1672212 174.021702,12.536885 176.250193,12.536885 C177.919808,12.536885 179.46947,13.4523186 179.46947,15.3186195 C179.46947,15.2972035 179.460123,15.6250619 179.449219,15.7566726 C179.438314,15.8882832 179.377168,16.2909027 179.31135,16.6518584 L178.516851,21.043292 C178.118823,23.1899469 176.487374,24.6598584 174.26083,24.6598584 C172.591604,24.6598584 171.318848,23.628 171.318848,21.8773451 C171.319238,21.6409912 171.319238,21.6409912 171.319238,21.6409912 Z" id="Shape" fill-rule="nonzero"></path>
                    <path d="M201.313512,8.20541593 L198.352835,8.20541593 C197.987132,8.20541593 197.742162,7.90987611 197.810707,7.54969912 L198.960783,1.47146903 C199.028159,1.11168142 198.794873,0.895575221 198.441632,0.993699115 L192.963875,2.49281416 C192.609856,2.58938053 192.264015,2.96279646 192.196639,3.32258407 L191.386172,7.58824779 C191.317238,7.94959292 190.96205,8.24357522 190.594789,8.24357522 L189.345012,8.24357522 C188.979308,8.24357522 188.629963,8.54067257 188.571933,8.9020177 L187.979564,12.5540177 C187.919587,12.916531 188.172347,13.2136283 188.538829,13.2136283 L189.748492,13.2136283 C189.751608,13.2136283 189.752776,13.2136283 189.755892,13.2136283 L192.759019,13.2136283 C191.441865,13.3541947 190.381365,14.2653451 190.016441,15.4930619 L188.547787,23.8651327 C188.467558,24.3016283 188.427833,24.7412389 188.427833,25.2178407 C188.427833,28.4376283 191.011901,29.5107611 193.793815,29.5107611 C195.345035,29.5107611 197.75112,29.0419469 197.75112,29.0419469 C198.110591,28.971469 198.456821,28.619469 198.521472,28.2581239 L199.280919,23.9048496 C198.446306,24.0247788 197.651418,24.0641062 196.816805,24.0641062 C195.901184,24.0641062 195.227807,23.7455929 195.227807,22.7518938 C195.227807,22.5544779 195.227807,22.5544779 195.227807,22.5544779 C195.24767,22.3570619 195.317772,21.9003186 195.382033,21.540531 L196.740081,13.8685664 C196.804342,13.5068319 197.156803,13.2116814 197.522506,13.2116814 L200.483183,13.2116814 C200.850443,13.2116814 201.199789,12.9161416 201.259766,12.5547965 L201.872387,8.86152212 C201.931974,8.50095575 201.680772,8.20541593 201.313512,8.20541593 Z" id="Path"></path>
                    <path d="M238.859028,7.80707965 C238.70597,7.80707965 238.551744,7.81759292 238.393623,7.83277876 C238.257312,7.82810619 238.122949,7.82382301 237.963659,7.82382301 C236.054526,7.82382301 234.050753,8.12870796 232.340244,8.86074336 C232.380359,8.51925664 232.145904,8.24357522 231.791884,8.24357522 L226.802121,8.24357522 C226.436807,8.24357522 226.083956,8.53911504 226.021253,8.90046018 L222.594004,28.495646 C222.529743,28.8569912 222.778997,29.152531 223.14509,29.152531 L228.252081,29.152531 C228.619731,29.152531 228.972582,28.8569912 229.035285,28.495646 L230.987649,17.3476814 C231.385677,15.1200354 232.658433,12.9348319 235.201997,12.9348319 C236.990788,12.9348319 237.98508,13.9686372 237.98508,15.4381593 C237.98508,15.8762124 237.891609,16.2975221 237.891609,16.2975221 C237.81177,16.6553628 237.695321,17.244885 237.63106,17.6046726 L235.713748,28.495646 C235.651045,28.8569912 235.899131,29.152531 236.265224,29.152531 L241.371825,29.152531 C241.739476,29.152531 242.091937,28.8569912 242.15503,28.495646 L244.545536,14.9623363 C244.625375,14.4047434 244.782717,13.4523186 244.782717,12.895115 C244.782717,9.83419469 242.199428,7.80707965 238.859028,7.80707965 Z" id="Path"></path>
                    <path d="M121.702404,8.20541593 L116.675252,8.20541593 C116.307602,8.20541593 115.95553,8.49939823 115.889711,8.86074336 L115.883479,8.89150442 C114.20179,8.1699823 112.235796,7.86548673 110.353145,7.85614159 C110.290442,7.85458407 110.224623,7.84718584 110.163478,7.84718584 C110.015094,7.84718584 109.872941,7.85925664 109.726893,7.86548673 C109.699631,7.86704425 109.668864,7.86704425 109.64277,7.86860177 C105.211103,8.09054867 101.861746,11.1191504 101.0579,15.559646 C100.700765,17.6646372 100.304294,19.811292 99.945991,21.9193982 C99.8264267,22.5132035 99.7870913,23.0707965 99.7870913,23.7062655 C99.7870913,27.6810619 102.491113,29.6299115 106.268098,29.6299115 C106.51151,29.6299115 106.774785,29.5948673 107.044292,29.5411327 C109.001329,29.4188673 110.97745,28.9652389 112.566837,28.0342301 L112.476482,28.4983717 C112.407548,28.8581593 112.65096,29.1521416 113.017442,29.1521416 L117.965144,29.1521416 C118.331237,29.1521416 118.684866,28.8566018 118.749127,28.4968142 L122.2531,8.86035398 C122.316582,8.50095575 122.068886,8.20541593 121.702404,8.20541593 Z M106.466722,21.6409912 C106.509563,21.3769912 106.596802,20.867292 106.661063,20.5063363 L107.419342,16.232885 C107.777645,14.1672212 109.169186,12.536885 111.39612,12.536885 C113.065346,12.536885 114.615787,13.4523186 114.615787,15.3186195 C114.615787,15.2972035 114.607997,15.6250619 114.595145,15.7566726 C114.585019,15.8882832 114.521927,16.2909027 114.457276,16.6518584 L113.66122,21.043292 C113.26397,23.1899469 111.63369,24.6598584 109.406757,24.6598584 C107.737531,24.6598584 106.466333,23.628 106.466333,21.8773451 C106.466722,21.6409912 106.466722,21.6409912 106.466722,21.6409912 Z" id="Shape" fill-rule="nonzero"></path>
                    <path d="M92.6167404,7.84679646 C92.4757558,7.84679646 92.3289293,7.85730973 92.1801555,7.87444248 C92.1680823,7.87444248 92.1587352,7.87288496 92.1451041,7.87288496 C90.2570013,7.87288496 88.2769859,8.17115044 86.5785501,8.88644248 L87.889473,1.46679646 C87.9537339,1.10700885 87.7165527,0.890902655 87.3625334,0.989026549 L81.8754293,2.51267257 C81.52141,2.61040708 81.1818008,2.98732743 81.1175398,3.34711504 L76.6714627,28.495646 C76.6072018,28.8569912 76.8556774,29.152531 77.2229383,29.152531 L82.1293573,29.152531 C82.4970077,29.152531 82.8572584,28.8585487 82.9308663,28.5003186 L83.0165476,28.0774513 C84.0349859,28.7386195 85.2356915,29.1844602 86.5037738,29.4574159 C87.0182506,29.5921416 87.5510321,29.6684602 88.0853715,29.6684602 C92.7363046,29.6684602 96.9907674,26.6492035 97.8269383,21.9575575 C98.1832943,19.811292 98.5817121,17.704354 98.9404049,15.559646 C99.0580219,15.0020531 99.0977468,14.4051327 99.0977468,13.8093805 C99.0977468,9.83419469 96.3945039,7.84679646 92.6167404,7.84679646 Z M92.4192841,15.7566726 C92.3978638,16.0409204 92.3258136,16.5693097 92.2611632,16.9294867 L91.4651067,21.400354 C91.1064139,23.4687434 89.5555835,24.9386549 87.4096581,24.9386549 C85.7392635,24.9386549 84.2671041,24.0247788 84.2671041,22.2367434 C84.2671041,21.9976637 84.2671041,21.9976637 84.2671041,21.9976637 C84.3115026,21.736 84.3987416,21.2263009 84.4614447,20.8645664 L85.1831144,16.7106549 C85.5807532,14.4467965 87.1308046,12.8156814 89.4773021,12.8156814 C91.1465283,12.8156814 92.4192841,13.7700531 92.4192841,15.5179823 C92.4192841,15.7566726 92.4192841,15.7566726 92.4192841,15.7566726 Z" id="Shape" fill-rule="nonzero"></path>
                    <path d="M36.1395656,8.24357522 L31.07191,8.24357522 C30.7046491,8.24357522 30.3521877,8.53911504 30.2863689,8.90046018 L28.2985643,20.0102655 C27.900536,22.2367434 26.6273907,24.4624425 24.0842159,24.4624425 C22.2954254,24.4624425 21.3813625,23.587115 21.3813625,21.9197876 C21.3813625,21.5214513 21.4257609,21.1098761 21.4257609,21.1098761 C21.4654859,20.7450265 21.5515566,20.1527788 21.6173753,19.791823 L23.5681812,8.90084956 C23.6324422,8.53950442 23.3863033,8.2439646 23.0182635,8.2439646 L17.9128303,8.2439646 C17.5451799,8.2439646 17.1946658,8.53950442 17.1319627,8.90084956 L14.7796234,22.4357168 C14.6620064,22.951646 14.5821671,23.7066549 14.5821671,24.263469 C14.5821671,27.1970619 16.3752416,28.9504425 18.8977751,29.4422301 C19.1139254,29.5033628 19.397063,29.5446372 19.7814602,29.5641062 C19.9925476,29.5796814 20.2086979,29.5886372 20.4260167,29.5886372 C20.5623278,29.5886372 20.7017545,29.5781239 20.8423496,29.5652743 C23.022937,29.507646 25.2849216,29.0551858 27.0554075,28.0019115 L26.9743997,28.4952566 C26.9144229,28.8566018 27.1671825,29.1521416 27.5336645,29.1521416 L32.4431992,29.1521416 C32.8092918,29.1521416 33.1613638,28.8566018 33.2256247,28.4952566 L36.6910411,8.9000708 C36.7537442,8.53911504 36.5056581,8.24357522 36.1395656,8.24357522 Z" id="Path"></path>
                    <path d="M14.4166465,8.25136283 L12.2773419,8.25136283 C11.9116388,8.25136283 11.6693946,7.95738053 11.738329,7.59759292 L11.9832995,6.34339823 C12.1823136,5.27026549 12.9772018,4.79249558 13.8912648,4.79249558 C14.5268638,4.79249558 15.946446,4.78938053 15.946446,4.78938053 C16.3137069,4.79093805 16.6614949,4.49695575 16.7199139,4.1340531 L17.2343907,0.950867257 C17.2924203,0.589522124 17.0400501,0.285026549 16.6739576,0.277238938 C16.6739576,0.277238938 13.3401787,0.221946903 13.2163303,0.221946903 C9.59746658,0.221946903 6.37702057,1.93093805 5.62224679,6.26357522 L5.36637147,7.59564602 C5.29743702,7.95543363 4.9418599,8.25097345 4.57459897,8.25097345 L2.94977121,8.25097345 C2.58212082,8.25097345 2.23277506,8.54651327 2.17162982,8.90785841 L1.559009,12.5224779 C1.49786375,12.8842124 1.74750771,13.1797522 2.1151581,13.1797522 L6.74467095,13.1797522 C5.2008509,13.3448496 4.00326093,14.5651681 3.87045501,16.1160708 L3.87045501,16.1082832 L0.2531491,36.4522478 C0.188888175,36.8139823 0.426069409,37.0308673 0.779699229,36.9362478 L6.2212365,35.4787965 C6.57486632,35.384177 6.91798072,35.0103717 6.9806838,34.6486372 L10.6361568,13.8366372 C10.6992494,13.4749027 11.0513213,13.1797522 11.4189717,13.1797522 L13.6225373,13.1797522 C13.9897982,13.1797522 14.3379756,12.8842124 14.3960051,12.5209204 L14.9798059,8.90941593 C15.0366671,8.54690265 14.7839075,8.25136283 14.4166465,8.25136283 Z" id="Path"></path>
                    <path d="M219.268014,26.6628319 C219.531289,26.3964956 219.600224,25.9082124 219.433145,25.5604956 L217.897114,22.8336637 C216.266445,23.7856991 214.119351,24.7412389 212.131546,24.7412389 C210.342756,24.7412389 208.235387,23.9445664 208.235387,21.8395752 C208.235387,21.8349027 208.236945,21.8306195 208.236945,21.8259469 L208.24006,21.8364602 C208.24006,21.8092035 208.241618,21.7877876 208.241618,21.7601416 C208.249407,21.4692743 208.284459,21.1784071 208.333141,20.8871504 C208.427001,20.5581239 208.748306,20.2976283 209.089862,20.2886726 L220.442237,20.2902301 C220.798982,20.3346195 221.179095,20.0943717 221.299828,19.756 C221.622301,18.1268319 222.070959,16.1413805 222.070959,14.6041062 C222.070959,10.032 218.41237,7.80746903 214.198022,7.80746903 C208.434012,7.80746903 203.504225,11.3442124 202.430873,17.1884248 C202.152019,18.8573097 201.59587,21.123115 201.59587,22.7927788 C201.59587,27.8021593 206.048179,29.6684602 210.421427,29.6684602 C213.475184,29.6684602 216.378999,28.699292 218.812346,27.0502655 C219.094704,26.8341593 219.268014,26.6628319 219.268014,26.6628319 Z M209.228121,15.9431858 L209.348853,15.4377699 C209.746103,13.6509027 211.258377,12.536885 213.205288,12.536885 C214.796233,12.536885 215.949424,13.3724956 215.949424,15.0402124 C215.949424,15.5592566 215.876206,15.9373451 215.876206,15.9373451 C215.807271,16.2975221 215.450136,16.591115 215.082875,16.591115 L209.738314,16.591115 C209.371832,16.5907257 209.14205,16.3002478 209.228121,15.9431858 Z" id="Shape" fill-rule="nonzero"></path>
                </g>
                <path d="M22.0091722,0.260884956 C10.0289884,0.260884956 0.316631105,9.97125664 0.316631105,21.9489912 C0.316631105,33.9278938 10.0289884,43.6378761 22.0091722,43.6378761 C33.989356,43.6378761 43.7017134,33.9275044 43.7017134,21.9489912 C43.7013239,9.97125664 33.989356,0.260884956 22.0091722,0.260884956 Z M15.0627609,31.4019823 C15.0627609,31.6924602 14.8251902,31.9280354 14.5358213,31.9280354 L9.41948329,31.9280354 C9.13167224,31.9280354 8.89565938,31.6928496 8.89565938,31.4019823 L8.89565938,21.6740885 C8.89565938,21.3894513 9.11180977,21.0573097 9.38443188,20.9490619 L14.5771041,18.8316106 C14.8392108,18.7311504 15.0627609,18.8732743 15.0627609,19.1598584 L15.0627609,31.4019823 Z M25.3063419,31.4019823 C25.3063419,31.6924602 25.0691607,31.9280354 24.7840758,31.9280354 L19.6689062,31.9280354 C19.3842108,31.9280354 19.142356,31.6928496 19.142356,31.4019823 L19.142356,12.5824425 C19.142356,12.2970265 19.3596748,11.9765664 19.6276234,11.8581947 L24.8191272,9.75748673 C25.0901915,9.65040708 25.3059524,9.79097345 25.3059524,10.0783363 L25.3059524,31.4019823 L25.3063419,31.4019823 Z M35.5545964,31.4019823 C35.5545964,31.6924602 35.318973,31.9280354 35.026099,31.9280354 L29.9113188,31.9280354 C29.6250656,31.9280354 29.3863265,31.6928496 29.3863265,31.4019823 L29.3863265,23.1658053 C29.3863265,22.8776637 29.6083188,22.5517522 29.8747095,22.4435044 L35.0677712,20.3357876 C35.334162,20.2213097 35.5545964,20.3692743 35.5545964,20.6616991 L35.5545964,31.4019823 Z" id="Shape" fill-rule="nonzero"></path>
            </g>
        </g>
    </g>
</svg>