<svg height="100" viewBox="0 0 689 100" width="689" xmlns="http://www.w3.org/2000/svg"><g fill="#282c39" fill-rule="evenodd"><g transform="translate(131.858407 12.389381)"><path d="m119.707965 32.2884956c-2.530089-2.4433629-7.228319-4.4256637-10.930089-4.4256637-2.89292 0-7.412389.9053097-7.412389 4.6070796 0 .8150443.365486 1.260177.995575 1.7132743 5.869911 3.8902655 22.583186 3.0725664 22.583186 16.2646018 0 12.8256637-12.015044 16.8938053-22.673452 16.8938053-7.9477872 0-15.3601765-1.9902655-20.5964597-7.3176991l7.9469026-8.6761062c2.9831859 3.5256637 7.9513275 5.6929204 12.6495571 5.6929204 2.982301 0 8.131859-.2707965 8.131859-4.4256638 0-6.5044247-22.4929205-2.7973451-22.4929205-18.338053 0-11.4769912 10.0247788-16.5327434 20.8681415-16.5327434 7.404425 0 12.645133 1.1725664 18.244248 5.6893805z"/><path d="m165.261062 32.2884956c-2.530089-2.4433629-7.223894-4.4256637-10.930089-4.4256637-2.892035 0-7.412389.9053097-7.412389 4.6070796 0 .8150443.366372 1.260177.999115 1.7132743 5.870797 3.8902655 22.584956 3.0725664 22.584956 16.2646018 0 12.8256637-12.019469 16.8938053-22.677876 16.8938053-7.947788 0-15.355752-1.9902655-20.59646-7.3176991l7.951327-8.6761062c2.982301 3.5256637 7.951327 5.6929204 12.645133 5.6929204 2.98584 0 8.131858-.2707965 8.131858-4.4256638 0-6.5044247-22.49292-2.7973451-22.49292-18.338053 0-11.4769912 10.024779-16.5327434 20.868141-16.5327434 7.407965 0 12.645133 1.1725664 18.247788 5.6893805z"/><path d="m291.674336 65.5150442c-.074336.4070797-.474336.7398231-.888495.7398231h-12.674337c-.414159 0-.693805-.3336284-.621239-.741593l10.365487-58.66194687c.072567-.40707964.458407-.83097345.856637-.94159292l13.940708-3.86371681c.39823-.11061947.663717.13185841.589381.53893805z"/><path d="m311.70708 65.5150442c-.074337.4070797-.474337.7398231-.888496.7398231h-12.674336c-.41416 0-.693806-.3336284-.621239-.741593l10.363717-58.66194687c.072566-.40707964.458407-.83097345.856637-.94159292l13.942478-3.86371681c.39823-.11061947.663717.13185841.58938.53893805z"/><path d="m375.058407 2.24159292-12.440708 3.4c-.804425.21946903-1.576106 1.07168142-1.718584 1.89292035l-2.206195 12.69823013c-3.431858-1.4823009-7.38407-2.1955753-11.256637-2.3460177-.366371-.0238938-.735398-.0522124-1.08938-.0522124-.135399 0-.264602.0141593-.4.0176991-.030974 0-.065487-.0035398-.096461-.0035398-1.515044 0-2.537168.0938053-3.240707.2858407-8.866372 1.4123894-15.653098 7.8469026-17.40354 17.2292035-.811505 4.7840708-1.71239 9.6628319-2.526549 14.4539823-.270796 1.3495575-.364602 2.7097345-.364602 4.061062 0 7.2451327 3.956637 11.518584 9.944248 12.9309734.682301.3371682 1.829204.5035398 3.846903.5035398h.080531c.28584.0106195.564601.0274337.853097.0274337.344248 0 .70354-.0274337 1.068142-.0761062 4.683185-.2265487 9.461062-1.280531 13.245132-3.539823l-.202655 1.0451327c-.156637.8176991.393806 1.4858407 1.228319 1.4858407h11.244248c.830973 0 1.631858-.6716814 1.777876-1.4929203l10.857522-61.42920358c.143363-.81769912-.395575-1.31150443-1.2-1.0920354zm-37.568142 46.94247788c.10177-.6.3-1.7584071.446018-2.5787611l1.722124-9.7123893c.815044-4.6946903 4.335398-8.4 9.30531-8.4 3.79646 0 7.139823 2.0805309 7.139823 6.2353982-.052213-.0522124-.131859.7176991-.184071 1.0371681-.048673.3230089-.204425 1.2592921-.347788 2.080531l-1.726548 9.980531c-.904425 4.878761-4.61062 8.219469-9.670797 8.219469-3.792035 0-6.684955-2.3451327-6.684955-6.3238938.000884-.5380531.000884-.5380531.000884-.5380531z" fill-rule="nonzero"/><path d="m423.902655 18.6486726h-11.423894c-.831858 0-1.635398.6681416-1.783186 1.4893805l-.015929.0973451c-3.925664-1.7230088-8.553982-2.4362832-12.960177-2.4362832-1.454867 0-2.450442.0867257-3.152212.261062-9.10354 1.238938-15.866372 7.8681416-17.575222 17.3017699-.809734 4.7840708-1.712389 9.6628319-2.525663 14.4539823-.272567 1.3495575-.366372 2.6168142-.366372 4.061062 0 7.4743362 4.214159 11.7858407 10.524779 13.0566371.38761.1115044.89115.1876106 1.511504.239823.865487.1044248 1.763717.1663717 2.692036.1663717.533628 0 1.103539-.0761062 1.688495-.1876106 4.481416-.2814159 9.00885-1.3256637 12.630974-3.4769912l-.20885 1.0929204c-.160177.8176991.39292 1.4858407 1.225664 1.4858407h11.242478c.835398 0 1.635398-.6716814 1.781416-1.4893805l7.961946-44.6283186c.146903-.8159292-.413274-1.4876106-1.247787-1.4876106zm-34.620354 30.5353982c.097345-.6.299115-1.7584071.445133-2.5787611l1.722124-9.7123893c.815044-4.6946903 3.973451-8.4 9.037168-8.4 3.793805 0 7.315044 2.0805309 7.315044 6.3221238 0-.0486725-.021239.6964602-.046018.9955753-.024779.299115-.163717 1.2141593-.313274 2.0345132l-1.80531 9.980531c-.904425 4.8787611-4.611504 8.219469-9.670796 8.219469-3.792921 0-6.684956-2.3451327-6.684956-6.3238938.000885-.5371681.000885-.5371681.000885-.5371681z" fill-rule="nonzero"/><path d="m457.437168 18.6486726h-6.727433c-.830974 0-1.387611-.6716814-1.231859-1.4902655l2.613274-13.81415931c.153098-.81769912-.376991-1.30884956-1.179646-1.08584071l-12.446902 3.40707965c-.804425.21946902-1.590266 1.06814159-1.743363 1.8858407l-1.841593 9.69469027c-.156637.8212389-.963717 1.4893805-1.79823 1.4893805h-2.839823c-.830974 0-1.624779.6752213-1.756637 1.4964602l-1.346018 8.3c-.136283.8238938.438053 1.4991151 1.270797 1.4991151h2.748672.016814 6.823894c-2.99292.319469-5.402655 2.3902654-6.231858 5.1805309l-3.337169 19.0274337c-.1823.9920354-.272566 1.9911504-.272566 3.0743362 0 7.3176992 5.871682 9.7566372 12.19292 9.7566372 3.524779 0 8.992036-1.0654867 8.992036-1.0654867.816814-.160177 1.60354-.960177 1.750442-1.781416l1.725664-9.8938053c-1.89646.2725664-3.702655.3619469-5.599115.3619469-2.080531 0-3.610619-.7238938-3.610619-2.9823008 0-.4486726 0-.4486726 0-.4486726.045132-.4486726.204424-1.4867257.350442-2.3044248l3.085841-17.4362832c.146017-.8221239.946902-1.4929203 1.777876-1.4929203h6.727433c.834514 0 1.628319-.6716814 1.764602-1.4929204l1.392036-8.3938053c.135398-.819469-.435399-1.4911504-1.269912-1.4911504z"/><path d="m542.750442 17.7433628c-.347787 0-.69823.0238938-1.057522.0584071-.309734-.0106195-.615044-.020354-.976991-.020354-4.338053 0-8.89115.6929204-12.777876 2.3566372.091151-.7761062-.441593-1.4026549-1.246018-1.4026549h-11.338053c-.830088 0-1.631858.6716814-1.774336 1.4929204l-7.787611 44.5345133c-.146017.8212389.420354 1.4929203 1.252213 1.4929203h11.604425c.835398 0 1.637168-.6716814 1.779646-1.4929203l4.436283-25.3362832c.904425-5.0628319 3.79646-10.0292036 9.576106-10.0292036 4.064602 0 6.323894 2.3495576 6.323894 5.6893806 0 .9955752-.21239 1.9530973-.21239 1.9530973-.181416.8132743-.446017 2.1530974-.592035 2.9707965l-4.356637 24.7522124c-.142478.8212389.421239 1.4929203 1.253097 1.4929203h11.60354c.835398 0 1.636283-.6716814 1.779646-1.4929203l5.431858-30.7575222c.181416-1.2672566.538938-3.4318584.538938-4.6982301 0-6.9566371-5.869911-11.5637168-13.460177-11.5637168z"/><path d="m276.539823 18.6486726h-11.423009c-.835398 0-1.635398.6681416-1.784956 1.4893805l-.014159.0699115c-3.821239-1.639823-8.288495-2.3318584-12.566372-2.3530973-.142477-.0035399-.292035-.020354-.430973-.020354-.337168 0-.660177.0274336-.992035.0415929-.061947.0035398-.131859.0035398-.191151.0070796-10.069911.5044248-17.680531 7.3876107-19.50708 17.4796461-.811504 4.7840708-1.712389 9.6628318-2.526548 14.4539823-.271682 1.3495575-.361062 2.6168141-.361062 4.0610619 0 9.0336283 6.144248 13.4628319 14.726549 13.4628319.553097 0 1.151327-.0796461 1.763716-.2017699 4.446903-.2778762 8.937169-1.3088496 12.548673-3.4247788l-.20531 1.0548672c-.156637.8176992.39646 1.4858408 1.229204 1.4858408h11.242478c.831858 0 1.635398-.6716815 1.781416-1.4893806l7.961946-44.6283186c.144248-.8168141-.418584-1.4884955-1.251327-1.4884955zm-34.619469 30.5353982c.097345-.6.295575-1.7584071.441593-2.5787611l1.723009-9.7123893c.814159-4.6946903 3.976106-8.4 9.036283-8.4 3.79292 0 7.315929 2.0805309 7.315929 6.3221238 0-.0486725-.017699.6964602-.046903.9955753-.023008.299115-.166371 1.2141593-.313274 2.0345132l-1.808849 9.980531c-.902655 4.8787611-4.60708 8.219469-9.667257 8.219469-3.79292 0-6.681416-2.3451327-6.681416-6.3238938.000885-.5371681.000885-.5371681.000885-.5371681z" fill-rule="nonzero"/><path d="m210.449558 17.8336283c-.320354 0-.653983.0238938-.992036.0628319-.027434 0-.048672-.0035398-.079646-.0035398-4.290265 0-8.78938.6778761-12.648672 2.3035398l2.978761-16.86283188c.146017-.81769912-.392921-1.30884956-1.197346-1.08584071l-12.468141 3.46283186c-.804425.22212389-1.576106 1.07876106-1.722124 1.89646018l-10.102655 57.15575225c-.146018.8212389.418584 1.4929203 1.253097 1.4929203h11.148673c.835398 0 1.653982-.6681416 1.821239-1.4823009l.19469-.9610619c2.31416 1.5026548 5.042478 2.5159292 7.923894 3.1362832 1.169027.3061947 2.379646.479646 3.593805.479646 10.568142 0 20.235399-6.8619469 22.135399-17.5247788.809734-4.8778761 1.715044-9.6663717 2.530088-14.5407079.267257-1.2672567.357522-2.6238938.357522-3.9778761 0-9.0345133-6.142478-13.5513275-14.726548-13.5513275zm-.448673 17.9769912c-.048673.6460177-.212389 1.8469026-.359292 2.6654867l-1.80885 10.1610619c-.815044 4.700885-4.338938 8.041593-9.215044 8.041593-3.795575 0-7.140708-2.0769912-7.140708-6.140708 0-.5433628 0-.5433628 0-.5433628.100885-.5946903.299115-1.7530974.441593-2.5752213l1.639823-9.4407079c.90354-5.1451328 4.425664-8.8522124 9.757522-8.8522124 3.792921 0 6.684956 2.1690265 6.684956 6.1415929z" fill-rule="nonzero"/><path d="m82.1185841 18.7353982h-11.5150443c-.8345133 0-1.6353982.6716814-1.7849557 1.4929204l-4.5168142 25.2495575c-.9044248 5.060177-3.7973451 10.1185841-9.5761062 10.1185841-4.0646018 0-6.1415929-1.9893806-6.1415929-5.7787611 0-.9053097.100885-1.8407079.100885-1.8407079.0902654-.8292036.2858407-2.1752213.4353982-2.9955753l4.4327433-24.7522124c.1460177-.8212389-.4132743-1.4929203-1.2495575-1.4929203h-11.6008849c-.8353983 0-1.6318584.6716814-1.7743363 1.4929203l-5.3451328 30.761062c-.2672566 1.1725664-.4486725 2.8884956-.4486725 4.1539823 0 6.6672566 4.0743363 10.6522124 9.8061947 11.7699115.4911504.138938 1.1345132.2327434 2.0079646.2769911.479646.0353983.9707964.0557523 1.4646017.0557523.3097345 0 .6265487-.0238939.9460177-.0530974 4.9548673-.1309734 10.0946903-1.159292 14.1176992-3.5530973l-.1840708 1.1212389c-.1362832.8212389.4380531 1.4929204 1.2707964 1.4929204h11.1557522c.8318584 0 1.6318584-.6716815 1.7778761-1.4929204l7.8743363-44.5345133c.1424779-.820354-.4212389-1.4920354-1.2530973-1.4920354z"/><path d="m32.7584071 18.7530973h-4.861062c-.8309734 0-1.3814159-.6681415-1.2247787-1.4858407l.5566371-2.8504424c.4522124-2.4389381 2.2584071-3.5247788 4.3353983-3.5247788 1.4442478 0 4.6699115-.0070796 4.6699115-.0070796.8345132.0035398 1.6247787-.6646018 1.7575221-1.48938058l1.1690265-7.23451327c.1318585-.82123894-.4415929-1.51327434-1.2734513-1.53097345 0 0-7.5752212-.12566372-7.8566371-.12566372-8.2230089 0-15.540708 3.8840708-17.2557523 13.73097342l-.5814159 3.0274337c-.1566372.8176991-.9646018 1.4893805-1.799115 1.4893805h-3.69203543c-.83539823 0-1.62920354.6716814-1.7681416 1.4929203l-1.39203539 8.2150443c-.13893806.8221239.42831858 1.4938053 1.26371681 1.4938053h10.51946901c-3.5079646.3752212-6.22920352 3.1486726-6.53097343 6.6734513v-.0176991l-8.21946903 46.2362832c-.1460177.8221239.39292035 1.3150442 1.19646018 1.1l12.36460178-3.3123894c.8035398-.2150442 1.5831858-1.0646018 1.7256637-1.8867256l8.3061947-47.3c.1433628-.8221239.9433628-1.4929204 1.7787611-1.4929204h5.0070796c.8345133 0 1.6256637-.6716814 1.7575221-1.4973451l1.3265487-8.2079646c.1292035-.8238938-.4451327-1.4955753-1.279646-1.4955753z"/><path d="m498.234513 60.5973451c.59823-.6053097.754868-1.7150442.375222-2.5053097l-3.490266-6.1973451c-3.70531 2.1637168-8.584071 4.3353982-13.100885 4.3353982-4.064602 0-8.853097-1.8106195-8.853097-6.5946903 0-.0106194.00354-.020354.00354-.0309734l.007079.0238938c0-.0619469.00354-.1106195.00354-.1734513.017699-.661062.097345-1.3221239.207965-1.9840708.213274-.7477877.943362-1.339823 1.719469-1.360177l25.795575.0035398c.810619.1008849 1.674336-.4451328 1.948672-1.2141593.732744-3.7026549 1.752213-8.2150442 1.752213-11.7088496 0-10.3911504-8.313275-15.4469026-17.889381-15.4469026-13.097345 0-24.299115 8.0380531-26.738053 21.320354-.633628 3.7929203-1.897345 8.9424778-1.897345 12.7371681 0 11.3849558 10.116814 15.6265487 20.053982 15.6265487 6.938938 0 13.537169-2.2026549 19.066372-5.9504425.641593-.4911504 1.035398-.880531 1.035398-.880531zm-22.813274-24.3628318.274336-1.1486726c.902655-4.0610619 4.338938-6.5929203 8.762832-6.5929203 3.615044 0 6.235398 1.899115 6.235398 5.6893805 0 1.179646-.166371 2.038938-.166371 2.038938-.156638.8185841-.968142 1.4858407-1.802655 1.4858407h-12.144248c-.832743-.0008849-1.354867-.6610619-1.159292-1.4725663z" fill-rule="nonzero"/></g><path d="m50.0106195.59292035c-27.2221239 0-49.29115047 22.06902655-49.29115047 49.29115045 0 27.2247788 22.06902657 49.2929204 49.29115047 49.2929204s49.2911504-22.0690266 49.2911504-49.2929204c-.0008849-27.2221239-22.0690265-49.29115045-49.2911504-49.29115045zm-15.7840708 70.77522125c0 .660177-.539823 1.1955752-1.1973452 1.1955752h-11.6256637c-.6539823 0-1.1902655-.5345133-1.1902655-1.1955752v-22.1088496c0-.6469026.4911505-1.4017699 1.1106195-1.6477876l11.799115-4.8123894c.5955753-.2283185 1.1035399.0946903 1.1035399.7460177zm23.2761062 0c0 .660177-.5389381 1.1955752-1.1867257 1.1955752h-11.6230088c-.6469027 0-1.1964602-.5345133-1.1964602-1.1955752v-42.7716814c0-.6486726.4938053-1.3769912 1.1026548-1.6460177l11.7964602-4.7743363c.6159292-.2433628 1.1061947.0761062 1.1061947.7292035v48.4628319zm23.2867256 0c0 .660177-.5353982 1.1955752-1.2008849 1.1955752h-11.6221239c-.6504425 0-1.1929204-.5345133-1.1929204-1.1955752v-18.7185841c0-.6548672.5044248-1.3955752 1.1097345-1.6415929l11.8-4.7902655c.6053098-.260177 1.1061947.0761062 1.1061947.740708z" fill-rule="nonzero"/></g></svg>