<svg width="303" height="44" xmlns="http://www.w3.org/2000/svg"><g fill="#333537" fill-rule="evenodd"><path d="M110.712 19.658c-1.114-1.075-3.181-1.947-4.81-1.947-1.274 0-3.263.398-3.263 2.027 0 .359.161.555.439.754 2.583 1.712 9.938 1.352 9.938 7.156 0 5.644-5.287 7.434-9.978 7.434-3.498 0-6.76-.876-9.064-3.22l3.497-3.818c1.313 1.552 3.5 2.505 5.567 2.505 1.312 0 3.579-.119 3.579-1.947 0-2.862-9.9-1.23-9.9-8.069 0-5.05 4.413-7.274 9.185-7.274 3.258 0 5.565.516 8.029 2.503l-3.22 3.896zM130.76 19.658c-1.114-1.075-3.18-1.947-4.81-1.947-1.274 0-3.263.398-3.263 2.027 0 .359.161.555.44.754 2.583 1.712 9.94 1.352 9.94 7.156 0 5.644-5.29 7.434-9.981 7.434-3.498 0-6.758-.876-9.065-3.22l3.5-3.818c1.312 1.552 3.5 2.505 5.565 2.505 1.314 0 3.579-.119 3.579-1.947 0-2.862-9.9-1.23-9.9-8.069 0-5.05 4.412-7.274 9.184-7.274 3.26 0 5.565.516 8.031 2.503l-3.22 3.896zM186.393 34.278a.414.414 0 01-.392.325h-5.577a.269.269 0 01-.274-.326l4.562-25.811a.576.576 0 01.377-.414l6.135-1.7c.175-.05.292.058.26.237l-5.091 27.689zM195.209 34.278a.414.414 0 01-.391.325h-5.578a.269.269 0 01-.274-.326l4.561-25.811a.576.576 0 01.377-.414l6.136-1.7c.176-.05.292.058.26.237l-5.091 27.689z"/><path d="M223.089 6.438l-5.475 1.496c-.354.096-.694.471-.756.833l-.971 5.587c-1.51-.652-3.25-.966-4.954-1.033-.161-.01-.324-.022-.48-.022-.06 0-.116.006-.176.007l-.042-.001c-.667 0-1.117.041-1.426.126-3.902.621-6.89 3.452-7.66 7.58-.357 2.105-.753 4.252-1.111 6.36a9.056 9.056 0 00-.16 1.787c0 3.188 1.74 5.068 4.376 5.69.3.148.805.221 1.693.221h.035c.126.005.248.012.375.012.152 0 .31-.012.47-.033 2.062-.1 4.164-.564 5.83-1.558l-.09.46a.53.53 0 00.54.654h4.95a.828.828 0 00.782-.657l4.778-27.029c.063-.36-.174-.577-.528-.48zm-16.533 20.654c.044-.264.132-.773.196-1.134l.758-4.274c.359-2.065 1.908-3.696 4.095-3.696 1.67 0 3.142.916 3.142 2.744-.023-.023-.058.316-.08.456-.022.142-.09.554-.154.916l-.76 4.391c-.398 2.147-2.029 3.617-4.256 3.617-1.669 0-2.942-1.032-2.942-2.783v-.237zM244.585 13.657h-5.028a.829.829 0 00-.784.655l-.007.043c-1.728-.758-3.765-1.072-5.704-1.072-.64 0-1.079.038-1.387.115-4.007.545-6.983 3.462-7.735 7.613-.356 2.105-.754 4.251-1.112 6.36a8.73 8.73 0 00-.16 1.786c0 3.289 1.854 5.186 4.631 5.745.17.05.392.083.665.106.381.046.776.073 1.185.073.235 0 .486-.034.743-.083 1.972-.124 3.965-.583 5.559-1.53l-.092.481a.53.53 0 00.54.654h4.947c.368 0 .72-.295.784-.655l3.504-19.637a.539.539 0 00-.55-.654zm-15.236 13.435c.043-.264.131-.773.196-1.134l.758-4.274c.358-2.065 1.748-3.696 3.977-3.696 1.67 0 3.219.916 3.219 2.782 0-.021-.01.306-.02.438-.011.132-.072.534-.138.895l-.795 4.392c-.398 2.146-2.03 3.616-4.256 3.616-1.669 0-2.942-1.032-2.942-2.782v-.237z" fill-rule="nonzero"/><path d="M259.343 13.657h-2.96a.533.533 0 01-.543-.656l1.15-6.078c.068-.36-.166-.576-.519-.478l-5.478 1.5c-.354.096-.7.47-.767.829l-.81 4.266a.839.839 0 01-.792.655h-1.25a.813.813 0 00-.773.658l-.592 3.652a.55.55 0 00.56.66h4.22a3.205 3.205 0 00-2.743 2.28l-1.469 8.371c-.08.437-.12.877-.12 1.353 0 3.22 2.584 4.293 5.366 4.293 1.552 0 3.958-.469 3.958-.469.36-.07.705-.422.77-.784l.76-4.353c-.835.12-1.63.16-2.465.16-.915 0-1.589-.32-1.589-1.313v-.197c.02-.198.09-.654.155-1.014l1.358-7.672a.827.827 0 01.782-.657h2.96a.816.816 0 00.777-.657l.613-3.693a.548.548 0 00-.559-.656zM296.889 13.258c-.153 0-.308.01-.466.026-.136-.005-.27-.009-.43-.009-1.909 0-3.913.305-5.623 1.037a.533.533 0 00-.549-.617h-4.99a.825.825 0 00-.78.657l-3.427 19.595a.541.541 0 00.55.657h5.108c.367 0 .72-.296.783-.657l1.952-11.148c.398-2.228 1.671-4.413 4.215-4.413 1.788 0 2.783 1.034 2.783 2.503 0 .439-.094.86-.094.86-.08.358-.196.947-.26 1.307l-1.918 10.891a.542.542 0 00.552.657h5.106c.368 0 .72-.296.784-.657l2.39-13.533c.08-.558.237-1.51.237-2.068 0-3.06-2.583-5.088-5.923-5.088z"/><path d="M179.732 13.657h-5.027a.83.83 0 00-.786.655l-.006.03c-1.682-.72-3.648-1.025-5.53-1.035-.063-.001-.129-.008-.19-.008-.148 0-.29.012-.437.018-.027.001-.058.001-.084.003-4.431.222-7.78 3.25-8.585 7.691-.357 2.105-.753 4.252-1.111 6.36a8.758 8.758 0 00-.16 1.787c0 3.974 2.705 5.923 6.482 5.923.243 0 .506-.035.776-.089 1.957-.122 3.933-.575 5.522-1.506l-.09.464a.53.53 0 00.541.653h4.948a.83.83 0 00.784-.655l3.504-19.636a.54.54 0 00-.551-.655zm-15.236 13.435c.043-.264.13-.773.195-1.134l.758-4.274c.358-2.065 1.75-3.696 3.977-3.696 1.669 0 3.22.916 3.22 2.782 0-.021-.008.306-.021.438-.01.132-.074.534-.138.895l-.796 4.392c-.397 2.146-2.028 3.616-4.255 3.616-1.669 0-2.94-1.032-2.94-2.782v-.237zM150.646 13.298c-.14 0-.288.01-.436.028l-.035-.002c-1.888 0-3.868.298-5.567 1.014l1.311-7.42c.064-.36-.173-.576-.527-.478l-5.487 1.524c-.354.098-.694.475-.758.834l-4.446 25.149a.541.541 0 00.552.657h4.906a.855.855 0 00.801-.652l.086-.423c1.019.66 2.22 1.107 3.487 1.38a6.258 6.258 0 001.582.21c4.65 0 8.905-3.018 9.742-7.71.356-2.146.754-4.253 1.113-6.398a8.56 8.56 0 00.157-1.75c0-3.975-2.703-5.963-6.48-5.963zm-.197 7.91c-.022.284-.094.813-.158 1.173l-.796 4.47c-.359 2.07-1.91 3.539-4.056 3.539-1.67 0-3.142-.914-3.142-2.702v-.239c.044-.262.131-.771.194-1.133l.722-4.154c.397-2.264 1.947-3.895 4.294-3.895 1.67 0 2.942.954 2.942 2.702v.239z" fill-rule="nonzero"/><path d="M94.17 13.695H89.1a.831.831 0 00-.785.657l-1.988 11.11c-.398 2.226-1.671 4.452-4.214 4.452-1.789 0-2.703-.876-2.703-2.543 0-.398.044-.81.044-.81.04-.365.126-.957.192-1.318l1.95-10.89a.54.54 0 00-.55-.658h-5.105a.823.823 0 00-.78.657l-2.353 13.535a9.307 9.307 0 00-.197 1.828c0 2.933 1.793 4.687 4.315 5.179.216.06.5.102.884.121.211.016.427.025.645.025.136 0 .275-.01.416-.023 2.18-.058 4.442-.51 6.213-1.564l-.081.494a.549.549 0 00.56.656h4.909a.827.827 0 00.782-.656l3.466-19.596a.542.542 0 00-.552-.656zM72.446 13.703h-2.14a.53.53 0 01-.538-.654l.245-1.254c.199-1.073.994-1.551 1.908-1.551l2.055-.003a.807.807 0 00.773-.656l.515-3.183a.567.567 0 00-.56-.673s-3.334-.056-3.458-.056c-3.619 0-6.84 1.71-7.594 6.042l-.256 1.332a.841.841 0 01-.792.655H60.98a.818.818 0 00-.778.657l-.612 3.615a.546.546 0 00.556.657h4.63a3.216 3.216 0 00-2.875 2.936v-.007l-3.617 20.344c-.065.361.173.578.526.484l5.442-1.458c.353-.094.697-.468.76-.83l3.655-20.812a.825.825 0 01.783-.657h2.203a.81.81 0 00.774-.659l.583-3.611a.553.553 0 00-.563-.658z"/><path d="M277.298 32.114c.263-.266.332-.754.165-1.102l-1.536-2.727c-1.631.952-3.778 1.908-5.766 1.908-1.789 0-3.896-.797-3.896-2.902l.002-.014.003.01.001-.076c.008-.29.043-.581.092-.873a.843.843 0 01.756-.598l11.353.002a.841.841 0 00.857-.535c.323-1.629.772-3.614.772-5.152 0-4.572-3.66-6.796-7.873-6.796-5.764 0-10.694 3.537-11.768 9.38-.278 1.67-.835 3.935-.835 5.605 0 5.01 4.453 6.876 8.826 6.876 3.054 0 5.958-.97 8.39-2.618.283-.217.457-.388.457-.388zm-10.04-10.72l.12-.505c.398-1.787 1.91-2.9 3.857-2.9 1.59 0 2.744.835 2.744 2.503 0 .519-.073.897-.073.897a.84.84 0 01-.794.653h-5.344c-.367 0-.596-.29-.51-.647zM22.01.26C10.028.26.316 9.972.316 21.95c0 11.979 9.712 21.689 21.692 21.689s21.693-9.71 21.693-21.689C43.702 9.971 33.989.261 22.009.261zm-6.947 31.142c0 .29-.238.526-.527.526H9.419a.526.526 0 01-.523-.526v-9.728c0-.285.216-.617.488-.725l5.193-2.117c.262-.1.486.041.486.328v12.242zm10.243 0c0 .29-.237.526-.522.526H19.67a.53.53 0 01-.527-.526v-18.82c0-.285.218-.605.486-.724l5.191-2.1c.271-.108.487.033.487.32v21.324zm10.249 0c0 .29-.236.526-.529.526h-5.115a.528.528 0 01-.525-.526v-8.236c0-.288.222-.614.489-.722l5.193-2.108c.266-.115.487.033.487.326v10.74z" fill-rule="nonzero"/></g></svg>