<svg height="100" viewBox="0 0 205 100" width="205" xmlns="http://www.w3.org/2000/svg"><g fill="#fff"><path d="m29.4385965 91.1052632-3.0701754 3.5087719h-.0350878v-3.5087719h-2.0292397v8.6023391h2.0292397v-3.9649122h.0233918l3.1929825 3.9649122h2.7076023l-3.9181286-4.6491228 3.6988304-3.9532163zm8.5 2.2953216 1.0672515 2.9473684h-2.1637427zm-.9736842-2.2953216-3.6023392 8.6023391h2.2573099l.6374269-1.6959064h3.3274854l.6666667 1.6871345h2.3099415l-3.5672515-8.5964912zm9.9415204 1.6754386h1.1111112c.1605362.0014416.3207736.0141433.4795321.0380117.1579791.0205564.3112686.0680267.4532164.1403508.1340081.0666031.2480036.167484.3304094.2923977.0937662.1481805.1387578.3220117.1286549.497076.0230942.3576569-.1737152.6933907-.497076.8479532-.1549289.0745386-.3207542.1238914-.4912281.1461989-.1738755.0298732-.3498972.0455195-.5263158.0467836h-.9883041zm-2.0175438-1.6725147v8.5994152h2.0292398v-3.4210526h.7076023l1.871345 3.4210526h2.4269006l-2.245614-3.6783625c.5138928-.1402443.9715929-.4365234 1.3099415-.8479533.3229282-.4175098.4904104-.9344304.4736842-1.4619883.0118856-.4316389-.08889-.8589274-.2923977-1.239766-.1773504-.3254077-.4337682-.600931-.745614-.8011696-.3223633-.2056752-.6788198-.3522184-1.0526316-.4327486-.3978675-.084978-.8036874-.1271284-1.2105263-.125731zm17.497076 0v1.7719299h2.4269006v6.8274853h2.0760234v-6.8304093h2.4269006v-1.7719298zm12.2982456 2.2953217 1.0672515 2.9473684h-2.1637427zm-.9736842-2.2953217-3.6052631 8.5994152h2.2573099l.6315789-1.6871345h3.3216375l.6666666 1.6871345h2.3099416l-3.5614035-8.6023391zm9.9415205 1.7719007 1.0292397.0000292c.349361-.0012559.6976899.0379924 1.0380117.116959.3230671.076565.6280216.2156322.8976609.4093567.2702099.1996552.4871176.4627562.6315789.7660819.3158843.7720579.3158843 1.6372989 0 2.4093567-.1367675.3095738-.3476525.5807117-.6140351.7894737-.2718761.1973409-.579841.3394021-.9064327.4181287-.3540874.0865146-.7173696.1297158-1.0818714.128655h-.9795321zm-2.0292398-1.7719007v8.5994208l3.2163743-.0000056c.593624.0007918 1.1843405-.082893 1.754386-.248538.5612861-.1584627 1.0872355-.4224298 1.5497076-.7777778.462522-.3611734.8390372-.8205819 1.1023391-1.3450292.292409-.6086632.4357353-1.2781875.4181287-1.9532164.0247658-.7063814-.1206451-1.4083652-.4239766-2.0467836-.258737-.5218509-.6399656-.9733058-1.1111111-1.3157895-.4760074-.3337803-1.0122189-.5720965-1.5789474-.7017543-.5896015-.1437575-1.1942955-.2163993-1.8011696-.2163743zm9.8918129 0v1.7719299h2.4269006v6.8274853h2.0760234v-6.8304093h2.4269005v-1.7719298zm26.0233921 0-3.070176 3.508772h-.040935v-3.508772h-2.026316v8.5994152h2.026316v-3.9649122h.023391l3.204679 3.9649122h2.707602l-3.918129-4.6374269 3.698831-3.9561403zm8.494152 2.2953217 1.070175 2.9473684h-2.163743zm-.97076-2.2953217-3.590644 8.5994152h2.251462l.634503-1.6871345h3.327486l.678362 1.6871345h2.309942l-3.5731-8.5964912zm12.918128 0v5.1842106c.002131.2267813-.025393.4528682-.081871.6725146-.059671.2045132-.159027.3952759-.292398.5614035-.133064.1705022-.305689.3059932-.502924.3947368-.478132.1940784-1.013096.1940784-1.491228 0-.195547-.0888382-.366251-.2243967-.497076-.3947368-.128608-.1685438-.223878-.3600772-.280702-.5643275-.063327-.2185141-.09484-.4450126-.093567-.6725146v-5.1783626h-2.061403v5.3508772c-.008218.4838032.078198.9645487.254386 1.4152047.161798.4130525.411185.7861365.730994 1.0935672.330013.3134629.721231.5553613 1.149122.7105263.990299.3390705 2.065257.3390705 3.055556 0 .433772-.1569575.831529-.3995892 1.169591-.7134502.325932-.305868.58136-.6790329.748538-1.0935673.17881-.4491431.268202-.9288789.263158-1.4122807v-5.3567251zm5.380117 0v8.5994152h2.046784v-3.3450292h3.324561v-1.7134503h-3.312865v-1.7719298h3.605263v-1.7719298zm14.035088 0v3.254386h-3.333333v-3.251462h-2.076024v8.5964912h2.076024v-3.6023391h3.350877v3.6023391h2.076023v-8.6023391zm17.432748 0v8.5994152h2.046784v-3.3450292h3.324561v-1.7134503h-3.298245v-1.7719298h3.605263v-1.7719298zm-118.4210523-.0672514c-.3823417.09511-.7447131.257484-1.0701754.4795321-.3131098.2179947-.5729781.5038499-.7602339.8362573-.2050154.3760422-.3059547.799987-.2923977 1.2280702-.0096022.338127.0542434.6743142.1871345.9853801.117598.2619598.2866358.4976184.4970761.6929825.2081044.1915681.4448821.3494198.7017543.4678363.2635429.1202445.5340004.2247173.8099416.3128654.2923976.0877193.5350877.1754386.7602339.251462.1941905.0635613.3805621.1488999.5555555.254386.1359691.0795583.2551459.1848311.3508772.3099415.0800844.1212105.1209195.2641335.1169591.4093567.0048853.1519552-.0282834.3027219-.0964912.4385965-.0616424.1181092-.1521721.2186977-.2631579.2923977-.1159252.0755451-.2447844.1290713-.380117.1578947-.1478463.0328766-.2988349.0495442-.4502924.0497076-.3570278-.0063945-.7075661-.0965329-1.0233918-.2631579-.3202756-.1554599-.6042164-.3766348-.8333333-.6491228l-1.3596492 1.3859649c.4020131.4090673.8920183.7210706 1.4327486.9122808.5704495.2132827 1.1746086.3222295 1.7836257.3216374.4152798.0012747.8286785-.0558137 1.2280702-.1695907.3810117-.1072717.7382072-.2858694 1.0526316-.5263158.3110837-.2352914.5633149-.5395703.7368421-.8888888.1901152-.3995695.283282-.838355.2719298-1.2807018.0132121-.3740639-.0746668-.7447713-.254386-1.0730994-.1637975-.2814614-.3825659-.5270786-.6432748-.7222222-.2672492-.1991045-.562964-.3568191-.877193-.4678363-.3157895-.1169591-.6140351-.2251462-.9064328-.3216374-.2046783-.0643275-.3859649-.128655-.5497076-.1871345-.145613-.0546698-.2856332-.1232112-.4181286-.2046784-.1059784-.0623511-.1960565-.1484257-.2631579-.251462-.0661454-.1102286-.0996086-.236983-.0964912-.365497-.0068096-.1483064.0341898-.2948793.116959-.4181287.0779797-.1072116.1775927-.1968634.2923977-.2631579.1159802-.0730132.2451022-.1226755.380117-.1461988.140108-.0234325.2819226-.0351688.4239766-.0350877.2875336.0064714.5700901.0763617.8274853.2046783.2733067.1210934.5138568.3055152.7017544.5380117l1.3157895-1.3976608c-.3833409-.350358-.8340199-.6189745-1.3245614-.7894737-.4788007-.1707268-.9829115-.2596875-1.4912281-.2631579-.4041709-.0019217-.8069669.0471998-1.1988304.1461988zm109.7573103 6.7923976c-.292933-.1298589-.555771-.3190226-.77193-.5555555-.221707-.2440788-.393547-.5291546-.505848-.8391813-.122993-.345286-.184355-.7094988-.181287-1.0760234-.002693-.3555099.056677-.7087624.175439-1.0438596.219947-.6165408.685834-1.1141928 1.28655-1.3742691.313117-.1379603.652002-.2077307.994152-.2046783.344972-.0029655.6867.0667749 1.002924.2046783.293227.125551.557109.3107662.774853.5438597.220917.2413466.39273.5233973.505848.8304094.123118.3341957.185503.6877092.184211 1.0438596.003068.3665246-.058294.7307374-.181287 1.0760234-.111995.3116983-.28495.5979687-.508772.8421053-.45626.4923259-1.100806.7667366-1.771929.7543859-.341736.0049845-.680621-.0627926-.994152-.1988304zm-.868421-6.6432748c-.549625.1961991-1.053888.5015414-1.482457.8976608-.423154.3963302-.756207.8789581-.976608 1.4152047-.244816.589994-.366219 1.2238728-.356725 1.8625731-.009313.6381213.11002 1.2715796.350877 1.8625731.220883.5452308.554715 1.0375095.979533 1.4444444.424563.407652.928073.7240877 1.479532.9298246 1.205461.4359448 2.525532.4359448 3.730994 0 .555439-.2046873 1.062979-.5211531 1.491228-.9298246.421834-.4082333.753512-.9002727.973684-1.4444444.239486-.5913969.358766-1.2245751.350877-1.8625731.009554-.638142-.109788-1.2716479-.350877-1.8625731-.222531-.5358204-.55642-1.0182161-.979532-1.4152047-.431346-.3968676-.938625-.7022302-1.491228-.8976608-1.208087-.4206994-2.522907-.4206994-3.730994 0z"/><path d="m48.1666667 51.9824561 4.245614 11.8362574h-8.4795322zm-3.9824562-8.5233918-13.1900585 33.2076024h8.3245615l2.2017543-6.1754386h13.2748538l2.2222223 6.1754386h8.3274853l-13.1959064-33.2076024zm24.8918129 0v33.2076024h20.8976608v-7.260234h-13.1783626v-25.9473684zm26.1608187 0v33.2076024h23.4415209v-7.125731h-15.725147v-6.4912281h13.909357v-6.8362573h-13.909357v-5.6637427h15.722223v-7.0906433zm63.0029239 33.1988304h7.675439v-33.1988304h-7.675439zm29.336257-24.6783625 4.239766 11.8421052h-8.479532zm-3.98538-8.5204679-13.195906 33.2076024h8.324561l2.213451-6.1754386h13.274853l2.213451 6.1754386h8.327485l-13.195906-33.2076024zm-40.687134 6.9298246c.449087.6742564.748222 1.4370499.877193 2.2368421.179858.8555686.185825 1.7385703.017544 2.5964912-.380117 1.9005848-1.532164 3.128655-3.456141 3.2339182-2.380117.1374269-7.230994.0292397-7.230994.0292397v-8.0994152h9.780702zm-17.555556-6.9327485v33.2105263h7.736842v-11.0818714s2.5731.0292398 3.818714 0c0 0 4.824561 3.3538012 7.017544 11.0935673h8.543859c-2.192982-7.7397661-7.152047-12.2807018-7.152047-12.2807018l.684211-.2923976c1.597752-.7213002 2.978823-1.8483346 4.005848-3.2690059 1.754386-2.3391813 2.046784-5.0058479 1.847953-7.8011696-.226757-4.0642902-2.939932-7.5662877-6.818713-8.8011696-1.674025-.5359393-3.423711-.7976023-5.181287-.7748538h-14.488304zm-114.1666665-.2426901c-5.50292393 1.0847953-9.0058479 4.4473684-10.33333328 9.8859649-.71560994 2.9151646-.97989082 5.9228387-.78362573 8.9181287.11068787 1.8166819.39661628 3.6184225.85380117 5.3801169.05847953.2105263.08771929.3508772.18128654.6432749.30902263.9579242.70034538 1.8873157 1.16959065 2.7777778.02046783.0380116.04385965.0730994.06432748.1081871h.00584796c.43914973.7528715.95876539 1.4558233 1.5497076 2.0964912.50464989.5750376 1.0692533 1.0945512 1.68421053 1.5497076.02923976.0233918.05847953.0467836.08771929.0672515.44330615.3210761.90945691.6093664 1.39473685.8625731.03508771.0175438.51754386.2690058.73976608.3654971.22222222.0964912.40935672.1637426.61403509.24269.15497076.0584795.29239766.122807.45906432.1754386.53508772.1959064 1.69590645.5116959 1.72514625.5175439 2.4742046.6037521 5.0327069.7846663 7.5672514.5350877 1.9260742-.1427262 3.8272846-.5217898 5.6608187-1.128655 1.6216581-.4767717 3.1637386-1.191154 4.5760234-2.119883.1023392-.0584796.1842105-.1169591.2339181-.1461989.0697951-.047789.1344659-.1026612.1929825-.1637426.2122707-.1910977.3413537-.4576595.3596491-.7426901.0075804-.0522939.0114886-.1050546.0116959-.1578947-.0175438-4.6783626 0-9.4269006 0-14.1403509v-1.1695907h-12.8216374v6.8040936h5.2046784c0 1.2076023-.0292398 2.3567252 0 3.5087719v.4502924c-.0154313.3332483-.1837428.6407403-.4561404.8333334-.0938752.0514381-.191641.0954328-.2923976.1315789-.380117.1461988-.760234.254386-1.134503.3625731s-.6725146.1754386-1 .2426901h.0175439c-1.3974978.2927179-2.8329667.358864-4.251462.1959064-.3298835-.0309698-.6578487-.0797742-.9824561-.1461988-.3450293-.0643275-.7690059-.1754386-1.3070176-.3216375-.3971125-.1147845-.7875724-.2514455-1.1695906-.4093567-.1052632-.0380117-1.1023392-.4678362-1.502924-.6725146-.16839615-.0810105-.3280917-.1789833-.47660819-.2923977-.05449886-.047702-.1062394-.0984663-.15497076-.1520467-.04131809-.0437722-.08035608-.0896419-.11695906-.1374269-.18139781-.2360104-.30731964-.5098405-.36842105-.8011696-.01754386-.2105263-.11111112-1.374269-.12280702-1.754386-.0497076-1.6666667-.12865497-3.3333333-.12865497-4.994152-.01697679-1.6632368.09643089-3.325246.33918128-4.9707603.2631579-1.6374269.76900585-2.8421052 1.61695907-3.7046783.3244505-.3120364.6904901-.5777103 1.0877193-.7894737.7249443-.3872359 1.50809-.6538808 2.3187134-.7894737.0935673-.0175439.1754386-.0467836.2777778-.0584795 2.9035088-.4678363 5.7894737-.1929825 8.6169591.5321637 1.4912281.380117 2.9473684.8918129 4.4853801 1.3654971v-7.1783626l-.748538-.2923977c-3.0656052-1.2125154-6.3319738-1.8374204-9.628655-1.8421052-1.7867401.0026394-3.5689954.1789064-5.3216374.5263158zm64.9415205-7.9502924c6.7426901-29.31871346 12.6783626-33.65497077 14.8947369-35.2631579l-7.3099416 35.2719298zm41.105263-7.4210526.31579 7.4210526s8.479532.0409357 9.356725 0c-5.359649-23.3625731-10.789474-29.64035088-10.789474-29.64035088l.935673 18.59649118zm-3.304093-23.07017548c-3.74269-1.36257309-11.836258-3.97076023-20.7309945-4.64327485-.0292398 0-1.0438597 5.14619883-1.0175439 5.15497076 4.6374269 1.16959064 15.8771934 4.26900585 22.1783624 7.99122807.023392.0146199-.409357-8.48830409-.432748-8.5z"/></g></svg>