<svg height="28" viewBox="0 0 201 28" width="201" xmlns="http://www.w3.org/2000/svg"><path d="m15.58605 1.01161261c1.1363815 0 4.3661832.07010675 7.49164 1.38420074.6749813.28368778 1.314094.60324414 1.9173382.95866906v5.68190764c-.6391127-.35542493-1.2782255-.71084985-1.9532067-1.03040621-.9228005-.39129349-3.7270706-1.49180645-6.7807902-1.49180645-4.8292139 0-8.73562733 2.77003187-8.73562733 7.91880211 0 .9586691.14184389 3.5493581 2.27276305 5.4683266 1.03040618.9228005 2.05918198 1.3124636 2.55645088 1.4543075 1.1722501.3912935 2.3086316.3912935 2.7700318.3912935 1.9532067 0 3.1238264-.4614002 3.9406516-.745088v-2.9118758h-3.1955635v-4.8292139l9.2312657.213581v10.793179c-.7092195.3912935-1.3842008.7809566-2.1292888 1.1005129-3.4017289 1.5115289-6.6049609 1.7603118-8.0300936 1.7747894l-.1365277.0007049c-.8885623 0-3.0537197-.0717372-5.39658949-.9228005-5.18463881-1.9173382-8.4519395-6.4971024-8.4519395-12.0371662.03586857-6.35525852 4.11999443-9.65679739 6.00146399-10.86491606 1.59778177-1.02877581 4.2243394-2.30700123 8.6280216-2.30700123zm76.7652753 3.19553746c1.5619132 1.31409399 4.3303147 4.36618326 4.4020519 9.69266593 0 1.6336504-.1777125 5.4324581-3.1955636 8.8416027-1.8113628 1.9874448-5.0411645 4.4020518-11.220341 4.4020518-.5673756 0-1.9532067-.0358686-3.5151199-.3195564-1.4901761-.2836878-5.1487702-1.2782254-7.8813031-4.7574767-1.8472314-2.3428698-2.6640566-5.0411646-2.6640566-8.060646.0358686-6.03570221 3.4792513-9.26713433 5.3607209-10.57959793 2.6999251-1.88309995 5.5759323-2.41460695 8.8416026-2.41460695 1.6695189 0 6.0715707 0 9.8720088 3.19556355zm57.9978347-2.66404351v13.06757234c.071737 1.63202.141844 2.5205823.355425 3.2656703.70922 2.5923194 3.159695 3.7988077 5.681908 3.7645695 1.703757 0 2.946114-.4972688 3.51512-.8168251 2.308187-1.2479397 2.506126-3.4011708 2.543434-5.6154491l.006067-.4587207c.001684-.1530126.003244-.3060387.005319-.4588012v-12.74801604h6.321021v13.84852894c0 .6733509 0 1.3842008-.035869 2.0591821-.105975 2.0233134-.71085 3.8705448-2.023313 5.4683266-2.486345 3.017851-6.498733 4.2243393-10.295911 4.2243393-1.279855 0-4.331945-.1059753-7.421533-1.9173381-1.385831-.8168252-2.236894-1.6336504-2.662426-2.0950506-.355425-.3896631-.852694-.9586691-1.314094-2.0233134-.674981-1.4918065-.888562-2.7700319-.960299-5.8579898v-13.70668504zm41.090722-.56737556c3.868914 0 6.426995 1.42006931 7.739459 2.09505059v5.14877024c-.815195-.49726881-3.621095-2.37873837-6.922634-2.37873837-1.314094 0-2.34287.3896631-2.734164.70921946-.533137.3912935-.604874.92280049-.604874 1.1722501 0 .14184389.035868.46140024.213581.7809566.391293.74508803 1.136381 1.24235685 2.628188 1.88146958l1.953207.8168252c1.809732.7108498 2.55482 1.0646443 3.407514 1.5977817 3.373276 2.1309192 3.870545 4.7574768 3.834676 6.4612339 0 3.5509884-2.130919 5.432458-3.195563 6.1433079-2.450476 1.6336503-5.680278 1.7396256-6.426996 1.7396256-4.154233 0-7.064478-1.7754942-8.414441-2.5205822l.035869-5.6819077c.958669.6048745 1.917338 1.2439873 2.911876 1.8113628.745088.3912935 2.626557 1.3499626 5.005296 1.3499626.249449 0 1.527675 0 2.450475-.5331374.994538-.5331374 1.208119-1.3499626 1.208119-1.8113628-.035869-.7092195-.498899-1.2782254-.639113-1.4200693-.71085-.8510634-1.8831-1.3124636-2.911876-1.7037571l-.994537-.3912935c-1.455938-.5673756-2.876008-1.100513-4.22597-1.9515763-2.911876-1.8831-3.301539-4.36781367-3.301539-5.75201441 0-1.10051296.247819-3.5151199 2.520582-5.4683266 1.136382-.95866907 3.05372-2.09505059 6.462865-2.09505059zm-144.8666479.56737556v20.20378754h12.1431414v4.863452h-18.4266628v-25.06723954zm74.5365069-.00001304c1.066275.03586857 1.953206.07173714 3.017851.35542493 2.911876.74671842 4.865082 3.08958822 4.865082 6.14330788 0 2.37873837-1.136381 3.79880767-1.847231 4.40205187-.389663.3195563-.745088.4614002-1.242357.6749812.888562.1777125 1.527675.355425 2.272763.8526938 1.847232 1.2064883 2.734163 3.4433827 2.734163 5.5384333-.035868 2.9477444-1.705387 5.2906142-4.43792 6.3911271-1.597782.6032442-2.983613.6391127-4.651501.7092195h-10.900785v-25.06723958zm-.355425 14.62948558h-3.585227v5.6444087h3.479252c1.881469-.0342382 2.628188-.2836878 3.2673-1.0646444.389663-.5331374.567376-1.100513.567376-1.7396257 0-.2478192-.035869-.9945376-.4614-1.6336503-.780957-1.1363816-2.059182-1.2064883-3.267301-1.2064883zm-38.2137041-9.62209093-.0955336-.00046829c-.7467184 0-3.1613253.07173714-5.1129017 1.66951891-1.7053874 1.38420074-2.486344 3.62109521-2.486344 5.75201441 0 .6733509.0358685 2.1292888.8526937 3.7629391 1.845601 3.586857 5.6444087 3.8346763 6.8166588 3.8346763 4.3319451 0 7.6334839-3.0178511 7.6693525-7.3856648 0-.6391127-.0717371-2.059182-.8168252-3.6210952-1.7332205-3.67334533-5.4629151-3.9985184-6.8271005-4.01192043zm36.7573521-.37609697-.18219.00063908h-2.072225v5.25963672h2.540147c.283688 0 .575528 0 .868998-.0358686 1.224422-.1809732 1.733104-.8314986 2.00864-1.3043116.08641-.17119091.33749-.67009012.33749-1.37767919 0-.70432829-.264123-1.22116179-.484225-1.52930541-.776066-1.02225426-2.119507-1.01736309-3.198825-1.01247192z" fill="#282c39"/></svg>