<svg height="50" viewBox="0 0 201 50" width="201" xmlns="http://www.w3.org/2000/svg"><path d="m25.0806565 7.72462844c6.454026 0 10.8550649 1.07636364 14.3771429 2.05506494l-.5859741 8.11844152c-3.1314285-1.1740259-8.5090909-2.5433766-13.4961039-2.5433766-8.2161039 0-13.4005195 5.4774026-13.4005195 13.3007792 0 7.921039 4.694026 13.9844156 13.1054546 13.9844156 2.641039 0 4.8914286-.3906493 4.8914286-.3906493v-15.0607793h10.0716883v19.4618182s-7.335065 3.3246754-15.1584416 3.3246754c-14.8654545 0-24.0581818-8.509091-24.0581818-20.8311689 0-12.2244156 10.0716883-21.41922076 24.2535065-21.41922076zm38.774026.55896104-1.8202598 8.36987012c-3.492987 2.134026-5.3631169 6.2296104-5.3631169 11.9044156 0 8.507013 3.8129871 14.0820779 11.2457143 14.0820779 7.5324676 0 11.2457143-5.2820779 11.2457143-13.6914286 0-5.1262337-1.5854545-8.9890909-4.374026-11.3870129l1.7059741-8.36571433c8.1371428 2.60987013 13.3298701 9.24259743 13.3298701 19.55740263 0 10.5620779-6.9444156 21.0264935-21.9075325 21.0264935-12.7127272 0-21.9075324-7.335065-21.9075324-20.9288312 0-9.5397403 5.7288311-18.8384416 17.8451948-20.56727272zm136.6794805.22441558v4.88935064l-17.406753 28.5589611h17.69974v7.1376623h-30.60987v-4.8893507l17.311169-28.5568831h-16.139221v-7.13974024zm-35.501299 0v7.13974024h-10.855065v33.4462338h-10.75948v-33.4462338h-10.562078v-7.13974024zm-55.941818-.29298701c12.031169 0 18.973507 2.54337665 18.973507 11.05038965 0 4.5963636-3.815065 8.7044155-9.388052 9.7807792 3.12935.3927273 5.282078 2.1527273 6.942337 6.2587013l5.379741 13.7890909h-11.245715l-4.108052-11.2457143c-1.76-4.8893506-4.891428-5.1823377-9.487792-5.1823377v16.428052h-10.6597401v-39.90233767s6.1610391-.97662338 13.5937661-.97662338zm.978701 7.04207795h-4.010389v10.5620779h4.108052c4.596363 0 7.13974-2.2503896 7.13974-5.3797403 0-2.4436363-1.271688-5.1823376-7.237403-5.1823376zm-41.5648412-14.670346 6.8446754.7812987-4.3033767 20.6379221-7.04-1.174026z" fill="#282c39"/></svg>