<svg height="100" viewBox="0 0 434 100" width="434" xmlns="http://www.w3.org/2000/svg"><path d="m293.333333 100v-100h140v100zm114.74563-50.0022048-44.744501-43.72932936-44.746758 43.72932936 44.746758 43.7293293zm-17.044558 0-27.7022 27.0736869-27.704455-27.0736869 27.704455-27.0780968zm-18.113931 0-9.592781-9.3707281-9.583756 9.3707281 9.583756 9.3663182zm-347.8597831 48.2984039h-25.0606909v-96.85452151h25.0606909v36.95937081h34.7097271v-36.95937081h25.1947053v96.85452151h-25.1947053v-36.4351244h-34.7097271zm105.0672821 1.7038009c-16.48377 0-30.019224-5.6356488-40.3383317-16.7758847l12.5973527-17.9554391c8.308892 8.1258191 17.6899 12.1887288 28.143022 12.1887288 6.030648 0 11.123194-2.4901703 11.123194-7.0773264 0-3.0144167-2.680287-5.504587-8.040863-7.4705112l-8.84495-2.8833552c-5.49459-1.9659239-9.78305-3.5386631-12.597352-4.9803406-10.855166-5.6356488-16.3497562-14.0235911-16.3497562-25.1638271 0-8.5190038 3.4843742-15.7273918 10.3191082-21.36304057 6.834734-5.63564876 15.679684-8.51900393 26.534849-8.51900393 13.535454 0 25.194706 4.06290957 35.245785 12.1887287l-11.659252 18.610747c-5.896633-4.7182174-15.679684-7.9947574-23.18449-7.9947574-6.834733 0-10.587136 2.7522934-10.587136 6.2909567 0 2.8833552 2.680287 5.242464 7.906849 7.2083879l8.710935 3.1454783c4.958532 1.7038009 8.84495 3.1454785 11.391223 4.1939712 12.597353 5.242464 18.896029 13.7614679 18.896029 25.4259502 0 9.0432503-3.618388 16.3827-10.721151 22.2804719-7.102763 5.7667103-16.617785 8.6500655-28.545065 8.6500655zm90.459713-37.3525557 21.710331-61.20576671h28.813094l-39.400231 96.85452151h-22.380403l-39.936288-96.85452151h29.081122z" fill="#282c39"/></svg>