<svg height="87" viewBox="0 0 201 87" width="201" xmlns="http://www.w3.org/2000/svg"><path d="m180.724225.464844c.53531 0 .735882.33448324.602393.8027587-.200572.53517427-.401821 1.07034177-.602393 1.67241621.468227 0 .937131.0668934 1.338275.0668934 1.405357.0668934 2.475977.73586124 3.41243 1.73930961.669476.66896784 1.271192 1.33792891 1.940668 2.07379015-.401821.13377324-.802965.20072084-1.204786.33448053-2.4753.53517427-4.884194 1.20410823-7.092516 2.60899152-.066406.06687985-.133489.13375969-.200572.33446698.200572 0 .401821-.0668798.53531-.0668798 1.673012-.33453478 3.345347-.73588161 4.951277-1.07034859.468904-.0669476 1.003536 0 1.47244.06687985.200572 0 .468227.26758713.468227.40134682-.067083.53517427-.067083 1.20417602.067083 1.80623012.066406.4682944.267655 1.0034687.601716 1.4048155.067083.0668799.134166.2007073 0 .2675872-.133489.0668798-.802965.1338274-.869371.2675871-.602393.6020541-.535309 1.4048155-.602393 2.2745245-.067083.9365211-.535309 1.3379357-1.471763 1.2709881-.201249 0-.401821-.0668798-.602393-.1337597-1.070619-.2007073-1.740095.2006396-2.00775 1.3379357 1.137703.2675871 2.342488.4013468 3.413108.7358138 1.271191.4014146 2.542383 1.0034687 3.813574 1.4048833 1.137703.334467 2.341811.6020541 3.479514.8696413 2.141239.4682266 4.081229 1.4716953 6.021896 2.475164.468227.2675872.936453.4682945 1.338275.7358816.802964.5351743 1.003536 1.5385752.200571 2.0737495-2.007073 1.2710558-3.680085 3.2110456-6.155385 3.7462199-1.807178.4013468-3.680763.4013468-5.487264.2675871-1.93999-.1338274-3.813574-.0668798-5.687158.668934-1.673013.6690017-3.479514.869709-5.286015.6690017-.200572 0-.401821-.0668798-.53531-.1338274-.401143-.0668799-.468227-.334467-.267655-.6020542.334738-.4013468.802965-.8027614 1.271192-1.0034009.802964-.3345347 1.673012-.4682944 2.475977-.6690017.200572-.0668799.401143-.1337597.601715-.2007073v-.2006395c-.802287-.1338275-1.605252-.2007073-2.542383-.3345348.134167.2675872.200572.4014146.267655.6021219l-.313514.0720115c-1.093036.2622864-2.118654.6580161-2.363035 2.001738-.066405.334467.134167.6690017.20125 1.0034687l.060402.01045.146469.0459799c.023049.0062699.044013.0104499.060784.0104499-1.07062 1.0703486-2.14124 2.207577-3.278942 3.2110457l-1.164617.9323803-2.354389 1.8145498c-.391.3052081-.779905.6145952-1.164616.9323422-.802965.6690017-1.472441 1.4717631-2.208322 2.2745245-.602393.7358138-.53531 1.0703486.200571 1.7392825 3.011287 2.6089915 5.888408 5.3517428 8.430791 8.4958408.468904.5351743 1.070619 1.0034687 1.605929 1.4717631.870048.7358816 1.472441 1.6055228 1.806501 2.7427512.401821 1.3379357 1.204786 2.6089916 1.673013 3.9469272 1.204108 3.3448054 2.341811 6.7564905 3.546597 10.1011603.33406.9364534.601715 1.9399898.86937 2.8764432.134166.4018211.267655.5353098.669476.4682266.601715-.0664055 1.137025-.1334886 1.739418-.1334886.802965 0 1.070619.334738.735881 1.0706196-.267654.6687984-.601715 1.3375969-1.003536 2.0063953-.200572.334738-.200572.5353098 0 .8029647.953393 1.1038223 1.64341 2.3582006 2.295882 3.6219171l.431898.8423114c.071882.1400992.14392.2799263.216424.4192876.468227.9364533 1.338274 1.6723349 2.007073 2.4752996.334738.4011435.802964.802287 1.204786 1.2041082.468226.5353098.401143.8693702-.334738 1.0035365-1.137703.2005717-2.14124 0-3.077693-.7358816-.401821-.334738-.802965-.6694761-1.07062-1.0706196-.735881-1.1370251-1.806501-1.6723349-3.144775-1.8058235-.468227-.0670832-1.003537-.2012494-1.472441-.3347381-.936453-.334738-1.204108-.9364533-.936453-1.8729066.200572-.602393.53531-1.2041083.735881-1.8735843.134167-.2676549.134167-.5346322.267655-.8693702-2.007073.2005717-3.880657.2005717-5.419503-1.1370251 2.609466.5346321 4.014146.5346321 5.01836-.2676549-.20125-.0670832-.468905-.2005718-.669476-.1341663-1.673013.2676549-3.278265.2676549-4.750705-.6017153-.334738-.2005718-.602393-.4018212-.936454-.7358816 1.806501.4011436 3.613003.6017153 5.419504.0670832 0-.0670832.067083-.1341663.067083-.2012494-.200572-.0664055-.401821-.2005718-.669476-.2005718-1.271192-.0670831-2.4753 0-3.746491-.1334886-.937131-.1341663-1.740096-.5353098-2.408894-1.4717632 1.93999.4011436 3.680085.6687985 5.620075.4682267-.802287-1.0035365-1.538846-1.8729067-2.274728-2.7429545-.936453-1.0035365-1.873584-2.0070729-2.810037-3.0771504-1.472441-1.6055228-2.208323-3.6793401-2.944204-5.7530896-.334738-1.0703485-.602393-2.1406971-1.003537-3.2110456-.067083-.2675872-.267655-.5351743-.53531-.668934-4.951276-2.3414044-9.769065-4.9503959-14.386281-7.9607342-.468227-.2675872-.802965-.2675872-1.271191-.1337597-2.274728.6020541-4.550133 1.1372284-6.824861 1.5385752-2.676549.5351743-5.419504.5351743-8.096053.5351743-.234226 0-.468452.0055752-.702365.0130091l-.700483.0241614c-.931885.0297394-1.853733.0297545-2.745464-.2378101-3.011287-.8027614-6.088979-1.6055228-9.100266-2.3414044-3.144776-.8027614-6.289552-1.5386429-9.50141-2.2744567-1.471764-.3345348-2.877121-.1338275-4.348884 0-1.472441.1337597-2.944204.2006395-4.349562.0668798-1.405357-.1338274-2.676549.0668799-3.94774.4013468-.602393.1338275-1.204108.3345348-1.806501.4014146-.602393.1337597-.802965-.1338274-.602393-.7358815.602393-1.6724027 1.873584-2.542044 3.61368-2.6758714 1.137025-.1337597 2.074156-.4682267 2.87712-1.2709881.200572-.2007073.401144-.4014146.601716-.5351743 1.271869-1.0034687 2.475977-.9365888 3.479513.4013469.53531.6690017 1.137703 1.0034687 1.940668 1.0703485.267655-.668934 0-1.0034687-.602393-1.2041082-1.137703-.4014146-2.208322-1.1372284-3.010609-2.0738173-.401822-.4682944-.602393-1.0034687-.870048-1.538643 1.137025 1.3379357 2.542382 2.2745246 4.348884 2.6089916.201249-.4682945 0-.6020541-.401144-.7358816-1.806501-.668934-3.345347-1.6724027-4.148312-3.5455126 0-.0668799-.067083-.1337597-.067083-.2007073v-.2675194c1.338274 1.3378679 2.742954 2.3413366 4.550133 2.8096311.200572-.5351743-.134166-.6020541-.401821-.8027614-1.07062-.6690018-2.208322-1.3379357-3.211859-2.1406971-.668798-.5351743-1.070619-1.2710559-1.070619-2.3414044 1.538846 1.538643 3.211858 2.6758713 5.085443 3.5455126 1.338274.6021219 2.743632 1.204176 4.081906 1.8062301.468227.2007073.936454.4682944 1.40468.8027614.468227.2675872.468227.6690017.067083 1.0034687-.668798.5351743-1.405357 1.0703486-2.074156 1.6055228-.334738.2006396-.602393.4682267-.937131.7358139.134167.0669476.134167.1338274.20125.1338274 1.873584 0 3.813574.2007073 5.687158-.1338274 4.014824-.668934 7.694909.2007072 11.307911 1.6724704 1.204786.5351742 2.274728.5351065 3.412431-.0669476s2.408894-1.1372284 3.546597-1.6724027c2.475299-1.2710558 5.151848-1.9399898 7.89548-2.2075769.468227-.0668799.936454-.0668799 1.40468-.1338275.134167 0 .401821-.1337597.468905-.2675194 1.003536-1.7393502 2.609465-2.7428189 4.2818-3.67934.401821-.2007073.736559-.4682945 1.07062-.668934.870048-.6021219 1.338274-1.4048833 1.338274-2.4752318.067084-2.6089238.468227-5.1510355 1.07062-7.6930794.067083-.2007073.067083-.4013468.134166-.6689339h-.937131c-2.944204.2675871-5.821324-.0669476-8.698445-.4682945-1.271191-.2007073-2.609466-.0668798-3.880657.1337597-2.141239.2675872-4.282479.3345348-6.423718.2675872-2.341811-.0668799-4.750705 0-7.092516.0669476-.066405 0-.133488 0-.468226.0668798.802964.5351743 1.538846 1.0034687 2.208322 1.4048155.401143.2675872.802965.4682945 1.204108.6690018.53531.2675871 1.003537.6020541 1.07062 1.270988.067083.2007073.334738.4014146.468226.6020542.067083.1338274.134167.3345347.134167.5351742l-.089482.0320027-.189572.0698346c-.126418.0429093-.246673.0702072-.323339.0319902-.334738-.1338275-.602393-.334467-.936454-.5351743-2.609466-1.6724027-5.286014-3.3448053-7.89548-5.0841556-.669476-.4013468-1.204786-1.0034009-1.940668-1.4048155-.735881-.4682944-1.605929-.7358816-2.408894-1.0703486-.468226-.2675871-.936453-.5351742-1.405357-.8696412-.468227-.334467-.869371-.7358816-1.40468-1.0703486-1.07062-.6689339-2.275406-.6020541-3.412431-.1338274-.334738.1338274-.736559.2675871-1.07062.4682944-1.47244.9365889-3.07837.6690017-4.617216.4014146-.200572 0-.33406-.1338274-.601715-.2675871.86937-.8027614 1.806501-1.2710559 2.810037-1.7393503.668799-.2675871 1.338275-.6020541 2.007073-.8696413.200572-.0668798.468227-.0668798.669476-.1337596.869371-.0669477 1.739418 0 2.609466-.1338275.602393-.0668798 1.137703-.0668798 1.60593.2675871 1.070619.8696413 2.141239 1.7393503 3.211858 2.6089916.869371.6689339 1.739418 1.3379356 2.609466 2.0068696.066406.0668799.267655 0 .401144.0668799 0-.1337597 0-.334467-.067083-.4013469-1.672335-1.4717631-3.278265-2.9434585-4.951277-4.2813942-.936454-.8027614-2.074156-1.1372283-3.345348-1.1372283-1.673012.0668798-3.278941-.2007073-4.415967-1.6055229-.468904-.6020541-.802964-1.4048155-.937131-2.1406971-.067083-.4682944.334738-1.0703485.53531-1.6724026-.401143-.1338275-.936453-.2675872-1.471763-.4014146-1.472441-.4682267-2.341811-1.4716954-2.743632-2.94339075-.067083-.26758714 0-.66900172.134166-.93658886.267655-.46822667.601716-.9365211.86937-1.40481553.267655-.4682741.602393-.66896106 1.137703-.80275463.668799-.13379357 1.271192-.60206767 1.873584-1.00344837.936454-.66896107 1.405358-.53517428 2.007073.4013807.267655.40138071.669476.73586124 1.07062.86965481.602393.26758713.870048.66899494.870048 1.27104906.200572.86964125.133488 1.67240266.133488 2.60892377.73656-.53517428 1.271869-.40134683 1.873585.1338274.067083-1.2710558-.267655-2.54204388.267655-3.88000667.201249.40138071.334738.66896107.401821.93654821.267655 1.27105584.53531 2.54204391.802964 3.81309976.066406.334467.133489.6690017.267655.9365211.642372.9098369.727913 1.9480831.804781 3.0119765l.040249.5336082c.007434.0891324.015441.1783239.024341.267515.067083.7358816.334738 1.3379357 1.004214 1.87311-.134167-2.2075769-.267655-4.2813264-.401822-6.4220235.870048.2675871 1.137703.9365211 1.204786 1.6055228.066406.6020541 0 1.2041082 0 1.8061624-.134166 1.4048832.200572 2.6089915 1.003537 3.67934.468226.6020541.86937 1.3379357 1.070619 2.0738173.334061 1.1372284 1.07062 1.8061623 2.007073 2.475164.200572.1337597.53531.1337597.802965.0668799 1.338274-.334467 2.609466-.2675871 3.814252.334467 1.538846.8027614 3.144775.6020541 4.750027.1338274 1.740096-.4682944 3.546597-1.0034687 5.286015-1.4048833 1.740096-.4013468 3.479514-.5351742 5.152526 0 1.003537.2675872 2.007073.2675872 3.01061-.1337597 2.141239-.8696412 4.48305-1.0703485 6.758455-1.4716953.870048-.1338275 1.739418-.4682945 2.542383-.8027614 1.472441-.6021219 2.877121-1.4717632 4.48305-1.538643.735881-.0668799 1.405358 0 2.141239-.0668799.669476 0 1.271191-.0669476 1.873584-.1338274 1.07062-.2007073 2.14124-.4682944 3.211859-.668934 1.739418-.2675871 2.944204-1.1372961 3.479514-2.8096988.267655-.8696412.401143-1.7392825.668798-2.6758036-.067083 0-.133488-.0669476-.200572-.0669476-1.271191.5351743-2.54306 1.1372284-3.814251 1.6724027 0-.0668799-.067083-.1337597-.067083-.1337597.067083-.1338275.067083-.2007073.201249-.334467 1.538846-1.538643 2.274728-3.34487308 2.542383-5.48550241.067083-.73589512.401821-1.40485619.602393-2.07382403-3.412431-.26758714-3.479514-.26758714-4.48305-1.27103551 1.806501.66896784 3.41243.80276141 5.085443.13379357 0-.40138071-.20125-.53517428-.602393-.4682741-1.740096.33448053-3.412431.33448053-5.01836-.66896784l-.11099-.08989203-.246628-.15469648c-.039672-.0271765-.077237-.05644364-.110609-.08989203-.067083-.06690017-.201249-.06690017-.267655-.20068696 1.806501.33448053 3.613003.5351675 5.419504.06689339-.067083-.4682741-.334738-.53517427-.735882-.4682741-1.472441.13379357-2.944204.20068697-4.415967-.33448053-.669476-.26758714-1.271869-.60207444-1.539524-1.13724397 1.539524.1337956 3.211859.40137596 4.817788.33448256 1.673013-.0668934 3.412431-.33448189 5.085443-.53517156.735882-.06689679 1.471764-.13379357 2.274728-.13379357zm-139.4425094 64.1525124c.0669476 0 .2007751.4013468.2007751.6020541v2.8768497c0 .2669773 0 .5346322.0668798.8693702h3.8139129c0 .4011436.0669476.8029647 0 1.2041082 0 .1334887-.3345347.2676549-.535242.3347381h-3.2117233v-.1341663c0 .2676549-.0669476.5353098-.0669476.7358816v10.9711403c.0669476.8029647.3345348 1.5388463 1.0705519 1.8729067.7360848.334738 1.4051543.1341663 2.0742915-.3340604.0668799-.0670831.1338275-.0670831.2007073-.1341662.3345348.2676548.6021897.4682266 1.003672.7358815-.8029647 1.4717631-2.1411714 2.1405616-3.6800854 2.2747278-1.5389818.1334887-3.011016-.0670831-4.1485154-1.3382744-.6690695-.8022871-.9367244-1.8058236-.9367244-2.8093601v-11.8405105h-2.4088263c-.2007073-.6694761-.0668798-1.0706196.5353098-1.4053576 1.9403964-1.069942 3.6132056-2.4080132 4.8844647-4.2810554.1338275-.2675872.7360171-.2007073 1.1374994-.2007073zm154.2976954 19.0659053c.802965 0 1.405357.602393 1.405357 1.4053576 0 .7358816-.602392 1.40468-1.405357 1.40468-.802965-.0670831-1.405358-.6687984-1.405358-1.40468 0-.7358815.602393-1.4053576 1.405358-1.4053576zm-76.949767-14.5150267c3.479514 1.6723349 5.01836 4.6158612 4.951955 8.4287576-.067083 4.2147177-3.145454 7.6928761-7.494337 8.6293295-.735882.0670831-1.538847.0670831-2.208323.2012493-4.549455 0-8.564279-3.2782642-9.367244-7.6264705-.870047-4.7500274 2.14124-9.2317223 6.824862-10.3023419 2.475977-.5346322 4.951276-.4682267 7.293087.669476zm-56.8735484 1.0706196c.4014146.2676549.8028969.4682267 1.1374317.7358816.2676549.2005717.6022574.4682266 1.003672.8029647-1.7396891 1.40468-3.2786031 2.6758713-4.8844648 3.9470627-1.8066366 1.4717631-3.5463257 2.9435262-5.3528946 4.3482063-.4683622.3340604-.4014824.6017153-.1338275 1.0035364 1.0705519 1.40468 2.6095336 1.9399898 4.2823429 2.1405616 1.8734487.2676549 3.6800854-.1341663 5.1521196-1.3382745.0668798.0670831.1338274.0670831.2007073.1341663.7360171.8693702.7360171.8693702-.0668799 1.6052517-1.6058616 1.4717632-3.3455507 2.6087883-5.5536019 2.7429545-4.3492227.2676549-9.0330479-1.5388462-10.1035997-7.0911607-1.003672-5.2175765 1.9403963-9.5664604 7.0925837-10.7034855 2.6764135-.5353098 5.0182922.1341662 7.2264112 1.6723349zm133.8233154 13.5785734c-.735882 0-1.271192.5353098-1.271192 1.2711913 0 .6687985.53531 1.2705138 1.271192 1.2705138.735881-.0664055 1.271191-.6017153 1.271191-1.2705138 0-.669476-.53531-1.2711913-1.271191-1.2711913zm-46.302265-15.3193466c2.074156.6023929 3.813575 2.4082164 3.747169 4.883516-.067083 3.0106094 0 6.0205412.066406 8.9640675 0 .334738.067083.6687984.201249 1.0035364.267655.6017153.936453.8693702 1.471763.4682267.334738-.2676549.735882-.6687985 1.271191-1.0706196.134167.0670831.334738.2012494.53531.2676549-.936453 3.2111812-5.151848 4.8164329-7.828397 1.0706196-.53531.4011435-1.07062.8029647-1.673013 1.1370251-1.471763.8700478-3.010609 1.2041082-4.750705.8029647-3.010609-.7358816-4.549456-4.1476345-2.475299-7.1582439.936453-1.3375969 2.274727-2.0063953 3.813574-2.474622 1.47244-.4018211 2.944203-.8700478 4.415967-1.2711914.401821-.1341662.535309-.2676549.535309-.6687984 0-.8700478.067084-1.6730125 0-2.5423827 0-.4682267-.133488-.9364534-.33406-1.3382745-.802965-1.6052518-2.676549-1.7387404-3.747169-.3340604-.468226.6017153-.870047 1.3375969-1.338274 2.0070729-.334738.4682267-.735882.9364533-1.204108 1.3375969-.736559.5353098-1.472441.4682267-2.141239-.0670831-.53531-.4011436-.602393-1.0028589-.267655-1.8058236.735881-1.8729067 2.341811-2.8100376 4.215395-3.2782643 1.806501-.4682266 3.680085-.4682266 5.486586.0670832zm-47.977386-6.1590598.000077 20.4084644c0 1.0706196.468904 1.6052518 1.338274 2.0070729.401821.2005718.870048.3340604 1.405358.4682267v.9364533h-9.9696369v-.9364533c.6017153-.2005718 1.1370251-.334738 1.6723349-.5353098.669476-.2676549 1.004214-.8029647 1.004214-1.6052518v-16.3230186c0-1.2710558-.2012493-1.8062301-1.6730125-2.2745245-.2676549-.1337597-.334738-.1337597-.4682266-.1337597v-.8027614c1.0035364-.2675872 1.9399898-.5351743 2.8771207-.8696413.6687984-.2675871 1.3382745-.7358815 2.0070729-1.0703485.2005718-.0669476.4018212-.2007073.6023925-.2007073 1.155944-.1284744 1.202182-.1336133 1.204032.9315589zm-82.2991287 6.0248935v2.4082165c.2676549-.1334887.4683621-.2005718.6690694-.3347381 1.6728093-1.0028588 3.4793782-1.7387404 5.4198423-1.9399898 3.6132056-.4011435 6.2227392 1.8065012 6.2227392 5.3517428 0 2.9435262.0668799 5.8870525 0 8.8976619 0 1.0035365.4014146 1.6052518 1.2712591 1.9399898.46843.2005718.9367922.3340604 1.472102.5353098v.9364533h-10.1035997c-.2007073-.8700478-.2007073-.9364533.6021896-1.1377027.2007073-.0664055.4014824-.1334886.6021897-.2005718 1.0036719-.4011435 1.3382067-.8693702 1.3382067-1.9399898v-5.0840878c0-1.1370251.0669476-2.3411333-.0668799-3.4788361-.3345347-2.8764431-1.9403963-3.4781584-4.2823428-3.0099317-.6690695.1334886-1.2712591.4682266-1.8065689.8029647-.8028969.5346321-1.2713269 1.2041082-1.2713269 2.2740502.0669476 2.8100376 0 5.5523145 0 8.3623521 0 1.1370251.3346025 1.6723349 1.4051543 2.1405616.5353098 0 .9367244.1334886 1.4051544.2676549v.9364533h-10.1035997c0-.2676549-.0668799-.6023929-.0668799-.9364533.4683622-.1341663.8698446-.2005718 1.3382068-.3347381 1.0705518-.3340604 1.4051543-.8693702 1.4051543-1.9399898v-9.1646392c0-1.40468-.2676549-1.8065011-1.6728092-2.2076447-.1338275-.0670831-.2676549-.0670831-.4014824-.1334886v-.8700478c.6021896-.1334887 1.2713269-.2676549 1.8066367-.4682267.9367244-.334738 1.8735165-.7358816 2.6764134-1.2711914.6691373-.4682266 1.3382068-.4011435 2.1411715-.4011435zm77.6169387-11.4386894c1.2711914.6690017 1.8065012 1.6724026 1.6059294 2.809631-.1341663.869709-.6694761 1.6055229-1.4724407 1.87311-.9364534.334467-1.8735843.2675871-2.6094659-.4682267-.4682267-.4682944-.8029647-.9365888-1.2041082-1.4717631-.8029647-1.0703486-1.8065012-1.4716954-3.0783702-1.1372284-1.0035364.2675871-1.5388462 1.0034687-1.739418 2.0068696-.2005718 1.0034687-.334738 2.0738173-.4011435 3.1441658-.0670832 2.0068697-.0670832 4.0806869-.1341663 6.0874888 0 .4682267.1341663.6687985.6023929.6687985.8029647-.0664056 1.6059294 0 2.4088941 0 .4682267 0 .5353098.2012493.5353098.6023929 0 .334738.1334887.8029647-.4689043.8029647h-2.4752996c-.4018211 0-.6023929.1334886-.6023929.5346322v10.6370799c0 .8693702.5353098 1.2705138 1.2041083 1.6052518.4689042.2005717 1.004214.334738 1.5395238.5353098v.9364533h-9.8361481v-.9364533c.5353098-.1341663 1.0035365-.2676549 1.5388463-.4682267.8029647-.334738 1.2047858-.8700478 1.1377027-1.739418v-10.4358306c0-.5353098-.1341662-.7358816-.669476-.6687984-.4011436.0664055-.8029647 0-1.2041083 0-.8700478 0-.8700478 0-.8029647-.8700479 0-.1334886 0-.2676548.0670832-.5353097h2.6765489v-1.1370252c.0664056-1.4716953.0664056-2.9433907.2005718-4.4820337.2005718-2.1406971 1.1370251-3.9468594 2.676549-5.4186225 1.5388462-1.5385753 3.2782643-2.7427513 5.4195035-3.0772182 1.739418-.2675872 3.4795136-.2675872 5.085443.6020541zm-86.0483391 1.2050569c.1338275.8696412.1338275.8696412-.6691372 1.1372284-.40148234.1338274-.73601708.2675871-1.07055182.4014145-.6022574.334467-.86984454.8027614-.86984454 1.5385753v16.8577185c0 1.5388463.06687984 3.1440981 0 4.6829443-.06694761 1.0035365.46836219 1.6052518 1.27125912 1.9399898.46842995.2005718.93679214.334738 1.40515434.4682267v.9364533h-10.3042975c0-.3340604-.00000136-.6017153-.06691237-.9364533.5352854-.1334887 1.00366792-.2676549 1.40513671-.4011436.93675148-.334738 1.27130655-.8700478 1.27130655-1.8065011v-21.1391128c0-1.6055228-.40146201-2.1406971-1.94041669-2.5421116-.80293623-.2007073-.80293759-.2006396-.73602657-1.1372284zm120.9085261 10.0344159v3.8128965h.200572c.134166-.2676549.267655-.5346322.401821-.8022871.53531-1.0706196 1.338274-1.9399898 2.475299-2.4752996 1.539524-.6687984 3.413109.1334887 3.747169 1.6052518.201249.8029647 0 1.5388463-.668798 2.0741561-.735882.5346322-1.538847.7358815-2.408894.3340604-.067084-.0664055-.200572-.1334887-.267655-.1334887-1.471764-.8700478-2.14124-.6687984-2.810038.9364534-.201249.5353098-.401821 1.1370251-.401821 1.739418-.067083 2.4082165 0 4.8835161-.067083 7.2917325 0 1.069942.401821 1.6723349 1.338274 2.0734785.468904.2005718.870048.334738 1.405358.4682267v.9364533h-9.969637v-.9364533c.53531-.2005718 1.137025-.3340605 1.605929-.5346322.735882-.2676549 1.07062-.8029647 1.003537-1.6059294v-9.365211c0-1.4053576-.200572-1.739418-1.538846-2.1405616-.134167-.0670831-.267655-.0670831-.468227-.1341662v-.8693702c.601715-.1341663 1.204108-.2012494 1.739418-.4682267 1.003537-.4018211 2.007073-1.0035365 3.010609-1.4053576.468905-.2005718 1.004215-.2005718 1.673013-.4011436zm-59.1503771.1998942v3.5452416h.2005717c.2676549-.4682267.4689043-.8693702.7365592-1.3375969.8029647-1.2041082 1.8729067-2.0734784 3.4124306-2.0734784 1.2711913 0 2.3418109 1.0028588 2.4752995 2.1405615.0670832.8022871-.2676549 1.40468-.9364533 1.8729067-.7358816.4682267-1.4724407.5353098-2.2754054.2005718h-.0664055c-.0787619-.0393012-.156586-.0823164-.233802-.1268653l-.2301543-.1360673c-.4961453-.2953338-.9805431-.5633498-1.5437943-.2052941-.8693702.5353098-1.2711913 1.4717631-1.3382745 2.4082165-.0664055 2.1405615-.0664055 4.2147176-.0664055 6.3552792 0 .6687984.0664055 1.2711913 0 1.9399898-.0670831.7358815.3340604 1.2041082.8693702 1.5388462.3347381.2005718.6694761.3340604 1.0042141.4011436.8693702.2676549.8693702.2676549.6687984 1.1370251h-9.7021173v-.9364534c.4014823-.1334886.8029647-.2005717 1.1374994-.3340604 1.1374995-.4018211 1.472102-.8700478 1.472102-2.074156v-9.0311506c0-1.4717631-.2007751-1.8058235-1.6059294-2.2740502-.0668799.0664055-.2007073 0-.4014824-.0670831v-.8693702c.6021897-.1341663 1.2713269-.2676549 1.8735166-.4689043.8697767-.3340604 1.8069077-.7358816 2.6098724-1.2041082.6017153-.4011436 1.1370251-.4682267 1.9399898-.4011436zm123.3855191 15.921062c.20125 0 .334739.0670831.468905.1334886.066405.0670831.133488.2005718.133488.334738 0 .2676549-.133488.4011436-.334738.4682267l.401822.5353098h-.334738l-.334739-.5353098h-.267654v.5353098h-.266978v-1.4717631zm-.066405.3340604h-.334738v.4689042h.334738v-.0670831c.200572 0 .267655-.0670831.267655-.2005718 0-.1341662-.134166-.2012493-.267655-.2012493zm-85.045819-12.9768581c-.937131 1.6723349-1.271191 3.6130023-1.338275 5.6193976.200572 1.2041083.267655 2.4082165.53531 3.5459192.267655 1.2705138.870048 2.474622 1.873585 3.3446698 1.873584 1.5388463 4.616538.9364534 5.687158-1.3382745 1.740096-3.6123247 1.605929-7.358138 0-10.9704627-.468227-1.0035365-1.271191-1.8065012-2.408894-2.1412392-1.672335-.5346322-3.345348.2012494-4.348884 1.9399898zm37.471686 5.283982c-.936454.334738-1.872907.5353098-2.742955 1.0035365-1.673012.9364533-2.208322 2.4082164-1.740096 4.2818007.267655 1.069942.870048 1.5381687 1.940668 1.6052518 1.940667.1334886 2.944204-.8693702 3.011287-2.7429545.066405-.6017153.066405-1.1370251.066405-1.6723349v-2.0734785c0-.4018211-.133488-.5353098-.535309-.4018211zm-95.1485382-5.3497099c-1.003672 2.3411333-.8698445 4.7493498-.4014824 7.2246494.1338275-.0670831.2676549-.0670831.3345348-.1334887 2.0742916-1.6730125 4.2153952-3.3453474 6.2896868-5.0176823.1338274-.1334886.3345347-.4682266.2676549-.6687984-.2676549-1.1370251-.8029647-2.2076447-1.8066367-2.8764431-1.538914-1.0035365-3.8808605-.2676549-4.6837574 1.4717631zm102.1739702-4.6167421c.802965 0 1.40468.6020541 1.40468 1.4048833 0 .7358816-.601715 1.40468-1.40468 1.40468-.802964 0-1.405357-.6017153-1.405357-1.40468 0-.7359493.602393-1.4048833 1.405357-1.4048833zm-.067083.1337597c-.735881 0-1.271191.5351743-1.271191 1.2711236 0 .6687985.53531 1.2711914 1.271191 1.2711914.735882 0 1.271192-.6023929 1.271192-1.2711914 0-.6690695-.53531-1.2711236-1.271192-1.2711236zm.134167.5351743c.200571 0 .33406.0668798.468226.1338274.066406.0668799.133489.2009784.133489.334467 0 .2676549-.133489.4011436-.334061.4682267l.401144.5353098h-.334738l-.33406-.5353098h-.267655v.5353098h-.267655v-1.4718309zm0 .2675871h-.334738v.4683622h.334738v-.0670831c.200571 0 .267654-.0670831.267654-.2005718 0-.1334886-.134166-.2007073-.267654-.2007073zm2.140561-28.0969204c-.802965.4014146-1.538846 1.0034687-2.141239 1.7393503-1.271191 1.4716954-1.204108 3.5455126.200572 5.017208.53531.5351743 1.137702 1.0703485 1.807178 1.4716954 2.609466 1.6724704 5.286015 3.3448731 7.961887 4.9503959.736559.4682266 1.539524.8027614 2.342488 1.2041082.133489 0 .401144 0 .735882.0668799l.133488-.2006396c-.133488-.2007073-.267654-.4682944-.468226-.6021219-.870048-.7358138-1.806501-1.4048155-2.676549-2.140697-1.673013-1.4716954-3.345348-2.9433908-4.951277-4.4820338-.870048-.8696412-.936453-1.9399898-.468227-3.0772182.401144-.869709.869371-1.6724026 1.739418-2.2075769.200572-.1338274.468227-.2675871.200572-.6021219-1.003536-1.3379357-2.943526-1.9399898-4.415967-1.1372284zm-5.286015 6.6227986c-1.471763 1.9399898-3.479513 3.0103384-5.821324 3.478565-.401144.0669476-.869371.2007073-1.271192.3345348-.133488.0668798-.267655.2006395-.267655.3344669 0 .1337597.200572.2006396.334738.2675872.133489.0668798.267655 0 .468227 0 2.475977-.4014146 4.884871-.8696413 7.360171-1.3379357.870048-.2007073 1.673013-.4682944 2.542383-.6690017v-.2675872c-.200572-.1337596-.401144-.3344669-.53531-.4682266-.534632-.5351743-1.137025-1.0034687-1.605252-1.6055228-.53531-.6690018-.669476-.8027615-1.204786-.0668799zm14.452687-23.4807204h-.200572c-.133488.2675871-.334738.4682944-.468226.7358816-.401821.8696412-1.07062 1.4716953-2.007751 1.8731099-.401143.1337597-.802287.4013468-1.271191.4682267-.53531.1338274-.86937.4682944-.936454 1.0034687-.334738 1.6724027-.735881 3.3448053-1.070619 5.0172757-.134166.8027615.334738 1.5385753 1.070619 1.8061624.334739.1338274.401144-.1337597.53531-.334467.267655-.5351743.468227-1.2041082.870048-1.6055228 2.140562-2.1406971 4.616539-3.4786328 7.694231-3.6792723.267655 0 .53531-.0669476.73656-.1338275-.267655-.2675871-.53531-.3344669-.73656-.4682944-.802964-.2675871-1.605929-.4682267-2.408894-.8027614-1.204108-.4013468-1.806501-1.3379357-1.806501-2.6089238v-.8027614c.067083-.0668798.067083-.2675871 0-.4682944zm18.13345.9365889c-.468904 1.6724026-1.338274 2.9433907-2.676549 3.8799796 3.613002 1.1372283 6.557206-.2007073 9.50141-2.3414044-2.408894-.2006396-4.684299-.4682945-6.824861-1.5385752zm-73.268326-11.1713056c.334738.4014146.668799.9365888.870048 1.4048155.53531 1.2710559 1.338274 2.2745246 2.408216 3.077286.267655.2006395.53531.4013468.73656.6020541.601715.6689339.535309 1.1372284-.334738 1.3379357-1.338275.3344669-2.743633.6020541-4.081907.8696412-.53531.0668799-1.137025 0-1.672335.0668799-.669476-.0668799-1.472441.1338274-1.873584-.8027614-.067083-.2007073-.53531-.2675872-.802965-.4013469-.936453-.4682944-1.070619-.9365888-.802965-1.8731099.134167-.4682945.134167-1.0034687.067084-1.4048156-.134167-.869709.133488-1.6724026.86937-2.140697.602393-.4014146 1.271869-.8027615 1.873584-1.1372284 1.004214-.6021219 2.007751-.4682945 2.743632.4013468zm65.773989.2671128c-.200572.4682944-.334738.869709-.334738 1.3379357-.133489 1.538643-.86937 2.6758713-2.341811 3.2779255-.668798.2675871-1.405358.5351742-2.141239.7358815-.802965.2675872-1.672335.4014146-2.4753.6690018-.201249.0668798-.267655.3344669-.401821.4682266.200572.0669476.401821.2007073.53531.2007073 2.007073-.1337597 3.94774-.2675871 5.955491-.4013468.936453-.0669476 1.40468-.5351743 1.739418-1.4717631.200572-.6020542.735881-1.2041083 1.137702-1.87311-1.338274-.4013468-1.137702-1.87311-1.673012-2.9434585zm-66.777525.2680615-.060784.0104499-.146469.0459799c-.022964.00627-.043801.01045-.060402.01045 0 .4682944.066405.9365889 0 1.4048155-.067083.4014146-.267655.8027614-.802965.8027614s-.602393-.4682266-.602393-.8696412c0-.2675871 0-.5351743-.067083-.8027614h-.200572c-.735881.8696412-.401143 1.8062301.067083 2.8096988-.602393.1337597-1.070619.2675871-1.806501.4013468.86937.6690017 1.60593.6020541 2.408894.334467 1.003537-.334467 1.806501-.8696413 1.872907-2.0068696.067083-.8696413-.066406-1.538643-.601715-2.1406971zm7.56142-1.672877c-1.017945.4788401-1.125097 1.2790343-1.184426 2.1609118l-.02036.3142522c-.468227-.0668798-.936453-.2006395-1.538846-.2675871.53531.869709 1.405357 1.2710558 2.475977 1.1372962.936453-.0669476 1.605929-.4682945 1.873584-1.4048833.200572-.5351743.401144-1.1372284-.134166-1.8061624-.200572.4682267-.334738.8027614-.468227 1.1372284-.200571.4013468-.535309.8027614-1.070619.5351743-.468227-.2675872-.267655-.7358816-.134166-1.1372284.067083-.2007073.134166-.334467.201249-.6690017zm-4.951954-2.74275124c-.468227-.13375968-.869371-.26758713-1.40468-.33446698.200571.66893396.936453 1.13722839 1.806501 1.20410824 1.271191.0669476 2.141239-.40134683 2.408894-1.40481553.200572-.53517427.401143-1.07034855-.134166-1.73929606-.200572.46830798-.334061.80277496-.468227 1.13724194-.267655.53517428-.802965.73588157-1.07062.46829443-.334738-.26758713-.334738-.80276141 0-1.20417599.200572-.20066664.401821-.40136038.669476-.60204734-1.004214-.26758714-1.539524.4682741-1.807178 2.47515729z" fill="#fff"/></svg>