<svg height="100" viewBox="0 0 284 100" width="284" xmlns="http://www.w3.org/2000/svg"><path d="m99.9519356 51.4140036h10.7385034l1.093141 8.7470772c.751494 5.9450507 1.571837 14.077033 1.913484 20.0909327.478696-5.9450507 1.640037-14.077033 2.528579-20.0227332l1.298389-8.8152767h9.908418l1.366589 8.8152767c.956742 5.9457002 2.049883 14.077033 2.528579 20.0227332.341647-6.0138997 1.230189-14.077033 1.913484-20.0909327l1.024941-8.7470772h11.138608l-8.269031 47.8345025h-10.592362l-1.502988-9.4303715c-1.16199-7.2434399-2.323331-15.2390231-2.596778-19.4076384-.273448 4.1686153-1.366589 12.0953495-2.596779 19.4076384l-1.571187 9.4303715h-10.455313l-7.8682774-45.5198085v45.519159h-11.5484542v.0006495-20.0227332h-9.6349701v20.0220837h-11.5484541v-47.8345025h11.5484541v17.8358015h9.6349701v-17.8358015h11.5484542zm-7.516238-2.0765133c-10.318914 0-14.6239283-5.9450507-16.0587166-14.897376l11.0022084-2.5967784c1.0249415 4.9201092 1.9816836 7.5850871 5.2617563 7.5850871 2.801377 0 4.0997662-2.0498831 4.0997662-6.0820993v-32.59612884h11.5484541v31.43413874c0 11.0035074-5.124708 17.1531567-15.8534684 17.1531567zm34.9272534 0c-10.72876 0-17.015458-7.7221357-17.015458-24.6005456 0-16.87841002 6.423746-24.7369447 17.152507-24.7369447s17.084308 7.79033515 17.084308 24.6005456c0 16.87841-6.423747 24.7369447-17.221357 24.7369447zm.0682-39.49792158c-3.62172 0-5.329956 3.21187318-5.329956 14.76032738 0 11.5491036 1.844635 14.8973759 5.398805 14.8973759 3.55352 0 5.329956-3.2118732 5.329956-14.7609769 0-11.5478046-1.844635-14.89672638-5.398805-14.89672638zm36.271759 39.49792158c-11.206807 0-16.87841-8.5418291-16.87841-24.6005456 0-16.60496237 6.354897-24.7369447 17.015458-24.7369447 10.045467 0 13.530138 5.73980255 15.375423 14.8973759l-11.070408 3.0066251c-.820343-5.3306053-1.571837-8.06378276-4.373214-8.06378276-3.690569 0-5.125357 3.89516756-5.125357 14.76032736 0 11.0022084 1.434788 14.8973759 5.262405 14.8973759 2.664978 0 3.553521-1.913484 4.85191-7.7903351l11.186022 3.8159262c-2.119381 8.6782281-6.745258 13.8139777-16.243829 13.8139777zm39.017277-.7514939v-20.0220837h-9.63497v20.0220837h-11.549104v-47.8345025h11.549104v17.835152h9.63497v-17.835152h11.548454v47.8345025zm13.595739 0v-47.8345025h28.018317v9.7720187h-16.674461v8.2001819h10.865809v9.7038191h-10.865809v10.3871136h17.152507v9.7720187h-28.496363zm53.914653 0-7.038841-13.7353859c-2.664978-5.1935567-5.193557-10.3871135-6.150299-13.1202909.273448 2.7331774.341648 8.8152767.341648 13.3255391v13.5307872h-10.729411v-47.83450249h9.977267l6.08145 10.93335929c2.733177 4.9201091 5.467004 10.7969603 6.354897 13.3937387-.273447-2.5967784-.409847-9.225773-.409847-13.5989868v-10.7287607h10.728761v47.8345025zm-254.5135096 51.4140036c-7.448688 0-11.75370229-3.0748246-15.7170694-8.3372304l7.79033515-7.0381918c3.21187325 3.8269681 5.80865155 5.8080021 8.13198235 5.8080021 2.3915303 0 4.0997662-1.2301897 4.0997662-3.8269681 0-2.6649779-.7514939-4.3050142-6.1502988-6.697194-9.49857108-4.1686153-12.98389194-7.7903352-12.98389194-15.3065732 0-7.7903351 5.67160301-13.9406339 14.82852684-13.9406339 7.3804885 0 11.0704079 2.6649779 15.0337751 7.585087l-7.9273838 7.1070408c-3.2800727-3.8951675-4.4414133-5.1253572-7.448688-5.1253572-2.1869316 0-3.4164718 1.6400364-3.4164718 3.4164718 0 2.5292284 1.2301897 3.9640166 6.0814498 6.0820993 9.6349701 4.2361652 13.18914 8.2001818 13.18914 16.1957651.001299 8.9523253-6.6276955 14.0776825-15.5111717 14.0776825zm33.6009353 0c-11.206807 0-16.8790595-8.541829-16.8790595-24.6005456 0-16.6056118 6.3555469-24.7375942 17.0154585-24.7375942 10.0454664 0 13.5307873 5.7398026 15.3754222 14.897376l-11.0704079 3.0066251c-.8196934-5.3299559-1.5718368-8.0637828-4.3732138-8.0637828-3.6899195 0-5.1253572 3.8951675-5.1253572 14.7603273 0 11.0015589 1.4347882 14.897376 5.2617563 14.897376 2.6649779 0 3.5535204-1.9128345 4.8519096-7.7896857l10.5923616 3.62172c-2.1180826 8.6782281-6.1502988 14.0081839-15.6488698 14.0081839zm96.1392573-.7514939v-47.835152h28.018316v9.7720187h-16.674461v8.2001819h10.865809v9.7031696h-10.865809v10.3871136h17.152507v9.7720187h-28.496362zm30.611847 0v-47.835152h11.548454v47.8345025h-11.548454zm13.666537 0v-8.6106781l10.79696-19.2705898c1.981683-3.5535204 4.71551-8.3365809 6.150299-10.5917121-2.528579.0681995-6.491946.1363991-9.772019.1363991h-7.21616v-9.4985711h29.630423v8.6100286l-10.79696 19.2023902c-2.049883 3.6899195-4.71551 8.4047805-6.150299 10.6599117 2.596779-.06755 6.423747-.1363991 9.70317-.1363991h7.312289v9.4985711h-29.657703zm31.704988 0v-47.835152h28.177449v9.7720187h-16.833594v8.2001819h11.024942v9.7031696h-11.024942v10.3871136h17.152508v9.7720187h-28.496363zm50.292284 0-5.603404-18.3138477h-3.074824v18.3138477h-11.207457v-47.835152h16.537412c8.610678 0 14.829177 3.8951676 14.829177 14.5550793 0 6.2184983-2.39218 10.2507144-6.287348 12.5733956l6.969993 20.7060276h-12.163549zm-4.168616-38.7464276h-4.509612v11.6855027h4.305014c3.280073 0 4.510262-1.9128345 4.510262-5.8768511 0-3.9640167-1.16199-5.8086516-4.305664-5.8086516z" fill="#282c39" fill-rule="evenodd"/></svg>