<?xml version="1.0" encoding="UTF-8"?>
<svg width="288px" height="256px" viewBox="0 0 288 256" version="1.1" xmlns="http://www.w3.org/2000/svg" xmlns:xlink="http://www.w3.org/1999/xlink">
    <!-- Generator: Sketch 52.5 (67469) - http://www.bohemiancoding.com/sketch -->
    <title>Group@3x</title>
    <desc>Created with Sketch.</desc>
    <g id="Page-1" stroke="none" stroke-width="1" fill="none" fill-rule="evenodd">
        <g id="Logo_Just-Spices" transform="translate(-19.000000, 0.000000)" fill="#FFFFFF">
            <g id="Group" transform="translate(19.000000, 0.000000)">
                <path d="M57.122,63.673 C57.122,62.74 57.1,61.77 57.057,60.789 L57.006,59.681 C56.876,56.728 56.739,53.675 56.674,50.664 C56.665,50.239 56.665,49.815 56.665,49.39 C56.665,47.654 56.731,45.899 56.795,44.202 C56.833,43.288 56.866,42.373 56.891,41.457 C56.92,40.387 56.936,39.32 56.936,38.252 C56.936,32.805 56.54,27.412 55.758,22.223 C55.649,21.487 55.542,20.749 55.434,20.012 C55.032,17.26 54.618,14.415 54.024,11.665 C53.639,9.888 52.844,8.27 51.444,6.419 C51.016,5.852 50.551,5.657 50.014,5.837 C49.03,6.16 48.075,6.38 47.233,6.575 C44.223,7.271 43.002,7.658 43.002,10.219 C43.002,10.471 43.016,10.743 43.042,11.031 C43.323,14.226 43.889,22.412 44.065,25.031 C44.227,27.474 44.249,29.867 44.249,31.884 C44.249,32.931 44.243,33.976 44.235,35.022 C44.229,36.064 44.223,37.106 44.223,38.148 C44.223,39.1 44.229,40.051 44.249,41.004 L44.249,41.139 C44.249,41.344 44.241,41.551 44.231,41.758 C44.223,41.937 44.215,42.115 44.215,42.291 C44.215,42.693 44.262,42.964 44.37,43.196 L44.463,43.399 L44.463,50.535 L44.346,50.757 C44.276,50.891 44.249,51.066 44.249,51.404 L44.249,51.855 C44.186,58.5 44.016,66.278 43.223,74.173 C43.176,74.632 43.09,75.083 43.01,75.517 C42.899,76.103 42.795,76.656 42.795,77.171 C42.795,77.426 42.823,77.654 42.876,77.867 C43.135,78.917 43.262,80.01 43.262,81.215 C43.262,82.814 43.038,84.38 42.823,85.895 C41.665,94.019 39.797,101.012 37.118,107.271 C34.614,113.115 30.887,116.242 25.727,116.833 C25.467,116.861 25.211,116.905 24.956,116.961 C23.01,117.394 21.354,116.512 20.491,114.546 C20.061,113.57 19.604,112.608 19.145,111.646 C17.682,108.576 16.169,105.397 15.604,101.746 C15.477,100.924 15.319,100.102 15.159,99.278 C14.794,97.378 14.415,95.409 14.415,93.424 L14.415,93.202 C14.415,91.607 14.016,90.333 13.04,88.802 C12.698,88.269 12.311,88.03 11.784,88.03 C11.528,88.03 11.239,88.089 10.926,88.201 C10.11,88.497 9.391,88.742 8.756,88.958 C5.92,89.924 5.163,90.225 4.776,91.446 C4.778,91.464 4.733,91.85 4.733,93.614 C4.733,94.83 4.754,96.291 4.77,97.555 C4.784,98.527 4.795,99.382 4.795,99.923 C4.795,100.239 4.792,100.464 4.782,100.565 C4.618,102.524 4.534,104.494 4.534,106.415 C4.534,109.464 4.745,112.508 5.161,115.461 C5.942,121.009 8.194,126.163 12.045,131.211 C14.145,133.964 17.104,135.836 21.362,137.102 C24.272,137.973 27.196,137.052 30.358,134.236 C30.592,134.03 30.817,133.808 31.044,133.588 C31.842,132.81 32.669,132.005 33.815,131.656 C36.163,130.944 38.225,129.627 40.409,128.231 L40.752,128.012 C42.542,126.87 44.124,125.37 45.729,123.29 C46.706,122.026 47.397,120.58 48.129,119.047 C48.506,118.264 48.893,117.453 49.323,116.672 C50.2,115.073 50.702,113.325 51.235,111.473 C51.647,110.048 52.071,108.573 52.682,107.172 C52.67,107.19 52.68,107.138 52.68,107.035 L52.68,106.712 C52.68,105.272 53.184,104.026 53.588,103.026 C54.088,101.789 54.372,100.805 54.506,99.84 L55.022,96.178 C55.432,93.284 55.84,90.39 56.223,87.493 L56.376,86.364 C56.667,84.218 56.969,82 56.969,79.831 C56.969,79.172 56.94,78.526 56.885,77.915 C56.745,76.391 56.674,74.861 56.674,73.363 C56.674,71.833 56.745,70.306 56.885,68.829 C57.042,67.162 57.122,65.427 57.122,63.673" id="Fill-1"></path>
                <path d="M114.731,67.195 C114.731,66.247 114.686,65.277 114.643,64.338 L114.629,64.046 C114.524,61.715 114.133,59.34 113.754,57.044 C113.649,56.403 113.543,55.766 113.444,55.127 C112.581,49.59 111.856,43.938 111.155,38.473 L110.905,36.52 C110.678,34.765 110.403,32.983 110.137,31.259 C109.729,28.62 109.307,25.892 109.047,23.164 C108.977,22.427 108.754,21.599 108.381,20.699 C108.014,19.814 107.303,19.451 106.938,19.683 C105.534,20.565 104.086,20.729 102.688,20.889 C102.28,20.936 101.87,20.982 101.463,21.048 C99.401,21.381 98.022,22.679 97.118,25.127 C96.631,26.452 96.479,27.87 96.317,29.372 C96.249,30.018 96.178,30.662 96.083,31.301 C95.52,35.427 95.245,39.996 95.245,45.255 C95.245,47.598 95.295,50.14 95.407,53.25 C95.526,56.606 95.792,60.022 96.047,63.325 C96.243,65.847 96.446,68.459 96.583,71.034 C96.667,72.62 96.708,74.232 96.708,75.968 C96.708,80.198 96.448,84.407 96.221,87.602 C96.145,88.715 96.104,89.837 96.061,90.958 C95.977,93.192 95.889,95.505 95.532,97.781 C95.149,100.221 94.854,102.603 94.655,104.858 C94.346,108.385 94.114,111.99 93.889,115.476 L93.862,115.896 C93.616,119.696 92.358,123.031 91.141,126.256 C90.872,126.968 90.602,127.681 90.344,128.397 C89.795,129.922 88.569,130.886 86.977,131.045 C83.854,131.357 81.026,129.378 79.815,126.043 C78.383,122.1 77.477,118.979 76.876,115.921 C76.038,111.662 75.317,107.054 74.606,101.423 C73.961,97.333 73.215,91.879 73.215,86.244 C73.215,85.976 73.215,85.71 73.219,85.442 C73.223,85.086 73.225,84.729 73.225,84.374 C73.225,80.158 72.924,75.882 72.633,71.749 C72.526,70.241 72.42,68.735 72.329,67.227 L72.186,64.964 C71.874,59.997 71.549,54.86 71.549,49.772 C71.549,49.133 71.555,48.494 71.565,47.855 C71.571,47.454 71.585,47.051 71.596,46.648 C71.614,46.097 71.629,45.545 71.629,44.997 C71.629,44.281 71.602,43.699 71.538,43.163 C71.403,42.103 71.336,40.965 71.336,39.692 C71.336,38.175 71.43,36.653 71.522,35.179 C71.608,33.793 71.698,32.359 71.704,30.961 L71.704,28.854 L71.706,27.093 C71.706,26.188 71.477,25.435 71.006,24.774 C70.739,24.404 70.469,24.181 70.286,24.181 C70.118,24.181 69.887,24.372 69.653,24.706 C67.727,27.452 65.95,29.984 65.95,33.471 C65.95,33.626 65.954,33.782 65.96,33.94 C65.985,34.501 65.997,35.062 65.997,35.625 C65.997,37.682 65.842,39.954 65.514,42.779 C65.372,44.015 65.36,45.244 65.36,46.604 L65.36,47.095 C65.36,47.877 65.356,48.655 65.323,49.433 C65.04,56.075 64.831,62.655 64.702,68.995 C64.69,69.553 64.686,70.116 64.686,70.678 C64.686,73.913 64.864,77.21 65.036,80.397 C65.204,83.522 65.379,86.754 65.389,89.956 C65.403,94.316 65.416,99.26 66.04,104.047 C66.198,105.266 66.311,106.508 66.42,107.707 C66.585,109.492 66.752,111.336 67.069,113.093 C67.84,117.381 68.764,121.223 69.897,124.838 C70.176,125.733 70.436,126.641 70.694,127.551 C71.36,129.884 72.047,132.298 73.096,134.376 C75.743,139.788 79.397,142.722 83.961,143.108 C84.264,143.134 84.571,143.148 84.875,143.148 C87.157,143.148 88.917,142.343 90.256,140.69 C91.075,139.681 92.01,139.167 92.993,139.239 C93.167,139.249 93.354,139.255 93.542,139.255 C94.856,139.255 96.233,139.003 97.69,138.736 C98.309,138.623 98.936,138.507 99.567,138.412 C100.897,138.209 102.073,137.651 103.266,136.659 C106.405,134.045 108.008,130.237 109.165,126.858 C110.729,122.277 111.243,117.409 111.739,112.701 C112.036,109.883 112.184,106.985 112.329,104.181 C112.424,102.329 112.522,100.416 112.663,98.531 L112.711,97.872 C113.069,93.069 113.44,88.099 113.44,83.213 C113.44,82.559 113.434,81.905 113.42,81.251 C113.407,80.663 113.399,80.077 113.399,79.493 C113.399,77.268 113.499,74.336 114.276,71.374 C114.586,70.193 114.731,68.866 114.731,67.195" id="Fill-2"></path>
                <path d="M172.479,115.301 C173.396,109.426 173.841,103.689 173.841,97.762 C173.841,96.95 173.831,96.139 173.813,95.324 C173.759,92.717 173.427,90.077 173.104,87.524 C172.88,85.739 172.647,83.892 172.509,82.051 C172.116,76.893 170.37,72.495 167.321,68.974 C166.667,68.218 166.003,67.469 165.341,66.719 C163.489,64.625 161.577,62.46 159.847,60.162 C159.345,59.497 158.653,58.915 157.675,58.339 C156.448,57.56 155.454,56.583 154.491,55.634 L154.112,55.265 C153.487,54.656 152.868,54.036 152.251,53.415 C149.929,51.086 147.53,48.677 144.778,46.973 C142.358,45.471 140.696,42.974 139.517,40.966 C138.509,39.25 137.976,36.772 137.976,33.805 C137.976,28.535 139.636,22.566 141.755,20.214 C142.997,18.837 144.101,17.581 145.013,16.158 L145.216,15.842 L145.558,15.784 C145.636,15.769 145.729,15.738 145.843,15.55 L146.034,15.23 L146.37,15.158 C149.864,14.379 153.251,16.799 155.442,21.585 C156.114,23.051 156.493,24.645 156.823,26.154 C156.997,26.948 157.081,27.639 157.081,28.266 C157.081,29.219 156.886,29.865 156.714,30.435 C156.567,30.921 156.44,31.338 156.44,31.957 C156.44,32.447 156.517,33.013 156.675,33.693 C157.126,35.632 158.019,37.493 159.399,39.376 C160.37,40.704 161.56,41.134 163.185,40.776 C163.974,40.602 164.827,40.479 165.731,40.351 C169.372,39.831 171.976,39.292 172.29,37.068 C172.339,36.726 172.364,36.323 172.364,35.869 C172.364,34.77 172.403,33.929 172.433,33.255 C172.456,32.766 172.476,32.34 172.476,31.923 C172.476,31.194 172.419,30.459 172.142,29.242 C172.116,29.13 172.103,29.011 172.103,28.882 C172.103,28.751 172.118,28.617 172.14,28.485 C172.151,28.159 172.104,28.095 172.026,28.023 L171.751,27.771 L171.616,25.801 C171.046,21.769 169.856,17.512 167.979,12.864 C167.825,12.48 167.767,12.364 167.677,12.327 L167.497,12.255 L167.362,12.1 C163.384,7.516 153.538,0.734 145.038,0.734 C142.005,0.734 139.354,1.585 137.163,3.268 C133.913,5.762 130.851,9.214 128.062,13.527 C125.345,17.725 123.521,25.911 123.521,33.893 C123.521,37.436 123.886,40.738 124.575,43.441 C127.161,53.543 135.192,58.854 142.278,63.542 C148.384,67.582 154.153,71.399 155.425,77.666 C155.708,79.053 156.087,80.457 156.452,81.813 C156.776,83.02 157.112,84.268 157.388,85.523 C158.097,88.755 158.755,92.237 158.755,95.798 C158.755,97.167 158.661,98.446 158.468,99.712 C158.001,103.145 157.454,106.632 156.923,110.003 C156.673,111.596 156.423,113.189 156.181,114.784 C155.729,117.744 150.782,122.762 147.606,122.762 C147.247,122.762 146.907,122.702 146.599,122.581 C144.534,121.769 142.95,120.5 141.675,119.365 C138.272,116.345 136.688,112.194 136.688,106.297 C136.688,104.461 136.851,102.427 137.169,100.254 C137.302,99.249 137.976,93.994 137.976,90.849 C137.976,89.959 137.921,89.478 137.874,89.232 C137.671,88.164 135.944,87.574 133.011,87.574 C131.245,87.574 129.384,87.777 127.89,87.939 C127.427,87.99 127.005,88.036 126.638,88.068 C126.263,88.107 125.839,88.249 125.481,88.458 C123.425,89.652 121.995,90.984 120.981,92.649 C120.159,94.001 119.758,96.009 119.758,98.794 C119.758,99.519 119.784,100.173 119.805,100.693 C119.821,101.06 119.833,101.366 119.833,101.59 L119.829,101.781 C119.792,102.757 119.739,103.617 119.69,104.414 C119.622,105.542 119.561,106.514 119.561,107.505 C119.561,109.897 119.889,112.433 121.516,117.675 C122.655,121.345 123.946,125.503 126.562,128.573 C132.997,136.127 139.218,139.351 147.36,139.351 C147.854,139.351 148.349,139.339 148.845,139.318 C154.862,139.065 169.208,136.215 172.479,115.301" id="Fill-3"></path>
                <path d="M228.101,34.432 C229.329,33.941 230.722,33.382 233.353,32.964 L234.235,32.826 C235.265,32.666 236.296,32.507 237.319,32.31 C238.396,32.107 238.677,31.496 238.794,31.053 C239.142,29.753 239.317,28.458 239.317,27.206 C239.317,25.865 239.114,24.624 238.716,23.513 C238.134,21.899 237.978,20.096 237.827,18.355 C237.593,15.647 237.39,13.308 235.745,12.198 C234.821,11.574 230.403,10.716 228.12,10.716 C227.579,10.716 227.417,10.769 227.411,10.772 C224.364,12.011 221.815,12.742 219.394,13.077 C218.495,13.202 217.581,13.322 216.657,13.443 C213.472,13.863 210.177,14.298 206.788,15.02 C206.624,15.055 206.458,15.082 206.29,15.104 C205.698,15.186 205.521,15.243 205.396,15.486 L205.106,16.049 L204.534,15.968 C203.636,15.842 202.763,16.023 201.815,16.215 C201.546,16.268 201.278,16.323 201.009,16.37 C199.573,16.643 198.478,16.764 197.464,16.764 C195.474,16.764 193.772,16.26 192.259,15.219 C192.056,15.094 191.812,15.023 191.542,15.023 C191.419,15.023 191.29,15.041 191.157,15.072 C189.669,15.426 188.171,15.504 186.722,15.582 C185.616,15.639 184.571,15.695 183.524,15.861 C183.304,15.895 183.083,15.928 182.86,15.96 C180.841,16.249 179.573,16.518 179.005,18.273 C178.745,19.073 178.372,19.802 178.013,20.507 C177.444,21.615 176.909,22.663 176.909,23.827 C176.909,24.063 176.931,24.29 176.972,24.526 C177.042,24.921 177.062,25.292 177.083,25.652 C177.091,25.814 177.099,25.975 177.112,26.135 C177.216,27.356 177.737,28.131 178.71,28.501 L179.276,28.719 C180.733,29.284 182.237,29.867 183.72,30.119 C188.562,30.942 193.312,32.419 197.841,34.507 C199.513,35.278 199.921,36.002 199.921,38.192 L199.921,38.379 C199.921,40.259 199.901,42.14 199.88,44.018 L199.854,46.554 L199.729,47.732 C199.694,47.827 199.653,47.924 199.608,48.02 C199.585,48.069 199.56,48.121 199.544,48.173 C199.378,52.382 199.218,56.679 199.06,60.975 C199.058,61.172 199.073,61.324 199.103,61.475 C199.647,64.221 199.737,66.939 199.796,69.952 C199.845,72.695 200.009,75.486 200.167,78.186 C200.308,80.598 200.452,83.092 200.521,85.563 C200.733,92.53 200.835,98.862 200.835,104.918 L200.833,106.59 C200.833,107.314 200.839,108.037 200.849,108.76 C200.854,109.495 200.862,110.228 200.862,110.962 C200.862,112.605 200.831,114.556 200.599,116.57 C200.425,118.084 200.206,119.61 199.995,121.086 C199.565,124.09 199.12,127.199 199.038,130.28 C198.993,132.275 198.896,134.072 198.177,135.821 C198.134,135.927 198.11,136.038 198.11,136.146 C198.11,136.366 198.202,136.582 198.36,136.748 C200.61,138.872 202.22,138.832 204.011,136.402 L204.21,136.131 C204.964,135.105 205.741,134.044 206.829,133.206 C207.456,132.722 208.019,132.247 208.019,131.748 C208.015,131.595 208.009,131.463 208.009,131.332 C208.009,129.97 208.317,128.753 208.614,127.575 C208.767,126.971 208.911,126.403 209.011,125.824 C209.612,122.4 209.839,118.839 210.06,115.397 C210.108,114.646 210.155,113.892 210.208,113.141 L210.224,113.01 C210.995,108.969 211.071,104.733 211.147,100.639 C211.161,99.819 211.177,98.999 211.196,98.181 C211.312,96.342 211.554,94.565 211.788,92.845 C212.063,90.821 212.347,88.731 212.407,86.673 L212.415,86.35 C212.425,86.057 212.433,85.771 212.433,85.492 C212.433,84.522 212.329,83.789 211.806,83.128 L211.62,82.893 L211.589,82.579 C211.354,80.166 211.349,77.731 211.341,75.376 C211.337,73.654 211.331,71.874 211.235,70.137 C211.212,69.666 211.2,69.197 211.2,68.725 C211.2,67.461 211.278,66.19 211.356,64.962 C211.431,63.761 211.509,62.524 211.509,61.319 C211.509,59.856 211.396,58.643 211.155,57.5 C211.118,57.341 211.114,57.186 211.114,57.086 C211.114,57.016 211.118,56.947 211.12,56.877 L211.126,56.766 L211.079,51.915 C211.046,48.128 211.011,44.34 210.978,40.552 L210.976,40.293 C210.976,37.37 211.665,36.552 214.323,36.32 C216.935,36.079 220.034,35.801 223.194,35.582 C225.661,35.411 226.792,34.959 228.101,34.432" id="Fill-4"></path>
                <path d="M69.086,205.275 C69.389,205.275 69.772,205.152 70.26,204.918 C74.075,203.083 77.69,200.887 81.014,198.177 C82.543,196.929 83.542,195.305 83.922,193.301 C84.051,192.623 84.262,192.001 84.553,191.399 C85.354,189.756 85.975,188.038 86.561,186.298 C87.391,183.832 87.883,181.379 87.883,178.878 C87.883,177.174 87.655,175.448 87.149,173.68 C86.282,170.652 85.108,168.228 82.137,167.17 C81.864,167.073 81.616,166.902 81.35,166.779 C78.872,165.627 76.297,165.28 73.682,165.28 C72.77,165.28 71.854,165.321 70.936,165.387 C69.2,165.508 68.735,166.026 68.707,167.887 C68.663,170.778 68.706,173.672 68.555,176.557 C68.434,178.888 68.288,181.215 68.237,183.549 C68.194,185.344 68.049,187.133 68.049,188.928 C68.049,189.958 68.098,190.989 68.237,192.024 C68.272,192.306 68.286,192.589 68.286,192.873 C68.286,193.962 68.085,195.059 68.085,196.138 C68.085,196.528 68.11,196.916 68.182,197.3 C68.137,198.844 68.004,200.351 68.004,201.852 C68.004,202.386 68.02,202.919 68.065,203.454 C68.167,204.701 68.434,205.275 69.086,205.275 Z M68.243,216.575 C68.243,216.762 68.249,216.963 68.26,217.179 C68.407,220.43 68.674,223.683 68.748,226.927 C68.823,230.115 69.622,233.074 70.254,236.123 C70.969,239.558 71.876,242.992 71.876,246.554 C71.876,246.829 71.87,247.102 71.858,247.378 C71.854,247.49 71.85,247.601 71.85,247.713 C71.85,248.527 71.979,249.315 72.294,250.076 C72.485,250.536 72.571,250.959 72.571,251.343 C72.571,252.76 71.428,253.659 70.264,253.966 C69.751,254.097 69.19,254.157 68.604,254.157 C65.506,254.157 61.711,252.465 60.362,250.608 C58.897,248.59 58.114,246.332 57.243,244.089 C57.188,243.946 57.161,243.78 57.161,243.613 C57.161,243.465 57.182,243.318 57.221,243.188 C57.756,241.393 57.739,239.547 57.891,237.709 C58.045,235.866 58.092,234.027 58.161,232.181 C57.956,229.062 58.129,225.926 57.676,222.824 C57.629,222.493 57.612,222.164 57.612,221.837 C57.612,220.935 57.745,220.046 57.745,219.146 C57.751,212.864 57.729,206.578 57.899,200.298 C58.112,192.488 58.436,184.682 58.891,176.88 C59.018,174.707 59.284,172.535 59.284,170.354 C59.284,170.262 59.284,170.169 59.284,170.078 C59.282,170.051 59.282,170.025 59.282,170.001 C59.282,168.845 59.569,167.734 59.813,166.615 C59.901,166.215 59.95,165.872 59.95,165.572 C59.95,164.648 59.499,164.106 58.362,163.417 C57.764,163.054 57.169,162.686 56.583,162.304 C55.786,161.786 55.442,161.13 55.442,160.319 C55.442,160.083 55.471,159.834 55.526,159.571 C56.112,156.805 57.844,155.09 60.811,154.483 C63.629,153.909 66.377,153.591 69.049,153.591 C71.088,153.591 73.083,153.776 75.03,154.171 C77.067,154.584 79.04,155.362 81.043,155.972 C82.102,156.295 83.161,156.616 84.223,156.93 C85.584,157.334 86.684,158.256 87.897,158.962 C91.032,160.661 93.846,162.899 96.629,165.188 C97.668,166.043 98.584,167.024 99.194,168.176 C101.407,172.369 103.358,176.632 103.358,181.407 C103.358,181.852 103.342,182.299 103.307,182.754 C103.182,184.367 102.948,185.923 102.188,187.386 C101.1,189.483 100.739,191.835 99.649,193.938 C98.52,196.113 97.186,198.073 95.133,199.612 C93.622,200.748 92.344,202.174 90.993,203.498 C89.583,204.88 88.139,206.044 86.381,206.698 C84.315,207.467 82.434,208.728 80.264,209.264 C79.501,209.454 78.782,209.968 78.108,210.439 C75.762,212.075 73.307,213.378 70.516,213.972 C68.71,214.358 68.243,214.923 68.243,216.575 Z" id="Fill-5"></path>
                <path d="M171.579,150.134 C171.579,151.068 171.149,151.892 170.47,152.614 C169.874,153.247 169.28,153.893 168.519,154.276 C166.642,155.218 165.036,156.588 163.353,157.847 C160.442,160.101 157.413,161.688 154.478,163.452 C152.755,164.486 151.491,165.891 150.495,167.843 C147.19,174.318 145.073,181.27 144.183,188.754 C144.151,189.014 144.042,189.259 143.968,189.512 L143.968,189.513 C143.849,190.798 143.657,192.08 143.622,193.367 C143.603,194.071 143.591,194.773 143.591,195.473 C143.591,200.346 144.146,205.123 145.854,209.676 C145.956,209.944 146.144,210.075 146.247,210.305 C146.702,211.09 147.155,211.877 147.61,212.662 C148.407,214.038 149.333,215.24 150.681,215.885 C151.796,216.417 152.599,217.423 153.312,218.503 C154.563,220.395 156.345,221.463 157.995,222.689 C158.636,223.165 159.364,223.278 160.126,223.278 C160.796,223.278 161.491,223.191 162.175,223.184 C162.853,223.178 163.528,223.13 164.204,223.13 C164.868,223.13 165.532,223.177 166.196,223.355 C166.437,223.42 166.7,223.454 166.964,223.454 C167.228,223.454 167.489,223.42 167.729,223.347 C168.298,223.172 168.831,223.092 169.335,223.092 C171.442,223.092 173.009,224.5 174.446,226.221 C175.146,227.061 175.724,227.945 175.724,228.973 C175.724,229.44 175.604,229.936 175.325,230.47 C175.208,230.694 175.165,230.946 175.165,231.207 C175.165,231.431 175.196,231.662 175.239,231.883 C175.304,232.236 175.333,232.582 175.333,232.922 C175.333,234.29 174.87,235.58 174.456,236.863 C174.009,238.253 172.978,239.133 171.679,239.49 C169.81,240 167.927,240.423 166.185,241.364 C165.812,241.566 165.401,241.649 164.989,241.649 C164.687,241.649 164.384,241.603 164.097,241.526 C163.478,241.361 162.88,241.289 162.3,241.289 C160.974,241.289 159.741,241.669 158.567,242.187 C157.796,242.528 157.044,242.704 156.302,242.704 C155.374,242.704 154.462,242.428 153.548,241.862 C148.331,238.627 143.575,234.691 139.347,229.293 C138.731,228.505 138.032,227.789 137.349,227.063 C134.036,223.548 131.95,219.403 130.817,214.52 C130.091,211.381 129.815,208.255 129.815,205.126 C129.815,202.63 129.991,200.131 130.249,197.62 C130.284,197.278 130.292,196.937 130.292,196.595 C130.292,196.327 130.288,196.057 130.288,195.788 C130.288,195.649 130.288,195.508 130.292,195.369 C130.521,187.454 131.735,179.755 134.87,172.494 C135.052,171.566 135.476,170.759 135.983,169.995 C136.12,169.258 136.388,168.581 136.81,167.977 C136.87,167.216 137.167,166.557 137.587,165.954 C137.587,165.92 137.585,165.884 137.585,165.85 C137.585,165.541 137.642,165.255 137.935,165.079 C138.31,163.814 139.024,162.77 139.817,161.776 C140.448,161.25 140.712,160.432 141.198,159.792 C141.819,158.005 143.05,156.705 144.272,155.498 C145.841,153.874 147.562,152.469 149.419,151.34 C150.86,150.465 152.327,149.649 153.806,148.866 C155.829,147.793 157.925,147.237 160.185,147.197 C160.843,147.186 161.511,147.18 162.183,147.18 C164.073,147.18 166.009,147.23 167.948,147.375 C168.206,147.392 168.464,147.383 168.72,147.418 C169.907,147.575 171.073,147.858 171.458,149.267 C171.54,149.566 171.579,149.854 171.579,150.134" id="Fill-6"></path>
                <path d="M203.13,146.444 C205.382,146.444 207.681,146.721 210.075,147.287 C211.763,147.685 211.673,147.641 213.358,148.051 C216.966,148.932 218.976,149.325 218.976,152.923 C218.976,153.603 218.903,154.397 218.759,155.33 C218.251,158.561 217.704,158.785 216.036,158.785 C215.769,158.785 215.472,158.78 215.142,158.78 C214.819,158.78 214.468,158.785 214.079,158.806 C212.833,158.876 211.583,158.939 210.335,158.939 C209.015,158.939 207.696,158.868 206.38,158.66 C203.417,158.161 200.54,157.38 197.575,157.38 C197.403,157.38 197.231,157.383 197.058,157.388 C195.565,157.436 194.144,157.904 192.569,158.215 C191.556,158.416 191.03,159.15 191.03,160.372 C191.03,160.474 191.034,160.58 191.042,160.688 C191.261,163.963 191.575,167.232 191.872,170.501 C192.522,177.639 193.937,184.667 194.517,191.819 C194.81,195.628 194.979,199.435 195.177,203.246 C195.251,204.7 195.788,205.274 197.001,205.467 C197.593,205.561 198.177,205.608 198.755,205.608 C200.388,205.608 201.976,205.24 203.554,204.544 C204.437,204.153 205.38,203.817 206.356,203.817 C207.067,203.817 207.796,203.998 208.53,204.464 C210.325,205.79 212.169,207.954 212.251,209.95 C212.259,210.119 212.261,210.287 212.261,210.457 C212.261,210.815 212.251,211.172 212.251,211.532 C212.251,212.075 212.274,212.619 212.397,213.17 C212.421,213.274 212.433,213.374 212.433,213.467 C212.433,214.717 210.515,215.208 209.315,215.963 C207.042,217.398 204.726,218.395 202.444,219.167 C201.534,219.474 200.64,219.715 199.735,219.715 C199.177,219.715 198.614,219.623 198.044,219.396 C197.784,219.294 197.528,219.236 197.276,219.236 C196.974,219.236 196.677,219.318 196.382,219.5 C196.239,219.866 195.993,220.154 195.972,220.607 C195.843,223.243 195.657,225.879 195.657,228.515 C195.657,230.116 195.726,231.716 195.917,233.318 C196.116,235.147 196.507,235.671 197.981,235.671 C198.03,235.671 198.081,235.67 198.134,235.669 C200.282,235.623 202.403,235.211 204.519,234.832 C206.737,234.452 209.063,233.935 211.446,233.798 C212.614,233.73 213.739,233.354 214.7,232.63 C215.255,232.21 215.792,232.054 216.317,232.054 C217.329,232.054 218.296,232.63 219.247,232.992 C219.774,233.193 220.093,233.73 220.093,234.338 C220.093,234.587 220.04,234.847 219.927,235.1 C219.13,236.885 219.413,238.875 218.907,240.708 C218.894,240.758 218.872,240.818 218.872,240.869 C218.872,240.883 218.874,240.897 218.878,240.909 C219.003,241.307 219.058,241.675 219.058,242.019 C219.058,243.651 217.823,244.754 217.024,246.115 C215.515,248.691 213.474,250.057 210.718,250.63 C208.774,251.032 206.974,252.077 205.05,252.369 C204.774,252.414 204.462,252.561 204.267,252.786 C202.854,254.409 201.005,254.355 199.253,254.623 C197.937,254.823 196.593,254.67 195.198,254.996 C195.034,255.031 194.862,255.047 194.687,255.047 C194.343,255.047 193.989,254.984 193.673,254.879 C192.429,254.46 191.161,254.276 189.868,254.256 C189.847,254.255 189.825,254.255 189.802,254.255 C189.036,254.255 187.688,254.456 186.485,254.456 C185.38,254.456 184.399,254.288 184.101,253.646 C183.589,252.539 183.448,251.255 183.448,249.89 C183.448,248.299 183.64,246.597 183.661,244.931 C183.661,244.924 183.661,244.917 183.661,244.911 C183.661,244.311 183.343,243.729 183.325,243.132 C183.183,238.146 183.075,233.157 182.954,228.171 C182.937,227.453 182.931,226.734 182.931,226.015 C182.931,225.112 182.938,224.209 182.938,223.305 C182.938,220.964 182.888,218.624 182.517,216.29 C182.448,215.865 182.427,215.432 182.427,214.995 C182.427,214.216 182.495,213.426 182.495,212.644 C182.495,212.424 182.489,212.206 182.476,211.988 C182.163,207.079 181.765,202.174 181.458,197.266 C181.45,197.157 181.448,197.047 181.448,196.937 C181.448,196.091 181.628,195.232 181.628,194.387 C181.628,194.257 181.622,194.127 181.612,193.998 C181.413,191.364 181.39,188.726 181.39,186.088 C181.39,185.307 181.392,184.526 181.392,183.745 C181.392,181.899 181.382,180.053 181.306,178.21 C181.276,177.498 181.265,176.784 181.265,176.07 C181.265,174.39 181.329,172.71 181.386,171.03 C181.392,170.891 181.394,170.755 181.394,170.619 C181.394,169.646 181.251,168.752 180.644,167.937 C180.14,167.261 180.042,166.458 180.042,165.615 C180.042,165.546 180.042,165.477 180.044,165.407 C180.054,164.809 180.058,164.21 180.058,163.61 C180.058,161.95 180.028,160.29 180.022,158.632 C180.017,157.377 179.856,155.184 179.856,153.119 C179.856,151.387 179.97,149.746 180.382,148.818 C181.036,147.345 182.28,147.114 183.751,147.114 C184.429,147.114 185.153,147.163 185.892,147.163 C186.362,147.163 186.839,147.142 187.31,147.076 C189.599,146.756 191.913,146.668 194.19,146.213 C194.372,146.174 194.569,146.147 194.765,146.147 C194.997,146.147 195.224,146.185 195.411,146.286 C196.183,146.702 196.958,146.828 197.741,146.828 C198.446,146.828 199.159,146.726 199.882,146.638 C200.958,146.508 202.038,146.444 203.13,146.444" id="Fill-7"></path>
                <path d="M26.958,145.888 C27.879,145.888 29.045,145.817 30.213,145.817 C31.967,145.817 33.727,145.976 34.67,146.777 C36.987,148.588 38.586,150.026 41.092,152.257 C43.596,154.487 44.866,159.749 45.877,162.82 C46.495,164.703 46.797,166.738 46.797,168.336 C46.797,169.341 46.678,170.174 46.442,170.687 C45.835,172.014 44.149,172.458 42.989,173.019 C41.514,173.733 40.71,173.591 39.235,174.161 C39.083,174.219 38.92,174.249 38.749,174.249 C37.854,174.249 36.713,173.495 35.459,172.519 C33.963,171.354 33.629,170.338 33.458,166.824 C33.303,163.309 30.686,159.794 28.014,159.056 C27.374,158.88 26.766,158.798 26.19,158.798 C22.547,158.798 20.182,162.048 18.872,164.984 C18.27,166.333 17.999,167.569 17.999,168.719 C17.999,177.263 32.993,180.847 38.329,188.108 C41.618,192.585 44.422,197.984 45.055,202.772 C45.688,207.555 46.229,210.73 47.079,212.983 C47.93,215.232 48.294,216.794 48.471,218.313 C48.647,219.832 48.981,221.228 49.623,224.645 C49.754,225.348 49.823,226.123 49.823,226.932 C49.823,230.045 48.852,233.732 46.961,236.547 C44.577,240.096 42.69,242.104 40.883,242.762 C39.075,243.424 38.444,244.067 38.04,245.715 C37.637,247.363 35.942,248.259 34.393,248.65 C33.032,249.009 32.047,249.099 31.444,249.099 C31.389,249.099 31.338,249.099 31.29,249.099 C31.163,249.094 31.059,249.09 30.932,249.09 C30.461,249.09 29.672,249.122 26.372,249.218 C26.27,249.222 26.167,249.222 26.063,249.222 C21.817,249.222 14.669,246.722 10.065,240.361 C5.157,233.844 3.21,227.841 2.682,223.416 C2.155,218.991 1.419,216.686 0.965,214.545 C0.667,213.137 0.592,211.84 0.592,210.749 C0.592,210.18 0.612,209.665 0.631,209.222 C0.688,207.927 0.866,207.245 1.983,205.91 C3.098,204.576 5.02,202.642 7.149,201.731 C7.979,201.375 8.626,201.193 9.163,201.193 C9.999,201.193 10.571,201.632 11.174,202.533 C12.163,204.007 12.905,205.46 13.086,207.386 C13.251,209.309 13.829,211.404 14.422,213.583 C15.012,215.766 15.651,218.01 16.211,220.267 C16.772,222.523 17.69,224.513 18.553,225.772 C19.417,227.031 19.985,227.709 20.944,230.038 C21.905,232.366 24.792,233.326 26.706,233.449 C27.354,233.489 27.848,233.516 28.274,233.516 C29.104,233.516 29.669,233.42 30.577,233.175 C31.948,232.807 32.485,230.664 32.715,229.286 C32.942,227.908 32.864,227.338 33.042,226.994 C33.219,226.652 33.202,226.386 33.27,225.995 C33.335,225.604 33.346,225.079 33.487,224.726 C33.639,224.374 33.62,224.1 33.725,223.638 C33.762,223.467 33.766,223.263 33.766,223.035 C33.766,222.974 33.766,222.913 33.766,222.85 C33.766,222.507 33.774,222.126 33.881,221.733 C34.081,221.002 34.012,220.116 34.17,219.076 C34.264,218.454 34.303,217.766 34.303,217.162 C34.303,216.753 34.284,216.379 34.254,216.087 C34.184,215.359 34.153,215.111 33.991,214.755 C33.833,214.399 33.872,213.845 33.78,213.122 C33.688,212.402 33.553,211.505 33.294,208.067 C33.036,204.63 28.993,201.732 26.34,197.919 C22.335,192.165 15.499,189.087 10.917,183.934 C8.237,180.922 6.225,175.961 6.225,170.114 C6.225,166.413 7.032,162.351 8.987,158.207 C10.647,154.696 12.03,152.93 14.002,150.83 C15.975,148.727 21.161,147.284 24.42,146.274 C25.28,146.008 26.131,145.888 26.958,145.888" id="Fill-8"></path>
                <path d="M111.09,162.395 C111.09,158.223 114.024,154.321 118.155,153.67 L118.157,153.67 C118.506,153.395 118.848,153.268 119.188,153.268 C119.596,153.268 119.999,153.454 120.389,153.78 C122.493,154.762 123.343,155.826 123.343,157.805 C123.343,158.055 123.331,158.316 123.306,158.595 C123.151,160.243 122.915,161.888 122.595,163.505 C122.135,165.838 120.731,167.375 118.711,168.316 C118.063,168.595 117.377,168.724 116.696,168.724 C114.428,168.724 112.206,167.274 111.499,165.047 C111.219,164.17 111.09,163.272 111.09,162.395 Z M119.452,250.843 C118.963,250.843 118.354,250.737 117.543,250.568 C117.237,250.502 116.913,250.458 116.598,250.458 C116.52,250.458 116.442,250.462 116.366,250.466 C116.016,250.493 115.678,250.506 115.362,250.506 C110.842,250.506 109.528,248.046 108.93,243.893 C108.573,241.415 108.491,238.924 108.491,236.433 C108.491,234.984 108.52,233.53 108.536,232.081 C108.604,225.88 108.749,219.678 108.858,213.478 C108.864,213.088 108.866,212.702 108.866,212.317 C108.866,210.601 108.811,208.881 108.811,207.167 C108.811,205.961 108.838,204.751 108.93,203.546 C109.426,197.095 109.442,190.611 110.249,184.184 C110.276,183.975 110.311,183.763 110.311,183.554 C110.311,183.492 110.311,183.435 110.311,183.378 C110.311,183.205 110.311,183.032 110.311,182.864 C110.311,181.551 110.383,180.279 111.616,179.376 C113.461,178.019 115.225,176.441 117.526,176.441 C117.936,176.441 118.366,176.49 118.815,176.6 C119.385,176.742 119.999,176.813 120.333,177.438 C121.145,177.965 121.43,178.767 121.493,179.739 C121.961,187.035 122.519,194.321 122.528,201.648 C122.54,208.337 122.921,215.02 123.026,221.71 C123.048,223.075 123.063,224.439 123.063,225.8 C123.063,228.663 123.001,231.527 122.827,234.395 C122.772,235.272 122.747,236.15 122.747,237.032 C122.747,239.457 122.938,241.885 123.243,244.3 C123.294,244.696 123.325,245.082 123.325,245.463 C123.325,246.544 123.063,247.554 122.194,248.383 C121.149,250.218 120.647,250.843 119.452,250.843 Z" id="Fill-9"></path>
                <path d="M249.868,144.37 C249.845,144.434 249.808,144.497 249.763,144.553 C249.368,145.03 249.081,145.586 248.657,146.033 C248.255,146.465 247.673,146.512 247.149,146.452 C246.933,146.426 246.735,146.382 246.563,146.322 C245.636,145.986 245.296,145.125 245.565,144.075 C245.577,144.024 245.589,143.976 245.608,143.929 C245.724,143.611 245.942,143.316 246.136,143.031 C246.499,142.506 247.083,142.291 247.642,142.047 C247.899,141.932 248.136,141.989 248.372,142.078 C248.435,142.1 248.495,142.123 248.562,142.145 C248.657,142.155 248.751,142.172 248.829,142.202 C249.165,142.326 249.349,142.621 249.454,143.005 C249.521,143.239 249.599,143.468 249.735,143.674 C249.882,143.893 249.954,144.144 249.868,144.37 Z M244.306,151.449 C244.272,151.598 244.229,151.741 244.161,151.88 C244.083,152.061 243.968,152.229 243.917,152.42 C243.829,152.731 243.61,152.937 243.341,153.068 C242.987,153.236 242.628,153.347 242.241,153.347 C242.101,153.347 241.962,153.331 241.817,153.298 C241.608,153.252 241.403,153.213 241.212,153.122 C241.153,153.092 241.097,153.061 241.048,153.006 C240.888,152.823 240.72,152.645 240.485,152.544 C240.454,152.524 240.421,152.502 240.392,152.477 C240.284,152.395 240.175,152.306 240.144,152.172 C240.077,151.924 239.962,151.697 239.884,151.455 C239.835,151.316 239.812,151.175 239.812,151.036 C239.812,150.945 239.821,150.851 239.851,150.759 C239.884,150.63 239.901,150.5 239.907,150.363 C239.925,150.112 239.921,149.861 239.981,149.617 C240.052,149.341 240.155,149.089 240.405,148.925 C240.495,148.869 240.575,148.801 240.667,148.741 C240.999,148.496 241.368,148.351 241.788,148.351 C241.804,148.351 241.817,148.351 241.831,148.351 C242.095,148.374 242.351,148.433 242.597,148.541 C242.794,148.633 242.983,148.745 243.177,148.846 C243.479,149.002 243.718,149.23 243.89,149.522 C243.958,149.633 244.026,149.74 244.12,149.834 C244.216,149.935 244.261,150.054 244.278,150.195 C244.317,150.408 244.298,150.626 244.364,150.836 C244.374,150.871 244.37,150.913 244.374,150.95 C244.374,150.975 244.38,151.005 244.38,151.027 C244.38,151.17 244.335,151.309 244.306,151.449 Z M239.716,156.379 C239.69,156.438 239.653,156.503 239.608,156.559 C239.214,157.04 238.929,157.591 238.503,158.042 C238.103,158.473 237.519,158.522 236.997,158.461 C236.78,158.435 236.581,158.391 236.409,158.331 C235.483,157.991 235.144,157.133 235.411,156.083 C235.423,156.033 235.435,155.985 235.454,155.936 C235.567,155.62 235.788,155.325 235.981,155.039 C236.347,154.515 236.927,154.299 237.487,154.055 C237.745,153.941 237.981,153.998 238.216,154.083 C238.28,154.105 238.341,154.13 238.407,154.153 C238.503,154.163 238.597,154.181 238.673,154.211 C239.011,154.335 239.194,154.63 239.3,155.013 C239.364,155.249 239.444,155.476 239.581,155.683 C239.729,155.902 239.8,156.154 239.716,156.379 Z M236.048,162.462 C236.022,162.521 235.985,162.585 235.94,162.642 C235.546,163.121 235.259,163.673 234.835,164.125 C234.435,164.555 233.851,164.604 233.329,164.543 C233.11,164.518 232.915,164.473 232.741,164.412 C231.815,164.073 231.476,163.216 231.745,162.165 C231.757,162.115 231.769,162.068 231.786,162.019 C231.903,161.702 232.122,161.407 232.313,161.121 C232.679,160.597 233.261,160.38 233.819,160.137 C234.077,160.022 234.313,160.079 234.55,160.166 C234.612,160.187 234.673,160.213 234.739,160.235 C234.835,160.245 234.929,160.264 235.007,160.292 C235.343,160.416 235.528,160.712 235.632,161.095 C235.698,161.331 235.778,161.558 235.915,161.766 C236.062,161.984 236.132,162.234 236.048,162.462 Z M273.452,167.977 C273.28,166.265 272.948,164.475 272.796,162.954 C272.78,162.804 272.769,162.657 272.759,162.514 C272.685,161.668 272.618,160.936 272.554,160.286 C272.149,156.267 271.755,155.465 269.407,151.18 C268.009,149.355 266.175,148.055 264.583,146.467 C262.13,144.024 259.298,142.243 256.433,140.738 C255.175,140.042 253.851,139.709 252.489,139.744 C251.327,139.774 250.173,139.843 249.026,139.974 C246.099,140.308 243.239,141.026 240.499,142.417 C240.437,142.448 240.372,142.475 240.308,142.505 C240.485,142.64 240.642,142.796 240.759,142.995 C240.825,143.103 240.894,143.212 240.987,143.306 C241.083,143.405 241.126,143.526 241.149,143.665 C241.188,143.88 241.169,144.097 241.233,144.306 C241.243,144.34 241.241,144.382 241.243,144.42 C241.243,144.446 241.247,144.474 241.247,144.497 C241.247,144.639 241.208,144.783 241.171,144.92 C241.14,145.068 241.097,145.213 241.032,145.354 C240.952,145.531 240.839,145.699 240.786,145.894 C240.696,146.204 240.479,146.407 240.21,146.538 C239.854,146.706 239.497,146.817 239.112,146.817 C238.968,146.817 238.829,146.802 238.687,146.77 C238.478,146.725 238.271,146.686 238.083,146.592 C238.021,146.563 237.964,146.535 237.919,146.481 C237.755,146.293 237.589,146.115 237.356,146.013 C237.323,145.999 237.29,145.976 237.261,145.951 C237.151,145.865 237.046,145.779 237.011,145.642 C236.944,145.395 236.833,145.167 236.751,144.924 C236.706,144.786 236.679,144.646 236.679,144.506 C236.679,144.415 236.688,144.326 236.718,144.229 C236.731,144.176 236.731,144.12 236.741,144.065 C235.188,145.043 233.882,146.417 232.786,148.118 C233.021,147.993 233.269,147.888 233.517,147.782 C233.772,147.664 234.009,147.725 234.245,147.81 C234.308,147.833 234.37,147.855 234.435,147.881 C234.53,147.886 234.626,147.906 234.702,147.938 C235.04,148.059 235.226,148.354 235.327,148.738 C235.394,148.972 235.474,149.201 235.61,149.411 C235.757,149.627 235.829,149.88 235.743,150.103 C235.72,150.166 235.683,150.23 235.636,150.287 C235.243,150.762 234.956,151.319 234.53,151.766 C234.13,152.197 233.546,152.245 233.026,152.185 C232.808,152.163 232.61,152.115 232.438,152.055 C231.79,151.82 231.435,151.324 231.37,150.69 C230.882,151.604 230.271,152.395 229.429,152.982 C229.21,153.133 229.021,153.305 228.847,153.49 C229.077,153.518 229.308,153.572 229.524,153.668 C229.726,153.759 229.911,153.875 230.106,153.976 C230.407,154.128 230.649,154.357 230.817,154.652 C230.886,154.758 230.954,154.867 231.05,154.963 C231.144,155.06 231.188,155.181 231.21,155.322 C231.247,155.538 231.229,155.753 231.294,155.963 C231.304,155.998 231.302,156.038 231.304,156.077 C231.304,156.102 231.31,156.131 231.31,156.154 C231.31,156.296 231.267,156.438 231.233,156.575 C231.2,156.725 231.157,156.871 231.093,157.01 C231.011,157.188 230.899,157.356 230.847,157.549 C230.757,157.861 230.54,158.064 230.271,158.194 C229.917,158.363 229.558,158.473 229.171,158.473 C229.03,158.473 228.89,158.458 228.747,158.425 C228.538,158.381 228.331,158.343 228.144,158.248 C228.081,158.22 228.024,158.191 227.979,158.136 C227.817,157.95 227.651,157.772 227.417,157.671 C227.384,157.654 227.351,157.631 227.323,157.607 C227.214,157.522 227.104,157.435 227.071,157.299 C227.06,157.261 227.044,157.225 227.032,157.187 C226.612,158.703 226.409,160.273 226.038,161.801 C225.39,164.47 225.278,167.111 225.54,169.722 C225.724,171.552 226.093,173.368 226.587,175.168 C227.64,179.005 229.005,182.753 232.073,185.415 C232.896,186.128 233.681,186.881 234.485,187.618 C235.37,189.093 236.64,190.128 237.933,191.164 C240.69,193.454 243.657,194.708 246.687,195.837 C250.38,197.215 256.8,202.863 257.126,206.11 C257.128,206.12 257.128,206.131 257.13,206.144 C257.165,206.563 257.169,207.001 257.214,207.429 C257.222,207.53 257.235,207.628 257.251,207.729 C257.339,208.285 257.411,208.839 257.47,209.397 C257.644,211.144 257.671,212.898 257.653,214.654 C257.616,218.698 257.282,222.684 256.606,226.646 C256.294,228.502 255.681,229.941 254.585,231.236 C253.397,232.634 252.13,233.889 250.653,234.847 C250.542,234.868 250.427,234.884 250.312,234.896 C249.466,234.993 248.626,234.864 247.815,234.561 C241.894,232.374 239.601,230.569 239.058,225.167 C238.821,222.82 238.915,219.797 239.183,215.767 C239.384,212.761 240.308,209.931 240.981,207.041 C241.069,206.659 241.212,206.251 241.173,205.862 C241.149,205.617 241.054,205.384 240.835,205.168 C240.274,204.609 236.562,201.714 235.851,201.796 C235.831,201.797 235.817,201.8 235.804,201.807 C234.147,202.476 231.554,203.197 230.327,204.47 C228.88,205.965 226.913,207.407 226.19,209.598 C225.274,212.378 225.224,215.712 225.562,219.076 C225.954,222.965 226.866,226.902 227.565,230.085 C227.868,231.479 228.214,232.924 228.968,234.185 C231.077,237.711 232.772,241.535 235.552,244.583 C235.769,244.822 236.021,245.072 236.122,245.366 C236.448,246.313 237.19,246.809 237.874,247.381 C241.858,250.726 246.579,252.068 250.854,253.563 C251.7,253.859 252.522,253.961 253.31,253.87 C254.722,253.711 256.028,252.932 257.173,251.542 C258.134,250.375 259.122,249.188 260.366,248.394 C262.626,247.031 264.829,245.361 266.856,243.513 C268.825,241.718 270.774,239.778 271.306,236.814 C271.903,233.48 272.337,230.126 272.278,226.723 C272.265,226.008 272.376,225.289 272.304,224.571 C272.282,224.363 272.247,224.153 272.187,223.948 C271.964,223.158 271.817,222.361 271.737,221.558 C271.579,219.99 271.669,218.404 271.872,216.827 C272.081,215.245 272.087,213.7 271.937,212.184 C271.683,209.668 270.989,207.229 270.052,204.829 C267.62,196.036 259.196,185.621 252.858,181.23 C249.427,178.854 245.856,176.77 242.267,174.754 C240.868,173.965 239.528,173.126 238.593,171.587 C238.415,171.291 238.3,170.837 238.243,170.272 C237.858,166.449 240.046,157.464 241.575,156.704 C244.026,155.484 246.259,153.638 248.964,153.112 C248.403,152.685 248.22,151.971 248.437,151.126 C248.448,151.075 248.458,151.028 248.478,150.98 C248.593,150.662 248.812,150.368 249.007,150.081 C249.37,149.559 249.952,149.342 250.513,149.099 C250.771,148.983 251.005,149.04 251.239,149.126 C251.304,149.149 251.366,149.173 251.431,149.195 C251.524,149.205 251.62,149.225 251.698,149.253 C252.036,149.376 252.22,149.673 252.323,150.057 C252.388,150.291 252.47,150.52 252.604,150.727 C252.755,150.945 252.823,151.196 252.737,151.422 C252.716,151.482 252.677,151.546 252.634,151.603 C252.261,152.057 251.974,152.574 251.583,153.011 C252.39,153.118 253.147,153.386 253.86,153.963 C257.79,157.126 259.515,161.714 260.046,166.993 C260.058,167.123 260.071,167.255 260.083,167.385 C260.095,167.508 260.104,167.623 260.114,167.733 C260.347,170.04 260.604,169.43 261.323,171.91 C261.958,173.943 264.493,175.24 266.304,175.033 C266.399,175.022 266.495,175.006 266.585,174.988 C269.304,174.408 273.091,174.369 273.491,171.165 C273.612,170.203 273.565,169.108 273.452,167.977 Z" id="Fill-10"></path>
                <path d="M229.261,130.221 C229.272,130.171 229.284,130.124 229.304,130.075 C229.419,129.757 229.64,129.463 229.833,129.176 C230.196,128.654 230.778,128.437 231.337,128.193 C231.595,128.08 231.831,128.136 232.067,128.224 C232.13,128.247 232.19,128.268 232.257,128.291 C232.353,128.3 232.446,128.32 232.524,128.349 C232.86,128.473 233.044,128.768 233.149,129.152 C233.218,129.386 233.296,129.615 233.433,129.822 C233.579,130.04 233.649,130.292 233.565,130.517 C233.54,130.58 233.503,130.643 233.458,130.701 C233.063,131.177 232.778,131.732 232.353,132.18 C231.952,132.611 231.368,132.66 230.847,132.598 C230.63,132.574 230.433,132.529 230.259,132.469 C229.333,132.132 228.993,131.272 229.261,130.221" id="Fill-11"></path>
                <path d="M228.032,143.986 C228.046,143.934 228.056,143.887 228.075,143.84 C228.19,143.522 228.411,143.227 228.604,142.942 C228.966,142.418 229.55,142.202 230.108,141.958 C230.366,141.843 230.601,141.9 230.837,141.989 C230.903,142.011 230.962,142.034 231.03,142.056 C231.122,142.066 231.218,142.084 231.296,142.113 C231.634,142.237 231.817,142.532 231.921,142.916 C231.985,143.15 232.067,143.38 232.204,143.586 C232.351,143.805 232.421,144.055 232.335,144.281 C232.312,144.344 232.274,144.408 232.229,144.464 C231.837,144.941 231.546,145.497 231.122,145.944 C230.722,146.377 230.14,146.423 229.616,146.363 C229.401,146.338 229.202,146.293 229.03,146.233 C228.103,145.897 227.763,145.036 228.032,143.986" id="Fill-12"></path>
                <path d="M222.819,135.424 C222.839,135.176 222.833,134.926 222.896,134.677 C222.962,134.405 223.069,134.155 223.319,133.987 C223.409,133.929 223.489,133.866 223.579,133.801 C223.913,133.558 224.282,133.412 224.702,133.412 C224.716,133.412 224.731,133.412 224.745,133.412 C225.007,133.434 225.265,133.494 225.509,133.603 C225.708,133.695 225.897,133.808 226.091,133.91 C226.392,134.063 226.632,134.291 226.802,134.586 C226.87,134.694 226.937,134.801 227.032,134.897 C227.128,134.996 227.173,135.116 227.192,135.256 C227.231,135.471 227.212,135.687 227.278,135.897 C227.286,135.932 227.284,135.973 227.286,136.011 C227.286,136.036 227.294,136.065 227.294,136.088 C227.294,136.231 227.249,136.373 227.216,136.51 C227.185,136.659 227.14,136.805 227.075,136.944 C226.993,137.123 226.882,137.291 226.829,137.484 C226.741,137.796 226.522,137.999 226.255,138.129 C225.899,138.297 225.54,138.409 225.155,138.409 C225.015,138.409 224.874,138.392 224.731,138.361 C224.522,138.317 224.315,138.278 224.126,138.183 C224.063,138.154 224.007,138.127 223.962,138.072 C223.802,137.884 223.634,137.707 223.399,137.605 C223.366,137.589 223.335,137.567 223.306,137.543 C223.198,137.456 223.089,137.37 223.054,137.233 C222.989,136.986 222.876,136.757 222.794,136.516 C222.749,136.377 222.726,136.236 222.726,136.097 C222.726,136.005 222.735,135.917 222.763,135.821 C222.794,135.691 222.813,135.56 222.819,135.424" id="Fill-13"></path>
                <path d="M223.089,150.005 C223.108,149.756 223.103,149.505 223.163,149.262 C223.233,148.985 223.335,148.735 223.589,148.567 C223.677,148.512 223.759,148.446 223.849,148.381 C224.183,148.138 224.552,147.992 224.972,147.992 C224.985,147.992 225.001,147.992 225.015,147.992 C225.274,148.014 225.532,148.074 225.778,148.181 C225.976,148.275 226.163,148.388 226.358,148.49 C226.661,148.646 226.901,148.874 227.071,149.166 C227.14,149.277 227.206,149.385 227.304,149.477 C227.396,149.576 227.442,149.696 227.462,149.837 C227.499,150.051 227.481,150.267 227.548,150.477 C227.556,150.512 227.554,150.553 227.556,150.591 C227.556,150.616 227.562,150.645 227.562,150.671 C227.562,150.814 227.519,150.953 227.487,151.09 C227.452,151.239 227.409,151.385 227.345,151.524 C227.265,151.703 227.149,151.871 227.101,152.064 C227.011,152.376 226.792,152.579 226.522,152.709 C226.169,152.88 225.812,152.989 225.423,152.989 C225.284,152.989 225.146,152.976 225.001,152.94 C224.792,152.895 224.585,152.858 224.396,152.763 C224.333,152.734 224.276,152.707 224.229,152.652 C224.071,152.464 223.903,152.287 223.667,152.185 C223.636,152.17 223.603,152.147 223.575,152.123 C223.466,152.039 223.356,151.95 223.325,151.813 C223.259,151.569 223.144,151.34 223.063,151.096 C223.017,150.96 222.995,150.817 222.995,150.677 C222.995,150.588 223.005,150.497 223.032,150.404 C223.063,150.274 223.083,150.14 223.089,150.005" id="Fill-14"></path>
                <path d="M252.87,18.692 L250.974,18.692 L250.974,21.274 L252.917,21.274 C253.899,21.274 254.423,20.749 254.423,19.994 C254.423,19.127 253.829,18.692 252.87,18.692 Z M254.493,22.622 L256.64,25.775 L254.378,25.775 L252.505,22.942 L250.974,22.942 L250.974,25.775 L249.032,25.775 L249.032,16.978 L252.938,16.978 C255.042,16.978 256.39,18.052 256.39,19.88 C256.39,21.319 255.612,22.211 254.493,22.622 Z M252.458,14.259 C248.278,14.259 245.124,17.572 245.124,21.639 C245.124,25.706 248.255,28.974 252.413,28.974 C256.595,28.974 259.749,25.661 259.749,21.594 C259.749,17.527 256.618,14.259 252.458,14.259 Z M252.413,29.888 C247.774,29.888 244.165,26.164 244.165,21.639 C244.165,17.116 247.819,13.345 252.458,13.345 C257.097,13.345 260.708,17.069 260.708,21.594 C260.708,26.118 257.052,29.888 252.413,29.888 Z" id="Fill-15"></path>
                <path d="M274.548,97.13 C271.233,99.538 269.287,104.017 265.599,105.879 C261.915,107.74 259.524,110.446 257.396,112.666 C255.266,114.886 252.53,117.843 248.573,119.526 C246.772,120.29 245.339,120.915 244.163,121.24 C242.78,121.621 241.752,121.588 240.897,120.881 C239.405,119.648 239.03,117.193 240.224,115.186 C241.397,113.216 243.319,111.708 246.988,107.549 C250.634,103.416 256.126,101.07 257.152,99.324 C258.179,97.575 262.813,94.931 259.453,89.274 C259.453,89.274 254.884,83.744 252.831,84.625 C250.781,85.504 247.763,88.129 245.528,91.419 C243.298,94.712 242.151,96.77 241.838,97.558 C241.521,98.347 240.244,104.531 240.126,106.268 C240.123,106.326 239.854,108.632 239.804,108.775 C239.54,109.534 238.372,111.735 236.537,114.863 C236.038,115.709 235.823,118.089 236.114,119.693 C236.249,120.091 236.259,120.923 237.072,121.809 C237.203,121.951 237.497,122.318 237.739,122.532 C238.027,122.789 238.721,123.034 238.792,123.311 C238.85,123.549 238.454,123.832 238.122,124.001 C237.194,124.475 237.073,124.364 235.907,124.402 C235.701,124.41 235.479,124.371 235.261,124.312 C235.081,124.263 234.902,124.2 234.739,124.137 C234.111,123.901 233.636,123.069 233.017,120.286 C232.843,119.497 232.287,118.152 232.083,117.02 C231.696,114.881 232.055,114.041 232.046,112.555 C232.026,109.318 232.508,106.658 232.58,103.26 C232.587,102.9 232.37,100.264 232.267,99.723 C231.962,98.123 231.283,95.629 233.659,92.178 C234.95,90.303 235.876,87.825 236.788,86.104 C239.005,81.92 240.159,79.538 240.497,78.778 C241.647,76.206 242.604,72.983 247.399,71.076 C249.188,70.363 251.511,69.834 254.577,69.59 C263.847,68.375 260.955,68.589 266.388,67.25 C268.272,66.785 271.567,66.587 274.165,66.643 C276.763,66.699 279.17,66.865 280.295,66.84 C286.534,66.702 287.661,70.176 287.724,72.473 C287.829,76.449 287.968,79.638 286.532,83.174 C284.997,86.963 281.659,91.149 274.548,97.13" id="Fill-17"></path>
                <path d="M244.173,104.785 C244.173,104.785 245.095,99.262 245.817,97.49 C246.542,95.718 248.376,93.425 248.772,93.046 C249.165,92.669 249.487,92.211 249.702,91.941 C249.917,91.67 251.298,89.709 251.972,89.486 C252.646,89.26 253.275,89.354 253.444,89.451 C253.616,89.547 254.222,89.788 254.907,90.505 C255.409,91.029 255.889,91.918 255.817,92.625 C255.766,93.146 255.066,95.148 254.911,95.276 C254.756,95.407 253.08,98.027 250.57,99.446 C250.57,99.446 249.249,100.298 249.067,100.526 C248.884,100.755 246.538,102.321 244.294,104.835 C244.232,104.873 244.146,105.012 244.173,104.785" id="Fill-19"></path>
                <path d="M237.688,74.746 C236.894,75.304 233.005,79.781 230.247,82.569 C229.402,83.422 228.146,84.122 227.804,84.424 C226.786,85.327 226.595,85.653 225.711,86.436 C225.626,86.511 225.544,86.587 225.462,86.66 C224.745,87.308 224.187,87.857 223.656,88.337 C222.841,89.074 222.263,90.155 222.101,90.403 C221.435,91.416 221.047,92.623 221.889,95.662 C222.308,97.171 222.85,98.366 223.253,99.473 C223.452,100.031 224.736,102.744 225.649,105.328 C226.198,106.881 228.188,112.343 228.386,112.698 C228.515,112.927 228.637,113.089 228.867,113.476 C228.945,113.607 229.146,112.053 229.08,111.156 C228.681,105.647 229.708,102.606 228.204,97.977 C227.548,95.957 227.948,94.053 228.347,93.294 C228.7,92.615 229.233,91.892 231.083,89.198 C231.812,88.138 237.265,76.927 237.565,76.415 C238.582,74.69 239.985,73.882 239.985,73.882 C239.985,73.882 238.751,73.997 237.688,74.746" id="Fill-20"></path>
            </g>
        </g>
    </g>
</svg>