<svg height="100" viewBox="0 0 113 100" width="113" xmlns="http://www.w3.org/2000/svg"><path d="m22.2285137 24.7486365c0 .6897013-.0314573 1.3719315-.0931923 2.0274229-.0550502.5807804-.0829686 1.1812216-.0829686 1.7828424 0 .5890379.0279184 1.1906588.0829686 1.7899203.0216269.2402551.0330302.4942728.0330302.7534023 0 .852886-.1187513 1.7250396-.2331772 2.5688817l-.0601621.4439411c-.1506018 1.1391474-.3110341 2.2771152-.4722527 3.415083l-.2028996 1.4399578c-.052691.3794537-.1643644.7663785-.3609725 1.252787-.1588593.3932162-.3570403.8831636-.3570403 1.449395v.1270088c0 .0405013-.0039322.0609486.0007864.0538707-.2402551.5508959-.4069788 1.1308899-.5689839 1.691223-.2095842.7282365-.4069788 1.4155784-.7518294 2.0443312-.169083.3071019-.3212577.6260002-.4695002.9338885-.2878343.6028005-.5595467 1.1713912-.943719 1.6684165-.631112.8178898-1.2531801 1.4077141-1.9570372 1.8567671l-.1348731.0861143c-.8587843.5489299-1.6695962 1.0667957-2.5928679 1.3467656-.4506258.1372325-.7758156.4537716-1.0896022.7596938-.08926.0865076-.1777337.1738016-.2697463.2548041-1.2433497 1.1072969-2.39311399 1.4694491-3.53737323 1.1269577-1.67431472-.4978117-2.83784156-1.2339125-3.66359565-2.3164368-1.51427571-1.9849555-2.39979867-4.011592-2.70690055-6.1931557-.16357795-1.1611675-.24654658-2.3581177-.24654658-3.557034 0-.7553684.03303017-1.5300044.09751763-2.300315.00393216-.0397148.00511181-.1281885.00511181-.2524448 0-.21273-.00432538-.5489299-.00983041-.9311361-.00629146-.4970253-.014549-1.0715142-.014549-1.5496651 0-.6936335.01769473-.8454149.0169083-.8524928.15217468-.480117.44983937-.5984751 1.56500061-.978322.24969231-.0849347.53241478-.1812727.85327923-.2976647.12307668-.0440402.23671617-.06724.33737953-.06724.20722495 0 .35939963.0939787.49387959.303563.38377904.602014.54067232 1.1029715.54067232 1.7301514v.087294c0 .7805342.14902895 1.554777.29255287 2.3018878.0629146.3240102.12504277.6472339.17498123.9704577.22216717 1.4356325.81710333 2.6856669 1.39237868 3.8928407.18048625.378274.36018607.756548.52926905 1.1403271.33934561.7730631.99051169 1.1198798 1.75571048.9496172.10027014-.0220201.2009335-.0393216.30316972-.0503317 2.02899577-.2323908 3.49451267-1.461978 4.47912607-3.7599336 1.0534263-2.4611404 1.7879543-5.2109016 2.2432987-8.4053902.0845414-.5957226.1726219-1.2114993.1726219-1.840252 0-.4738256-.0499385-.9036109-.1517815-1.316488-.0208404-.083755-.0318505-.1734083-.0318505-.2736785 0-.2025063.0408945-.4199549.0845415-.6503796.0314573-.1706559.0652739-.3479964.0837551-.5284826.3118204-3.1044422.3786672-6.1628781.4034398-8.7757999v-.1773405c0-.1329071.0106168-.20172.038142-.2544109l.0460063-.0872941v-2.805991l-.0365691-.0798229c-.0424674-.0912262-.0609485-.1977878-.0609485-.3558607 0-.069206.0031457-.1391985.0062914-.2095842.0039322-.0813958.0070779-.1627916.0070779-.2434009v-.0530842c-.0078643-.374735-.0102236-.7486837-.0102236-1.1230255 0-.4097314.0023593-.8194627.0047186-1.229194.0031457-.4113042.005505-.8222151.005505-1.2339125 0-.7931172-.0086507-1.7340836-.0723518-2.69471087-.069206-1.02983332-.2917664-4.24870141-.4022602-5.50502727-.0102236-.11324628-.0157286-.22020109-.0157286-.31929158 0-1.00702678.480117-1.15920146 1.6636978-1.43287996.3310881-.07667717.7066096-.16318474 1.0935344-.29019358.2111571-.07077892.3940027.00589824.5622992.22885185.5505027.72784325.8631096 1.36406711 1.0144979 2.06281236.2335704 1.08134464.396362 2.20004483.5544349 3.2821759.0424673.28980036.0845415.57999394.127402.86940109.3074951 2.04039906.4632088 4.16101416.4632088 6.30286296 0 .419955-.0062915.8395167-.0176948 1.2602581-.0098304.360186-.0228065.7199789-.0377487 1.0793785-.0251659.667288-.0511181 1.3573825-.0511181 2.0400059 0 .1671169 0 .3338405.0035389.5009574.0255591 1.1839741.0794297 2.3844633.1305478 3.5456308l.020054.4356836c.0169083.3857451.0255591.7671649.0255591 1.1340356zm22.652794 1.3849076c0 .6570643-.0570164 1.1788623-.1789134 1.6432506-.305529 1.1647065-.3448506 2.3176165-.3448506 3.1925226 0 .2296383.0031457.460063.0082575.6912742.005505.2571634.0078643.5143268.0078643.7714902 0 1.9212545-.1458832 3.8755392-.2866546 5.7641568l-.0188744.2591295c-.0554435.7412126-.0939787 1.4934352-.1313342 2.2216717-.0570164 1.1025783-.1152124 2.242119-.2319976 3.3502023-.1950352 1.851262-.3971484 3.7654387-1.0121386 5.5667622-.4549512 1.3286777-1.0852768 2.8260451-2.3195825 3.8539123-.469107.3900705-.9315293.6094852-1.4545069.6893081-.2481194.0373555-.494666.0829686-.7380669.1274021-.572916.1049887-1.1143748.2040792-1.6310609.2040792-.0739246 0-.1474561-.0023593-.2158757-.0062915-.3865316-.0283115-.7541887.1738016-1.0762328.5705568-.5265166.6499864-1.2185771.9665255-2.1158966.9665255-.1195377 0-.2402551-.005505-.3593996-.0157287-1.7946389-.1517814-3.231451-1.3054779-4.2722944-3.4335641-.4124838-.8171034-.6826234-1.7663273-.9445054-2.6837008-.1014498-.3578268-.203686-.7148671-.3133933-1.0667957-.445514-1.4214766-.8088458-2.9322134-1.1120155-4.6183246-.1246496-.6908809-.1903167-1.4159717-.2551974-2.1178626-.0428605-.4714663-.087294-.9598409-.1494221-1.4391715-.245367-1.8823261-.2504788-3.8263871-.2559838-5.5408099-.0039322-1.2590784-.072745-2.5299533-.1388053-3.758754-.0676332-1.2531801-.1376257-2.549614-.1376257-3.8216686 0-.2209875.0015728-.4423682.0062914-.6617829.0507249-2.4929909.1329071-5.0803537.2441873-7.6920959.0129761-.3059223.014549-.6118445.014549-.9193396v-.1930692c0-.534774.0047186-1.0180368.0605553-1.5040521.1289749-1.1108358.1899235-2.0042231.1899235-2.8130689 0-.2213807-.0047186-.441975-.014549-.6625693-.0023593-.0621282-.0039322-.1234699-.0039322-.1844185 0-1.371145.6987452-2.3667685 1.4560797-3.44654025.0920126-.13133422.1828456-.20643852.2489059-.20643852.0719586 0 .1781269.08768722.2831157.23317722.1852048.25991593.2752513.55600775.2752513.91186845l-.0007864.6924538v.8285066c-.0023593.5497163-.0377488 1.1135884-.0715654 1.6585861-.0361758.5796007-.0731382 1.1780758-.0731382 1.7745848 0 .5005643.0263455.9480444.0794297 1.3648536.0251658.2107639.0357827.4396157.0357827.7211585 0 .2154825-.0058983.4325379-.0129762.6492-.0043253.1584662-.0098304.3169323-.0121897.474612-.0039321.2512652-.0062914.5025304-.0062914.7537956 0 2.0006842.1277953 4.0206359.2504787 5.973741l.0562299.8898483c.0357827.5929701.0774636 1.1851537.1195378 1.7781238.1144259 1.6251627.232784 3.3065553.232784 4.964355 0 .1395917-.0007864.2799699-.0023593.4199549-.0015729.105382-.0015729.2099775-.0015729.3153594 0 2.2157735.2933393 4.3603748.5469638 5.9686292.2795768 2.2142006.5630857 4.0261411.8926009 5.700849.2363229 1.2024552.5925768 2.4296831 1.1556625 3.9801347.4761848 1.3113761 1.5882003 2.0895511 2.8162146 1.9668676.6260003-.0625214 1.1080834-.4415818 1.3239591-1.0412366.1014498-.2815428.2076182-.561906.3133933-.8418759.4785442-1.2681224.9732102-2.5794985 1.0699414-4.0737202l.0106168-.1651508c.0884737-1.3707518.1796999-2.7882963.3012037-4.17517.07825-.8867026.1942488-1.8233437.3448506-2.7827913.1403782-.8949601.1749812-1.8044693.2080114-2.6829143.0169083-.4407954.0330302-.8819841.0629146-1.3196337.0892601-1.2563259.1914963-2.911373.1914963-4.5746777 0-.6826234-.0161219-1.3164879-.049152-1.9401289-.0538707-1.0125318-.1336935-2.0396126-.2107639-3.0313039-.1002702-1.2987932-.2048657-2.6420199-.2516584-3.9616536-.0440402-1.2229025-.063701-2.2224581-.063701-3.1437638 0-2.0679241.1081344-3.8645291.3295152-5.4869393.0373555-.2512652.0652739-.5044964.0920126-.7585141.063701-.5906108.1234699-1.1481914.3149662-1.66920292.3554674-.96259333.8977126-1.47298801 1.7085245-1.60392901.160039-.02595227.3212577-.04404022.4816899-.06252138.5497163-.0629146 1.1190934-.12740206 1.671169-.47421878.1435239-.09122617.4231006.05151133.567411.39950769.1466697.35389461.2343569.67947765.261882.96927802.1022362 1.07269388.2681735 2.14538778.4286057 3.18308538.1045955.6779048.21273 1.3786161.3019901 2.0687106l.098304.7679513c.2756446 2.1489268.5607264 4.3713849.900072 6.5486232.0389284.2512652.0806093.5017439.121897.7537955.149029.9028245.3027765 1.836713.3440642 2.7533001l.0055051.1148191c.0169082.3692301.034603.7506498.034603 1.1234188zm22.707451 18.9160601c-1.2862103 8.2237243-6.9272904 9.3443906-9.2932724 9.4438743-.1950353.0082575-.3896773.0129761-.5839261.0129761-3.2015666 0-5.6477648-1.2677291-8.1781113-4.2380845-1.0286536-1.2071739-1.5362958-2.842167-1.9841691-4.2852705-.6397628-2.0612395-.7687377-3.0584359-.7687377-3.9990091 0-.3896773.0239862-.7718835.0507249-1.2154314.0192676-.3133933.040108-.6515593.054657-1.0353383l.0015729-.0751044c0-.0880804-.0047186-.2084046-.0110101-.3527149-.0082575-.2044725-.0184811-.4616359-.0184811-.7467176 0-1.0951072.1576797-1.8846854.4809034-2.4163138.3987213-.654705.9610205-1.178469 1.7694731-1.6479692.1407714-.0821822.3074951-.1380189.4549512-.1533544.1443103-.0125829.3102476-.0306708.4923067-.0507249.587465-.063701 1.3192405-.1435239 2.0136603-.1435239 1.1533032 0 1.8323877.2319976 1.9122106.6519525.0184811.0967312.040108.2858682.040108.6358307 0 1.236665-.2650277 3.3030163-.3173255 3.6981987-.1250427.8544588-.189137 1.6542607-.189137 2.3762057 0 2.3187961.6228545 3.9510367 1.9609694 5.1385497.5013507.4463004 1.1242052.9452918 1.9361967 1.2645834.1211106.0475792.2548041.0711721.3959688.0711721 1.2488547 0 3.1940954-1.973159 3.3718292-3.1370791.0951583-.6271799.1934623-1.2535733.2917664-1.8799668.2087978-1.3255319.4238871-2.6966769.6075191-4.0465882.0758907-.4978118.112853-1.0007354.112853-1.5390484 0-1.400243-.2587362-2.7694219-.5375265-4.0402968-.1085277-.4934863-.2406484-.9842202-.3680504-1.4588322-.143524-.5332012-.2925529-1.0852768-.4038331-1.6306677-.5001711-2.4642862-2.7686355-3.9651925-5.1696138-5.5537861-2.7863303-1.8433977-5.9442498-3.9317691-6.961107-7.9040395-.270926-1.0628635-.4144499-2.3612635-.4144499-3.7544286 0-3.13865199.7172264-6.35752008 1.7855949-8.00824182 1.0966801-1.69594162 2.3007082-3.05332406 3.5786609-4.03400534.8615368-.66178292 1.903953-.99640994 3.0965779-.99640994 3.342338 0 7.213945 2.6667925 8.7781592 4.46929571l.0530842.06094852.0707789.02831157c.0353894.014549.058196.06016208.1187513.21115711.7380669 1.82766906 1.2059942 3.50159056 1.4301274 5.08703842l.0530842.77463597.1081345.0990905c.0306708.0283116.049152.0534774.0448266.1816659-.0086507.0519045-.014549.1045955-.014549.1561068 0 .0507249.0051118.0975177.0153355.1415579.1089209.4785441.1313342.7675581.1313342 1.0542127 0 .1639712-.0078643.3314813-.0169083.523764-.0117965.2650278-.0271319.5957226-.0271319 1.0278673 0 .1785201-.0098304.3369863-.029098.4714662-.1234699.8745129-1.147405 1.0864565-2.5791053 1.2909289-.3554675.0503317-.6908809.0986973-1.0011285.1671169-.6389764.1407714-1.1069037-.0283115-1.4887167-.5505027-.5426384-.7404262-.8937805-1.4722016-1.071121-2.2346479-.0621282-.267387-.0924058-.4899474-.0924058-.6826233 0-.2434009.0499384-.4073721.1077412-.5984751.0676332-.2241333.1443104-.478151.1443104-.8528861 0-.2465465-.0330302-.518259-.1014498-.83047264-.1297614-.5933633-.2787903-1.22014998-.5430316-1.79660497-.8615368-1.8819329-2.1933602-2.83351618-3.5672577-2.52720074l-.1321207.02831157-.0751043.1258292c-.0448266.07392465-.0813957.08611435-.1120666.09201259l-.1344799.02280655-.0798229.12425633c-.3586132.5595467-.792724 1.05342629-1.2810985 1.59488504-.8332252.92484458-1.4859642 3.27195227-1.4859642 5.34420187 0 1.1666725.2095843 2.1410624.6059462 2.8158214.463602.7895782 1.1171274 1.7714391 2.0687106 2.3620499 1.0821311.6700405 2.0254569 1.6172984 2.938505 2.533099.2426144.2441873.4860152.4879813.7317754.72745l.1490289.1450968c.3786673.3731622.7695242.7573345 1.2520005 1.0636499.3845655.2264926.6566711.4553444.8540657.7168332.6802641.9036109 1.4320935 1.7549241 2.16033 2.5783189.2603091.2949121.5214047.5894311.7785681.8867026 1.1989163 1.3845143 1.8854718 3.1138793 2.0400058 5.1420887.0542639.723911.1458832 1.4501814.2339637 2.1520724.1270088 1.0038811.2575566 2.0419719.2787903 3.0670866.0070779.3204713.01101.6393696.01101.9586612 0 2.3305926-.1749812 4.5864742-.5355605 6.8966195zm21.8714734-31.7990036c-.5147201.207225-.9594476.3849587-1.9295121.4521987-1.2425633.0861144-2.4611404.1954285-3.4882212.2901936-1.0451687.0912262-1.3160947.412877-1.3160947 1.5622481l.0007864.101843c.0129761 1.4895031.0267387 2.9790062.0397148 4.468116l.0184812 1.907492-.0023593.043647c-.0007864.0275251-.0023593.0546571-.0023593.0821822 0 .0393216.0015729.1002701.0161219.1627915.0947651.4494462.1391985.9264175.1391985 1.5016928 0 .4738256-.0306708.9602341-.0601621 1.4324867-.0306708.4828696-.0613417.9826474-.0613417 1.4796727 0 .1855981.0047186.3700165.0137626.5552214.0377487.6830166.040108 1.3829414.0416809 2.0600598.0031457.9260242.0051118 1.8835058.0975176 2.8323365l.0121897.1234699.0731383.0924058c.205652.259916.2465465.5481435.2465465.9295632 0 .1097074-.0031457.2221672-.0070779.3373796l-.0031457.1270088c-.023593.809239-.1352664 1.6310609-.2434008 2.4269306-.0920126.6763319-.187171 1.3750772-.2327841 2.0982018-.0074711.3216509-.0137625.6440882-.0192675.9665255-.0298845 1.6098273-.0597689 3.2754912-.3629386 4.864478l-.0062915.0515114c-.0208405.2953054-.0393216.5917904-.058196.8870958-.0869008 1.3534503-.1761609 2.7536933-.4124838 4.1000657-.0393216.2276722-.0959448.451019-.1561069.6885216-.1167852.4632087-.2378958.9417529-.2378958 1.4773134 0 .0515113.0023593.1034158.0039322.1635779 0 .1962149-.2213808.3829926-.4679273.5733093-.4278193.3295152-.7333483.7467176-1.0298334 1.1501575l-.07825.1065616c-.7042503.9555154-1.3373284.9712441-2.2220649.1360528-.0621282-.0652739-.0983041-.1502086-.0983041-.2367162 0-.0424673.0094372-.0861143.0263455-.1277953.2827225-.6877352.3208645-1.3943447.3385592-2.1788111.0322437-1.2114992.2072249-2.4340085.3763079-3.6152301.0829686-.5803871.169083-1.1804351.2375026-1.7757645.0912262-.7919375.1034159-1.5591023.1034159-2.2051566 0-.2886207-.0031457-.5768482-.0051118-.8658622-.0039322-.2842953-.0062915-.5685906-.0062915-.8532792l.0007865-.6574575c0-2.3813175-.0401081-4.8711627-.1234699-7.6107002-.027132-.9716373-.0837551-1.9523186-.1391986-2.9007562-.0621282-1.0616838-.1266156-2.1591503-.1458832-3.2377424-.0231998-1.1847606-.0585892-2.2535223-.2724989-3.3332941-.0117965-.0593756-.0176947-.1191445-.0169083-.1966081.0621282-1.6892569.1250428-3.3789071.1903167-5.0339542.0062915-.0204472.0161219-.0408945.0251658-.0601621.0176948-.0377487.0338166-.0758907.0475792-.1132463l.049152-.4632087.0102236-.9971963c.0082576-.7384601.0161219-1.4780999.0161219-2.2173464v-.0735314c0-.8611436-.1604322-1.1458321-.8178898-1.4490018-1.7808763-.8210355-3.6486534-1.4018159-5.5526064-1.7254329-.5831397-.0990905-1.1745369-.3283355-1.7474529-.5505027l-.2225604-.0857211c-.3825994-.14549-.5874651-.4502326-.6283596-.93034965-.0051118-.0629146-.0082575-.12622241-.0114032-.18992344-.0082576-.14155785-.0161219-.28744107-.043647-.44276148-.0161219-.09279903-.0247727-.18205912-.0247727-.27485815 0-.45770369.2103707-.86979431.4341108-1.30547789.1411646-.27721745.2878343-.56387208.3900705-.87844507.2233468-.69009449.721945-.79586966 1.5158486-.90950915.0876872-.01258292.174588-.02555905.2610955-.03892841.4116974-.06527389.8226084-.087294 1.2575055-.10970732.5697704-.03067087 1.1588083-.06134174 1.743914-.20054028.0522978-.01218971.1030227-.0192676.1513883-.0192676.1061684 0 .2021131.02791835.281936.07707038.5949362.4093381 1.2641902.60751908 2.0466905.60751908.3987213 0 .8292931-.04757916 1.3939516-.15492719.1057751-.01848117.2111571-.04010806.3169323-.06094852.372769-.07549752.7160467-.14666965 1.0691549-.09712441l.2249197.03185052.1140327-.22138074c.049152-.09555155.1187513-.11796487.3515353-.1502086.0660603-.00865076.1313342-.0192676.1958217-.03303017 1.3326098-.28390212 2.6282573-.45495118 3.880651-.620102.3633318-.04757916.7227314-.09476511 1.0762328-.14391714.9519765-.13172744 1.9542847-.4191685 3.1524146-.90636342.0023593-.00117965.0660603-.02202011.2787903-.02202011.8977126 0 2.634942.33737953 2.9982738.58274646.6468407.43647002.7266636 1.35620279.8186762 2.42103235.0593756.68458946.1207173 1.39355833.3495692 2.02820933.1565001.43686324.236323.92484459.236323 1.45214752 0 .4923068-.0688129 1.0015218-.2056521 1.5127029-.0460063.1741948-.1565001.4144499-.579994.4942728-.4022602.0774636-.8076661.139985-1.2126788.2028996l-.3468168.0542638c-1.0345519.1643644-1.5823021.3841723-2.0651716.5772414zm-62.5272794 67.178241c.1191445 0 .2697463-.0483656.4616359-.1403782 1.5001199-.7215518 2.9215966-1.5850546 4.2286473-2.6506706.6012277-.4907339.9940507-1.129317 1.1434728-1.9173224.0507249-.2666006.1336936-.5111811.2481195-.7478972.3149662-.6460543.5591535-1.3215998.7895782-2.005796.3263695-.9696713.5198318-1.9342307.5198318-2.9176645 0-.6700405-.0896533-1.3487317-.2886207-2.043938-.3409184-1.1906587-.8025543-2.1438149-1.9707997-2.5598377-.1073481-.0381419-.2048657-.1053819-.3094612-.1537475-.9743898-.4529851-1.9869216-.5894311-3.0151821-.5894311-.3586132 0-.7187993.0161218-1.0797718.0420741-.6826233.0475792-.8654689.2512652-.876479.9830406-.0173015 1.1367881-.0003932 2.2747559-.0597688 3.4091847-.0475792.9165871-.1049888 1.8316012-.1250428 2.7493679-.0169083.7058232-.0739246 1.409287-.0739246 2.1151102 0 .4050127.0192676.8104186.0739246 1.2173974.0137626.110887.0192676.2221672.0192676.3338406 0 .4282125-.0790364.8595707-.0790364 1.283851 0 .1533543.0098304.3059222.0381419.4569173-.0176947.6071258-.0699925 1.1997027-.0699925 1.7899203 0 .2099774.0062915.4195617.0239862.6299324.0401081.4903406.1450968.7160467.4014738.7160467zm-.3314813 4.4433435c0 .0735314.0023593.1525679.0066847.2375026.0578028 1.2783459.1627915 2.5574784.1918895 3.8330718.0294912 1.2535734.343671 2.4171002.5921837 3.6160165.2811496 1.3506978.6377967 2.7010023.6377967 4.1016385 0 .1081345-.0023593.2154825-.0070779.3240102-.0015729.0440402-.0031457.0876872-.0031457.1317274 0 .3200781.0507249.6299324.174588.92917.0751043.1808795.1089209.3472099.1089209.498205 0 .5571874-.4494462.9106888-.9071499 1.0314062-.2017199.0515113-.4223142.0751043-.6527389.0751043-1.2181839 0-2.7104395-.6653219-3.2408882-1.3955245-.5760618-.7935103-.8839501-1.6813926-1.2264415-2.5633766-.0216268-.0562299-.0322437-.1215038-.0322437-.1871709 0-.058196.0082576-.1159988.023593-.1671169.2103707-.7058232.203686-1.4317003.2634549-2.1544318.0605553-.7246975.0790364-1.4478221.1061683-2.1736993-.0806093-1.2264414-.0125829-2.4595675-.1907098-3.6793243-.0184812-.1301546-.0251659-.2595227-.0251659-.3881044 0-.3546811.0522978-.7042503.0522978-1.0581449.0023593-2.4701844-.0062915-4.9419416.0605553-7.4113396.0837551-3.0710188.2111571-6.1404647.3900705-9.2083377.0499385-.8544589.154534-1.7085246.154534-2.5661292 0-.0361759 0-.072745 0-.1085276-.0007865-.0106169-.0007865-.0208405-.0007865-.0302777 0-.454558.1128531-.8914212.2087979-1.3314302.034603-.1572865.0538706-.2921596.0538706-.4101245 0-.3633318-.1773405-.576455-.6244274-.847381-.2351433-.1427375-.469107-.287441-.6995317-.4376496-.3133933-.2036861-.4486597-.4616359-.4486597-.7805343 0-.092799.0114033-.1907098.0330302-.2941257.2304247-1.0876361.9114752-1.762002 2.0781478-2.0006842 1.1080833-.2257061 2.1886415-.3507489 3.2393153-.3507489.8017679 0 1.5862343.072745 2.3518263.2280654.8009815.1623983 1.5767971.4683206 2.3644092.7081825.416416.1270088.832832.2532312 1.2504276.3767011.5351673.1588594.9677052.5214047 1.4446765.7990154 1.2327329.6680744 2.3392433 1.5480923 3.4335641 2.4481643.4085517.3361999.7687378.721945 1.0085997 1.1749301.8701875 1.6487556 1.6373524 3.3250364 1.6373524 5.202644 0 .1749812-.0062915.3507488-.0200541.5296622-.049152.6342578-.1411646 1.2461023-.4400089 1.8213776-.4278193.8245745-.5697704 1.749419-.9983761 2.5763528-.4439411.8552453-.9684915 1.6259491-1.7757645 2.2311089-.5941497.4466936-1.09668 1.00742-1.6279152 1.5280383-.5544349.5434248-1.1222391 1.0011285-1.8135132 1.2582919-.8123848.3023833-1.5520245.798229-2.4053037 1.0089929-.300024.0747111-.5827465.2768242-.8477742.4620291-.9224853.6433017-1.8878312 1.1556625-2.9852977 1.3892329-.7101485.1517815-.8937805.3739486-.8937805 1.0235419zm40.6333927-26.1256798c0 .367264-.169083.6912741-.4360768.9751762-.2343569.2489059-.4679273.5029236-.7671649.6535254-.7380668.3704097-1.3695721.909116-2.031355 1.4041752-1.1446525.8863094-2.3357044 1.5103436-3.4897941 2.203977-.6775116.4065856-1.1745369.9590544-1.5661802 1.7266125-1.2995797 2.5460751-2.1320185 5.2797143-2.4819809 8.2225446-.0125829.1022363-.0554435.1985742-.0845415.2980579v.0003933c-.0467927.5052828-.1222902 1.009386-.1360528 1.5154553-.0074711.2768242-.0121897.552862-.0121897.8281134 0 1.9161427.218235 3.7945367.8898483 5.5848502.0401081.1053819.1140327.1568932.154534.247333.1789134.3086747.3570403.6181359.5359537.9268106.3133934.5410656.6775116 1.0137115 1.2075671 1.267336.4384361.209191.7541887.6047665 1.0345519 1.0294401.4919135.7439651 1.1926248 1.16392 1.8414316 1.6460031.2520516.1871709.538313.2316044.8379438.2316044.2634549 0 .5367402-.0342098.8057001-.0369623.2666006-.0023593.5320215-.0212337.7978357-.0212337.2610956 0 .5221912.0184811.7832867.0884736.0947652.0255591.198181.0389284.3019901.0389284s.2064385-.0133693.3008104-.0420741c.2237401-.0688128.4333243-.1002701.6315053-.1002701.8285066 0 1.4446764.5536484 2.0097282 1.2303736.2752513.3303016.5025303.6779047.5025303 1.082131 0 .183632-.0471859.3786673-.1568933.5886447-.0460063.0880805-.0629146.187171-.0629146.2898004 0 .0880804.0121897.1789134.029098.2658142.0255591.1388053.0369624.2748581.0369624.4085516 0 .5379198-.1820592 1.0451688-.3448507 1.5496652-.1757676.5465706-.5811736.8926009-1.0919615 1.0329791-.7349211.2005402-1.4753473.3668707-2.1603299.7368872-.1466697.0794297-.3082816.1120666-.4702867.1120666-.1187513 0-.2378958-.0180879-.3507488-.0483656-.2434009-.0648807-.4785442-.0931922-.7066096-.0931922-.5214047 0-1.0062403.1494221-1.4678762.3531081-.3031697.1340868-.5988683.2032928-.8906348.2032928-.3649046 0-.7235178-.1085277-1.0829175-.331088-2.0514091-1.2720546-3.9215455-2.8197536-5.5840637-4.9423349-.2422212-.3098544-.5170794-.5913972-.785646-.8768722-1.3027254-1.382155-2.1229745-3.0120363-2.5684885-4.9321112-.285475-1.2343058-.3940027-2.4634997-.3940027-3.6938733 0-.9814677.0692061-1.9641151.1706559-2.951481.0137626-.13448.0169083-.2685667.0169083-.4030467 0-.1053819-.0015729-.2115503-.0015729-.3173255 0-.054657 0-.1101005.0015729-.1647576.0900465-3.1123065.567411-6.1396783 1.8001439-8.9948213.0715654-.3649047.238289-.6822302.4376497-.9826474.0538706-.2898004.1592525-.5560077.3251898-.7935104.023593-.2992375.1403782-.558367.305529-.7954764 0-.0133693-.0007864-.0275251-.0007864-.0408945 0-.1215038.0224133-.2339636.1376257-.3031697.1474561-.4974185.4282124-.9079363.7400329-1.2987932.2481195-.2068318.3519285-.5284826.5430316-.780141.2441873-.7026774.7282365-1.2138585 1.2087467-1.6884705.6169563-.6385832 1.2936814-1.191052 2.023884-1.6349931.5666246-.3440642 1.1434728-.6649287 1.7250396-.972817.7954764-.421921 1.6196577-.6405492 2.5083264-.6562779.2587362-.0043254.5214047-.0066847.785646-.0066847.7431787 0 1.5044453.0196608 2.2668916.0766772.1014498.0066847.2028996.0031457.3035629.0169083.4667477.0617349.9252378.1730151 1.0766261.7270568.0322437.1175717.0475791.2308179.0475791.3409185zm12.4063654-1.4509679c.885523 0 1.7895271.1089209 2.7308868.3314813.663749.1565.6283595.1391985 1.2909288.3004172 1.4187242.3464235 2.2090888.5009575 2.2090888 1.9157495 0 .267387-.0287047.5796007-.0853279.9464714-.1997538 1.2704817-.4148431 1.3585621-1.0707278 1.3585621-.1049887 0-.2217739-.0019661-.3515353-.0019661-.1270088 0-.2650277.0019661-.4179889.0102237-.4899474.0275251-.9814677.0522977-1.4722015.0522977-.5190455 0-1.0376977-.0279183-1.5551702-.1097073-1.1650997-.1962149-2.2963828-.5033168-3.462269-.5033168-.0676332 0-.1352664.0011797-.2032928.0031457-.5870718.0188744-1.1458321.2028996-1.7651476.3251899-.3983281.0790364-.6051598.3676572-.6051598.8481674 0 .040108.0015728.081789.0047186.1242563.0861143 1.2877832.2095842 2.5732071.3263695 3.8586309.2555905 2.8067775.8119915 5.5703012 1.0400569 8.3825837.1152123 1.4977606.1816659 2.9947348.2595227 4.4932819.029098.5717364.2402551.7974425.7172264.8733332.232784.0369624.4624223.0554435.6897013.0554435.6421221 0 1.2665495-.1447035 1.8870447-.418382.3472099-.1537476.7180128-.2858682 1.1017919-.2858682.2795767 0 .5662314.0711721.8548521.2544109.7058231.5214047 1.4309138 1.3723246 1.4631576 2.1571842.0031457.0664536.0039321.1325139.0039321.1993606 0 .1407715-.0039321.2811497-.0039321.4227075 0 .2135164.0090439.427426.0574095.6440882.0094372.0408945.0141558.0802161.0141558.1167852 0 .4915203-.7541887.6845895-1.2260482.9814677-.8937805.5642653-1.8044693.9563019-2.7017887 1.2598648-.3578268.1207174-.7093621.2154825-1.0652228.2154825-.2194147 0-.4407954-.0361759-.6649287-.1254359-.1022362-.0401081-.2028995-.0629146-.30199-.0629146-.1187513 0-.2355365.0322437-.3515353.103809-.05623.1439172-.1529612.2571635-.1612187.4352904-.0507249 1.036518-.1238631 2.073036-.1238631 3.109554 0 .6295392.0271319 1.2586852.1022362 1.8886176.07825.7191925.2319976.9252378.8115983.9252378.0192676 0 .0393216-.0003933.0601621-.0007865.8446285-.0180879 1.6786401-.180093 2.5106857-.329122.8721536-.1494221 1.7867745-.3527149 2.7238088-.4065855.4592766-.0267388.9016448-.1745881 1.2795256-.4592766.218235-.1651508.4293922-.2264926.6358307-.2264926.3979348 0 .7781749.2264926 1.1521235.3688369.207225.0790364.332661.2901935.332661.529269 0 .0979109-.0208405.2001471-.0652739.2996308-.3133934.701891-.2021132 1.4843913-.4010806 2.2051566-.0051118.0196608-.0137625.0432538-.0137625.0633078 0 .0055051.0007864.0110101.0023593.0157287.049152.1565001.0707789.3012036.0707789.43647 0 .6417289-.4856221 1.0754464-.7998018 1.6106137-.5933633 1.012925-1.3959177 1.5500584-2.4796216 1.7753713-.7644124.1580729-1.4722016.5689839-2.2287496.683803-.1085277.0176948-.2312112.0754975-.3078883.1639712-.5556146.6381899-1.2826714.6169563-1.9715862.7223382-.5174726.0786433-1.0459552.0184812-1.5944919.1466697-.0644874.0137625-.1321206.020054-.2009335.020054-.1352663 0-.2744649-.0247726-.3987212-.0660603-.489161-.1647576-.9877592-.2371094-1.4961878-.2449737-.0082575-.0003933-.0169083-.0003933-.0259523-.0003933-.3012036 0-.8312591.0790365-1.3042982.0790365-.4345039 0-.8202491-.0660603-.9374275-.3185051-.2013267-.4352904-.2567702-.9401801-.2567702-1.4769202 0-.625607.0754975-1.2948611.0837551-1.9499593 0-.0027525 0-.005505 0-.0078643 0-.2359298-.1250428-.4647816-.1321207-.6995317-.0558367-1.9605762-.0983041-3.922332-.1458832-5.8829081-.0066847-.2823292-.009044-.5650517-.009044-.8477742 0-.3550743.0027525-.7101485.0027525-1.065616 0-.9205192-.0196608-1.8406452-.165544-2.7584119-.0271319-.1671169-.0353895-.3373795-.0353895-.509215 0-.3063154.0267387-.6169563.0267387-.9244514 0-.0865075-.0023593-.1722287-.0074711-.2579498-.1230767-1.9302985-.2795767-3.8590241-.4002941-5.7889294-.0031457-.0428606-.0039322-.0861143-.0039322-.1293681 0-.332661.070779-.6704337.070779-1.0027014 0-.0511181-.0023593-.1022362-.0062915-.1529611-.07825-1.0357316-.087294-2.073036-.087294-3.1103404 0-.3071019.0007864-.6142038.0007864-.9213057 0-.7258772-.0039321-1.4517543-.0338166-2.1764518-.0117965-.27997-.0161218-.5607264-.0161218-.8414828 0-.6606032.0251658-1.3212065.0475791-1.9818098.0023593-.054657.0031458-.1081345.0031458-.1616119 0-.3825994-.05623-.7341347-.2949122-1.0546059-.198181-.2658142-.2367162-.5815668-.2367162-.9130481 0-.0271319 0-.0542638.0007864-.081789.0039322-.2351433.0055051-.4706798.0055051-.7066095 0-.652739-.0117965-1.3054779-.0141558-1.9574305-.0019661-.4934863-.0652739-1.3558095-.0652739-2.1678011 0-.6810505.0448266-1.3263183.2068317-1.691223.2571634-.5792075.7463244-.6700404 1.3247455-.6700404.2666006 0 .5512892.0192676.841876.0192676.1848116 0 .3723757-.0082576.5575806-.0342099.900072-.1258291 1.8099743-.1604322 2.7053277-.3393456.0715653-.0153354.1490289-.0259522.2260993-.0259522.0912262 0 .1804863.0149422.2540177.054657.3035629.163578.6083055.2131232.9161938.2131232.2772175 0 .5575806-.040108.841876-.0747111.4231006-.0511181.8477742-.0762839 1.2771663-.0762839zm-69.2736903-.2186282c.3621522 0 .8206423-.0279184 1.2799189-.0279184.6897012 0 1.3817618.0625214 1.7525647.3774876.911082.7121146 1.5398348 1.2775595 2.5252347 2.154825.9846134.8768722 1.483998 2.945976 1.8815396 4.153543.2430077.7404262.361759 1.5406212.361759 2.1689808 0 .3951823-.0467928.7227314-.1395918.9244513-.2386822.521798-.9016448.696386-1.3577756.9169803-.579994.2807564-.8961398.2249197-1.4761338.4490529-.0597689.0228066-.1238631.0346031-.1911031.0346031-.3519285 0-.8005882-.2964851-1.2936814-.6802641-.5882515-.4580969-.7195857-.8576046-.7868257-2.2393665-.0609485-1.382155-1.0899954-2.7643101-2.1406691-3.0545037-.2516584-.069206-.4907339-.1014498-.7172265-.1014498-1.43248669 0-2.36244308 1.2779528-2.87755635 2.4324357-.23671617.5304487-.34327777 1.0164639-.34327777 1.4686626 0 3.3596395 5.89588422 4.7689265 7.99408602 7.6240695 1.2932882 1.7604291 2.3958665 3.8834036 2.6447724 5.7661229.2489059 1.8807532.4616359 3.1292148.7958696 4.015131.3346271.8843433.4777578 1.498547.547357 2.0958425.0692061.5972954.2005403 1.1462253.4529851 2.4898452.0515114.276431.0786433.5811736.0786433.8992855 0 1.2240821-.381813 2.6738704-1.1253849 3.7807741-.9374275 1.3955244-1.6794265 2.1851026-2.3899682 2.4438389-.710935.2603091-.9590544.5131472-1.1179138 1.1611675-.1584661.6480204-.8249676 1.0003421-1.4340596 1.1540897-.5351673.1411646-.9224853.176554-1.1595947.176554-.0216269 0-.0416809 0-.0605553 0-.0499384-.001966-.0908329-.0035389-.1407714-.0035389-.1852048 0-.4954524.0125829-1.793066.0503317-.0401081.0015728-.0806093.0015728-.1215038.0015728-1.66959614 0-4.48030578-.9830405-6.29067332-3.484289-1.92990527-2.5625902-2.69549728-4.9230672-2.90311545-6.6630491-.20722496-1.7399818-.4966321-2.6463452-.67515227-3.4882212-.11717844-.5536484-.14666966-1.0636499-.14666966-1.4926488 0-.2237401.00786432-.4262464.01533543-.6004412.02241333-.509215.09240582-.7773885.53162835-1.3023322.4384361-.5245504 1.1941977-1.2850306 2.03135506-1.6432506.32636948-.139985.58078038-.2115503.7919375-.2115503.32872877 0 .55364845.1726219.79075784.5269097.38889086.5796007.6806573 1.1509439.75182944 1.9082784.06488068.7561548.29215966 1.5799428.52533689 2.436761.23199758.858391.48326275 1.7407683.70346384 2.6282573.22059431.8870958.58156681 1.6695961.92091242 2.1646554.33973883.4950592.56308565.7616598.94018001 1.6774604.37788081.9154074 1.51309607 1.292895 2.26571192 1.3412606.2548041.0157286.449053.0263455.6165631.0263455.3263695 0 .5485366-.0377488.905577-.1340868.5390994-.1447035.7502565-.9873659.8406963-1.5292179.0892601-.541852.0585892-.7659852.1285817-.9012516.0695993-.13448.0629146-.2390755.0896533-.392823.025559-.1537476.0298844-.3601861.0853279-.4989914.0597689-.1384121.0522978-.2461534.0935855-.4278193.014549-.06724.0161218-.1474561.0161218-.2371094 0-.0239862 0-.0479723 0-.072745 0-.1348731.0031458-.2846885.0452199-.4392225.0786432-.2874411.0515113-.6358307.1136395-1.0447755.0369623-.2445805.0522977-.5151133.0522977-.7526159 0-.1608254-.0074711-.3078883-.0192675-.4227075-.0275252-.2862614-.0397149-.383779-.1034159-.523764-.0621282-.139985-.0467927-.3578268-.0829686-.6421221-.0361759-.2831157-.0892601-.6358306-.1911031-1.9877081-.1014498-1.3514841-1.6912231-2.4910248-2.7344257-3.9903583-1.57483103-2.2625662-4.26285721-3.4728858-6.06457399-5.499129-1.0538195-1.1843673-1.84497057-3.135113-1.84497057-5.4342484 0-1.4552932.3173255-3.0525376 1.08606324-4.6820257.65273895-1.3805822 1.196557-2.075002 1.97197941-2.9007561.77581563-.8269337 2.81503502-1.3943448 4.09652672-1.7914932.33816596-.1045955.67279299-.1517814.99798279-.1517814zm33.0820682 6.4908203c0-1.6404981 1.1536964-3.1748278 2.7780727-3.4308116h.0007864c.1372325-.1081345.2717124-.1580729.4054059-.1580729.1604323 0 .3188984.0731382.4722527.2013267.827327.3861383 1.1615608.8045204 1.1615608 1.5826953 0 .0983041-.0047186.2009335-.014549.3106408-.0609485.6480204-.1537476 1.2948611-.2795768 1.9306917-.1808794.9173735-.732955 1.5217469-1.5272518 1.8917633-.2548041.1097074-.5245505.1604323-.7923307.1604323-.8918144 0-1.7655409-.5701636-2.0435448-1.4458561-.1101005-.3448507-.1608254-.6979588-.1608254-1.0428095zm3.2880741 34.7791895c-.1922827 0-.4317514-.041681-.7506498-.1081345-.1203241-.0259523-.2477262-.0432538-.3715893-.0432538-.0306709 0-.0613417.0015729-.0912262.0031457-.1376257.0106169-.2705327.0157287-.3947891.0157287-1.7773374 0-2.2940235-.967312-2.5291668-2.600339-.1403782-.9743898-.1726219-1.9538914-.1726219-2.9333931 0-.5697703.0114033-1.1415067.0176947-1.711277.0267387-2.4383339.0837551-4.877061.1266156-7.3150016.0023593-.1533543.0031458-.3051358.0031458-.4565241 0-.674759-.0216269-1.3510909-.0216269-2.0250636 0-.4742187.0106168-.9500104.0467927-1.4238359.1950353-2.536638.2013267-5.086252.5186522-7.6134528.0106169-.0821822.0243794-.165544.0243794-.2477262 0-.0243794 0-.0467927 0-.069206 0-.0680264 0-.1360529 0-.2021132 0-.5162929.0283116-1.0164639.5131472-1.3715382.725484-.5335944 1.4191174-1.1540897 2.323908-1.1540897.1612186 0 .3303016.0192676.5068557.0625214.2241332.0558367.465568.0837551.5969022.3295152.3192916.207225.4313582.5225844.4561309.9047906.1840251 2.8689056.4034398 5.7338791.4069788 8.6149744.0047185 2.6302234.1545339 5.2580875.1958216 7.8887041.0086508.5367402.014549 1.0730871.014549 1.6082544 0 1.1257781-.0243794 2.2519494-.092799 3.3796935-.0216269.3448507-.0314573.6900945-.0314573 1.0369113 0 .9535493.0751043 1.9082783.1950353 2.8578955.020054.1557137.0322437.3074951.0322437.4573105 0 .4250668-.1030227.8222152-.4447276 1.1481914-.4109109.7215518-.6083055.967312-1.0781989.967312zm51.2816883-41.8669121c.0338166-.0888668.0055051-.1875641-.0522977-.2736785-.0534774-.0810025-.0841483-.171049-.1104938-.2630616-.0412877-.1509951-.1136395-.2669939-.2457601-.3157527-.0306709-.0117965-.0676332-.0184811-.1049888-.0224133-.0263455-.0086508-.0499384-.0176947-.0747111-.0263455-.092799-.0349962-.1859912-.0574096-.2870478-.0121897-.2198079.0959448-.4494462.1804863-.5921837.3869248-.0762839.1120666-.162005.2280654-.2076181.3531082-.0074711.0184811-.0121897.0373555-.0169083.0574095-.1057752.4128771.0279183.7514363.3924298.8835569.0676332.023593.14549.0408945.2304247.0511181.2060453.023593.4348971.0051118.5929701-.1647576.1667237-.1757676.2795767-.3943959.4348971-.58196.0176948-.0220201.0322438-.0467927.0412877-.0719586zm-2.1870687 2.7835777c.0114033-.0550502.029098-.1097073.029098-.1659372 0-.0086508-.0023593-.0204473-.0023593-.0302777-.0015728-.014549 0-.031064-.0039321-.0448266-.0259523-.0825754-.0184812-.1682966-.0338166-.2520516-.0066847-.0554435-.0243794-.1022362-.0621282-.1419511-.0369623-.0369623-.063701-.0790364-.0904397-.1226834-.0676332-.1148192-.1616119-.2044725-.2803632-.2658142-.0762839-.0397149-.1506018-.0837551-.2280654-.119931-.0967312-.0424673-.1973946-.0656671-.3012036-.0747111-.0055051 0-.0106169 0-.0169083 0-.1651509 0-.3102476.0570164-.4407954.1533544-.0361759.023593-.0676332.0503317-.1030227.0723518-.098304.0644874-.1388053.1635779-.1667237.2721056-.0235929.0959448-.0220201.194642-.029098.2933393-.0023593.0538706-.0090439.1049887-.0220201.1557136-.0117965.0361759-.0153354.0731383-.0153354.1089209 0 .0546571.009044.1101006.0283116.1647576.0306708.0951584.0758907.1844184.1022362.2819361.0121897.0526909.0550502.0876872.0975176.1199309.0114033.0098304.0243794.0184812.0365691.0263455.0924058.0397149.1584662.1097073.2213808.1816659.0192675.0216269.0412877.0338166.0644874.0456131.0751043.0357827.1557136.0511181.2378958.0692061.0570164.0129761.1116734.0192675.1667237.0192675.1521747 0 .2933393-.043647.4325379-.1097073.1057751-.0515113.1918895-.1325139.2264925-.2548041.0200541-.0751043.0652739-.1411646.0959448-.2123368.0267387-.054657.043647-.1108869.0570163-.1694762zm-1.8048625 1.9385561c.0330302-.0884737.0051118-.1875642-.0530842-.2736785-.0538706-.0813958-.0853279-.1706559-.1104937-.2634549-.0416809-.1506018-.1136395-.2666006-.2465466-.3153594-.0298844-.0117965-.0668468-.0188744-.1045955-.0228066-.0259523-.0090439-.0499385-.0188743-.0751043-.0275251-.0924058-.0334234-.1852049-.0558367-.2866547-.0110101-.220201.0959448-.4482665.1808795-.5921836.3869248-.0758907.1124599-.1627915.2284586-.207225.352715-.0074711.0192676-.0121897.038142-.0169083.0578028-.1049887.412877.0283116.7502565.3924298.8839501.0676332.0235929.1458833.0408944.2312112.0511181.2052589.0239862.4348971.0047186.5921836-.1647576.1675102-.1773406.2795768-.3940027.434504-.5831397.0176947-.0220201.0322437-.0475792.0424673-.0707789zm-1.4423171 2.3919343c.0330301-.0896533.005505-.1879573-.0522978-.2736785-.0538706-.081789-.0853279-.171049-.1112802-.2638481-.0408945-.1506018-.1136395-.2669938-.2457601-.3157526-.0306709-.0110101-.0676332-.0184812-.105382-.0224133-.0259522-.0086508-.0499384-.0188744-.0743178-.027132-.0931923-.0342098-.1859913-.0566231-.2874411-.0114032-.2194147.0955515-.4482665.1808794-.5921836.3869247-.0751043.1124599-.1612187.2284587-.207225.3531082-.0066847.0192676-.0114033.0377488-.0161219.0574096-.1057751.4132703.0275252.7502566.3916434.8835569.0684196.0239862.1450968.0416809.2312111.0515113.2052589.0239862.4348972.0047186.5921837-.1643644.1667237-.1777337.2795767-.3947891.4345039-.5831397.0176948-.0224133.0322438-.0475791.0424674-.0707789zm14.7078595 2.1685875c.044434.4447276.062915.8752994.015336 1.2535734-.157287 1.2598648-1.646396 1.2752002-2.715551 1.5032657-.03539.0070779-.073139.0133693-.110494.0176947-.712115.0813957-1.708918-.4286057-1.95861-1.2280143-.282723-.9751763-.383779-.7353144-.475399-1.6424642-.003932-.0432538-.007471-.0884737-.012189-.1368393-.004719-.0511181-.009831-.1030226-.014549-.1541407-.208798-2.0757885-.887096-3.8798646-2.432436-5.1236076-.2803631-.2268857-.5780278-.3322677-.8953533-.3743418.1537475-.1718355.2666006-.3751283.4132702-.5536485.0169083-.0224133.0322438-.0475791.0405013-.0711721.0338166-.0888669.0070779-.1875641-.0522978-.2732853-.0526909-.0813957-.0849347-.1714423-.1104937-.2634549-.0405013-.150995-.1128531-.2677802-.2457602-.3161458-.0306708-.0110101-.0684196-.0188744-.1049887-.0228066-.0255591-.0086507-.0499385-.0180879-.0754975-.0271319-.0920126-.0338166-.1840252-.0562299-.285475-.0106168-.2205943.0955515-.4494462.1808795-.5921836.3861383-.0766772.1128531-.1627916.2284587-.2080114.3535014-.0078644.0188744-.0117965.0373556-.0161219.0574096-.0853279.3322677-.0133694.6130241.207225.7809274-1.06365.2068318-1.9417018.9327089-2.9054748 1.4124327-.6012276.2988444-1.4615847 3.8318922-1.3101965 5.3351579.0224133.2221672.0676332.4006873.1376257.5170793.3676572.6051598.8945669.9350683 1.4446764 1.2453159 1.4112531.7927239 2.8154283 1.6121865 4.1645532 2.5464683 2.4922046 1.7266125 5.8046576 5.8219595 6.7609596 9.2795099.368444.9437189.641336 1.9027733.741213 2.8921054.058982.5961158.056623 1.2036349-.025559 1.825703-.079823.620102-.115213 1.2437429-.053084 1.860306.031457.3157526.08926.6291459.176947.9397868.023593.0806093.037355.1631847.046006.2449737.028312.2823292-.015335.5650517-.010223.8462013.023199 1.3381148-.147456 2.6569621-.382207 3.967945-.209191 1.1654929-.975569 1.9283324-1.749812 2.6341556-.797049.7266636-1.663304 1.3833347-2.551973 1.9192884-.489161.3122137-.877659.7789614-1.25554 1.2378447-.450232.5465706-.9637726.852886-1.5189939.9154074-.3098544.0357827-.6330781-.0043254-.9657391-.1207174-1.6809994-.5878583-3.5373732-1.1155544-5.1039467-2.4308627-.2689599-.2249197-.5607263-.419955-.6889148-.7923308-.0397149-.1156055-.1388053-.2139096-.2241333-.3078883-1.0931411-1.198523-1.7596426-2.7021819-2.5889356-4.0886624-.2964851-.4958456-.4325379-1.0640431-.5516824-1.6121865-.2748582-1.2516073-.6334714-2.7996996-.7876121-4.3289175-.1329071-1.3227794-.1132463-2.6337624.2469398-3.7269035.2842953-.8615368 1.0577516-1.4285546 1.6267355-2.0164128.4824763-.5005643 1.502086-.7840732 2.1536453-1.0471349.0051118-.0027525.0106169-.0039321.0184812-.0043254.2795767-.0322437 1.7391954 1.1061173 1.9597897 1.3259252.0861143.0849347.1234699.1765541.1329071.2728921.0153354.1529611-.0408945.3133933-.0754975.4636019-.2646346 1.1363949-.6279664 2.2491968-.7070028 3.4312048-.105382 1.5846615-.1423443 2.7733541-.0491521 3.6962326.2135165 2.1241541 1.1151613 2.8339094 3.4433946 3.6938733.3188984.1191446.6492.1698695.9818609.1317275.0452199-.0047186.0904398-.0110101.1340868-.0192676.5807804-.3767012 1.0789853-.8701875 1.5461262-1.4199038.4309652-.5092151.6720062-1.0750532.7946902-1.8048625.265814-1.5579228.397148-3.1252827.411697-4.7154491.007078-.6904877-.003539-1.380189-.071958-2.0671378-.0232-.2194146-.051512-.4372564-.086115-.6558846-.006291-.0397149-.011403-.0782501-.014549-.1179649-.017694-.1682966-.019267-.3405253-.03303-.5052829-.000786-.0051118-.000786-.0094372-.001573-.0133693-.128188-1.2767731-2.6526365-3.4976584-4.104784-4.0395104-1.1914452-.4439411-2.3581178-.9370343-3.4422149-1.8374994-.5084286-.4073721-1.0078132-.8143509-1.3558096-1.3943448-.3161458-.2898004-.6248206-.5858922-.9484375-.8662554-1.2063874-1.0467416-1.7431276-2.520516-2.1571843-4.0292867-.1942488-.7077892-.3393456-1.4218699-.4116974-2.1414556-.1030227-1.0266876-.0589824-2.0651717.1958217-3.1146658.1458832-.6008344.2257061-1.2181839.3908569-1.8142997.0047186.0149422.0110101.029098.0153355.0440402.0129761.0534774.0562299.0876872.0990904.1211106.0110101.0094372.0239862.0184812.0369624.0251658.0920126.0397149.1572865.1097074.2209875.1828456.0176947.0216269.0401081.0330302.0648807.0440402.0735314.0373556.1549272.0522978.2371094.0695993.0562299.0129761.1112802.0188744.1667236.0188744.1521747 0 .2933394-.0432538.4325379-.1097074.1057752-.0511181.1911031-.130941.2264926-.2536244.0204472-.0758908.0644874-.1419511.0967311-.2119436.0251659-.054657.0420742-.1120666.0550503-.171049.0133694-.0538707.0302777-.1097074.0302777-.1655441 0-.009044-.0023593-.0204472-.0023593-.0302776-.0007865-.0153355 0-.0310641-.0039322-.0448267-.025559-.0825754-.0184812-.1671169-.0330302-.2520516-.0086507-.0554435-.0259522-.1030226-.0629146-.1411646-.0377487-.0377488-.0644874-.0806093-.0916193-.1222903-.0660604-.1159988-.1612187-.2060453-.2795768-.2658141-.0766771-.0397149-.1494221-.085328-.2288518-.1211106-.0849347-.0377488-.1757677-.0589825-.2662074-.0699925.0684196-.072745.1427375-.1403782.2288518-.1997539.3310881-.2308179.5713432-.5418519.7632327-.9012516.0255591.2492991.1651509.4443344.419955.5367402.0676332.0235929.14549.0424673.2312111.0511181.2044725.023593.4341107.0047186.5913972-.1647576.1675102-.1757677.2803632-.3947891.4348972-.5815668.0184812-.0224134.0330302-.0475792.0420741-.0723518.0338166-.0876872.0055051-.1871709-.0522977-.2721056-.0534774-.0825755-.0849347-.172622-.1112802-.2646346-.0397149-.150995-.1128531-.2669938-.2457602-.314573-.0298844-.0125829-.0676332-.0204472-.1049887-.0224133-.0255591-.0102236-.0499385-.0188744-.0747111-.0279183-.092799-.0334234-.1859913-.0574096-.2862614-.0110101-.0975176.0416809-.1950353.0829686-.2874411.1321207.430965-.6688608.9445054-1.20914 1.5551702-1.5937054-.0039321.0216269-.0039321.043647-.0090439.0644874-.0117965.038142-.0153355.0731383-.0153355.1089209 0 .0550503.0106169.1101006.0283116.1643644.0322437.0955516.0758907.1852049.1022362.2823293.0137626.0538706.0550503.0876872.0983041.1215038.0114032.0098304.0243794.0188744.0373555.0243794.0916194.040108.1568933.1101005.2213808.1840252.0176947.0212337.040108.0322437.0644874.043647.0739247.0369623.1553204.0522978.2375026.0699925.0558367.0125829.1104938.0184811.1671169.0184811.1513883 0 .2917665-.043647.4317514-.1097073.1057752-.0515113.1911031-.1313342.2264926-.2532312.0208405-.0766772.0652739-.1427375.0967312-.2123368.025559-.0554435.0424673-.1124598.054657-.1706559.014549-.0538706.0298845-.1104937.0298845-.1663304 0-.009044-.0015729-.020054-.0015729-.0302777-.0007864-.0149422 0-.0314573-.0039321-.0448266-.0251659-.0821822-.0176948-.1675101-.0330302-.2520516-.009044-.0546571-.0259523-.1022362-.063701-.1411647-.0365691-.0369623-.0637011-.0798228-.0896533-.1222902-.0460063-.07825-.1077413-.1395918-.1773406-.192676.0251659-.0117964.0507249-.0224133.0751043-.034603 1.0774125-.5469638 2.2020109-.829293 3.3529549-.9606272.451019-.0515114.9047905-.0786433 1.3617078-.0904398.5355605-.0137625 1.0561784.1171785 1.5508444.390857 1.126565.5917904 2.240153 1.2921085 3.204713 2.2527358.626.6244273 1.347159 1.1356084 1.896875 1.8532281.923272 1.6849315 1.078199 2.000291 1.237451 3.580627.025166.2555905.051512.5434248.08061.8760858.003932.0562299.008257.1140327.014549.1730151.059769.5980819.190316 1.301939.257949 1.9751251zm-17.3766181-14.8462721c.0043254-.0196608.009044-.0381419.0169083-.0574095.0452199-.1250428.1321207-.2406484.2080114-.3535014.1427375-.2052589.3715893-.2905868.5913972-.3865316.1014498-.0444334.1942488-.0224133.2870479.0121897.0247726.009044.0483656.0173015.074711.0263455.0377488.0035389.0743179.0114033.1049888.0228065.1321206.0487589.2044724.1647576.2457601.3157527.0271319.0920126.0578028.1820591.1116734.2634549.0574096.0857211.0849347.1848116.0519046.2732852-.0098304.0247727-.0243794.0495453-.0420742.0723518-.1553204.187171-.267387.405406-.4345039.5815668-.1576797.1694762-.387318.1887438-.5921836.1643644-.085328-.0094372-.1627916-.0271319-.2312112-.0507249-.3641182-.1325138-.4978117-.4706798-.3924298-.8839501zm-.4832627 5.4126215c.005505-.0204473.0094371-.0389284.0169083-.0574096.0452198-.1250427.1321206-.2410415.2080113-.3531082.1423443-.2060453.3719826-.29098.5913973-.3869247.1014497-.0452199.1938556-.0228066.2866546.0121897.0259523.0086507.049152.0176947.0758907.0263455.0361759.0039321.0739247.01101.1045955.0224133.1329071.0487588.2048657.1647576.2457602.3157526.0251658.0920126.0574096.1824523.1112802.2634549.0578028.0861143.0853279.1844184.0515113.2732853-.009044.0247726-.0239862.0499384-.0416809.0719585-.1541408.1875642-.2685667.4061924-.4352904.5819601-.1572865.1702626-.3861383.1883505-.5921836.1647576-.0845415-.0098304-.1627916-.0275252-.2304247-.0511181-.3645115-.1321207-.498205-.4706799-.3924298-.8835569zm-2.0498363-3.3667174c.0078644-.0975176.0055051-.1958217.0302777-.2937325.0259523-.1069548.0680264-.2052589.1663304-.2713192.0353895-.0228066.0668468-.0475792.1022363-.0731383.1313342-.0955515.276431-.1529611.4415818-.1529611h.0169083c.1030226.0086508.2044724.0322438.3004172.0751043.07825.0361759.1525679.0806094.2288518.1207174.1183581.0601621.21273.1498154.2795768.2658142.0267387.0424673.0530842.0845415.0904397.1222902.0377488.0389284.0554435.0861144.0629146.1411647.0153355.0845415.0078643.1694762.0338166.2520516.0031457.0137625.0023593.0298844.0031457.0448266 0 .0098304.0031458.0212337.0031458.0302777 0 .0562299-.0176948.1120666-.0306709.1659372-.0121897.0585892-.0298844.1159988-.0554435.1706559-.0322437.0703857-.0758907.136446-.0967312.2123367-.034603.1226835-.1207174.2025064-.2257061.2536245-.139985.0660603-.2811496.1101006-.4325378.1101006-.0550503 0-.1104938-.0066847-.1667237-.0188744-.0821822-.0173015-.163578-.032637-.2378959-.0699925-.0247726-.0114033-.0467927-.0220201-.0644874-.043647-.0629146-.0739247-.1289749-.1435239-.2213808-.183632-.0129761-.0062915-.0251658-.0149422-.0365691-.0243794-.0424673-.0342098-.0853279-.0680264-.0990905-.121897-.025559-.0971244-.0699924-.187171-.1022362-.2819361-.0176947-.054657-.0267387-.1101005-.0267387-.1647576 0-.0361759.003539-.0707789.014549-.1085277.0121897-.0511181.0196608-.1026294.0220201-.1561068zm.1061684 5.7334859c.0074711-.0979108.005505-.1966081.029098-.2921597.0275252-.1089209.0676332-.2072249.1675101-.2732852.0346031-.0216269.0668468-.0475792.1022363-.0731383.1313342-.0955515.276431-.1529611.4415818-.1529611h.0169083c.101843.0086508.2032928.0322437.300024.0743179.0778568.0369623.1513882.0813957.2280654.1215038.1191445.0613417.2135164.150995.2803632.2658142.0271319.043647.0530841.0861143.0916193.1222902.0361759.0389284.0542639.0861144.0621282.1415579.014549.0841482.0074711.1690829.0338166.2516584.0031457.0137625.0023593.0298844.0031457.0448266 0 .0098304.0023593.0212337.0023593.0314573 0 .0562299-.0169083.110887-.0294912.1647576-.0137626.0585892-.0306709.1159988-.0558367.1706559-.0314573.0703857-.0770704.136446-.0959448.2123367-.0353894.1226835-.1215038.2025064-.2276722.2536245-.1388053.06724-.2791835.1101005-.4321446.1101005-.0546571 0-.1089209-.0051118-.1659372-.0192676-.0821822-.0176947-.163578-.0322437-.2378959-.0695992-.0247726-.0114033-.0471859-.0220201-.0656671-.043647-.0621281-.0739247-.1281885-.143524-.2209875-.183632-.0121897-.0058983-.0251658-.0149422-.0361759-.0243794-.0428606-.0330302-.0861144-.0680264-.0983041-.1218971-.0259522-.0959447-.0711721-.1859912-.1030226-.281936-.018088-.0534774-.0267387-.1097073-.0267387-.1647576 0-.0349962.0039322-.0707789.014549-.107348.0121897-.0511181.020054-.1038091.0224133-.1568933zm11.7103727-51.63440328h-.745538v1.01528432h.7640191c.3861384 0 .5921837-.20643853.5921837-.50331678 0-.34091848-.2335705-.51196754-.6106648-.51196754zm.6381899 1.5453398.8442351 1.23981078h-.889455l-.736494-1.11398159h-.602014v1.11398159h-.7636259v-3.4591232h1.5359026c.8273273 0 1.3573823.42231423 1.3573823 1.14111351 0 .56583816-.305922.91658704-.7459311 1.07819891zm-.800195-3.28846736c-1.6436439 0-2.8838479 1.30272538-2.8838479 2.9019358s1.23116 2.88424104 2.8661531 2.88424104c1.6444299 0 2.8846339-1.30272535 2.8846339-2.90193577s-1.23116-2.88424107-2.8669391-2.88424107zm-.0176948 6.14557654c-1.8241301 0-3.2432474-1.46433728-3.2432474-3.24364074 0-1.77851702 1.4368121-3.26133544 3.2609422-3.26133544s3.2440341 1.46433725 3.2440341 3.24364071c0 1.77891024-1.437599 3.26133547-3.2617289 3.26133547zm8.7038409 26.4406459c-1.303511.9468647-2.06871 2.7080802-3.518892 3.4402489-1.448608.7317754-2.388788 1.7958185-3.225552 2.6687586-.837551.87294-1.9133906 2.0356804-3.4693472 2.6974633-.7081824.3004172-1.2716613.5461774-1.7340836.6739726-.543818.1498154-.9480443.1368393-1.2842442-.1411646-.5866786-.4848356-.7341347-1.4501815-.2646345-2.2393664.4612426-.774636 1.2170042-1.3676061 2.6597146-3.0029924 1.4336664-1.6251627 3.5932099-2.547648 3.9966499-3.2342035.403833-.6877352 2.225997-1.7273989.90479-3.9518232 0 0-1.7966045-2.1744858-2.6038775-1.8280623-.8060932.3456371-1.9928198 1.3778297-2.8716581 2.6715111-.8768722 1.2948611-1.3278912 2.1041001-1.4509679 2.4139545-.1246496.3102476-.6267867 2.7418968-.6731862 3.4249134-.0011797.0228065-.1069548.9295632-.1266156.9857931-.1038091.2984511-.5630857 1.16392-1.2846375 2.3939004-.1962149.332661-.2807564 1.2685156-.1663304 1.8992344.0530841.1565001.0570163.483656.3767011.8320456.0515113.0558367.1671169.200147.2622752.2842953.1132463.1010566.3861384.1973946.4140567.3063155.0228066.0935854-.1329071.2048656-.2634548.2713192-.3649047.1863845-.4124839.1427375-.870974.1576797-.0810025.0031457-.1682966-.0121897-.2540177-.0353895-.0707789-.0192676-.1411646-.0440402-.2052589-.0688128-.2469398-.0927991-.4337175-.419955-.6771183-1.5142757-.0684196-.3102477-.2870479-.8391235-.367264-1.2842443-.1521747-.8410895-.01101-1.1713911-.014549-1.7557104-.0078643-1.272841.1816659-2.3187962.2099775-3.6549449.0027525-.1415579-.0825754-1.1780759-.1230767-1.3908059-.1199309-.6291459-.3869248-1.6098272.547357-2.9668164.5076422-.7372805.8717604-1.7116703 1.2303736-2.3883954.8717604-1.6452168 1.3255319-2.5818578 1.458439-2.8807022.4521987-1.0113521.8285066-2.278688 2.7139785-3.0285514.7034638-.2803632 1.6169051-.4883746 2.8225061-.5843193 3.6451149-.4777577 2.5079329-.3936095 4.6442769-.920126.740819-.1828456 2.036467-.2607024 3.058043-.2386823 1.021575.0220201 1.968047.087294 2.410415.0774636 2.453276-.0542638 2.896431 1.3117694 2.921204 2.2149871.041287 1.5634277.095944 2.8173943-.468714 4.2078069-.603587 1.4898963-1.916143 3.1358995-4.712304 5.4877257zm-11.9439426 3.0100703s.3625453-2.1717332.6464475-2.8685124c.2850817-.6967792 1.0062403-1.598424 1.1619539-1.7474529.154534-.1482426.2811496-.3283356.3656911-.434504.0845415-.1065616.6275731-.8776586.8926009-.9653458.2650277-.0888669.5123607-.0519046.5788143-.0137626.0676332.0377487.3059222.1325139.5752749.4144499.197395.2060453.386139.5556145.357827.8336184-.020054.2048657-.295305.9920846-.356254 1.0424163-.0609482.0515113-.7199786 1.0817378-1.7069514 1.6397116 0 0-.5194386.3350203-.591004.4246736-.0719585.0900465-.9944438.7058231-1.8768211 1.6943687-.0243794.0149422-.058196.0695993-.0475791-.0196608zm-2.5500073-11.8118224c.4179889-.294519.9032177-.3397388.9032177-.3397388s-.5516824.3177187-.9515833.9960167c-.1179649.2013267-2.262173 4.6096739-2.5488276 5.0264831-.72745 1.0593245-.9370343 1.3436199-1.0758396 1.6106137-.1568933.2984511-.3141798 1.0471348-.05623 1.8414316.5913973 1.8201979.1875642 3.0159685.3444575 5.1821967.0259522.352715-.0530842.963773-.0837551.9122617-.0904397-.1521747-.1384121-.2158757-.189137-.3059222-.0778568-.1395918-.8603571-2.2873389-1.0762328-2.8980037-.3590064-1.0160707-.8638961-2.0828664-.9421461-2.302281-.1584662-.4352904-.3715894-.9051838-.536347-1.4985471-.331088-1.1949841-.1785201-1.6695961.0833619-2.0679242.063701-.0975176.29098-.5225843.6114512-.8123847.2087978-.1887438.4282125-.4046195.7101485-.6594236.0322438-.0287048.0644875-.0585892.0979109-.0880805.3476031-.3078883.4227074-.4360768.8230016-.791151.1344799-.1187513.6283595-.3940027.9606272-.7294161 1.0844904-1.0962869 2.6137083-2.856716 2.925922-3.0761306z" fill="#282c39"/></svg>