<svg height="89" viewBox="0 0 201 89" width="201" xmlns="http://www.w3.org/2000/svg"><path d="m96.6084151 57.846031c-1.10665-.3688833-4.4265998.7377666-6.8243413 3.6888331-4.4265998 4.9799248-4.6110414 9.2220829-4.6110414 9.2220829s4.795483-4.0577165 8.1154329-7.1932246c1.6599749-1.4755333 5.1643663-4.9799248 3.3199498-5.7176914m78.0188209 9.0376412c-2.028858 1.1066499-4.795483 3.6888331-4.611042 6.455458.184442 2.0288582 2.766625 2.0288582 4.611042 1.1066499 2.951066-1.1066499 5.717691-4.6110414 5.717691-6.0865747 0-2.0288582-2.951066-2.9510665-5.717691-1.4755332m-25.821832-45.3726476c-.737767-.9222082-5.164366 1.2910916-10.697616 6.6398997-7.008783 6.6398996-14.939774 16.7841907-18.628607 23.4240904 10.144291-8.1154329 16.046424-14.9397742 23.055207-21.3952322 2.397741-2.2132999 7.193224-7.5621079 6.271016-8.6687579m31.539523 63.4479299c-3.135508-1.4755332-4.979925-4.9799247-3.688833-8.6687578-2.582183 2.0288582-6.824341 4.4265997-10.144291 3.5043915-5.717691-1.4755333-4.611041-6.0865747-2.397742-9.0376412 1.291092-1.8444166 2.397742-2.9510665 2.397742-2.9510665l-7.008783 1.4755332s-1.291092 1.6599749-4.4266 9.2220829c-1.10665 2.9510665-7.008783 3.5043914-5.717691.5533249 1.291091-3.3199498 1.475533-4.6110414 2.582183-7.1932246.737767-1.6599749-.184442-2.0288582-1.475533-3.8732748-.184442-.1844416.368883-1.4755332 1.10665-1.6599749 2.397741-.3688833 3.688833-.3688833 3.688833-.3688833s4.4266-6.6398996 6.086575-10.1442911c-5.348808 3.5043915-16.59975 11.6198244-16.59975 11.6198244s-1.844416 2.7666248-5.533249 11.6198243c-.737767 1.8444166-5.164367 1.2910916-4.611042-.7377666.737767-2.7666248 1.291092-3.5043915 2.2133-7.3776663.553325-2.0288582-3.504391-4.4265997-.553325-5.1643664 2.028858-.5533249 3.504392-.9222082 3.504392-.9222082s10.513174-19.5508156 19.735257-30.617315c1.475533-1.8444166 2.766625-3.1355082 4.795483-4.0577165.553325-.1844417 2.766625-.7377666 3.504392-.553325.553325.1844417.184441.553325-.368884 1.10665-8.299874 10.6976161-14.017566 20.2885822-19.550815 30.9861983 5.164366-3.3199498 15.67754-10.5131744 15.67754-10.5131744s7.008783-9.7754078 11.988708-14.0175659c1.10665-.9222083 2.766625-1.2910916 3.873275-1.10665 1.10665.1844417.553325 1.10665.184442 1.8444166-1.10665 1.8444166-11.250941 13.0953576-18.444166 27.2973652 3.135508-.3688833 8.668758-1.4755333 8.668758-1.4755333 2.028858-1.6599749 5.348808-3.1355081 8.668758-2.9510665 2.951066.1844417 4.979924 2.2132999 4.979924 2.2132999s1.291092-1.2910916 3.135509-2.2132999c2.397741-1.2910916 3.688833.553325 2.951066 1.6599749-1.10665 1.10665-8.484316 9.4065245-8.668758 14.7553326 0 .9222082 0 1.8444165.553325 2.5821832.553325.7377666 1.844417 1.1066499 3.135508 1.1066499 4.4266-.1844417 11.435383-4.0577165 15.677541-6.2710163-2.397741 4.2421581-13.095357 13.6486826-19.919699 10.3287327zm-47.585947-24.161857c-2.397742-.3688833-2.951067-2.9510665-1.844417-4.9799247 1.844417-3.6888331 5.53325-4.7954831 7.008783-2.2132999 1.475533 2.7666249-1.659975 7.7465496-5.164366 7.1932246zm-3.504392 12.910916c-1.659975 3.1355081-2.582183 5.1643664-3.504391 5.902133-1.844417 1.6599749-5.164367 2.0288582-5.717692.3688833-.368883-1.1066499 2.028859-4.6110414 3.504392-7.1932246-1.475533 1.1066499-8.8532 6.2710163-12.357591 8.4843162-4.795483 2.9510665-6.455458 2.9510665-7.008783 2.9510665-2.2133 0-2.951067-1.1066499-3.31995-2.2132999-.368883-1.4755332.922208-4.6110414 2.951067-10.1442911-7.5621082 5.1643664-12.9109163 8.6687579-17.890841 8.8531995-1.6599749 0-4.0577165-1.4755332-4.7954831-2.7666248 0 0-9.5909661 7.9309912-14.9397742 9.2220828-6.2710163 1.4755333-7.5621079-3.6888331-7.7465496-5.348808-.7377666-4.9799248 7.7465496-21.7641155 15.8619825-31.9084066-7.0087829 6.2710163-22.6863238 22.8707654-28.2195735 28.7728984-1.4755332 1.10665-3.3199498-1.6599749-3.3199498-2.9510665.1844417-1.2910916 5.3488081-10.3287328 7.7465496-15.1242158 4.0577164-7.7465496 11.0664994-17.8908407 12.5420327-20.8419072-4.9799248 4.0577164-14.017566 13.8331242-17.8908407 18.8130489-5.3488081 6.6398997-9.2220829 11.4353827-15.4930992 19.1819323-1.6599749 1.8444166-3.8732748-.5533249-3.3199498-2.0288582.9222083-2.2132999 8.2998745-14.9397742 14.7553325-26.0062736 6.8243413-11.4353827 16.4153075-28.5884568 20.8419072-35.5972397-8.8531995 8.4843162-21.3952322 23.0552071-28.9573401 32.4617315-10.5131744 13.2797993-20.6574655 26.9284819-31.17063997 42.0526978-.55332497.7377666-1.84441656 0-1.47553325-.3688833 3.68883313-6.8243413 9.22208283-16.0464242 14.57089092-23.6085321 12.7264743-18.4441657 27.8506901-37.072773 42.974906-53.1191971 6.2710163-6.63989966 13.2797992-12.91091599 16.4153074-10.14429114 1.2910916 1.10664994-4.0577164 11.25094104-12.5420326 25.26850694-4.4265998 7.3776663-10.3287328 16.9686324-13.8331243 21.3952322 3.8732748-3.5043915 11.0664994-11.2509411 16.2308658-16.5997491 5.902133-5.902133 9.7754078-9.9598495 13.0953576-9.0376412 2.2132999 1.10665-2.5821832 7.008783-7.3776662 15.4930992-3.3199499 5.902133-7.562108 12.1731493-12.910916 21.3952322 4.6110414-4.7954831 13.4642409-13.464241 19.9196989-18.9974907 3.3199498-2.7666248 8.4843162-6.455458 9.2220828-6.455458 1.4755333-.1844416 4.9799248-.3688833 2.9510665 2.7666249-.9222082 1.4755332-10.8820577 14.9397742-17.8908407 27.8506901-7.0087829 12.910916-8.2998745 17.5219574-6.8243412 18.0752824 2.7666248 1.1066499 13.6486825-7.9309912 13.8331242-8.4843162 1.2910916-7.3776663 4.9799247-13.8331243 10.5131744-17.3375157 5.7176914-3.5043915 11.0664994-4.0577165 13.6486822-2.5821832 2.028859 1.1066499 1.659975 3.3199498-.553325 6.2710163-3.504391 4.7954831-11.2509406 10.8820577-16.2308653 14.3864492 2.2132999 2.5821832 11.0664994-4.2421581 14.5708913-6.6398996 2.951066-2.0288582 8.853199-6.8243413 9.037641-7.3776663 7.193224-14.2020076 9.959849-18.0752823 16.230866-25.6373903 5.902133-7.1932246 9.406524-10.1442911 16.78419-15.3086575 4.057717-2.9510665 11.619825-6.455458 14.386449-5.348808.922209.3688833 2.582184.553325 2.397742 2.0288582-.184442 1.4755333-.553325 2.5821832-2.028858 4.6110414-3.135508 4.7954831-6.824341 9.0376412-7.930991 10.3287328-7.74655 8.8531995-19.181933 17.1530741-34.859474 31.9084066 0 0-8.668757 14.5708909-6.455458 14.3864492 1.10665 1.10665 7.74655-4.6110414 13.833125-8.6687578 3.873275-2.3977416 7.377666-4.2421581 9.406524-2.9510665 1.475533.5533249.184442 4.0577164-1.659975 7.5621079z" fill="#fff"/></svg>