<svg height="100" viewBox="0 0 408 100" width="408" xmlns="http://www.w3.org/2000/svg"><path d="m312.961117 59.7208375c0-1.6949153.897308-3.0907278 2.592223-3.0907278 1.395813 0 2.293121.5982054 3.090728 2.7916251 2.592223 5.9820538 7.876371 10.4685942 12.761715 10.4685942 4.48654 0 7.876371-2.5922233 7.876371-5.9820538 0-2.2931207-1.694916-4.2871386-5.682952-5.9820539l-10.169491-4.4865403c-7.078764-3.0907279-10.169492-7.3778664-10.169492-13.2602194 0-4.4865404 2.293121-9.0727816 5.982054-11.5653041 3.389831-2.5922233 7.676969-3.3898305 14.955135-3.3898305 4.287138 0 8.175473.5982054 11.864407 1.6949153 3.38983 1.0967098 4.287138 2.2931206 4.287138 7.0787637v1.3958125 4.4865404-.2991027c0 1.6949153-.897308 2.7916252-2.29312 2.7916252-1.694916 0-2.592224-.5982054-3.389831-2.2931207-2.791625-5.6829511-7.377866-8.4745763-12.163509-8.4745763-3.688934 0-6.181456 1.994018-6.181456 4.4865404 0 2.2931207 1.694915 3.9880359 5.383848 5.6829512l11.0668 4.785643c1.994018.8973081 3.38983 1.6949153 4.48654 2.5922234 2.791625 2.2931206 5.084746 7.3778664 5.084746 11.8644068 0 8.7736789-8.474576 15.5533399-19.242273 15.5533399-11.365902 0-19.541376-2.7916251-19.541376-6.4805583zm-17.248256-24.6261216c0-2.2931207-.598205-2.7916252-3.090727-3.6889332-1.395813-.5982054-1.994018-1.0967099-1.994018-1.994018 0-1.9940179 1.395812-2.7916251 3.988036-2.7916251h1.694915c1.694915 0 3.38983.2991027 4.785643.2991027h3.688933 1.694915c1.994018 0 3.389831.897308 3.389831 2.5922233 0 1.0967099-.598206 1.9940179-1.994018 2.7916251-1.395813.8973081-1.694915 1.0967099-2.293121 1.994018-1.395812 1.9940179-3.688933 6.4805583-8.175473 17.8464606-8.175474 19.8404786-16.151546 34.1974078-21.834497 40.777667-3.688933 3.9880359-10.468594 7.0787637-15.254237 7.0787637-4.287139 0-5.682951-1.6949153-5.682951-6.4805583 0-3.3898305.897308-5.0847458 2.791625-5.0847458h1.994018c1.994018.5982054 3.688933.8973081 4.287138.8973081 2.592224 0 7.676969-2.5922233 11.0668-6.1814556 2.592223-2.5922234 3.988036-5.3838485 3.988036-7.0787638 0-.897308-.299103-1.9940179-.598206-3.3898305l-14.955134-32.5024925c-.897308-1.9940179-1.994018-4.2871386-2.791625-5.0847457-.598206-.5982054-1.395813-1.3958126-2.293121-1.994018-1.994018-.8973081-2.293121-1.0967099-2.293121-2.2931206 0-1.994018 1.395813-2.7916252 3.988036-2.7916252h2.293121c2.293121 0 4.48654.2991027 6.480558.2991027s4.486541 0 7.876371-.2991027h1.395813c2.791625 0 3.688933.5982054 3.688933 2.2931207 0 1.0967099-.598205 1.6949152-1.694915 2.5922233-2.592224 1.3958126-2.791625 1.994018-2.791625 3.6889332 0 .8973081.299102 2.5922233 1.096709 3.9880359l7.377867 17.2482552c.598205 1.6949153 1.09671 2.7916252 1.395812 2.7916252.299103 0 .598206-1.0967099 1.395813-2.5922234l7.078764-16.9491525c0-2.891326.299102-4.885344.299102-5.9820538zm-60.618145 16.1515453-3.688933 1.3958126c-5.383849 1.6949152-5.982054 1.9940179-7.676969 2.7916251-1.09671.5982054-2.293121 1.3958126-2.791626 2.5922233-1.096709 1.3958126-1.694915 3.0907278-1.694915 4.7856431 0 3.6889332 2.592224 5.9820538 6.779661 5.9820538 2.791625 0 5.682951-1.6949152 7.377867-3.9880358 1.395812-1.994018 1.994018-4.4865404 1.994018-8.773679-.299103-.8973081-.299103-2.5922233-.299103-4.7856431zm-1.395813 21.2362911c-4.287138 2.7916252-8.773679 4.2871386-13.858424 4.2871386-8.474577 0-14.755733-5.6829511-14.755733-13.2602193 0-6.4805583 3.090728-10.4685942 10.169491-12.7617149 0 0 16.450648-5.0847457 18.145564-5.3838484 1.694915-.2991027 1.994018-.2991027 1.994018-1.994018l-.299103-5.0847457c-.299103-3.9880359-2.791625-6.4805584-6.779661-6.4805584-4.287139 0-8.474576 3.9880359-8.474576 8.1754736v3.0907278c-.299103 1.0967099-1.395813 1.994018-2.791626 1.994018-5.084745 0-9.571286-2.7916251-9.571286-6.1814556 0-7.0787638 11.365903-13.5593221 23.728814-13.5593221 13.858425 0 18.145563 3.9880359 18.145563 16.4506481v3.0907278 17.5473579c0 3.6889332.598206 5.0847458 2.592223 5.0847458 1.09671 0 2.791626-1.0967099 2.592224-.8973081h.598205c1.09671 0 1.994018 1.3958126 1.994018 2.7916251 0 1.0967099-.299103 1.6949153-1.09671 2.5922234-2.791625 2.7916251-7.377866 4.785643-10.767697 4.785643-5.383848 0-6.779661-3.6889332-7.876371-6.4805583zm-78.96311-23.8285144c0 9.5712861 5.682951 16.9491525 13.260219 16.9491525 4.48654 0 8.773679-2.5922233 9.870389-6.1814556.598205-1.6949153.598205-3.6889332.598205-9.0727817 0-7.8763708-.299103-11.3659023-1.395812-13.559322-1.395813-2.5922233-4.785643-4.4865404-8.773679-4.4865404-8.175474-.2991027-13.559322 6.4805584-13.559322 16.3509472zm41.674975 20.1395812c1.694915.5982054 2.29312 1.3958126 2.29312 2.5922234 0 1.6949152-.897308 2.5922233-3.988036 2.7916251-3.38983.2991027-7.078763 1.3958126-9.571286 2.5922233l-1.694915.5982054c-.299103.2991027-.897308.2991027-1.395813.2991027-1.694915 0-2.791625-1.6949153-2.791625-3.9880359 0-.8973081.299103-3.3898305.299103-3.3898305 0-.5982054 0-.8973081-.299103-.8973081-.299102 0-.598205.2991027-1.395812.8973081-3.988036 3.9880359-9.870389 6.4805583-15.254237 6.4805583-11.565305 0-19.840479-9.8703888-19.840479-23.5294117 0-6.4805584 2.791625-13.8584248 7.078764-19.2422732 5.084745-5.9820539 11.066799-8.773679 18.94317-8.773679 3.988036 0 6.181456.2991027 8.175474 1.3958126.897308.2991027 1.395812.5982054 1.694915.5982054l.299103-1.3958126v-9.3718843c0-1.994018 0-2.7916252-1.09671-4.2871386-.598206-.8973081-1.09671-1.0967099-3.688933-1.6949153-1.694916-.59820537-2.592224-1.39581254-2.592224-2.59222331 0-1.99401795 1.09671-2.59222333 4.486541-3.09072782 4.48654-.59820538 5.383848-.59820538 11.066799-2.59222333.897308-.29910269 1.994018-.29910269 2.293121-.29910269 2.293121 0 3.090728 1.39581256 3.090728 3.98803589v4.48654036c0 1.6949153-.299103 3.3898305-.299103 5.0847458-.664673 32.1701562-.498504 49.185776.498504 51.0468594.598206 1.0967099 1.09671 1.3958126 3.688934 2.2931206zm-69.092722-33.6989032c0-2.2931207-.598206-2.7916252-3.090728-3.6889332-1.395813-.5982054-1.994018-1.0967099-1.994018-1.994018 0-1.9940179 1.395813-2.7916251 3.988036-2.7916251h1.694915c1.694916 0 3.389831.2991027 4.785643.2991027h3.688934 1.694915c1.994018 0 3.38983.897308 3.38983 2.5922233 0 1.0967099-.598205 1.9940179-1.994018 2.7916251-1.395812.8973081-1.694915 1.0967099-2.29312 1.994018-1.395813 1.9940179-3.688934 6.4805583-8.175474 17.8464606-8.175473 19.8404786-16.151545 34.1974078-21.834496 40.777667-3.688934 3.9880359-10.4685946 7.0787637-15.2542377 7.0787637-4.2871386 0-5.6829511-1.6949153-5.6829511-6.4805583 0-3.3898305.897308-5.0847458 2.7916251-5.0847458h1.9940179c1.994018.5982054 3.6889332.8973081 4.2871386.8973081 2.5922234 0 7.6769692-2.5922233 11.0667992-6.1814556 2.592224-2.5922234 3.988036-5.3838485 3.988036-7.0787638 0-.897308-.299102-1.9940179-.598205-3.3898305l-14.9551347-32.5024925c-.897308-1.9940179-1.9940179-4.2871386-2.7916251-5.0847457-.5982054-.5982054-1.3958125-1.3958126-2.2931206-1.994018-1.994018-.8973081-2.2931207-1.0967099-2.2931207-2.2931206 0-1.994018 1.3958126-2.7916252 3.9880359-2.7916252h2.2931207c2.2931206 0 4.4865403.2991027 6.4805585.2991027 1.994018 0 4.48654 0 7.876371-.2991027h1.395812c2.791625 0 3.688933.5982054 3.688933 2.2931207 0 1.0967099-.598205 1.6949152-1.694915 2.5922233-2.592223 1.3958126-2.791625 1.994018-2.791625 3.6889332 0 .8973081.299103 2.5922233 1.09671 3.9880359l7.377866 17.2482552c.598206 1.6949153 1.09671 2.7916252 1.395813 2.7916252s.598205-1.0967099 1.395812-2.5922234l7.078764-16.9491525c0-2.891326.299103-4.885344.299103-5.9820538zm-122.73180472 40.4785643h-.59820539c-2.59222333 0-3.98803589-.8973081-3.98803589-1.994018 0-1.3958125.59820538-2.2931206 1.99401795-2.5922233l2.79162512-1.0967099c1.99401795-.5982054 2.59222333-2.5922233 2.59222333-6.779661v-21.2362911c0-4.4865404-.89730807-5.9820539-4.78564307-6.779661-1.99401795-.2991027-2.59222333-1.3958126-2.59222333-3.6889332 0-2.2931207.89730808-2.7916252 5.38384845-3.3898306 2.29312064-.2991026 3.9880359-.5982053 5.08474575-.897308.5982054 0 1.6949153-.5982054 3.6889332-1.6949153 1.3958126-.5982054 2.5922233-.8973081 3.3898305-.8973081 1.994018 0 2.7916252 1.0967099 2.7916252 3.6889332 0 .8973081 0 1.6949153-.2991027 2.5922234-.2991027.897308-.2991027 2.7916251 0 2.7916251s.897308-.5982054 1.9940179-1.994018c3.3898305-3.9880358 9.8703888-7.0787637 15.55334-7.0787637 5.9820538 0 10.7676969 2.5922234 12.4626121 6.1814557.5982054 1.0967098.8973081 1.9940179 1.0967099 1.9940179 0 0 .5982054-.5982054 1.0967099-1.3958125 2.7916251-3.9880359 9.5712861-7.0787638 15.8524427-7.0787638 9.3718843 0 13.559322 5.6829512 13.559322 16.9491526v19.8404786c0 4.4865403.2991027 5.0847457 1.0967099 6.4805583.897308 1.0967098 1.6949152 1.6949152 4.2871385 2.2931206 1.3958126.2991027 1.994018.8973081 1.994018 2.2931207 0 2.2931206-1.0967099 3.0907278-4.4865404 3.0907278-.5982054 0-1.0967099 0-1.6949152 0-1.6949153 0-3.6889332 0-5.9820539 0-2.7916251 0-5.9820538 0-8.4745762.2991027-.5982054 0-1.0967099 0-1.6949153 0-2.7916251 0-3.9880359-.5982054-3.9880359-2.5922234 0-1.6949152.2991027-2.2931206 1.994018-2.7916251 3.3898305-1.0967099 3.9880358-2.5922233 3.9880358-8.4745763v-16.6500498c0-5.9820539-2.5922233-9.3718844-7.0787637-9.3718844-1.3958125 0-3.0907278.2991027-4.4865403.8973081-2.5922234 1.0967099-3.6889332 2.2931207-5.6829512 5.6829512v19.8404785c0 4.4865404.2991027 5.3838485.8973081 6.1814557.8973081.897308 3.9880359 2.5922233 3.9880359 2.5922233.5982054.2991027.8973081.8973081.8973081 1.6949152 0 1.994018-.8973081 2.7916252-3.3898306 2.7916252-.5982053 0-1.3958125 0-2.2931206 0-1.6949152 0-3.3898305-.2991027-5.3838484-.2991027-1.6949153 0-10.4685943.2991027-10.4685943.2991027-1.9940179 0-2.5922233 0-2.7916251-.2991027-.8973081-.5982054-.8973081-1.3958126-.8973081-2.5922234 0-1.0967098.2991027-1.6949152 1.6949153-2.2931206 3.9880359-1.6949152 4.4865404-2.5922233 4.4865404-8.4745763v-17.2482552c0-6.1814556-2.2931207-9.0727817-6.779661-9.0727817-1.3958126 0-3.3898306.2991027-4.7856431 1.0967099-2.2931207 1.0967099-3.3898305 2.2931207-5.9820539 5.9820539v19.8404785c0 4.2871386 1.0967099 6.779661 3.3898306 7.8763709 1.0967098.5982054 2.7916251 1.0967099 2.7916251 2.7916251 0 .8973081 0 1.994018-.8973081 2.2931207-.2991027.2991027-.8973081.2991027-2.2931206.2991027l-8.773679-.2991027h-5.38384846zm380.75772672-31.9042872c-12.058859 0-21.834496-9.775637-21.834496-21.8344965 0-12.05885943 9.775637-21.8344965 21.834496-21.8344965 12.05886 0 21.834497 9.77563707 21.834497 21.8344965 0 12.0588595-9.775637 21.8344965-21.834497 21.8344965z" fill="#fff"/></svg>