<?xml version="1.0" encoding="UTF-8"?>
<svg width="410px" height="101px" viewBox="0 0 410 101" version="1.1" xmlns="http://www.w3.org/2000/svg" xmlns:xlink="http://www.w3.org/1999/xlink">
    <!-- Generator: Sketch 52.5 (67469) - http://www.bohemiancoding.com/sketch -->
    <title>Group@3x</title>
    <desc>Created with Sketch.</desc>
    <g id="Page-1" stroke="none" stroke-width="1" fill="none" fill-rule="evenodd">
        <g id="mydays-gmbh-logo-vector" transform="translate(-45.000000, -201.000000)" fill="#FFFFFF">
            <g id="Group" transform="translate(45.000000, 201.000000)">
                <g transform="translate(0.000000, 2.000000)">
                    <path d="M314.7,58.1 C314.7,56.4 315.6,55 317.3,55 C318.7,55 319.6,55.6 320.4,57.8 C323,63.8 328.3,68.3 333.2,68.3 C337.7,68.3 341.1,65.7 341.1,62.3 C341.1,60 339.4,58 335.4,56.3 L325.2,51.8 C318.1,48.7 315,44.4 315,38.5 C315,34 317.3,29.4 321,26.9 C324.4,24.3 328.7,23.5 336,23.5 C340.3,23.5 344.2,24.1 347.9,25.2 C351.3,26.3 352.2,27.5 352.2,32.3 L352.2,33.7 C352.2,34.8 352.2,36.3 352.2,38.2 L352.2,37.9 C352.2,39.6 351.3,40.7 349.9,40.7 C348.2,40.7 347.3,40.1 346.5,38.4 C343.7,32.7 339.1,29.9 334.3,29.9 C330.6,29.9 328.1,31.9 328.1,34.4 C328.1,36.7 329.8,38.4 333.5,40.1 L344.6,44.9 C346.6,45.8 348,46.6 349.1,47.5 C351.9,49.8 354.2,54.9 354.2,59.4 C354.2,68.2 345.7,75 334.9,75 C323.5,75 315.3,72.2 315.3,68.5 L314.7,58.1 Z" id="Path"></path>
                    <path d="M297.4,33.4 C297.4,31.1 296.8,30.6 294.3,29.7 C292.9,29.1 292.3,28.6 292.3,27.7 C292.3,25.7 293.7,24.9 296.3,24.9 L298,24.9 C299.7,24.9 301.4,25.2 302.8,25.2 C304.2,25.2 305.4,25.2 306.5,25.2 C307.1,25.2 307.6,25.2 308.2,25.2 C310.2,25.2 311.6,26.1 311.6,27.8 C311.6,28.9 311,29.8 309.6,30.6 C308.2,31.5 307.9,31.7 307.3,32.6 C305.9,34.6 303.6,39.1 299.1,50.5 C290.9,70.4 282.9,84.8 277.2,91.4 C273.5,95.4 266.7,98.5 261.9,98.5 C257.6,98.5 256.2,96.8 256.2,92 C256.2,88.6 257.1,86.9 259,86.9 C259.6,86.9 260.1,86.9 261,86.9 C263,87.5 264.7,87.8 265.3,87.8 C267.9,87.8 273,85.2 276.4,81.6 C279,79 280.4,76.2 280.4,74.5 C280.4,73.6 280.1,72.5 279.8,71.1 L264.8,38.5 C263.9,36.5 262.8,34.2 262,33.4 C261.4,32.8 260.6,32 259.7,31.4 C257.7,30.5 257.4,30.3 257.4,29.1 C257.4,27.1 258.8,26.3 261.4,26.3 C262,26.3 262.8,26.3 263.7,26.3 C266,26.3 268.2,26.6 270.2,26.6 C272.2,26.6 274.7,26.6 278.1,26.3 C278.7,26.3 279,26.3 279.5,26.3 C282.3,26.3 283.2,26.9 283.2,28.6 C283.2,29.7 282.6,30.3 281.5,31.2 C278.9,32.6 278.7,33.2 278.7,34.9 C278.7,35.8 279,37.5 279.8,38.9 L287.2,56.2 C287.8,57.9 288.3,59 288.6,59 C288.9,59 289.2,57.9 290,56.4 L297.1,39.4 C297.1,36.5 297.4,34.5 297.4,33.4 Z" id="Path"></path>
                    <path d="M236.6,49.6 L232.9,51 C227.5,52.7 226.9,53 225.2,53.8 C224.1,54.4 222.9,55.2 222.4,56.4 C221.3,57.8 220.7,59.5 220.7,61.2 C220.7,64.9 223.3,67.2 227.5,67.2 C230.3,67.2 233.2,65.5 234.9,63.2 C236.3,61.2 236.9,58.7 236.9,54.4 C236.6,53.5 236.6,51.8 236.6,49.6 Z M235.2,70.9 C230.9,73.7 226.4,75.2 221.3,75.2 C212.8,75.2 206.5,69.5 206.5,61.9 C206.5,55.4 209.6,51.4 216.7,49.1 C216.7,49.1 233.2,44 234.9,43.7 C236.6,43.4 236.9,43.4 236.9,41.7 L236.6,36.6 C236.3,32.6 233.8,30.1 229.8,30.1 C225.5,30.1 221.3,34.1 221.3,38.3 C221.3,40 221.3,41.1 221.3,41.4 C221,42.5 219.9,43.4 218.5,43.4 C213.4,43.4 208.9,40.6 208.9,37.2 C208.9,30.1 220.3,23.6 232.7,23.6 C246.6,23.6 250.9,27.6 250.9,40.1 L250.9,43.2 L250.9,60.8 C250.9,64.5 251.5,65.9 253.5,65.9 C254.6,65.9 256.3,64.8 256.1,65 C256.4,65 256.4,65 256.7,65 C257.8,65 258.7,66.4 258.7,67.8 C258.7,68.9 258.4,69.5 257.6,70.4 C254.8,73.2 250.2,75.2 246.8,75.2 C241.4,75.2 240,71.5 238.9,68.7 L235.2,70.9 Z" id="Shape" fill-rule="nonzero"></path>
                    <path d="M156,47 C156,56.6 161.7,64 169.3,64 C173.8,64 178.1,61.4 179.2,57.8 C179.8,56.1 179.8,54.1 179.8,48.7 C179.8,40.8 179.5,37.3 178.4,35.1 C177,32.5 173.6,30.6 169.6,30.6 C161.4,30.3 156,37.1 156,47 Z M197.8,67.2 C199.5,67.8 200.1,68.6 200.1,69.8 C200.1,71.5 199.2,72.4 196.1,72.6 C192.7,72.9 189,74 186.5,75.2 L184.8,75.8 C184.5,76.1 183.9,76.1 183.4,76.1 C181.7,76.1 180.6,74.4 180.6,72.1 C180.6,71.2 180.9,68.7 180.9,68.7 C180.9,68.1 180.9,67.8 180.6,67.8 C180.3,67.8 180,68.1 179.2,68.7 C175.2,72.7 169.3,75.2 163.9,75.2 C152.3,75.2 144,65.3 144,51.6 C144,45.1 146.8,37.7 151.1,32.3 C156.2,26.3 162.2,23.5 170.1,23.5 C174.1,23.5 176.3,23.8 178.3,24.9 C179.2,25.2 179.7,25.5 180,25.5 L180.3,24.1 L180.3,14.7 C180.3,12.7 180.3,11.9 179.2,10.4 C178.6,9.5 178.1,9.3 175.5,8.7 C173.8,8.1 172.9,7.3 172.9,6.1 C172.9,4.1 174,3.5 177.4,3 C181.9,2.4 182.8,2.4 188.5,0.4 C189.4,0.1 190.5,0.1 190.8,0.1 C193.1,0.1 193.9,1.5 193.9,4.1 C193.9,5.2 193.9,6.7 193.9,8.6 C193.9,10.3 193.6,12 193.6,13.7 C192.933333,45.9666667 193.1,63.0333333 194.1,64.9 C194.7,66 195.2,66.3 197.8,67.2 Z" id="Shape" fill-rule="nonzero"></path>
                    <path d="M128.5,33.4 C128.5,31.1 127.9,30.6 125.4,29.7 C124,29.1 123.4,28.6 123.4,27.7 C123.4,25.7 124.8,24.9 127.4,24.9 L129.1,24.9 C130.8,24.9 132.5,25.2 133.9,25.2 C135.3,25.2 136.5,25.2 137.6,25.2 C138.2,25.2 138.7,25.2 139.3,25.2 C141.3,25.2 142.7,26.1 142.7,27.8 C142.7,28.9 142.1,29.8 140.7,30.6 C139.3,31.5 139,31.7 138.4,32.6 C137,34.6 134.7,39.1 130.2,50.5 C122,70.4 114,84.8 108.3,91.4 C104.6,95.4 97.8,98.5 93,98.5 C88.7,98.5 87.3,96.8 87.3,92 C87.3,88.6 88.2,86.9 90.1,86.9 C90.7,86.9 91.2,86.9 92.1,86.9 C94.1,87.5 95.8,87.8 96.4,87.8 C99,87.8 104.1,85.2 107.5,81.6 C110.1,79 111.5,76.2 111.5,74.5 C111.5,73.6 111.2,72.5 110.9,71.1 L95.9,38.5 C95,36.5 93.9,34.2 93.1,33.4 C92.5,32.8 91.7,32 90.8,31.4 C88.8,30.5 88.5,30.3 88.5,29.1 C88.5,27.1 89.9,26.3 92.5,26.3 C93.1,26.3 93.9,26.3 94.8,26.3 C97.1,26.3 99.3,26.6 101.3,26.6 C103.3,26.6 105.8,26.6 109.2,26.3 C109.8,26.3 110.1,26.3 110.6,26.3 C113.4,26.3 114.3,26.9 114.3,28.6 C114.3,29.7 113.7,30.3 112.6,31.2 C110,32.6 109.8,33.2 109.8,34.9 C109.8,35.8 110.1,37.5 110.9,38.9 L118.3,56.2 C118.9,57.9 119.4,59 119.7,59 C120,59 120.3,57.9 121.1,56.4 L128.2,39.4 C128.2,36.5 128.5,34.5 128.5,33.4 Z" id="Path"></path>
                    <path d="M5.4,74 L4.8,74 C2.2,74 0.8,73.1 0.8,72 C0.8,70.6 1.4,69.7 2.8,69.4 L5.6,68.3 C7.6,67.7 8.2,65.7 8.2,61.5 L8.2,40.2 C8.2,35.7 7.3,34.2 3.4,33.4 C1.4,33.1 0.8,32 0.8,29.7 C0.8,27.4 1.7,26.9 6.2,26.3 C8.5,26 10.2,25.7 11.3,25.4 C11.9,25.4 13,24.8 15,23.7 C16.4,23.1 17.6,22.8 18.4,22.8 C20.4,22.8 21.2,23.9 21.2,26.5 C21.2,27.4 21.2,28.2 20.9,29.1 C20.6,30 20.6,31.9 20.9,31.9 C21.2,31.9 21.8,31.3 22.9,29.9 C26.3,25.9 32.8,22.8 38.5,22.8 C44.5,22.8 49.3,25.4 51,29 C51.6,30.1 51.9,31 52.1,31 C52.1,31 52.7,30.4 53.2,29.6 C56,25.6 62.8,22.5 69.1,22.5 C78.5,22.5 82.7,28.2 82.7,39.5 L82.7,59.4 C82.7,63.9 83,64.5 83.8,65.9 C84.7,67 85.5,67.6 88.1,68.2 C89.5,68.5 90.1,69.1 90.1,70.5 C90.1,72.8 89,73.6 85.6,73.6 C85,73.6 84.5,73.6 83.9,73.6 C82.2,73.6 80.2,73.6 77.9,73.6 C75.1,73.6 71.9,73.6 69.4,73.9 C68.8,73.9 68.3,73.9 67.7,73.9 C64.9,73.9 63.7,73.3 63.7,71.3 C63.7,69.6 64,69 65.7,68.5 C69.1,67.4 69.7,65.9 69.7,60 L69.7,43.3 C69.7,37.3 67.1,33.9 62.6,33.9 C61.2,33.9 59.5,34.2 58.1,34.8 C55.5,35.9 54.4,37.1 52.4,40.5 L52.4,60.4 C52.4,64.9 52.7,65.8 53.3,66.6 C54.2,67.5 57.3,69.2 57.3,69.2 C57.9,69.5 58.2,70.1 58.2,70.9 C58.2,72.9 57.3,73.7 54.8,73.7 C54.2,73.7 53.4,73.7 52.5,73.7 C50.8,73.7 49.1,73.4 47.1,73.4 C45.4,73.4 36.6,73.7 36.6,73.7 C34.6,73.7 34,73.7 33.8,73.4 C32.9,72.8 32.9,72 32.9,70.8 C32.9,69.7 33.2,69.1 34.6,68.5 C38.6,66.8 39.1,65.9 39.1,60 L39.1,42.7 C39.1,36.5 36.8,33.6 32.3,33.6 C30.9,33.6 28.9,33.9 27.5,34.7 C25.2,35.8 24.1,37 21.5,40.7 L21.5,60.6 C21.5,64.9 22.6,67.4 24.9,68.5 C26,69.1 27.7,69.6 27.7,71.3 C27.7,72.2 27.7,73.3 26.8,73.6 C26.5,73.9 25.9,73.9 24.5,73.9 L15.7,73.6 L10.3,73.6 L5.4,74 Z" id="Path"></path>
                </g>
                <circle id="Oval" cx="387.3" cy="22.1" r="21.9"></circle>
            </g>
        </g>
    </g>
</svg>