<svg height="101" viewBox="0 0 551 101" width="551" xmlns="http://www.w3.org/2000/svg"><path d="m68.761019 99.5927891h-19.6524064l-28.7433156-63.8368984v63.8368984h-19.65240637v-97.3262032h19.65240637l28.8101605 63.9037433v-63.9037433h19.5855615zm66.042781-42.1122995h-30.614974v25.8021391h36.229947v16.3101604h-55.882353v-97.3262032h55.748663v16.3770053h-36.096257v22.9946524h30.614974zm80.147059 5.9491979 9.224598-61.1631016h19.451872l-17.312834 97.3262032h-19.719251l-11.363637-57.3529412-11.229946 57.3529412h-19.786097l-17.379679-97.3262032h19.585562l9.157754 61.0962567 11.430481-61.0962567h16.510695zm58.957219 1.9385027v34.2245989h-19.652407v-97.3262032h33.155081c4.946548 0 9.36941.80213101 13.268716 2.40641711 3.899307 1.60428609 7.208097 3.84356851 9.926471 6.71791439 2.718373 2.874346 4.801686 6.2834028 6.25 10.2272728s2.17246 8.2330428 2.17246 12.867647c0 4.7237313-.724146 8.9906227-2.17246 12.8008022s-3.531627 7.0521256-6.25 9.7259358c-2.718374 2.6738102-6.038305 4.7348412-9.959893 6.1831551-3.921589 1.4483138-8.333309 2.1724599-13.235294 2.1724599zm0-16.3770054h13.502674c2.049921 0 3.821293-.3565026 5.314171-1.0695187 1.492877-.713016 2.718355-1.7045391 3.67647-2.9745989.958116-1.2700598 1.65998-2.7851962 2.105615-4.5454546.445635-1.7602583.668449-3.6876009.668449-5.7820855 0-2.0944847-.222814-4.0998122-.668449-6.0160428s-1.147499-3.6096183-2.105615-5.0802139c-.958115-1.4705956-2.183593-2.6515107-3.67647-3.5427808-1.492878-.89127-3.26425-1.3368984-5.314171-1.3368984h-13.502674zm126.737968 10.6951872c0 6.8182159-.846694 12.8119171-2.540107 17.9812834s-4.066384 9.4696798-7.118984 12.9010695-6.729034 6.0160341-11.029412 7.7540107c-4.300378 1.7379764-9.057461 2.6069524-14.27139 2.6069524-5.21393 0-9.982153-.868976-14.304813-2.6069524-4.32266-1.7379766-8.032516-4.322621-11.129679-7.7540107-3.097164-3.4313897-5.503557-7.7317032-7.219252-12.9010695s-2.573529-11.1630675-2.573529-17.9812834v-16.1764706c0-6.9964699.846694-13.1572817 2.540107-18.4826203s4.077525-9.7704813 7.152406-13.3355615c3.074882-3.56508023 6.773597-6.24999099 11.096257-8.05481285s9.090883-2.70721925 14.304813-2.70721925 9.971012.90239739 14.27139 2.70721925 7.999093 4.48973262 11.096257 8.05481285c3.097163 3.5650802 5.492416 8.0102229 7.185829 13.3355615s2.540107 11.4861504 2.540107 18.4826203zm-19.719252-16.3101604c0-4.6346043-.334221-8.5895559-1.002673-11.8649733-.668453-3.2754174-1.648835-5.9603282-2.941177-8.0548128-1.292341-2.0944847-2.896604-3.6319024-4.812834-4.6122995-1.916231-.9803971-4.122091-1.4705882-6.617647-1.4705882-2.54012 0-4.768262.4901911-6.684492 1.4705882-1.916231.9803971-3.520493 2.5178148-4.812834 4.6122995-1.292342 2.0944846-2.272724 4.7793954-2.941177 8.0548128-.668452 3.2754174-1.002674 7.230369-1.002674 11.8649733v16.3101604c0 4.4117868.334222 8.188487 1.002674 11.3302139.668453 3.1417269 1.659976 5.7152306 2.974599 7.7205882 1.314623 2.0053577 2.941167 3.4759312 4.879679 4.4117647 1.938513.9358336 4.177795 1.4037434 6.717915 1.4037434 2.495556 0 4.690275-.4679098 6.584224-1.4037434 1.893949-.9358335 3.48707-2.406407 4.779412-4.4117647 1.292342-2.0053576 2.261583-4.5788613 2.907754-7.7205882s.969251-6.9184271.969251-11.3302139zm63.302139 20.6550802h-9.759358v35.5614973h-19.652406v-97.3262032h31.350267c4.857422 0 9.191157.63502038 13.001337 1.90508021 3.810179 1.27005983 7.040985 3.14169886 9.692513 5.61497326 2.651529 2.47327443 4.679138 5.53696923 6.082888 9.19117643 1.40375 3.6542073 2.105615 7.8876765 2.105615 12.7005348 0 3.5205167-.323081 6.6956187-.969251 9.5254011-.646171 2.8297824-1.581991 5.3475825-2.807487 7.5534759s-2.707211 4.133236-4.445187 5.7820856c-1.737977 1.6488496-3.698741 3.0748603-5.882353 4.2780748l17.045454 39.8395722v.9358289h-21.122994zm-9.759358-16.3770054h11.163102c3.921588 0 6.862735-1.3034629 8.823529-3.9104278s2.941177-6.0940067 2.941177-10.4612299c0-2.2281752-.211674-4.2446434-.635027-6.0494653-.423353-1.8048218-1.091796-3.3422396-2.005348-4.6122994-.913552-1.2700599-2.083326-2.2504422-3.509358-2.9411765s-3.11942-1.0360963-5.080214-1.0360963h-11.697861zm115.775401-29.0106952h-24.064171v80.9491979h-19.719251v-80.9491979h-23.663102v-16.3770053h67.446524z" fill="#282c39"/></svg>