<?xml version="1.0" encoding="UTF-8"?>
<svg width="281px" height="109px" viewBox="0 0 281 109" version="1.1" xmlns="http://www.w3.org/2000/svg" xmlns:xlink="http://www.w3.org/1999/xlink">
    <!-- Generator: Sketch 52.5 (67469) - http://www.bohemiancoding.com/sketch -->
    <title>Combined Shape@3x</title>
    <desc>Created with Sketch.</desc>
    <g id="Page-1" stroke="none" stroke-width="1" fill="none" fill-rule="evenodd">
        <path d="M167.96,48.02 C167.96,48.45 167.92,49.06 167.79,49.83 C167.7,50.56 167.62,51.38 167.49,52.16 C167.36,52.98 167.19,53.76 167.06,54.53 C166.89,55.31 166.76,55.95 166.63,56.51 L161.03,83.19 L146.72,83.19 L152.28,60.26 C152.5,59.31 152.63,58.28 152.8,57.29 C152.97,56.26 153.06,55.48 153.06,54.92 C153.06,53.5 152.71,52.33 151.98,51.47 C151.25,50.61 150.13,50.18 148.66,50.18 C147.41,50.18 146.12,50.57 144.78,51.34 C143.44,52.07 142.19,53.11 141.03,54.36 C139.86,55.65 138.83,57.07 137.93,58.75 C137.07,60.34 136.51,62.07 136.08,63.75 L131.29,83.19 L116.77,83.19 L123.62,51.51 C123.92,50.17 124.14,48.75 124.44,47.37 C124.7,45.99 124.96,44.61 125.17,43.36 C125.34,42.07 125.56,40.86 125.69,39.78 C125.86,38.7 125.99,37.75 126.08,37.02 L140.17,37.02 C140.08,37.84 139.95,38.74 139.87,39.65 C139.78,40.56 139.66,41.46 139.57,42.28 C139.44,43.1 139.35,43.87 139.27,44.52 C139.18,45.17 139.1,45.64 139.06,45.9 L139.23,45.9 C140.27,44.52 141.47,43.23 142.81,41.98 C144.11,40.77 145.52,39.7 146.99,38.79 C148.5,37.88 150.05,37.19 151.65,36.68 C153.25,36.16 154.84,35.9 156.43,35.9 C160.22,35.9 163.11,36.93 165.05,39.05 C166.97,41.17 167.96,44.19 167.96,48.02 Z M115.03,7.68 C187.61,-7.1 250.92,2.51 255.92,29.06 C258.9,44.84 240.66,63.11 210.15,78.45 L212.22,68.45 C230.54,57.89 241.05,45.87 239.07,35.31 C235.36,15.48 188.77,8.28 135.38,19.23 C82.02,30.18 41.47,55.31 45.18,75.13 C48.89,94.96 95.47,102.2 148.83,91.25 C158.36,89.27 167.49,86.85 176.03,84.1 L176.03,84.14 L176.29,84.27 L176.5,84.44 L176.76,84.57 L177.02,84.7 L177.24,84.83 L177.5,84.96 L177.76,85.09 L178.02,85.22 L178.28,85.35 L178.54,85.48 L178.8,85.61 L179.06,85.74 L179.32,85.82 L179.62,85.95 L179.88,86.08 L180.18,86.17 L180.48,86.3 L180.74,86.39 L181.04,86.47 L181.34,86.56 L181.64,86.65 L181.94,86.74 L182.24,86.83 L182.54,86.92 L182.84,87.01 L183.14,87.1 L183.48,87.14 L183.78,87.22 L184.08,87.26 L184.42,87.3 L184.72,87.34 L185.06,87.43 L185.36,87.47 L185.7,87.51 L186.05,87.55 L186.35,87.55 L186.7,87.59 L187.04,87.63 L187.39,87.63 L187.74,87.67 L188.08,87.67 L188.42,87.71 L188.77,87.71 L188.81,87.71 C173.47,93.57 172.09,95.6 133.13,104.09 C89.69,113.58 5.82,109.22 0.82,82.68 C-4.18,56.13 42.37,22.42 115.03,7.68 Z M117.23,55.31 C117.23,57.47 117.01,59.66 116.58,61.9 C116.15,64.19 115.54,66.38 114.64,68.54 C113.74,70.69 112.57,72.72 111.15,74.62 C109.73,76.56 108.01,78.24 105.98,79.66 C103.95,81.08 101.59,82.24 98.96,83.06 C96.29,83.92 93.27,84.31 89.87,84.31 C86.42,84.31 83.45,83.84 80.91,82.84 C78.37,81.85 76.25,80.47 74.62,78.75 C72.98,76.98 71.73,74.91 70.91,72.55 C70.09,70.14 69.7,67.55 69.7,64.79 C69.7,62.59 69.92,60.31 70.39,58.02 C70.82,55.69 71.51,53.49 72.46,51.38 C73.41,49.23 74.62,47.2 76.12,45.35 C77.54,43.45 79.35,41.81 81.38,40.44 C83.41,39.02 85.78,37.94 88.4,37.12 C91.03,36.3 93.96,35.91 97.24,35.91 C100.47,35.91 103.32,36.34 105.82,37.25 C108.27,38.2 110.39,39.49 112.07,41.17 C113.8,42.89 115.04,44.92 115.95,47.33 C116.8,49.7 117.23,52.38 117.23,55.31 Z M102.88,55.52 C102.88,54.23 102.75,53.06 102.45,52.03 C102.15,50.95 101.67,50.01 101.11,49.27 C100.51,48.49 99.82,47.89 98.95,47.46 C98.09,47.03 97.14,46.81 96.02,46.81 C94.12,46.81 92.44,47.33 90.93,48.4 C89.46,49.52 88.22,50.9 87.18,52.63 C86.14,54.35 85.37,56.25 84.81,58.4 C84.29,60.51 84.03,62.67 84.03,64.78 C84.03,67.54 84.68,69.65 85.93,71.16 C87.22,72.67 88.86,73.4 90.93,73.4 C92.87,73.4 94.59,72.88 96.1,71.85 C97.57,70.77 98.82,69.39 99.81,67.71 C100.85,65.99 101.58,64.09 102.09,61.93 C102.62,59.83 102.88,57.68 102.88,55.52 Z M214.68,48.93 C214.68,51.3 214.2,53.5 213.17,55.48 C212.18,57.46 210.5,59.14 208.13,60.61 C205.76,62.03 202.66,63.19 198.73,64.01 C194.81,64.83 189.94,65.3 184.12,65.39 C184.04,65.56 184.04,65.74 184.04,65.87 L184.04,66.3 C184.04,67.25 184.17,68.15 184.47,69.1 C184.77,70.05 185.29,70.87 186.02,71.6 C186.75,72.38 187.75,72.98 188.95,73.45 C190.11,73.93 191.66,74.14 193.43,74.14 C194.55,74.14 195.71,74.05 197.01,73.84 C198.26,73.62 199.55,73.36 200.89,72.98 C202.23,72.59 203.52,72.16 204.86,71.64 C206.15,71.12 207.36,70.52 208.48,69.92 L206.28,80.56 C205.33,81.04 204.25,81.51 203.05,81.94 C201.84,82.37 200.55,82.8 199.17,83.15 C197.75,83.54 196.29,83.8 194.69,84.01 C193.14,84.23 191.5,84.31 189.86,84.31 C186.37,84.31 183.35,83.84 180.85,82.8 C178.4,81.77 176.32,80.39 174.73,78.66 C173.09,76.94 171.93,74.91 171.15,72.63 C170.42,70.3 170.03,67.8 170.03,65.22 C170.03,61.25 170.63,57.5 172.01,53.97 C173.31,50.61 175.16,47.51 177.57,44.62 C179.94,41.86 182.91,39.84 186.36,38.28 C189.77,36.69 193.56,35.91 197.78,35.91 C200.8,35.91 203.39,36.26 205.54,36.99 C207.65,37.68 209.42,38.67 210.75,39.88 C212.13,41.09 213.12,42.47 213.77,44.06 C214.37,45.61 214.68,47.25 214.68,48.93 Z M201.1,49.1 C201.1,47.98 200.71,47.08 199.89,46.34 C199.03,45.61 197.86,45.22 196.4,45.22 C195.06,45.22 193.77,45.52 192.57,46.08 C191.36,46.64 190.24,47.42 189.21,48.45 C188.22,49.44 187.36,50.65 186.63,52.07 C185.94,53.45 185.38,54.96 185.03,56.6 C190.42,56.64 194.47,56.04 197.14,54.75 C199.81,53.45 201.1,51.56 201.1,49.1 Z M225.71,82.98 C223.57,82.98 221.98,81.61 221.98,79.72 C221.98,77.58 223.74,76.12 226.01,76.12 C228.15,76.12 229.7,77.54 229.7,79.42 C229.7,81.57 227.94,82.98 225.71,82.98 Z M255.17,75.39 C254.78,77.11 254.36,80.62 254.36,82.47 L247.67,82.47 C247.67,81.7 247.88,79.64 247.97,78.87 L247.88,78.87 C246.16,81.31 244.19,82.99 241.19,82.99 C237.07,82.99 234.58,80.07 234.58,74.8 C234.58,67.25 239.73,60.52 248.48,60.52 C249.59,60.52 250.88,60.65 251.61,60.78 L253.75,50.74 L260.35,50.74 L255.17,75.39 Z M248.48,65.14 C242.73,65.14 241.23,71.49 241.23,74.32 C241.23,76.38 242.09,77.92 243.93,77.92 C247.02,77.92 248.78,73.93 249.59,70.24 L250.66,65.39 C250.03,65.23 249.21,65.14 248.48,65.14 Z M266.54,74.19 C266.5,74.36 266.5,74.49 266.5,74.62 C266.5,76.34 267.53,78.26 270.87,78.26 C272.89,78.26 275.76,77.49 277.86,76.29 L276.83,81.22 C275.11,82.12 272.28,82.98 269.2,82.98 C262.72,82.98 260.02,78.95 260.02,74.1 C260.02,66.81 265.08,60.51 272.88,60.51 C278.5,60.51 280.73,63.43 280.73,66.56 C280.73,70.97 277.34,74.02 266.54,74.19 Z M272.24,64.84 C269.8,64.84 267.61,67.07 266.97,70.11 C271.94,70.15 274.43,68.91 274.43,66.64 C274.43,65.61 273.61,64.84 272.24,64.84 Z" id="Combined-Shape" fill="#282C39"></path>
    </g>
</svg>