<svg height="100" viewBox="0 0 466 100" width="466" xmlns="http://www.w3.org/2000/svg"><path d="m443.088932 3.02092401 22.640749-.13143291s-5.528755 5.67161604-10.400344 12.4004099c-4.868733 6.7316511-27.440907 37.0097948-27.440907 37.0097948s-11.78039 16.6234066-18.360607 23.6864972c-3.360111 3.600119-16.720553 16.8719863-34.155415 22.0921589-16.737696 5.0115941-37.644101 2.0514961-37.644101 2.0514961s-11.31466-1.6486257-12.763279-4.2229965c-1.445763-2.5715135 0-2.7715202 1.248612-2.9715268 1.25147-.1942921 8.291703.9914614 12.440411 1.5200503 2.028639.2571513 10.443203 1.8572042 20.063521 1.0771784 10.068904-.8200271 21.383564-4.0715631 24.886537-5.8287641 6.843083-3.4286847 17.171996-9.9603292 21.58357-18.0091667 4.408717-8.0459802 5.591614-13.1261482 4.474434-16.4862592-1.120037-3.3658256-9.743179-18.5434701-13.623308-25.3351232-3.885842-6.7945103-10.491775-17.0862791-13.160435-20.31495724-.685736-.82859882-2.242931-2.48579645-3.657263-3.77155324-1.714343-1.55719433-3.257251-2.69723201-3.257251-2.69723201l18.100599-.60001984s3.751552 0 5.065881 2.24578852c1.314329 2.24293129 22.049301 39.58130841 22.049301 39.58130841s.985746 1.914349 2.040067 1.8457753c1.057178-.0657165 2.108641-1.1886108 2.897239-2.4400807.791454-1.2571844 12.50327-20.3863882 12.50327-20.3863882s7.04309-11.6089551 7.108806-14.38047531c.065717-2.77152018-.791454-4.35442965-1.114322-4.75158563-.334297-.39144152-1.52005-1.18289625-1.52005-1.18289625zm-101.223346 47.17298789c0-.3428685-.228579-1.0171765-1.157181-1.0171765-1.617196 0-9.943186 5.754476-31.215317 5.754476-27.515196 0-39.767029-13.3147259-39.767029-25.1608317 0-18.0520253 23.815073-28.7723797 60.344852-28.7723797 4.162994 0 8.094553.22857898 12.028969.45715797 15.886239.89145804 17.106279 2.18007206 17.106279 2.18007206v37.30694747c0 4.285856 0 9.1431594 4.157281 12.1832599l-20.572109 1.3571877-.931459-4.285856zm.228579-37.0069376c0-5.3030324-2.542941-8.12312562-14.331902-8.12312562-25.666563 0-39.544164 9.48031342-39.544164 22.34359572 0 10.2660536 10.180336 21.6578588 33.992552 21.6578588 13.414729 0 19.886371-4.9630212 19.886371-11.2803729v-24.597956zm-128.287098 41.8585265c-9.246019 0-17.109137-.9057442-25.657991-2.4857964-2.542941-.4514435-3.937273-.902887-3.937273-2.480082 0-2.708661.928603-5.4173219 1.157182-8.2374151 7.171665 5.6430436 12.943285 9.1431593 28.209503 9.1431593 13.637594 0 21.732147-3.1629617 21.732147-9.5946028 0-13.7633121-45.778656-11.5089519-45.778656-28.2009322 0-8.46313692 13.409015-12.07468487 35.144019-12.07468487 6.934515 0 14.103324.56287575 21.037838 1.35147324.694309.1142895 3.005814.33715401 3.005814 1.01717648 0 2.02863849-.228579 5.29731797-.462872 7.66596765-9.017441-5.5258969-13.643308-6.65736288-24.275088-6.65736288-9.020299 0-17.343431 2.02863849-17.343431 6.88594188 0 13.4233009 48.087304 11.8432487 48.087304 27.5266242 0 10.7146399-21.266417 16.1319618-40.921353 16.1319618zm-44.847196-46.07009425c-6.703079 0-13.640451-2.92009652-18.726334-2.92009652-9.714606 0-10.400343 7.54310647-10.400343 10.93178997v23.6407814c0 4.1715665 0 10.2803398 4.154423 13.437587h-25.429412c4.160137-3.1543899 4.160137-9.2574488 4.160137-13.4347298v-26.2380101c0-10.8289294 17.57201-12.97185738 36.995509-12.97185738 5.314461 0 16.414828.33429677 16.414828 4.05727697 0 2.14292798-3.240107 3.49725846-7.171665 3.49725846zm-124.338396 46.06723705c-31.906769 0-44.621475-12.7518501-44.621475-25.0465422 0-17.4862923 19.8863716-28.87809743 54.5618036-28.87809743 31.9067689 0 44.6243322 12.74327833 44.6243322 25.04368493 0 17.4862923-19.8863717 28.8809547-54.5646608 28.8809547zm2.3143622-49.86450542c-21.7350042 0-27.5151952 10.49463262-27.5151952 19.85779922 0 13.2004364 8.3231322 25.9494292 32.8296566 25.9494292 21.7321469 0 27.5151952-10.4946326 27.5151952-19.8577992 0-13.2004364-8.3231322-25.94371475-32.8296566-25.94371475z" fill="#282c39" transform="translate(0 -1)"/></svg>