<svg height="101" viewBox="0 0 323 101" width="323" xmlns="http://www.w3.org/2000/svg"><path d="m39.3841116 3.43752013s-7.3000536.64412238-14.6001073 3.48899624c-14.92216855 5.68974773-22.1148685 15.88835213-22.1148685 26.24798713 0 3.6500268.91250671 7.1390231 2.68384327 9.9838969 3.81105743 6.4412239 9.82286633 9.0177134 14.49275363 10.5206656l-.4294149 1.8250134c-3.59635-1.0198604-7.2463768-2.4154589-11.16478801-5.5823939-5.47504026-4.4551799-8.05152979-10.4669888-8.05152979-16.8008589 0-6.1191626 2.41545894-14.1706924 11.1111111-21.095008 12.0236178-9.55448205 27.3215244-10.57434249 34.5142244-11.11111114l7.3000537-.21470746c4.0794417.32206119 12.0236178.80515298 18.6795491 3.43531938 7.4074074 2.95222759 11.4868491 8.26623722 11.4868491 14.86849172 0 11.0037573-11.8625872 22.1685453-35.7487922 22.1685453-4.4551798 0-7.3000537-.3220612-10.8427268-.6977992l-9.983897 32.9575952-10.0375738-.0536768c-.0536768.0536768 18.0891036-57.3268921 22.705314-69.94095547zm-2.2007514 35.58776167c2.3081052.2147075 4.4551798.4294149 6.763285.4294149 17.6060118 0 27.3215244-10.6816962 27.3215244-21.1486849 0-3.8647343-1.6103059-7.7831455-4.9919485-10.57434245-7.0316693-5.90445518-17.12292-5.04562533-17.12292-5.04562533-3.5426731 9.87654318-11.9699409 36.33923778-11.9699409 36.33923778zm64.2512078-11.4331723c-2.1470747 8.2662373-12.2383254 38.9694042-12.2383254 42.0289855 0 2.3617821 1.2882448 4.4551798 4.0794418 4.4551798 5.0993022 0 8.1588836-8.5346216 9.0713906-11.0037574l1.932367.429415c-2.57649 6.4949007-5.4750405 13.150832-14.0633389 13.150832-4.0794418 0-10.4669888-1.8250135-10.4669888-8.8566828 0-2.8448739.9125067-5.7971015 3.1669351-12.9361245 4.2404723-12.3993559 6.9243156-20.4508857 8.0515298-24.6376812l.8588298-2.6301664zm52.495974 37.2517445c-3.59635 4.0794418-10.359635 12.1309716-24.530327 12.1309716-11.486849 0-20.289855-5.9044552-20.289855-17.1765969 0-6.7096082 3.327965-13.8486313 6.655931-18.2501342 6.011809-8.2125604 16.371444-13.955985 26.838433-13.955985 8.964036 0 15.56629 4.5625335 15.56629 11.3258186 0 4.1867955-2.200751 8.1588835-6.119162 11.2721417-8.319914 6.7096081-19.538379 6.7096081-24.15459 6.7096081-2.576489 0-5.260332-.1073537-7.944176-.2147074-.268384 1.6103059-.375738 3.166935-.375738 4.777241 0 6.8169619 3.59635 13.6339238 12.50671 13.6339238 10.842727 0 17.498658-7.9441761 20.182501-11.0037574zm-28.234031-9.4471283c17.767042 0 28.878154-8.4272678 28.878154-17.3913043 0-5.4750403-4.347827-8.4272679-9.822867-8.4272679s-9.339774 2.8448739-11.003757 4.2941492c-9.178744 7.1390231-12.130972 16.8008589-13.52657 21.3633924 1.87869.0536769 3.703703.1610306 5.47504.1610306zm52.603328-27.8046162-5.421363 21.2560386c6.4949-11.2184648 13.6876-20.8803005 27.321524-20.8803005 11.111111 0 18.411165 6.0118089 18.411165 16.2640901 0 12.2383253-11.003758 32.2597961-38.593666 32.2597961-6.548578 0-10.466989-.9125067-14.331723-1.7176597l-6.924316 25.9259259h-10.091251l14.707461-54.1599571c2.200752-7.4074074 4.777241-18.9479334 4.777241-18.9479334zm-.751476 47.1282877c11.755233 0 18.250134-4.9919485 22.866344-11.4868492 3.166936-4.2941492 7.514762-12.721417 7.514762-20.2361782 0-8.3735909-5.475041-12.345679-11.48685-12.345679-4.079441 0-7.675791 1.7176597-10.359635 3.8647343-12.130971 9.4471283-17.230273 28.6097692-19.699409 37.9495438 3.274289 1.2345679 5.958132 2.2544283 11.164788 2.2544283zm88.030059-9.8765432c-3.59635 4.0794418-10.359635 12.1309716-24.530328 12.1309716-11.486849 0-20.289855-5.9044552-20.289855-17.1765969 0-6.7096082 3.327966-13.8486313 6.655932-18.2501342 6.011809-8.2125604 16.371444-13.955985 26.838432-13.955985 8.964037 0 15.566291 4.5625335 15.566291 11.3258186 0 4.1867955-2.147074 8.1588835-6.119162 11.2721417-8.319915 6.7096081-19.538379 6.7096081-24.15459 6.7096081-2.576489 0-5.260333-.1073537-7.944176-.2147074-.268384 1.6103059-.375738 3.166935-.375738 4.777241 0 6.8169619 3.59635 13.6339238 12.50671 13.6339238 10.842727 0 17.498658-7.9441761 20.182501-11.0037574zm-28.234031-9.4471283c17.767042 0 28.878153-8.4272678 28.878153-17.3913043 0-5.4750403-4.347826-8.4272679-9.822866-8.4272679s-9.339775 2.8448739-11.003757 4.2941492c-9.178744 7.1390231-12.130972 16.8008589-13.52657 21.3633924 1.932367.0536769 3.703703.1610306 5.47504.1610306zm49.812131-.3220612c5.904455-11.2721417 16.210413-28.0193237 27.321524-28.0193237 4.45518 0 7.783146 2.7375202 7.783146 5.7971015 0 2.8448739-2.791197 5.582394-7.139023 5.582394-3.972088 0-7.03167-2.3617821-7.03167-5.9044552 0-.6977992.107354-1.4492754.268385-2.0397209-17.498659 12.7214171-23.886206 34.8899625-26.677403 44.6591519h-9.822866l12.560387-47.6113795h10.144927zm-193.5050996-41.7069243c0-2.9522276 2.9522276-5.31400966 6.6559316-5.31400966 3.435319 0 6.4949 2.36178206 6.4949 5.31400966 0 2.8448739-3.059581 5.2066559-6.4949 5.2066559-1.7713368 0-3.4353196-.4830918-4.7235644-1.5029522-1.1272142-1.0198604-1.9323672-2.3617821-1.9323672-3.7037037zm28.6097696 3.4353194h-1.449276v-10.41331188h3.43532c.214707 0 2.147074-.05367687 3.488996.69779925 1.449275.85882984 1.395598 1.98604401 1.395598 2.25442834 0 .16103059 0 .42941492-.16103.80515299-.107354.2683843-.536769 1.180891-1.986044 1.7713365-1.127214.429415-2.361782.429415-4.723564.429415zm0-5.3676865c.107353 0 1.717659.0536768 2.73752-.0536769.751476-.1073537 1.556629-.2683843 2.147074-.9125067.429415-.4294149.483092-1.07353733.483092-1.12721419 0-.05367687-.053677-.59044552-.322061-.96618358-.161031-.16103059-.322061-.32206119-.429415-.37573805-.107354-.05367687-.322061-.21470746-.536769-.32206119-.590445-.26838433-1.234568-.37573806-2.415459-.37573806-.536768 0-1.073537 0-1.663982 0zm13.633923-5.04562538 6.065486 10.46698868h-1.502952l-1.663983-2.7911969h-7.675792l-1.663982 2.8448738h-1.449276l6.17284-10.46698872h1.717659zm2.361782 6.70960818-3.327965-5.79710147c-.375738.75147611-.751476 1.50295223-1.180891 2.20075147-.375738.6441224-.751476 1.2345679-1.127214 1.8786903-.322062.5367686-.644123 1.1272142-.966184 1.7176597zm15.0832 3.7573805h-1.610306c-.214708-.375738-.483092-.8051529-.751476-1.2345679-.268385-.375738-.536769-.8051529-.751477-1.180891-.322061-.4294149-.536768-.8588298-.858829-1.3419216-.214708-.3220612-.375738-.5367687-.751477-.7514761-.375738-.2147075-.590445-.2683844-.751476-.2683844-.322061-.0536768-.536768-.1073537-1.127214-.1073537h-1.341921v4.8309179h-1.449276v-10.46698875h3.43532c1.502952 0 2.254428.1610306 3.005904.42941493.161031.05367686.429415.16103059.536769.26838432.644122.37573806 1.288244 1.01986044 1.288244 2.03972088 0 .21470746.053677.85882985-.751476 1.55662912-.214707.1610306-.483091.3220612-.697799.4294149-.85883.3757381-1.771336.4830918-1.986044.4830918.107354 0 .161031 0 .268384.0536769.322062 0 .912507.1610305 1.395599.7514761.268384.375738.483092.6977992.697799 1.0198604.322061.4294149.590446.9125067.85883 1.3419216zm-7.944176-5.7971014h1.610306c.805152 0 1.771336-.1073537 2.522812-.4830918.107354-.0536769.322061-.1610306.536769-.3220612.268384-.2147074.697799-.64412237.697799-1.23456788 0-.10735373 0-.37573806-.161031-.59044552-.268384-.53676865-.912506-.91250671-1.663982-1.07353731-.751476-.16103059-1.825014-.16103059-3.542673-.16103059zm17.606011-3.81105744h-5.63607v3.70370374h5.421363v.8588298h-5.421363v4.9919485h-1.449276v-10.46698875h7.085346zm3.757381-.85882984v4.77724098 1.5029523c0 .7514761.107354 1.6639828.912507 2.4154589.536768.4830918 1.610306 1.0198604 3.166935 1.0198604.16103 0 .590445 0 1.01986-.1073537 1.502952-.2683843 2.254428-1.0198604 2.522813-1.5029522.536768-.9125067.483092-1.7713366.483092-2.6301664 0-1.1272142 0-2.25442837 0-3.38164254v-2.09339774h1.341921v5.63607088c0 1.986044-.16103 2.9522276-1.502952 3.9184111-.214707.1610306-.536769.3757381-1.073537.5904456-1.127214.4294149-2.683844.4830917-2.898551.4830917-.483092 0-2.57649 0-4.079442-1.180891-.912507-.7514761-1.341921-1.610306-1.341921-3.2742888 0-.4830918 0-.9125067 0-1.3955985 0-1.55662907 0-3.16693502 0-4.72356412h1.449275zm2.522813-1.12721417h-1.663983v-1.44927536h1.663983zm4.669887 0h-1.610306v-1.3955985h1.610306zm20.665593 1.12721417v10.46698868h-1.449275v-5.3676865c0-1.3955985 0-2.79119697.053677-4.13311861l-5.797102 9.44712831h-1.180891c-.536769-.8588299-1.073537-1.6639828-1.610306-2.5228127-.268384-.4294149-.536769-.8588298-.751476-1.2345679-.214708-.3220612-.429415-.6441224-.590446-.9125067l-.805153-1.3955985c-.322061-.4830918-.644122-.96618357-.912506-1.44927536-.429415-.64412238-.751476-1.28824476-1.127214-1.98604401v9.50080517h-1.449276v-10.46698875h2.200752c1.01986 1.66398283 2.093397 3.32796565 3.113258 5.04562535.590445.9661836 1.180891 1.9323671 1.71766 2.8985507.268384.4830918.536768.9125067.751476 1.3955985.268384-.4830918.483091-.9125067.751476-1.3955985.375738-.6441224.805153-1.3419216 1.234568-2.0397209.644122-.9661835 1.180891-1.986044 1.771336-2.95222756.590446-.96618357 1.180891-1.98604401 1.771337-2.95222759h2.308105zm11.433172 0v.85882984h-5.958132v3.70370374h5.636071v.9125067h-5.636071v4.0794417h6.17284v.8588299h-7.622115v-10.41331188zm12.667741 10.46698868h-1.610306c-.214708-.375738-.483092-.8051529-.751477-1.2345679-.268384-.375738-.536768-.8051529-.751476-1.180891-.322061-.4294149-.536768-.8588298-.85883-1.3419216-.214707-.3220612-.429414-.5367687-.751476-.7514761-.375738-.2147075-.590445-.2683844-.751476-.2683844-.322061-.0536768-.536768-.1073537-1.127214-.1073537h-1.341922v4.8309179h-1.449275v-10.46698875h3.435319c1.502953 0 2.254429.1610306 3.005905.42941493.161031.05367686.429415.16103059.536769.26838432.644122.37573806 1.288244 1.01986044 1.288244 2.03972088 0 .21470746.053677.85882985-.751476 1.55662912-.214707.1610306-.483092.3220612-.697799.4294149-.85883.3757381-1.771337.4830918-1.986044.4830918.107354 0 .161031 0 .268384.0536769.322061 0 .912507.1610305 1.395599.7514761.268384.375738.483092.6977992.697799 1.0198604.322061.4294149.590446.9125067.85883 1.3419216zm-7.944177-5.7971014h1.610306c.805153 0 1.771337-.1073537 2.522813-.4830918.107354-.0536769.322061-.1610306.536769-.3220612.268384-.2147074.697799-.64412237.697799-1.23456788 0-.10735373 0-.37573806-.161031-.59044552-.268384-.53676865-.966183-.91250671-1.663982-1.07353731-.751477-.16103059-1.825014-.16103059-3.542674-.16103059zm10.520666-4.72356415h1.502952v10.46698875h-1.502952zm12.775094.05367687v.85882984h-5.958132v3.70370374h5.636071l-.053677.9125067h-5.636071v4.0794417h6.226516l-.053676.8588299h-7.622115v-10.41331188z" fill="#282c39"/></svg>