<svg height="100" viewBox="0 0 240 100" width="240" xmlns="http://www.w3.org/2000/svg"><g fill="#282c39" fill-rule="evenodd"><path d="m38.272 47.4497143c0-6.0725714-1.6954286-10.9771429-5.0805714-14.7125714-3.3868572-3.7337143-8.1514286-5.6028572-14.2948572-5.6028572-1.9565714 0-3.8748571.1234286-5.7588571.3662857-1.8862857.2457143-3.73600001.6805715-5.55085716 1.3091429v37.072c1.676.56 3.40285716 1.0325714 5.18457146 1.4142857 1.7794285.3857143 3.5062857.5754286 5.1822857.5754286 6.2131428 0 11.1531428-1.7617143 14.8182857-5.2885715 3.6651429-3.5228571 5.5-8.5691428 5.5-15.1331428zm-30.68514286 52.2582857h-7.22742857v-76.0297143c6.07542857-1.8845714 12.04342853-2.828 17.90800003-2.828 4.2582857 0 8.1331428.6651429 11.6251428 1.9897143 3.4897143 1.3268571 6.4748572 3.1782857 8.9542857 5.5508571 2.4771429 2.3748572 4.3805715 5.2017143 5.7074286 8.4822858 1.3251429 3.2822857 1.9897143 6.8434285 1.9897143 10.6822857 0 4.6788571-.8028571 8.6914285-2.408 12.044-1.608 3.3508571-3.7182857 6.1091428-6.336 8.272-2.6182857 2.1657143-5.604 3.756-8.9548571 4.7651428-3.3514286 1.0131429-6.7725715 1.5188572-10.2628572 1.5188572-1.8851428 0-3.7365714-.1417143-5.5502857-.4194286-1.816-.2777143-3.63028571-.6628571-5.44514286-1.1514286z" fill-rule="nonzero"/><path d="m61.2045714 73.736h7.3297143v-73.30628571h-7.3297143z"/><path d="m122.572571 42.32c0-2.1645714-.334285-4.1902857-.996-6.0748571-.666285-1.8845715-1.606857-3.4902858-2.827428-4.8165715-1.222857-1.3257143-2.812572-2.3914285-4.765714-3.1942857-1.954858-.8017143-4.224572-1.204-6.807429-1.204-2.653714 0-4.939429.4022857-6.858286 1.204-1.921714.8028572-3.4394283 1.8325714-4.5559997 3.0885714-1.1177143 1.2565715-2.1468572 2.8457143-3.0891429 4.7645715-.944 1.9217143-1.5554285 3.9982857-1.8331428 6.2325714zm5.864572 23.7714286c-2.446857 2.6554285-5.273143 4.6605714-8.483429 6.0205714-3.213143 1.3634286-7.086857 2.0434286-11.624571 2.0434286-4.188 0-7.855429-.7154286-10.9965716-2.1474286-3.1411428-1.4291429-5.7588571-3.3668571-7.8542857-5.8125714-2.0954286-2.4417143-3.6657143-5.2348572-4.7131428-8.3765715-1.0468572-3.1411428-1.5702858-6.4565714-1.5702858-9.9485714 0-4.6085714.6285715-8.604 1.8851429-11.9914286 1.256-3.3845714 2.9657143-6.196 5.1308571-8.4302857 2.1645715-2.2331428 4.676-3.8902857 7.5411429-4.9748571 2.860571-1.0811429 5.898857-1.6234286 9.109714-1.6234286 7.681143 0 13.473715 2.356 17.384572 7.0702857 3.907428 4.712 5.794285 11.5708572 5.656 20.5777143h-39.2720003c.2091429 5.936 1.9194286 10.648 5.1314286 14.1382857 3.2102857 3.4925715 7.5754287 5.2348572 13.0914287 5.2348572 3.070857 0 5.864-.504 8.376571-1.5182857 2.513715-1.0108572 4.780572-2.6337143 6.806857-4.8697143z" fill-rule="nonzero"/><path d="m177.878286 33.7314286c-1.828572-2.3028572-3.802286-3.9948572-5.925715-5.0782857-2.123428-1.0817143-4.646285-1.6228572-7.568571-1.6228572-3.730286 0-6.345143.664-7.843429 1.988-1.5 1.328-2.248 3.004-2.248 5.0268572 0 1.3982857.344572 2.5851428 1.042286 3.5617142.694857.9788572 1.606857 1.8165715 2.741714 2.5125715 1.132572.6988571 2.451429 1.3102857 3.950286 1.832 1.498286.524 3.052 1.0331428 4.662286 1.5205714 1.973143.6274286 3.948571 1.308 5.921143 2.0417143 1.977714.7325714 3.786285 1.6931428 5.433143 2.8794286 1.643428 1.188 2.978857 2.636 4.004 4.3457142 1.021714 1.712 1.534285 3.8588572 1.534285 6.44 0 2.3754286-.512571 4.5045715-1.534285 6.3891429-1.025143 1.8857143-2.414286 3.4731429-4.169143 4.764-1.755429 1.2954286-3.823429 2.2708571-6.2 2.9325714-2.376572.6628572-4.921143.996-7.625143.996-4.166286 0-7.861143-.6822857-11.077714-2.0417143-3.218858-1.3622857-6.252-3.6154285-9.105143-6.7554285l5.703428-5.0268572c3.802857 4.8885715 8.738857 7.332 14.810286 7.332 3.948571 0 6.874857-.7354285 8.774286-2.2005714 1.901714-1.4668571 2.853714-3.2468571 2.853714-5.3411429 0-1.6045714-.347429-2.9485714-1.041143-4.032-.697714-1.0811428-1.645714-2.0068571-2.853714-2.7748571-1.205714-.7685714-2.593143-1.4131429-4.168572-1.9371429-1.574285-.524-3.232-1.0291428-4.989714-1.5182857-1.977714-.5582857-3.933714-1.1874285-5.869143-1.8857143-1.94-.6965714-3.676571-1.5868571-5.209714-2.6708571-1.538286-1.0811429-2.798286-2.46-3.786286-4.136-.988571-1.6765714-1.480571-3.8045714-1.480571-6.3885714 0-4.6068572 1.680571-8.168 5.044571-10.6811429 3.362286-2.5148571 7.716572-3.7702857 13.058857-3.7702857 3.798858 0 7.182286.628 10.145715 1.8845714 2.961714 1.2571429 5.795428 3.456 8.5 6.5982857l-5.376 4.9217143z"/><path d="m204.673143 46.7182857 25.134857-25.3445714h9.844l-25.761143 25.1348571 25.657143 27.2274286h-10.159429zm-7.329143 27.0177143h7.329143v-73.20171429h-7.329143z" fill-rule="nonzero"/><path d="m42.5982857 99.708h44.1102857v-6.8965714h-44.1102857z"/></g></svg>