<svg height="51" viewBox="0 0 209 51" width="209" xmlns="http://www.w3.org/2000/svg"><path d="m90.2735769.47336.1369857 23.0135977c-2.448866-2.4219071-5.7539693-3.9728045-9.3150277-3.9728045-7.6220597 0-13.8355558 6.8659426-13.8355558 15.205632-.0000876 8.3453881 6.2134084 15.0684271 13.8355558 15.0684271 3.6056828-.0004383 6.854896-1.5009249 9.3150277-3.9728045v3.1508903h9.1780419v-48.4929381zm93.5612341 0v48.6297046h9.178042v-48.6297046zm15.616369 0v48.6297046h9.178262v-48.6297046zm-199.45118 2.32897609v46.16396201h9.86297046v-38.3559962l5.06847094.1367665c3.6272937 0 6.3014299 2.6853581 6.3013422 6.0273708 0 3.3424511-2.9479322 6.0278092-6.5753136 6.0273709h-2.1917712v11.0960609l9.7259847 15.0684271h11.6437846l-13.5615844-19.3147646c6.0874254-1.4575279 10.5478552-6.8659425 10.547899-13.2878322 0-7.54539158-6.1480059-13.56180356-13.8355558-13.56136521-.2357907 0-.4495323-.01139721-.6849285 0zm112.191289.27353305v46.02719546l20.410869-.1367665c7.814542-.126246 14.109528-6.0488502 14.109528-13.2873938-.000132-5.2602509-1.857614-8.8880706-8.082157-11.7812086 2.526323-2.3565924 4.109571-5.5670989 4.109571-9.0406179.000132-3.1456301-1.309627-6.08786375-3.424642-8.35634696-2.208166-2.42190719-6.103732-3.4248617-11.369813-3.4248617zm9.86297 7.94560896h6.164357c2.706925 0 4.931485 2.2242095 4.931485 4.9314853-.000087 2.7007005-2.22456 4.7942803-4.931485 4.7942803h-3.150671v8.356347h5.753399c3.276742 0 5.890385 2.613468 5.890385 5.8901659-.090344 2.5437697-1.332333 4.569843-3.424642 5.4794281-.697422.3033411-1.575358.4931485-2.465743.5479428h-8.767085zm-73.972278 8.0819372c-8.4277987.0004384-15.3423985 6.9483531-15.3423985 15.4796034-.0000877 8.5312503 6.914556 15.479165 15.3423985 15.479165 6.4326293 0 11.3859885-2.96985 13.9725415-7.5344327l-7.5342135-3.4244234c-.953552 2.0655252-3.1508465 3.5616283-5.7533995 3.5616283-3.4683464 0-6.3013422-2.5753312-6.3013422-5.7533995.0000438-.202958-.0216986-.2082182 0-.4111762h20.4108694c.0601422-.6299151.0056986-1.2545699 0-1.9173615.1424651-9.9944767-6.3676214-15.4796034-14.7944557-15.4796034zm101.780376 1.6438284v18.3560839c0 3.8974076 2.605139 7.4222141 6.438328 9.4517942.766637.4063544 1.603631.6733122 2.465742.9591191 1.724223.5716139 3.626023.9591191 5.616414.9591191 7.956042-.0004384 14.383499-5.1344432 14.383499-11.3700324v-18.3560839h-9.041057l-.136985 16.7122555c-.000088 2.7725906-2.295574 4.9314853-5.205457 4.9314853-2.915012 0-5.342442-2.159333-5.342442-4.9314853l.136985-16.7122555zm-101.780376 4.7942804c3.1129727 0 5.6164137 2.635824 5.6164137 5.7538378h-11.2328274c-.0000877-3.1175754 2.4987945-5.7538378 5.6164137-5.7538378zm35.6162822 1.5070619c3.7421425.0004383 6.8492851 3.2986156 6.8492851 7.3972278.0000877 4.0981738-3.1072741 7.5339944-6.8492851 7.5339944-1.4034787.0004383-2.7547495-.5698605-3.8355996-1.3694187-.3602833-.2669577-.6525779-.4865732-.9588999-.8223525-1.2253316-1.3422407-1.9177998-3.2929171-1.9177998-5.3422232-.0000877-4.0986122 2.969587-7.3972278 6.7122993-7.3972278z" fill="#fff"/></svg>