<?xml version="1.0" encoding="UTF-8"?>
<svg width="2008px" height="377px" viewBox="0 0 2008 377" version="1.1" xmlns="http://www.w3.org/2000/svg" xmlns:xlink="http://www.w3.org/1999/xlink">
    <!-- Generator: Sketch 52.5 (67469) - http://www.bohemiancoding.com/sketch -->
    <title>LogoSchuhe24SVG@3x</title>
    <desc>Created with Sketch.</desc>
    <g id="Page-1" stroke="none" stroke-width="1" fill="none" fill-rule="evenodd">
        <g id="LogoSchuhe24SVG" fill="#333537">
            <path d="M144,211 C144,203 143,197 139,193 C136,188 131,185 125,182 C119,179 113,177 105,175 C98,173 90,171 82,170 C72,167 62,164 52,161 C42,157 34,153 26,147 C19,141 13,133 9,124 C4,115 2,104 2,90 C2,75 5,61 10,50 C15,39 22,29 30,22 C39,15 49,9 61,6 C73,2 86,0 101,0 C115,0 130,1 145,4 C160,7 172,11 183,16 L183,61 C169,55 155,51 142,48 C129,46 117,44 105,44 C89,44 76,48 67,54 C58,60 53,70 53,82 C53,90 55,96 58,100 C61,105 65,109 70,112 C75,115 81,118 87,120 C94,121 101,123 108,125 C120,127 131,130 141,134 C152,137 161,142 170,148 C178,154 184,162 189,171 C194,181 196,193 196,208 C196,224 193,237 188,249 C182,260 175,269 165,277 C155,284 142,290 128,293 C113,297 98,299 81,299 C66,299 51,297 37,294 C22,291 10,287 0,281 L0,237 C14,243 27,247 40,250 C53,253 66,254 80,254 C88,254 96,253 103,252 C111,251 118,248 124,245 C130,242 135,237 139,232 C143,226 144,219 144,211 Z" id="Path"></path>
            <path d="M386,44 C373,44 360,47 348,52 C337,56 327,63 319,72 C310,81 304,92 299,106 C294,119 292,134 292,151 C292,168 294,183 299,196 C303,209 309,219 317,228 C325,237 334,243 346,248 C357,252 370,254 385,254 C395,254 406,253 417,252 C428,250 438,248 447,244 L447,289 C438,292 427,294 416,296 C405,298 393,299 382,299 C358,299 338,295 320,288 C302,281 288,271 276,259 C264,246 255,231 249,213 C243,195 240,176 240,154 C240,132 243,112 250,93 C256,75 265,58 277,45 C289,31 304,20 322,12 C340,4 361,0 383,0 C395,0 406,1 417,2 C427,4 436,6 445,9 L445,54 C434,50 423,48 414,47 C405,45 395,44 386,44 Z" id="1"></path>
            <polygon id="2" points="549 124 676 124 676 6 726 6 726 293 676 293 676 168 549 168 549 293 498 293 498 6 549 6"></polygon>
            <path d="M906,299 C892,299 879,297 867,294 C856,291 846,287 837,282 C828,276 821,269 814,261 C808,253 803,244 800,234 C797,226 794,217 793,208 C792,198 791,187 791,175 L791,6 L842,6 L842,170 C842,191 844,207 849,218 C854,231 862,240 871,246 C881,251 893,254 907,254 C920,254 932,251 942,246 C952,240 960,231 965,218 C969,207 972,191 972,170 L972,6 L1022,6 L1022,175 C1022,187 1022,198 1020,208 C1019,217 1017,226 1014,234 C1010,244 1005,253 999,261 C993,269 985,276 976,282 C967,287 957,291 945,294 C934,297 921,299 906,299 Z" id="3"></path>
            <polygon id="4" points="1137 124 1264 124 1264 6 1315 6 1315 293 1264 293 1264 168 1137 168 1137 293 1087 293 1087 6 1137 6"></polygon>
            <polygon id="5" points="1431 249 1566 249 1566 293 1381 293 1381 6 1559 6 1559 50 1431 50 1431 124 1541 124 1541 168 1431 168"></polygon>
            <path d="M1763,149 C1763,159 1761,169 1757,177 C1753,186 1748,195 1740,203 C1733,211 1725,219 1715,227 C1705,235 1695,243 1684,251 L1684,252 C1702,251 1716,250 1726,250 L1780,250 L1780,293 L1605,293 L1605,262 C1620,252 1634,242 1647,232 C1660,222 1671,212 1681,203 C1691,194 1698,185 1704,177 C1710,168 1713,160 1713,151 C1713,146 1712,142 1710,139 C1708,135 1706,132 1703,130 C1699,128 1696,126 1691,125 C1687,124 1682,124 1677,124 C1667,124 1656,125 1644,129 C1633,132 1620,137 1607,143 L1607,100 C1612,97 1617,95 1622,93 C1628,90 1634,88 1640,86 C1647,84 1654,83 1661,82 C1668,80 1676,80 1684,80 C1695,80 1706,81 1716,84 C1726,87 1734,92 1741,97 C1748,103 1753,110 1757,119 C1761,128 1763,137 1763,149 Z" id="6"></path>
            <path d="M1862,251 L1863,252 C1874,251 1887,250 1902,250 L1923,250 L1923,197 L1972,197 L1972,250 L2008,250 L2008,293 L1972,293 L1972,377 L1923,377 L1923,293 L1810,293 L1810,257 L1885,85 L1935,85 L1862,251 Z" id="7"></path>
        </g>
    </g>
</svg>