<svg height="100" viewBox="0 0 281 100" width="281" xmlns="http://www.w3.org/2000/svg"><g fill="#fff"><path d="m126.483516 61.4285714c0 2.3076923.659341 4.1758242 2.087913 5.3846154 1.428571 1.2087912 3.076923 1.8681319 4.945055 1.8681319 1.868131 0 3.516483-.6593407 4.945054-1.978022 1.428572-1.3186813 2.087913-3.0769231 2.087913-5.2747253v-39.7802198c0-2.1978021-.769231-3.9560439-2.197803-5.2747252-1.428571-1.3186813-3.076923-1.8681319-4.835164-1.8681319-1.868132 0-3.516484.6593407-4.945055 1.8681319-1.428572 1.3186813-2.087913 3.0769231-2.087913 5.2747252zm7.032968-61.20879118c2.637362 0 5.274725.54945055 7.582417 1.53846154s4.505495 2.41758242 6.483517 4.39560439c1.868131 1.86813187 3.406593 3.84615385 4.395604 6.04395605 1.098901 2.7472527 1.538462 5.8241758 1.538462 9.4505494v39.7802198c0 6.0439561-1.758242 11.0989011-5.384616 15.1648352-1.428571 1.5384615-3.076923 2.7472527-4.835165 3.7362637-2.857143 1.4285715-6.263736 1.978022-10.10989 1.7582418-2.747253-.2197802-5.054945-1.5384616-6.703297-3.956044v20.8791209h-13.076923v-78.4615385c0-5.4945054 1.978022-10.3296703 6.043956-14.28571424 1.868132-1.86813186 3.956044-3.29670329 6.153847-4.28571428 2.417582-1.0989011 5.054945-1.75824176 7.912088-1.75824176zm-27.252748 80.54945058h-13.0769228v-58.9010989h13.0769228zm-25.8241756-74.0659341c4.0659341 3.956044 6.0439561 8.5714286 6.0439561 14.0659341v60h-13.0769231v-59.1208792c0-1.9780219-.6593407-3.7362637-2.0879121-5.1648351s-3.0769231-2.0879121-4.9450549-2.0879121c-1.978022 0-3.6263737.6593407-4.945055 2.0879121-1.4285714 1.4285714-2.0879121 3.1868132-2.0879121 5.2747253v59.1208791h-13.076923v-59.7802198c0-5.4945055 1.9780219-10.3296703 6.043956-14.28571429 4.0659341-3.95604395 8.7912088-5.93406593 14.0659341-5.93406593 5.3846154-.10989011 10 1.86813187 14.065934 5.82417582zm92.3076926 14.7252747c0-2.0879121.65934-3.8461538 2.087912-5.2747252 1.428571-1.4285715 3.076923-2.0879121 5.164835-2.0879121 1.868132 0 3.626374.6593406 5.054945 2.0879121 1.428571 1.4285714 2.197802 3.1868131 2.197802 5.2747252v7.4725275h-14.395604v-7.4725275zm27.362637 19.7802198v-20.7692308c0-5.3846153-2.087912-10.1098901-6.153846-14.06593403-4.065934-3.95604395-8.791209-5.93406593-14.175824-5.93406593-5.824176 0-10.659341 1.86813187-14.395605 5.71428571-3.736263 3.84615385-5.604395 8.68131865-5.604395 14.50549455v40.5494505c0 5.8241758 1.868132 10.6593407 5.714285 14.5054945 3.736264 3.8461539 8.571429 5.7142857 14.285715 5.7142857 5.604395 0 10.21978-1.7582417 13.956044-5.3846154 3.516483-3.2967033 5.604395-7.5824175 6.043956-12.7472527h.10989v-12.6373626h-13.186813v11.8681318c-.879121 3.7362638-3.186813 5.4945055-7.032967 5.4945055-1.978022 0-3.626374-.6593406-4.945055-2.0879121-1.428572-1.4285714-2.087912-3.1868132-2.087912-5.2747252v-19.4505495zm-165.8241757-6.1538461c-3.956044-3.6263737-8.6813187-5.6043956-14.2857143-5.934066-2.0879121-.2197802-3.8461538-.989011-5.0549451-2.4175824-1.3186813-1.4285714-1.8681318-3.0769231-1.8681318-4.9450549 0-1.8681319.6593406-3.6263737 1.8681318-5.1648352 1.2087913-1.5384615 2.967033-2.1978022 5.1648352-2.1978022 3.956044 0 6.2637363 1.8681319 7.032967 5.6043956h13.0769231c0-5.4945055-2.0879121-10.10989011-6.1538461-13.73626374-4.0659341-3.62637362-8.7912088-5.38461538-13.956044-5.38461538-5.4945055 0-10.21978021 1.97802198-14.06593406 6.04395604-4.06593406 4.06593408-6.04395604 9.01098898-6.04395604 14.83516488 0 5.8241758 1.86813187 10.7692307 5.71428571 14.7252747 3.84615385 3.9560439 8.57142859 6.043956 14.17582419 6.1538461 2.3076923 0 4.0659341.5494506 5.3846154 1.6483517 1.2087912 1.0989011 1.8681318 2.7472527 1.8681318 4.9450549v11.6483517c0 1.978022-.5494505 3.7362637-1.6483516 5.2747253-1.0989011 1.5384615-2.967033 2.1978022-5.4945055 2.1978022-3.5164835 0-5.7142857-1.7582418-6.7032967-5.1648352v-12.3076923h-13.2967033v12.0879121c.54945055 5.054945 2.74725275 9.5604395 6.59340659 13.1868132 3.84615381 3.7362637 8.35164831 5.7142857 13.29670331 5.7142857 6.043956 0 10.989011-1.8681319 14.7252747-5.7142857 3.7362638-3.7362638 5.6043956-8.5714286 5.6043956-14.2857143v-12.7472528c0-5.7142857-1.978022-10.4395604-5.9340659-14.065934zm205.7142857-.2197803c-3.956044-3.6263736-8.681319-5.6043956-14.285714-5.9340659-2.087912-.2197802-3.846154-.989011-5.054945-2.4175824-1.318682-1.4285714-1.868132-3.0769231-1.868132-4.945055 0-1.8681318.65934-3.6263736 1.868132-5.1648351 1.208791-1.5384616 2.967033-2.1978022 5.164835-2.1978022 3.956044 0 6.263736 1.8681318 7.032967 5.6043956h13.076923c0-5.4945055-2.087912-10.10989013-6.153846-13.73626376-4.065934-3.62637362-8.791209-5.38461538-13.956044-5.38461538-5.494506 0-10.21978 1.97802198-14.175824 6.04395604-3.846154 4.0659341-5.824176 9.010989-5.824176 14.8351648 0 5.8241759 1.868132 10.7692308 5.714286 14.7252748 3.846153 3.9560439 8.571428 6.043956 14.175824 6.1538461 2.307692 0 4.175824.5494506 5.384615 1.5384616 1.208791 1.0989011 1.868132 2.7472527 1.868132 4.9450549v11.6483516c0 1.978022-.549451 3.7362638-1.648352 5.2747253-1.098901 1.5384616-2.967033 2.1978022-5.494505 2.1978022-3.516484 0-5.824176-1.7582417-6.703297-5.2747253v-12.087912h-13.186813v12.087912h.10989c.549451 5.0549451 2.747253 9.5604396 6.593407 13.1868132 3.846153 3.7362638 8.351648 5.7142857 13.296703 5.7142857 6.043956 0 10.989011-1.8681318 14.615385-5.7142857 3.736263-3.7362637 5.604395-8.5714285 5.604395-14.2857143v-12.7472527c-.21978-5.8241758-2.197802-10.4395604-6.153846-14.0659341z"/><path d="m280.32967 23.7362637c0 3.1868132-2.637362 5.7142858-5.714285 5.7142858h-18.021978c-3.186814 0-5.714286-2.6373627-5.714286-5.7142858v-18.02197799c0-3.18681318 2.637363-5.71428571 5.714286-5.71428571h18.021978c3.186813 0 5.714285 2.63736264 5.714285 5.71428571zm-176.263736-23.18681315c1.428571 0 2.637363 1.20879121 2.637363 2.63736264v7.47252751c0 1.4285714-1.208792 2.6373626-2.637363 2.6373626h-8.1318681c-1.4285714 0-2.6373626-1.2087912-2.6373626-2.6373626v-7.47252751c0-1.42857143 1.2087912-2.63736264 2.6373626-2.63736264z"/></g></svg>