<svg height="100" viewBox="0 0 440 100" width="440" xmlns="http://www.w3.org/2000/svg"><path d="m430.973451 90.9292035 1.659292 2.5442478h-3.318584l-1.106194-2.1017699c-.663717-1.3274336-1.327434-2.2123894-1.769912-2.6548672-.553097-.4424779-1.106195-.7743363-1.99115-.7743363h-.774337v5.5309734h-2.654867v-13.3849557h6.30531c1.548672 0 2.654867.3318584 3.429203 1.1061947.663717.6637168.995576 1.659292.995576 2.6548672 0 1.1061947-.331859 1.880531-.884956 2.5442478s-1.438053 1.1061947-2.654867 1.3274336c.553097.221239 1.106194.5530974 1.327433.8849558s.663717 1.1061947 1.438053 2.3230088zm-5.199115-4.7566371c1.106195 0 1.991151-.221239 2.21239-.4424779.442478-.3318584.774336-.7743363.774336-1.4380531 0-.5530973-.221239-.9955752-.663717-1.3274336-.442478-.221239-1.106195-.4424779-1.99115-.4424779h-2.544248v3.6504425zm-333.7389378-8.8495576v-37.1681415c0-4.0929204-.2212389-6.7477877-.6637168-7.8539823-.4424779-.9955753-1.4380531-1.5486726-2.8761062-1.5486726-1.5486725 0-2.5442478.4424779-2.9867256 1.5486726-.4424779 1.1061946-.7743363 3.6504424-.7743363 7.8539823v36.2831858c0 3.7610619.3318584 6.3053097.7743363 7.4115044.4424778 1.2168142 1.4380531 1.7699115 2.8761062 1.7699115 1.438053 0 2.4336283-.5530973 2.8761061-1.5486725.4424779-.9955753.7743363-3.2079646.7743363-6.7477877zm24.6681418-31.1946902-.11062 19.4690265c0 7.1902655-.331858 12.6106195-1.106194 15.9292036-.663717 3.4292035-2.21239 6.5265486-4.646018 9.5132743-2.323009 2.9867257-5.420354 5.0884956-9.181416 6.5265487-3.7610619 1.3274336-8.0752212 2.1017699-12.9424778 2.1017699-5.420354 0-10.0663717-.5530974-13.8274337-1.7699115-3.8716814-1.2168142-6.7477876-2.9867257-8.8495575-5.420354-1.9911504-2.4336283-3.539823-5.3097345-4.4247788-8.738938-.8849557-3.4292036-1.3274336-8.5176992-1.3274336-15.3761062v-20.6858407c0-7.5221239.8849558-13.3849558 2.4336283-17.5884956 1.5486726-4.2035398 4.5353983-7.5221239 8.7389381-10.1769912 4.2035398-2.4336283 9.5132743-3.7610619 16.1504425-3.7610619 5.5309734 0 10.2876106.8849557 14.2699115 2.5442478 3.982301 1.659292 7.079646 3.7610619 9.181416 6.4159292 2.212389 2.6548672 3.539823 5.420354 4.424779 8.1858407.884955 2.8761062 1.216814 7.079646 1.216814 12.8318584zm8.517699-46.1283186h25.221239v98.5619469h-25.221239zm195.353982 77.3230088v-37.1681415c0-4.0929204-.221239-6.7477877-.663717-7.8539823-.442477-.9955753-1.438053-1.5486726-2.876106-1.5486726-1.548672 0-2.544248.4424779-2.986725 1.5486726-.442478 1.1061946-.774337 3.6504424-.774337 7.8539823v36.2831858c0 3.7610619.331859 6.3053097.774337 7.4115044.442477 1.2168142 1.438053 1.7699115 2.876106 1.7699115s2.433628-.5530973 2.876106-1.5486725c.442478-.9955753.774336-3.2079646.774336-6.7477877zm24.557522-31.1946902-.110619 19.4690265c0 7.1902655-.331859 12.6106195-1.106195 15.9292036-.663717 3.4292035-2.212389 6.5265486-4.646017 9.5132743-2.323009 2.9867257-5.420354 5.0884956-9.181416 6.5265487-3.761062 1.3274336-8.075222 2.1017699-12.942478 2.1017699-5.420354 0-9.955753-.5530974-13.827434-1.7699115-3.871681-1.2168142-6.747788-2.9867257-8.849557-5.420354-1.991151-2.4336283-3.539823-5.3097345-4.424779-8.738938-.884956-3.4292036-1.327434-8.5176992-1.327434-15.3761062v-20.6858407c0-7.5221239.884956-13.3849558 2.433628-17.5884956 1.548673-4.2035398 4.535399-7.5221239 8.738939-10.1769912 4.203539-2.4336283 9.513274-3.7610619 16.150442-3.7610619 5.530973 0 10.287611.8849557 14.269912 2.5442478 3.9823 1.659292 7.079646 3.7610619 9.181415 6.4159292 2.21239 2.6548672 3.539823 5.420354 4.424779 8.1858407.884956 2.8761062 1.216814 7.079646 1.216814 12.8318584zm-291.2610616 28.539823c0 6.6371681-.7743363 11.5044248-2.4336283 14.9336283-1.659292 3.4292036-4.5353982 5.9734513-8.5176991 7.7433628s-8.8495575 2.6548673-14.4911505 2.6548673c-6.3053097 0-11.6150442-.8849558-16.039823-2.8761062-4.42477873-1.880531-7.52212386-4.5353982-9.1814159-7.8539823-1.65929203-3.2079646-2.54424779-8.4070796-2.54424779-15.0442478v-3.8716814h21.79203539v5.0884956c0 4.3141593.3318584 7.079646.8849558 8.4070796.5530973 1.3274337 1.659292 1.9911505 3.2079646 1.9911505 1.7699115 0 2.9867256-.4424779 3.6504424-1.3274337.6637169-.8849557.9955753-2.7654867.9955753-5.5309734 0-3.9823009-.4424779-6.4159292-1.3274337-7.300885-.8849557-.8849557-5.7522124-3.7610619-14.2699115-8.6283186-7.19026545-4.0929203-11.61504422-7.7433628-13.16371678-11.0619469-1.54867257-3.4292035-2.43362832-7.3008849-2.43362832-11.8362831 0-6.5265487.88495575-11.2831859 2.54424779-14.4911505 1.65929203-3.0973451 4.53539823-5.420354 8.62831861-7.079646 4.0929203-1.659292 8.960177-2.5442478 14.2699115-2.5442478s9.8451327.5530974 13.6061947 1.9911505c3.6504424 1.438053 6.6371681 3.2079646 8.6283186 5.4203539 1.9911504 2.2123894 3.2079646 4.2035399 3.6504424 6.1946903.4424779 1.880531.6637168 4.8672566.6637168 8.960177v4.7566372h-21.7920354v-4.3141593c0-3.8716814-.2212389-6.1946903-.6637168-7.1902655-.4424778-.9955752-1.5486725-1.4380531-3.2079646-1.4380531-1.4380531 0-2.4336283.5530973-3.0973451 1.4380531-.6637168.8849557-.9955752 2.2123894-.9955752 4.0929203 0 2.5442478.2212389 4.4247788.5530973 5.5309735s1.3274336 2.3230088 3.0973452 3.7610619c1.659292 1.4380531 5.199115 3.4292036 10.619469 6.0840708 7.1902655 3.4292036 11.8362832 6.7477876 14.0486725 9.8451328 2.2123894 3.0973451 3.3185841 7.6327433 3.3185841 13.4955752zm202.4336286.1106195v-33.8495576c0-4.2035398-.331859-6.858407-.884956-8.1858407-.553097-1.3274336-1.659292-1.9911504-3.207965-1.9911504-1.548672 0-2.544247.5530973-2.986725 1.659292s-.663717 3.9823009-.663717 8.4070797v34.6238938c0 4.4247787.331858 7.1902655.774336 8.4070796.553098 1.2168142 1.659292 1.880531 3.097345 1.880531 1.659292 0 2.654868-.5530973 3.097345-1.880531.442478-1.2168141.774337-4.2035398.774337-9.0707964zm24.557522-35.0663717v36.3938053c0 5.8628318-.442478 10.2876106-1.216814 13.1637168-.774337 2.8761062-2.654868 5.420354-5.530974 7.5221239-2.876106 2.2123894-6.415929 3.2079646-10.39823 3.2079646-2.876106 0-5.530973-.5530973-8.075221-1.880531-2.544248-1.3274336-4.867257-3.0973451-6.858407-5.6415929l-1.548673 6.0840708h-23.008849v-98.5619469h24.668141v23.5619469c1.991151-2.4336283 4.20354-4.2035398 6.747788-5.3097345 2.544248-1.2168142 5.309734-1.7699115 8.185841-1.7699115 3.318584 0 6.19469.5530973 8.738938 1.5486726 2.433628 1.1061946 4.314159 2.4336283 5.641593 4.4247787 1.327433 1.7699115 1.99115 3.6504425 2.323008 5.5309735.221239 1.8805309.331859 5.7522124.331859 11.7256637zm145.685841 57.4115044c2.654867 0 5.088495-1.1061947 6.858407-2.9867257 1.99115-2.1017699 2.986725-4.4247787 2.986725-7.1902654 0-1.9911505-.442478-3.761062-1.438053-5.3097346-.884956-1.659292-2.212389-2.7654867-3.761062-3.6504424-1.548672-.8849558-2.986725-1.2168142-4.424778-1.2168142-3.207965 0-5.530974 1.1061947-7.522124 3.0973451-1.991151 2.1017699-2.876107 4.4247788-2.876107 7.0796461 0 2.8761061.995576 5.199115 2.986726 7.1902654 2.10177 1.9911505 4.424779 2.9867257 7.190266 2.9867257zm12.5-10.1769911c0 3.4292035-1.216815 6.4159292-3.650443 8.8495575-2.433628 2.5442478-5.420354 3.7610619-8.849557 3.7610619-3.539823 0-6.526549-1.3274336-8.960177-3.7610619-2.544248-2.5442478-3.761062-5.5309735-3.761062-8.960177 0-2.3230089.663716-4.6460177 1.99115-6.6371682 1.327434-1.9911504 2.876106-3.539823 4.867257-4.4247787 1.99115-.9955752 3.761062-1.4380531 5.420354-1.4380531 3.761062 0 6.858407 1.2168141 9.292035 3.7610619s3.650443 5.5309735 3.650443 8.8495576zm-34.623894 11.6150442h-23.893806c-2.433628-10.619469-4.203539-19.800885-5.420354-27.5442478-1.659292 9.6238938-3.429203 18.8053097-5.420354 27.5442478h-20.575221l10.730089-42.1460177-10.730089-38.6061947h20.575221c3.429204 16.4823009 5.088496 25.8849558 5.420354 28.0973451 2.433629-13.8274336 4.20354-23.119469 5.420354-28.0973451h21.792036l-9.734513 38.6061947zm-213.384956-52.1017699v-5.8628319c0-4.2035398-.221239-6.858407-.663717-8.0752212s-1.327433-1.880531-2.765487-1.880531c-1.769911 0-2.876106.5530974-3.207964 1.5486726-.442478 1.1061947-.663717 3.8716814-.663717 8.4070796v5.8628319zm24.557522 2.5442478h-.110619v10.5088495h-31.858407v17.4778761c0 3.6504425.331858 6.0840708.884955 7.0796461.553098.9955752 1.659292 1.5486725 3.097345 1.5486725 1.880531 0 3.097346-.6637168 3.761062-2.1017699.553098-1.4380531.884956-4.0929203.884956-8.0752212v-10.7300885h23.340708v5.9734513c0 4.9778761-.221239 8.8495575-.884956 11.5044248-.663716 2.5442478-2.10177 5.420354-4.424778 8.5176991-2.323009 3.0973451-5.309735 5.420354-8.849558 6.8584071-3.539823 1.5486725-7.964602 2.3230088-13.384956 2.3230088-5.199115 0-9.734513-.7743363-13.716814-2.2123893-3.982301-1.4380531-7.079646-3.4292036-9.292035-6.0840708-2.21239-2.5442478-3.761062-5.420354-4.646018-8.6283186-.884956-3.0973452-1.327434-7.6327434-1.327434-13.7168142v-23.4513274c0-7.079646.884956-12.6106195 2.876107-16.7035398 1.99115-4.0929204 5.088495-7.300885 9.402655-9.4026549 4.203539-2.1017699 9.292035-3.2079646 14.933628-3.2079646 6.969026 0 12.721239 1.2168141 17.146018 3.8716814 4.535398 2.5442478 7.743362 6.0840708 9.513274 10.3982301 1.769911 4.3141593 2.654867 10.3982301 2.654867 18.2522124z" fill="#282c39"/></svg>