<svg width="116" height="32" viewBox="0 0 116 32" fill="none" xmlns="http://www.w3.org/2000/svg">
<path fill-rule="evenodd" clip-rule="evenodd" d="M30.2294 32C22.117 32 18.0608 23.9103 18.0608 16.6309C18.0608 9.77159 21.7202 0 31.5206 0C32.5493 0 33.66 0.113403 34.6466 0.476565C34.8356 0.545849 34.695 0.76844 34.695 0.76844C34.695 0.76844 34.5334 1.03505 34.3317 1.24922L34.3088 1.27433C34.1858 1.40943 33.8776 1.74786 33.5969 1.73221C31.4072 1.6167 29.862 2.07231 29.2804 2.3327C27.1222 3.30058 25.8499 4.66109 24.7833 6.49196C23.1248 9.33903 22.4508 12.8874 22.4508 16.8955C22.4508 23.1125 25.3838 29.4385 30.5653 29.4385C36.2654 29.4385 38.9612 22.3817 38.9612 16.2992C38.9612 9.41885 36.1268 5.24695 32.0916 5.24695C30.3953 5.24695 29.1125 5.6794 27.4476 6.50881C27.3385 6.56335 26.9941 6.65149 27.1999 6.25684C27.6806 5.32877 29.06 3.13474 33.3366 3.13474C40.6701 3.13474 42.6772 10.8256 42.6772 16.2803C42.6793 24.3239 37.4348 32 30.2294 32ZM16.9335 27.1164C18.4221 27.1164 18.9469 28.0171 18.9469 29.1068C18.9469 29.9277 18.4829 31.1308 16.9503 31.1308C15.5919 31.1308 14.9054 30.1923 14.9054 29.174C14.9033 27.931 15.678 27.1164 16.9335 27.1164ZM106.351 19.2965C106.51 18.9263 109.379 12.2562 114.731 12.816L114.745 12.8172C114.837 12.8257 115.179 12.8574 115.374 12.9566C115.435 12.9881 115.491 13.0764 115.491 13.1729C115.491 13.45 115.315 13.7272 115.134 13.9834C114.496 14.8925 113.329 16.4777 113.287 16.4777C107.536 16.3918 106.744 22.2521 106.568 23.5537L106.566 23.566C106.445 24.4709 106.445 25.2708 106.453 25.7831C106.458 25.9952 106.456 29.281 106.445 29.4574C106.418 29.8543 106.386 30.1796 106.061 30.3078C105.886 30.375 105.229 30.4673 104.656 30.4673C103.789 30.4673 103.434 30.3477 103.317 30.2951C102.892 30.1058 102.88 29.7555 102.866 29.3306L102.863 29.2621C102.859 29.1446 102.855 26.2996 102.855 25.0293C102.855 25.0293 99.8964 30.8872 93.9485 30.7003C87.5012 30.4977 86.9859 23.8791 86.9365 23.2447C86.9342 23.2156 86.9329 23.199 86.9321 23.1964C84.6717 22.7475 83.3991 21.9535 83.2078 21.8342L83.1866 21.8211C83.1767 21.8518 83.1606 21.905 83.1384 21.9783C82.7452 23.2786 80.4422 30.8935 76.5964 30.8935C73.6723 30.8935 71.955 26.5351 71.4704 25.3053C71.4505 25.2547 71.4327 25.2095 71.4169 25.17C71.4136 25.165 71.4077 25.1745 71.3888 25.2045L71.3707 25.233C68.7863 29.4889 66.0969 30.9398 64.4131 30.9398C61.604 30.9398 60.611 27.8092 60.4241 26.0791H60.4136C59.6389 27.4817 56.2482 30.9691 52.8029 30.9691C48.9295 30.9691 47.3905 26.3731 47.0462 25.3107C46.7229 25.5542 44.3274 26.9568 42.1271 27.4586C42.0138 27.4838 41.9697 27.4396 41.9928 27.3683C42.0054 27.3285 42.039 27.255 42.0662 27.1982C42.2792 26.7511 42.4701 26.2412 42.6277 25.8201C42.6877 25.6599 42.7429 25.5125 42.7926 25.3863C42.9123 25.0839 42.9607 25.0314 43.0699 24.9831C43.146 24.9486 43.2395 24.9126 43.3231 24.8804L43.3232 24.8804L43.3616 24.8656C44.8732 24.2903 46.2967 23.356 46.6053 23.0662L46.6019 23.0409C46.5994 23.0222 46.5973 23.0051 46.5955 22.99L46.5955 22.99C46.5928 22.9676 46.5906 22.9499 46.5885 22.9382C46.5763 22.8535 46.5591 22.7441 46.5383 22.6113C46.3797 21.6016 46.0091 19.2425 46.0091 16.1586C46.0091 9.2571 47.6299 1.87697 52.7904 1.87697C56.8991 1.87697 57.447 6.29251 57.3987 9.20255C57.261 17.634 52.8998 21.4531 50.7551 23.3313L50.6216 23.4483C50.5734 23.4904 50.5502 23.5176 50.5523 23.5282C50.9764 25.1113 51.7994 28.0969 54.134 28.0654C56.1223 28.038 59.2862 25.17 60.065 22.3607C60.065 22.3607 60.2897 21.7581 60.2876 18.7515L60.2876 18.7212V18.7209V18.7206C60.2855 17.6479 60.2834 16.5951 60.2855 15.4846C60.2855 15.3817 60.296 15.052 60.5941 14.8399C61.2458 14.378 62.6282 13.6619 63.3426 13.2919L63.4264 13.2485C63.6195 13.1497 63.8399 13.1561 63.9722 13.261C64.1213 13.3808 64.1443 13.5445 64.1654 13.7439C64.2383 14.4401 64.1396 16.6841 64.078 18.0861L64.0779 18.0867C64.0544 18.6212 64.0363 19.0333 64.0352 19.1903C64.0314 19.7074 64.0206 20.2047 64.01 20.6968V20.6969V20.697V20.6972V20.6974C63.9914 21.56 63.9731 22.4064 63.9932 23.314L63.9973 23.5109V23.511C64.0161 24.442 64.0351 25.3812 64.2115 26.2912L64.2183 26.327C64.2949 26.736 64.5983 28.3546 66.1052 27.8827C67.5665 27.425 70.1446 24.4897 70.405 21.3887C70.405 21.3887 70.1909 17.055 70.1803 15.642L70.18 15.6231L70.1788 15.5872C70.1742 15.451 70.1637 15.1394 70.2223 14.9722C70.2728 14.8315 70.3357 14.7392 70.4785 14.6489C71.0642 14.2772 72.8005 13.1813 73.4093 12.9167C73.5427 12.8588 73.6209 12.8559 73.6685 12.8542L73.6802 12.8538C73.9301 12.8411 74.0686 13.0826 74.0581 13.4122C74.0521 13.6047 74.0408 13.8093 74.0291 14.0217C74.0201 14.1848 74.0108 14.3524 74.0035 14.5229C73.5899 24.6724 76.674 27.5258 77.4193 27.5258C79.0674 27.5258 80.3083 23.9145 80.9465 21.8715C80.9599 21.8275 80.9847 21.7505 81.0157 21.6542C81.1356 21.2823 81.3479 20.6233 81.3496 20.4732C81.3517 20.3577 81.2845 20.2339 81.1964 20.1205C79.9429 18.5247 79.6343 16.8577 79.5671 15.6882C79.5209 14.8925 79.8863 14.0631 80.9822 13.2779C81.5553 12.8663 82.5295 12.2323 83.0796 12.2323C83.4344 12.2323 83.7829 12.4087 83.9025 12.9881C84.2469 14.6615 83.89 18.403 83.8038 19.0916C83.7829 19.2659 83.7955 19.4213 83.9403 19.5557C83.9403 19.5557 85.1832 20.6349 86.9699 21.1997C86.9699 21.1997 86.9741 21.1829 86.9762 21.1555C87.3078 17.1348 89.5963 12.5367 94.4209 12.5367C97.8829 12.5367 99.1595 14.9491 99.1595 17.0466C99.1595 20.7861 95.5672 23.2321 90.8413 23.3896C90.73 23.3938 90.6272 23.3979 90.6629 23.5617C90.9547 24.8677 91.9058 27.952 95.0381 27.952C96.7472 27.952 98.3617 27.383 100.53 24.8866C101.351 23.8494 101.932 22.8626 102.338 21.8044C102.667 20.9428 102.698 20.5496 102.729 20.1659L102.735 20.0911C102.735 20.0911 102.821 18.9972 102.802 16.9123C102.8 16.7243 102.793 16.4204 102.784 16.0916L102.784 16.089V16.0889V16.0885C102.773 15.6358 102.76 15.1367 102.76 14.8295C102.76 14.1429 104.614 13.0784 105.647 12.6941C106.239 12.4738 106.373 13.1897 106.399 13.385C106.526 14.3598 106.45 16.3212 106.4 17.6299C106.375 18.2549 106.357 18.731 106.369 18.8796L106.344 19.3121L106.351 19.2965ZM54.7786 9.2571C54.7786 6.67253 54.4805 4.45112 52.9206 4.45112C50.3214 4.45112 49.8364 11.7556 49.8364 15.0416C49.8364 18.4848 50.2038 20.7335 50.2038 20.7335C53.2313 18.0355 54.7786 13.576 54.7786 9.2571ZM94.358 15.1549C91.2696 15.1549 90.4907 19.1799 90.4361 21.3361C90.4319 21.4852 90.5159 21.5041 90.6335 21.4978C94.9059 21.2879 96.4281 19.2365 96.5288 17.6724C96.6191 16.2887 95.9178 15.1549 94.358 15.1549ZM9.29155 26.9358C9.33977 26.2891 9.15509 25.7957 8.82122 25.4241C8.30925 24.8521 7.48611 24.3888 7.15194 24.2007C7.12298 24.1844 7.09769 24.1701 7.07659 24.1581C6.20893 23.6598 5.31757 23.23 4.52574 22.8482C4.11622 22.6507 3.73332 22.4661 3.39409 22.2915C2.72436 21.9472 2.10921 21.5188 1.71451 21.0695C1.06367 20.3347 0.755046 19.4003 0.755046 18.3085C0.755046 15.6631 2.61729 13.0826 6.94014 12.7362C7.26137 12.711 8.15569 12.669 9.08792 12.8181C9.8101 12.9336 10.7758 13.1729 11.8276 13.6894C12.0124 13.7797 12.3231 13.9477 12.5604 14.1093C12.6213 14.1492 12.7136 14.2185 12.7662 14.2962C12.8019 14.3487 12.7829 14.4054 12.7599 14.4411C12.7094 14.5208 12.6612 14.5755 12.6339 14.6027C12.1594 15.0835 11.3427 15.8583 11.0194 16.0347L11.0053 16.0425C10.9676 16.0639 10.906 16.0987 10.8136 16.0914C10.7444 16.0856 10.6627 16.0374 10.6108 16.0068L10.5974 15.999C10.5559 15.9733 10.4864 15.9291 10.4137 15.8828C10.3139 15.8192 10.2081 15.7519 10.1607 15.7239C9.16973 15.1403 8.13264 14.9303 7.4251 14.9303C5.17655 14.9324 4.57399 16.1102 4.47322 16.8682C4.42283 17.2483 4.39763 18.1994 5.3697 18.9258C5.7497 19.2093 6.76167 19.7405 7.13534 19.9042C7.24841 19.9542 7.36468 20.0052 7.48347 20.0573C9.00123 20.7226 10.9296 21.5679 11.8487 22.8394C12.4743 23.7045 12.7535 24.6221 12.7535 25.5333C12.7535 26.9023 11.9663 28.5672 10.4273 29.6947C9.19489 30.5975 7.79045 30.9755 5.89037 30.9755C4.78814 30.9755 2.99099 30.7046 1.60534 30.1251C1.3744 30.0286 0.788633 29.7787 0.286859 29.4196L0.284596 29.418C0.24944 29.3926 -0.0211756 29.1972 0.00133701 28.9619C0.0139295 28.8255 0.0832094 28.6869 0.234372 28.5231C0.486318 28.248 1.29461 27.5993 1.58014 27.4103C1.63263 27.3746 1.68091 27.3579 1.7481 27.3515C1.83208 27.3431 1.90976 27.3788 1.91816 27.383C4.00924 28.5063 5.50406 28.8675 6.57268 28.8675C8.05072 28.8696 9.20753 28.0612 9.29155 26.9358ZM62.7169 11.0334C63.8779 11.0334 64.8205 10.1495 64.8205 9.05978C64.8205 7.97008 63.8779 7.08613 62.7169 7.08613C61.5559 7.08613 60.6132 7.97008 60.6132 9.05978C60.6132 10.1495 61.5559 11.0334 62.7169 11.0334Z" fill="white"/>
</svg>
