<?xml version="1.0" encoding="UTF-8"?>
<svg width="187px" height="48px" viewBox="0 0 187 48" version="1.1" xmlns="http://www.w3.org/2000/svg" xmlns:xlink="http://www.w3.org/1999/xlink">
    <!-- Generator: Sketch 52.5 (67469) - http://www.bohemiancoding.com/sketch -->
    <title>logo-stylefile-flat@3x</title>
    <desc>Created with Sketch.</desc>
    <g id="Page-1" stroke="none" stroke-width="1" fill="none" fill-rule="evenodd">
        <g id="Grafiken" transform="translate(-742.000000, -1377.000000)" fill="#ffffff" fill-rule="nonzero">
            <g id="logo-stylefile-flat" transform="translate(742.000000, 1377.000000)">
                <g id="Logo_flag_with_claim">
                    <g id="Group">
                        <path d="M138.674277,10.5771735 C136.440384,10.5771735 134.578807,8.71728086 134.578807,6.48540966 C134.578807,4.25353846 136.440384,2.3936458 138.674277,2.3936458 C140.90817,2.3936458 142.769747,4.25353846 142.769747,6.48540966 C142.769747,8.71728086 140.90817,10.5771735 138.674277,10.5771735 Z M155.800789,29.300093 L155.800789,1.52569589 L146.741112,1.52569589 L146.741112,30.1680429 C146.741112,38.4755635 155.056158,40.459449 160.8891,34.6317853 C160.516785,34.0118211 159.399838,32.523907 159.027523,31.9039428 C156.79363,32.8958855 155.800789,31.9039428 155.800789,29.300093 Z M127.753023,14.2969589 L127.753023,9.83321646 C127.753023,7.10537388 129.490495,5.74145259 131.972599,6.73339535 L133.21365,3.01361002 C127.008392,-1.69811807 118.693347,0.781738819 118.693347,8.96526655 L118.693347,37.6076136 L127.753023,37.6076136 L127.753023,17.7687585 L134.206491,17.7687585 L134.206491,37.6076136 L143.514378,37.6076136 L143.514378,14.4209517 L127.753023,14.4209517 L127.753023,14.2969589 Z M17.5476441,15.9088658 C13.9485945,14.4209517 10.8459656,13.1810233 10.8459656,10.9491521 C10.8459656,8.22130948 12.8316481,6.98138104 14.8173306,6.98138104 C17.7958544,6.98138104 19.6574317,9.33724508 20.0297472,11.5691163 L20.0297472,11.6931091 L28.0965824,11.6931091 L28.0965824,11.5691163 C27.9724772,10.5771735 27.7242669,7.84933095 25.8626896,5.49346691 C23.5046916,2.3936458 19.6574317,0.657745975 14.5691203,0.657745975 C7.24691608,0.657745975 2.03449949,5.12148837 2.03449949,11.1971377 C2.03449949,17.0248014 8.11565217,19.6286512 12.9557533,21.7365295 C16.5548028,23.2244436 19.5333266,24.5883649 19.5333266,26.6962433 C19.5333266,29.5480787 17.2994338,30.7880072 15.065541,30.7880072 C12.5834378,30.7880072 9.4808089,29.1761002 8.86028311,25.5803077 L8.86028311,25.4563148 L0.172922144,25.4563148 L0.172922144,25.5803077 C0.172922144,25.5803077 0.2970273,28.6801288 2.15860465,31.6559571 C5.26123357,36.6156708 10.4736502,37.9795921 14.5691203,37.9795921 C24.1252174,37.9795921 28.593003,32.1519284 28.593003,26.5722504 C28.593003,20.4966011 22.3877452,17.8927513 17.5476441,15.9088658 Z M99.829363,24.5883649 C99.829363,24.5883649 99.5811527,33.3918569 106.903357,32.7718927 C110.750617,32.2759213 112.239879,29.0521073 112.363984,28.9281145 L115.714823,28.9281145 C115.218402,30.4160286 112.736299,37.6076136 103.676623,37.9795921 C96.8508392,38.2275778 89.6527401,32.8958855 89.4045298,24.7123578 C89.1563195,17.1487943 95.2374722,10.8251592 102.807887,10.5771735 C110.502406,10.3291878 115.963033,16.5288301 115.963033,24.7123578 L99.829363,24.5883649 Z M109.13725,21.6125367 C109.13725,21.6125367 108.392619,15.6608801 104.421254,15.784873 C100.573994,15.9088658 99.9534681,21.6125367 99.9534681,21.6125367 L109.13725,21.6125367 Z M84.812639,29.300093 L84.812639,1.52569589 L75.7529626,1.52569589 L75.7529626,30.1680429 C75.7529626,38.4755635 84.0680081,40.459449 89.9009505,34.6317853 C89.528635,34.0118211 88.4116886,32.523907 88.0393731,31.9039428 C85.6813751,32.8958855 84.812639,31.9039428 84.812639,29.300093 Z M170.817513,24.5883649 C170.817513,24.5883649 170.569302,33.3918569 177.891507,32.7718927 C181.738766,32.2759213 183.228028,29.0521073 183.352133,28.9281145 L186.702973,28.9281145 C186.206552,30.4160286 183.724449,37.6076136 174.664772,37.9795921 C167.838989,38.2275778 160.64089,32.8958855 160.392679,24.7123578 C160.144469,17.1487943 166.225622,10.8251592 173.796036,10.5771735 C181.490556,10.3291878 186.951183,16.5288301 186.951183,24.7123578 L170.817513,24.5883649 Z M180.001294,21.6125367 C180.001294,21.6125367 179.256663,15.6608801 175.285298,15.784873 C171.438038,15.9088658 170.817513,21.6125367 170.817513,21.6125367 L180.001294,21.6125367 Z M62.9701314,10.4531807 L62.9701314,28.4321431 C62.9701314,30.5400215 61.2326593,31.4079714 59.9916077,31.4079714 C58.2541355,31.4079714 57.0130839,30.0440501 57.0130839,28.4321431 L57.0130839,14.2969589 L40.6312032,14.2969589 L40.6312032,4.62551699 L31.5715268,4.62551699 L31.5715268,14.2969589 L27.2278463,14.2969589 L27.2278463,17.6447657 L31.5715268,17.6447657 L31.5715268,30.0440501 C31.5715268,38.3515707 39.8865723,40.3354562 45.7195147,34.5077925 C45.3471992,33.8878283 44.2302528,32.3999141 43.8579373,31.7799499 C41.4999393,32.7718927 40.6312032,31.7799499 40.6312032,29.1761002 L40.6312032,17.6447657 L47.8293023,17.6447657 L47.8293023,28.9281145 C47.8293023,33.8878283 51.9247725,37.9795921 56.8889788,37.9795921 C59.2469767,37.9795921 61.3567644,37.1116422 62.9701314,35.6237281 L62.9701314,38.5995564 C62.9701314,44.9231914 56.1443478,42.8153131 56.1443478,42.8153131 L54.9032963,45.7911413 C56.6407685,46.9070769 59.1228716,47.4030483 60.7362386,47.4030483 C67.0656016,47.4030483 72.2780182,42.3193417 72.2780182,35.9957066 L72.2780182,10.4531807 L62.9701314,10.4531807 Z" id="Shape"></path>
                    </g>
                </g>
            </g>
        </g>
    </g>
</svg>
