<svg width="187" height="48" xmlns="http://www.w3.org/2000/svg"><path d="M138.674 10.577c-2.234 0-4.095-1.86-4.095-4.092 0-2.231 1.861-4.091 4.095-4.091s4.096 1.86 4.096 4.091c0 2.232-1.862 4.092-4.096 4.092zM155.801 29.3V1.526h-9.06v28.642c0 8.308 8.315 10.291 14.148 4.464-.372-.62-1.49-2.108-1.861-2.728-2.234.992-3.227 0-3.227-2.604zm-28.048-15.003V9.833c0-2.728 1.737-4.092 4.22-3.1l1.24-3.72c-6.205-4.711-14.52-2.231-14.52 5.952v28.643h9.06v-19.84h6.453v19.84h9.308V14.42h-15.761v-.124zM17.548 15.909c-3.6-1.488-6.702-2.728-6.702-4.96 0-2.728 1.986-3.968 3.971-3.968 2.979 0 4.84 2.356 5.213 4.588v.124h8.067v-.124c-.125-.992-.373-3.72-2.234-6.076-2.358-3.1-6.206-4.835-11.294-4.835-7.322 0-12.535 4.463-12.535 10.54 0 5.827 6.082 8.43 10.922 10.539 3.599 1.487 6.577 2.851 6.577 4.96 0 2.851-2.234 4.091-4.467 4.091-2.483 0-5.585-1.612-6.206-5.208v-.124H.173v.124s.124 3.1 1.986 6.076c3.102 4.96 8.315 6.324 12.41 6.324 9.556 0 14.024-5.828 14.024-11.408 0-6.075-6.205-8.68-11.045-10.663zm82.281 8.68s-.248 8.803 7.074 8.183c3.848-.496 5.337-3.72 5.461-3.844h3.35c-.496 1.488-2.978 8.68-12.037 9.052-6.826.248-14.024-5.084-14.272-13.268-.249-7.563 5.832-13.887 13.403-14.135 7.694-.248 13.155 5.952 13.155 14.135l-16.134-.124zm9.308-2.976s-.744-5.952-4.716-5.828c-3.847.124-4.468 5.828-4.468 5.828h9.184zM84.813 29.3V1.526h-9.06v28.642c0 8.308 8.315 10.291 14.148 4.464-.372-.62-1.49-2.108-1.862-2.728-2.358.992-3.226 0-3.226-2.604zm86.005-4.712s-.249 8.804 7.074 8.184c3.847-.496 5.336-3.72 5.46-3.844h3.351c-.496 1.488-2.979 8.68-12.038 9.052-6.826.248-14.024-5.084-14.272-13.268-.249-7.563 5.833-13.887 13.403-14.135 7.695-.248 13.155 5.952 13.155 14.135l-16.133-.124zM180 21.613s-.744-5.952-4.716-5.828c-3.847.124-4.467 5.828-4.467 5.828H180zm-117.03-11.16v17.98c0 2.107-1.738 2.975-2.98 2.975-1.737 0-2.978-1.364-2.978-2.976V14.297H40.631V4.626h-9.06v9.671h-4.343v3.348h4.344v12.4c0 8.307 8.315 10.29 14.148 4.463-.373-.62-1.49-2.108-1.862-2.728-2.358.992-3.227 0-3.227-2.604V17.645h7.198v11.283c0 4.96 4.096 9.052 9.06 9.052 2.358 0 4.468-.868 6.081-2.356V38.6c0 6.323-6.826 4.215-6.826 4.215l-1.24 2.976c1.737 1.116 4.219 1.612 5.832 1.612 6.33 0 11.542-5.084 11.542-11.407V10.453H62.97z" fill="#333537" fill-rule="nonzero"/></svg>