<svg height="236" viewBox="0 0 500 236" width="500" xmlns="http://www.w3.org/2000/svg"><path d="m368.699594 6.94910383-.488311.05677975c-23.498637 2.79031045-38.631924 10.78283022-54.583315 28.85301082l-3.224158 3.6974905-.973691 1.1419076-.41033.4961488-.748294.9331321c-1.884471 2.3780879-3.303219 4.5560916-4.688262 7.2757577-.262491.5154259-.523807 1.0509511-.785563 1.610206-1.862733 3.9779444-2.807652 6.7864501-3.606133 10.6918282l-.059965.3005664c1.904529-1.0181079 3.776164-1.9096145 6.060787-2.9183993l5.076038-2.2220804 1.40402-.6331547 1.263679-.5976393 1.455934-.713997 3.129601-1.526227c.714821-.3556457 1.362338-.6901203 2.099452-1.0862626l.552376-.2971228 1.068343-.5793649 1.022223-.5612651.979008-.5452545.938699-.5313333.901297-.5195012c.294521-.1714272.583293-.3412307.8668-.5097585l.835211-.5021051c.410192-.2494873.809628-.4968881 1.199943-.7433776l.76895-.4921119.747533-.4917709.729021-.4935192c.840856-.5776046 1.64985-1.1630443 2.44775-1.7712484l.681682-.527241.679154-.5404803c.113144-.0912994.226303-.1832374.339538-.2758577l.680812-.5642565c.227565-.1910465.455921-.3851701.68555-.582719l.693194-.6032706.703745-.6259116c.118331-.1063214.237223-.2136732.356737-.322099l.725019-.6637904.742835-.6916546 1.688145-1.5632047.427271-.409397.168071-.1661789c.473611-.4730798.906274-.9480736 1.376832-1.5185833 2.445224-2.9700501 3.526728-4.9516076 4.790498-8.7336411 1.105343-3.3129837 1.428925-5.2704197 1.444123-8.747953l.011915-2.7262509 2.995641 1.7046137 1.224957.6883958c.201139.1122238.400799.2232033.599027.3329535l1.172587.6438699 1.140541.6150887c.562643.3004695 1.114129.590417 1.655752.8702488l1.070475.5462962c7.406616 3.7313458 13.048575 5.5331006 20.469476 6.5201691l1.072613.1355881c.361827.0434289.72807.0851309 1.099112.1252262l1.127907.1155867 1.477888.1402312 1.445875.1296765 1.415036.1189413c.233334.0189189.465433.037383.696319.0553885l1.370976.1025001 1.343068.0913137 1.316333.0799468c.217226.0123672.433388.0242533.648508.0356544l1.278431.0625581c.211056.0094466.42112.0184007.630216.0268586l1.243168.0447632c.205325.0064582.409732.0124127.613245.0178597l1.210543.0265623 1.19026.0142029c9.837578.0663575 17.684485-1.1735373 26.595213-4.1896924l1.074589-.3704947 1.085975-.3877274 1.098533-.4051403 1.112265-.422734c.186587-.0719318.373795-.1446042.561648-.2180209l1.135061-.4494627 1.219993 2.9426905-55.966909 23.9683576c-.228767.1053254-.455201.2099093-.679396.3138049l-1.319022.6155416c-.431204.2027119-.85418.4030972-1.269664.6015822l-1.224704.5901803c-.40123.1951107-.795701.3887473-1.184145.5813361l-1.147987.5750494c-.188563.0954598-.375802.1907642-.56181.2859665l-1.101999.570415-1.076842.5705223-.530362.2861007-1.047355.5754789c-.173258.0963838-.345925.1930386-.518094.2900176l-1.02777.58619c-.341085.1969776-.680912.3956781-1.020212.5965278l-1.017056.6094232c-1.355925.822298-2.715166 1.6858039-4.124659 2.6177989l-1.067275.7122642-1.09052.7405052c-.183935.1259131-.369021.2531094-.555351.3816423l-1.133637.7876623-1.167882.8222973-1.206528.8594899-7.756424 5.4541619-.999054.7244635c-2.828543 2.0834116-4.964057 3.8966082-7.043198 6.0417193-1.340934 1.383481-2.642392 2.8959892-3.953573 4.6053846l-1.666089 2.1377073-.742477.9598426-.605886.7998272c-1.342297 1.8356207-2.20443 3.4037693-2.96572 5.5369617l-.299024.8546739c-2.886494 8.4495102-2.651474 14.0093393 1.544693 19.1254513 4.190535 5.114959 9.602256 6.383928 18.505622 5.110194l.872592-.131159.444614-.07145c5.595835-.91795 8.952522-2.681704 13.677111-7.32363l.610848-.608378c.206278-.208109.415311-.421586.627377-.640588l.645574-.673737.665439-.707827.686971-.742855.639189-.700542.831649-.926.53141-.602267.514585-.592531.743316-.87488.478494-.5768704.466445-.5740798.455763-.5732738.446445-.5744522.438491-.5776155.431903-.5827633.213908-.2939322.42458-.5942063.421405-.6043157.419593-.6164099.419148-.6304886.420067-.6465521.42235-.6646001.426-.6846329.431013-.7066502.437393-.7306523.445136-.7566389.685209-1.1880249.470467-.8302886.729604-1.3078023.504329-.9163421.786795-1.4461858.827251-1.5381469 1.173898-2.2054901.713605-1.3569825.66843-1.29026c.10789-.2100514.214085-.4177488.318677-.6233053l.60908-1.209353c.098559-.1978453.195703-.3939758.291525-.5886047l.559825-1.1514581c.272731-.5684237.535252-1.1271678.790086-1.6819854l.500166-1.1061044c.409511-.9202318.802343-1.8402102 1.19018-2.7865696l.463756-1.1499987c.077142-.1943451.154271-.3901716.231481-.5876926l.464976-1.207164c.155814-.4103022.312697-.8290869.471399-1.2580586l.482306-1.3191808.497703-1.3905307.453207-1.2897248.42064-1.2210588.391509-1.1643954.365816-1.1197344.343558-1.0870762.324738-1.0664205c.052745-.1766822.10485-.3530039.156385-.5292151l.30295-1.0579416c.148631-.5303083.293426-1.0641231.436318-1.6081958l.283819-1.1038232c.047072-.1869169.094075-.3754736.141081-.5659203l.282651-1.1673598.286167-1.2247207.29312-1.2940843.655667-2.9675493 1.942792 1.3147345.903864.6040935c4.120522 2.7166632 6.95698 4.0384879 11.914517 5.6168054 5.823379 1.85625 12.126077 2.4795631 18.327087 2.2514497l.772931-.031038.78793-.036878.803514-.0427959.819681-.0487913 1.261112-.0845987 1.300771-.0985256 1.799458-.1534852.928941-.0863965.949194-.092936.970031-.0995533 1.495392-.1619073 1.024677-.1164365 1.580096-.1875963 1.633546-.2033596 1.688964-.219385 1.746354-.2356728 1.805714-.2522229 1.867042-.2690353 1.27974-.1888266 2.646213-.4007303 2.765749-.432018 2.889956-.4639273 2.251786-.3692601 3.053554-.510293 2.74276-.4666384 3.814378-.6602517 2.982473-.5242271 13.632209-2.4276025-11.550447 5.5148159-5.172479 2.4808525-3.910665 1.8917073-2.98793 1.4578506-2.956199 1.4543167-3.010542 1.4930715-3.970727 1.9852628-4.180764 2.1055962 1.290178.2585117c2.090659.4006308 3.854346.6641013 5.813862.8491569l.74502.0658349 4.561426.3850885.873971.0609969c.558939.0357191 1.073747.0615964 1.564162.077928l.719793.0173749.350801.0033874c2.41684.0113292 4.639532-.2395231 7.250668-.8604271l.919702-.2256595c4.013309-1.0163841 6.404738-2.0749761 10.022633-4.3842163 3.856428-2.4625564 6.114956-4.9403514 8.949327-9.3612604l.065352-.1023302 2.577168-4.1122546c.107937-.1702937.214243-.3372516.319244-.5013352l.616914-.9537016c.505349-.7721615.994225-1.4955403 1.507101-2.2278257l2.695678 1.6900091c-1.108503 1.986412-2.139168 3.9075308-3.096492 5.7801639l-.6274 1.2414234-.605966 1.2281639c-6.846493 14.0518851-9.499686 25.6929524-9.986467 42.4971233l-.036918 1.4744302c-.010519.4959375-.019267.9963973-.026293 1.5015638-.240325 17.1817939 1.626658 27.7186749 7.717082 42.7993069l.602651 1.473976.09073.217056-1.419927.700515.48 1.179-.324609-.770955-.167391-.402045-1.418595.701858-1.978567-3.423564-1.285786-2.187558-.807507-1.347965-.735279-1.202425-.680877-1.086248-.517507-.805082-.503221-.764553-.590932-.874913-.521992-.753855-.50619-.71762-1.163207-1.602967-2.687243-3.615568-.555934-.731591c-.091454-.119157-.182325-.236937-.272637-.353354l-.535391-.682276-.523245-.650302c-.086264-.105759-.172073-.210216-.257454-.313386l-.507347-.603693-.498298-.573524c-3.706396-4.1901-6.75379-5.895556-11.494242-6.486881l-.579468-.07178-.481714-.055389-.270321-.024313c-.390418-.029806-.744321-.030459-1.183298.002513-6.333156.482965-10.626019 9.688122-6.595493 14.768396.127612.16088.253952.319685.379078.476483l.736654.91725.710317.872346.686773.830703.666027.792322.648076.757201.63292.725342c.104379.118416.208243.235641.31165.351743l.615429.683668.607262.659962c.100685.1082.201147.215547.301442.322111l.600255.630518.299511.309223c.808178.82959 1.63252 1.637296 2.515897 2.466784.076712.072032.153754.144135.231227.2164l.956721.880725.767693.69162.828624.734538.905704.792107 1.35542 1.171021 11.295275 9.661471 1.085916.951024c.982161.876566 1.829192 1.676215 2.64963 2.509099 1.262066 1.28121 2.449166 2.632576 3.660234 4.182528.105079.134321.208496.26678.310293.397454l.873535 1.129887.537047.705711.503114.671891.471164.641686.441196.615095.413212.592118.387211.572756.363193.557009c.938253 1.467574 1.641466 2.805731 2.278862 4.32291l.236268.577936.232082.598334.229877.622346.229656.649974.293557.867012c2.618814 7.903718 2.804788 13.396441.582325 21.020842-6.111719 20.989193-36.247195 29.348676-55.232281 16.905011l-.792968-.527361-.783235-.538396-1.145559-.805174-1.874768-1.342719-2.785308-2.025409-3.086991-2.267654-12.48292-9.245306-3.427132-2.524218-1.82624-1.328402-1.068158-.762538-1.444652-1.000844c-3.833216-2.631715-7.565849-5.024212-11.374263-7.266966-.298519-.175691-.595513-.350163-.891029-.523434l-1.755702-1.025392-1.722352-.997564-1.691152-.970707-1.6621-.944818-1.635198-.9199-1.610443-.89595-1.587838-.87297-1.567382-.85096-.776691-.417528-1.540725-.819761-1.525641-.800174-1.512705-.781556-1.501919-.763908-.747585-.375638-1.489767-.739253-1.484352-.724028c-.98824-.477826-1.974303-.946148-2.961053-1.406258l-1.480999-.68417c-.247039-.113056-.49421-.225638-.741558-.337769l-1.486576-.667512-.745554-.329985-1.496986-.653036c-1.501441-.648655-3.017322-1.284651-4.557312-1.91235l-1.548385-.625096-1.566607-.620534-1.586976-.616942c-.266313-.102578-.533565-.205047-.801799-.307427l-1.621562-.613372c-.272345-.102104-.545764-.20416-.820299-.306187l-1.660981-.611982c-.279185-.101994-.559576-.203999-.841218-.306037l-1.705235-.612774-1.737424-.614514c-.292373-.102617-.586176-.205348-.881454-.308212l-1.789736-.61894-1.827297-.623103c-.307799-.104252-.617252-.208717-.928405-.313416l-1.887667-.631166-1.630116-.537866c-1.626598.401974-3.360312.759033-5.275635 1.098143l-.795682.137955-.769991.126641-.747605.115444-.728521.10436-.712742.093393-.700266.08254-.691094.071802-.685225.06118c-.455594.037272-.909479.067539-1.366058.090954l-.687441.030004-.694787.019843c-.233187.004933-.468149.008192-.705436.009795h-.719389c-.363734-.002667-.733938-.008879-1.112473-.018708l-.768725-.02446-.794241-.033989-.82306-.043402-.855184-.052699-.89061-.061883-.92934-.07095-1.473857-.123175-1.579583-.142929-1.833494-.176549c-9.944914-.999132-16.493509-2.531198-24.762326-5.995794l-1.193514-.50824c-.641763-.277539-1.29487-.566624-1.961565-.867872l-.953068.100889-.937342.108735-.890536.112516-.847665.116924-.808731.121957-.773729.127617c-.883799.152431-1.704173.317696-2.489242.500267l-.664927.160833c-.219198.055093-.436169.111703-.65157.169935l-.642149.179664c-.212916.061579-.424918.124884-.636662.190019l-.635111.201-.586615.196533-.738297.262251-7.322773 2.69983-1.098161.410945c-.533471.202287-1.044926.40042-1.540645.597204l-.972316.392601-.941519.393992c-.929842.396348-1.830237.802263-2.751432 1.240185l-.929989.449423c-.627096.307837-1.27088.633224-1.946241.982812l-1.038584.543362c-.35533.187726-.720414.382332-1.097115.584651l-11.718896 6.293996 28.797832-25.83649-.699285-.233317-1.666016-.544458c-18.422712-5.943274-30.913069-7.331425-51.107769-5.926372l-1.661819.120204c-.546298.041165-1.085101.08346-1.61684.126991l-1.574464.134402c-12.951186 1.152621-21.759044 3.142101-33.196959 7.591697l-1.385608.545864c-.699549.27894-1.409542.56697-2.131442.864441l-1.460108.607634-.703489.296653-1.374991.587403c-.225714.097307-.449736.194337-.672118.291123l-1.315015.578024-1.278107.57364c-1.890708.857919-3.66515 1.706088-5.360682 2.567206l-1.119074.576246c-2.955212 1.543102-5.687268 3.143077-8.406067 4.927474l-1.019337.678042c-1.019537.687186-2.040899 1.402549-3.075154 2.152814l-1.038964.762148c-.522041.38714-1.048228.783567-1.579944 1.190121l-1.071215.826859c-.179901.140143-.360519.281474-.541906.424024l-1.097945.870169-1.11884.900912-1.142194.933149c-.192449.158294-.385973.317994-.580624.479131l-.587385.48775-2.212487-2.279366 4.03171-4.545715 3.162709-3.545688 2.426312-2.704976 2.932378-3.248358 2.169739-2.387871-.628345.074437-1.096219.139262-.704308.096808-.685738.100459-.669426.10452-.655369.108988-.643571.113866-.948171.180841-.623948.127852-.62005.134161-.618407.140881-.619023.148009-.621895.155547-.627024.163492-.63441.171849-.970402.274334-.662751.194527-1.023493.31027-1.065504.333672-1.499189.483687-1.605475.531019-.377282.126519.420906.003588-1.396906.326412-.560522.192994c-.07915.027482-.157734.054861-.235789.082153l-.232616.081633-.90312.323154-.869932.322144-.426921.162525-.807603.316076-.791159.320938-.533748.222774-.818559.350912-.850254.375244-.893391.404335-.947967.438186-1.013986.476799-1.867757.893395-2.135889 1.03591-1.609218.789762-1.550446.770814-1.495609.75469-1.444708.741391-1.397742.730916-.907679.482852-.889721.480288-.872927.478562-.857301.477671-.842839.477617-.829545.478401-.817417.480021c-.13529.080185-.270123.160473-.404524.24088l-.801409.48402-.792196.487732-.784148.492281-.777266.497666-.77155.503889-.767.510947-.763617.518844c-.127052.087178-.254012.17472-.380904.262644l-.7607273.532256c-.1267164.089519-.2534134.179453-.380115.269821l-.7604615.547552-.7617417.558795-.7641881.570874c-.1276333.096199-.2554171.192936-.3833757.290228l-.7700436.590563-.775405.604735c-.1297457.102016-.2597633.204658-.3900773.307943l-.7856331.62756-.7939093.643825-.8033517.660924-.8139599.678862-.8257342.697635-.8386746.717246-1.2848254 1.11447-.8761266.769934-1.3464691 1.197423-.9208661.82785-1.419044 1.288222-1.467836 1.346465-1.5205633 1.407534-2.1162395 1.976589-2.8011664 2.640665-2.2120266-2.292421 1.3293267-1.31227 1.2909296-1.28453 1.2544487-1.259107 1.2198839-1.235999 1.1872354-1.215207 1.1565028-1.196731 1.1276864-1.18057c.3713056-.391088.7381279-.779868 1.1007861-1.166727l1.075802-1.155198c.5319743-.575103 1.0552981-1.146752 1.5710492-1.716248l1.0217247-1.13651c.1687111-.189069.3366606-.377995.5038884-.566827l.9950266-1.132244c.6580037-.754589 1.3057384-1.509213 1.9457589-2.266958l.9545644-1.139346.9449093-1.146344.4694327-.576521.9340193-1.161186c.1552112-.194532.3102198-.389597.4650655-.585243l.9274406-1.181237.9254498-1.1975.9253754-1.216078.120234-.160029-.3077833.099754c-1.1631673.379504-2.3098738.765576-3.4444753 1.159875l-1.3559899.477214-.6741598.241769-1.3416945.490258c-.2229493.082483-.4455887.165362-.6679529.248649l-1.3311621.504737c-.221403.084976-.4426006.170387-.6636275.256247l-1.324393.52065c-1.3229031.526247-2.642173 1.069602-3.965336 1.632936l-1.3247394.5701-1.3290072.584057c-.2219498.098541-.4441471.19769-.6666268.297461l-1.338545.606187c-.2237485.102309-.447849.205266-.6723364.308885l-1.351846.629752-1.3628038.64626-.6860338.329519-1.3823767.672216c-.2316112.113527-.4638533.227808-.696761.342856l-1.4057126.699608c-.2357096.118171-.4721546.237137-.7093698.35691l-1.4328117.728434c-.2404352.123055-.4817103.246945-.7238601.371682l-1.4636739.758694-8.9709379 4.6987-2.2275239 1.184332c-1.9724264 1.070764-3.6575145 2.037552-5.2735533 3.034969-3.2294992 1.993243-6.2542626 4.158961-9.5717227 6.891345-.537729.442737-1.0664964.883057-1.5865516 1.321321l-1.0285678.873895c-.6780662.580914-1.3409394 1.158605-1.9892109 1.733933l-.9615298.861328c-10.9333516 9.887368-17.6097126 19.199767-23.063343 32.354367l-.4712208 1.15367c-.0780477.193928-.1558572.38869-.2334375.584299l-.46280642 1.183933c-.6903073 1.791474-1.36355277 3.653762-2.02646978 5.596666l-.44048843 1.30732-3.08238523-.766188.27932164-1.638139.28444316-1.609796.28996814-1.582446c.04881085-.261517.09786873-.521935.14718202-.781276l.29901213-1.54328c.05036862-.255113.10100947-.50919.15193097-.762251l.30896392-1.506344c.52077686-2.490813 1.07129902-4.884193 1.65997213-7.200801l.35784923-1.380917c2.90049472-10.976282 6.71872082-20.278933 12.38427732-30.192772l.7178833-1.242578c.9701857-1.661456 1.9927622-3.342535 3.0720329-5.053813l.8201506-1.289286c.2769717-.43176.5575541-.865572.8418144-1.301603l.8638817-1.314911.8863525-1.329211c.1496204-.222782.3001939-.446201.4517289-.670278l.9208152-1.35252.9442947-1.3693.5949698-.846413.3860222-.536674.3839902-.523228.5843015-.775818.4031627-.521988.6390453-.808647.456982-.567001.7457592-.910856.8347331-1.005484 1.2031163-1.441371.9527717-1.154988.6267035-.773096.5706023-.718519.3577769-.45992.3456567-.452505.3386623-.451827.5060907-.691205.519184-.727571.5333161-.754669 5.1827706-7.144159.2664826-.376275c2.4323405-3.491558 4.037309-6.43746 5.4352288-10.252347l1.1058661-3.100683.2135684-.617416.1869315-.558713.1651752-.51598.1482993-.489217c.5532744-1.88152.8444626-3.605706.9590563-5.919595.3850753-7.743879-4.214336-14.218631-11.1146627-15.107949-1.8011993-.233282-3.2568765-.060552-4.9463542.515022l-.1977441.068727-.4080269.149984c-.0699095.026576-.1409421.054003-.2133537.082373l-.4530655.182295c-.0789514.032519-.1597936.066167-.2427827.101038l-3.5131199 1.533126c-.1993349.088983-.3948263.178071-.5867517.2675l-.5653559.269543-.5456258.272999c-2.1452638 1.100788-3.8569797 2.318375-5.6148454 4.059199l-.4407055.446342c-.3685184.381428-.7407749.787035-1.121107 1.220498l-.4605524.533761-.4699706.561913-.4810543.591477-.4938038.622451c-.0834556.106401-.1675119.214152-.2522034.323282l-.516051.671559-.5329644.706062-.5515434.741976-.5717882.779302-.5936985.818038c-.1008681.139646-.2027186.280965-.3055861.423986-1.2349032 1.715487-2.1894555 3.244491-3.050079 4.859896-.3162738.593651-.6238577 1.205776-.9445304 1.877621l-.3924836.83752-.4313912.950415-1.5407718 3.501689c-.2129592.483979-.4209958.961609-.6241883 1.433299l-.595123 1.397657c-5.3235138 12.655979-7.04280092 21.128003-6.7859892 33.894678l.01595789.700675-3.17890632.182606-.17858422-2.033425-.16357218-1.951423c-.02602729-.318927-.05144127-.634829-.07624805-.947902l-.14160298-1.846062c-.02240235-.302542-.04420968-.602648-.06542811-.900513l-.12029239-1.761872-.10645124-1.717507c-.01660471-.283076-.0326449-.564696-.04812666-.845056l-.08623835-1.6686c-.11945233-2.484916-.19466057-4.899488-.2300704-7.386618l-.01775928-1.670403c-.00398693-.56143-.00605729-1.128011-.00625987-1.701312l.00494681-1.741628c.0017421-.294154.00393894-.590379.00658444-.888873l.02120799-1.819745c.0044157-.30835.00926785-.619359.01455037-.933225l.03681054-1.919033.04684636-1.996987.04678091-1.712513.04512693-1.331133.05331535-1.299028.06212127-1.280495c.01112168-.212626.02263601-.425044.03455584-.63754l.076488-1.278146.08683771-1.293545.09780493-1.322519.16862175-2.067793.12792459-1.454332.5855271-6.197927.2303719-2.526346.10147994-1.175341.09373432-1.136814.12836176-1.665844.11680547-1.663654.2728202-4.188568.89429106-12.85449.05111194-.8023853c.35421147-5.7963227.50405549-10.7579469.46071062-16.6934462l-.01763705-1.926832-.02374901-1.8736006-.03013722-1.8238182-.03680167-1.7774849-.04374238-1.7346007-.05095934-1.6951654-.05845256-1.6591793-.06622203-1.6266422c-.01169981-.2685872-.02373485-.5359624-.03611089-.8021975l-.07839421-1.5843035-.08685431-1.560389c-.01519608-.2582636-.03075617-.5156745-.04668603-.7723044l-.10006243-1.5309843c-.01743196-.253794-.03524521-.5069507-.05344548-.7595422l-.11389214-1.5093399-.12345725-1.4992217c-.10694324-1.2460935-.22413791-2.4852399-.35230341-3.7264212l-.15911065-1.4909691-.1699189-1.4963715-.18100341-1.505223-.19236416-1.5175237-.20400118-1.5332733-.1064508-.7736205-.22197467-1.5633647-.23430232-1.587737c-.04009304-.2668455-.08071124-.5348502-.12186036-.8040859l-.25331176-1.6307624-.20643115-1.2901126-.20368392-1.0976918-.17596427-.9821578-.26741649-1.5463739-.3691548-2.2313028-.28429867-1.7827834 3.14178218-.5266563.43843093 2.4949933.27464984 1.5991813.38713149 2.3126865.19464387 1.2009199.08463676.4461676c1.78338083 9.3065959 3.99153716 15.9404034 8.37101521 24.6228132l2.5673264 5.0437058.5735937 1.1466704.042734.0726966c5.0703527 8.678748 9.6233713 12.7838275 17.0638532 14.2521526l.3744461.071228.3731951.0658424c1.0634498.181622 1.9743115.2688034 2.9362864.2886085l.5323838.0045268.7126476-.0098666 2.8571885-.1293168c5.3290892-.2290654 9.6094126-1.2494753 15.5371393-3.5319886l1.0036705-.3921858 1.0369518-.4160423c.1757528-.0713554.353008-.143725.5318232-.2171188l1.0920747-.4527354 3.5567013-1.5014136 1.0227565-.4247262 1.6011402-.6496651.6096784-.2595407.6741572-.2990823.736708-.337562 1.0762461-.5081052.8751617-.4232194.9312856-.4581604 1.3256854-.6633979 2.1591832-1.1025223 1.9459343-1.0118354 2.4977052-1.3185294 3.580847-1.9211326 2.8535704-1.5521595 2.9803763-1.638131 2.6329433-1.4600326 2.4211724-1.3523636 2.4717667-1.3896769 2.5154504-1.4231852 2.5522234-1.452888 2.582086-1.4787856 2.605039-1.5008781 2.621079-1.5191652 2.630211-1.533647 1.31637-.7710651 2.906847-1.7111539 2.229153-1.3203373 2.2185-1.3213018c.368626-.2201675.736632-.4402778 1.103928-.6602822l2.194563-1.3183666 2.173299-1.3134886 2.147792-1.3062739 2.118041-1.2967222 2.084046-1.2848336 2.045808-1.2706082c.337545-.2104527.67332-.4202153 1.007237-.6292392l1.980491-1.2448882c.652259-.4117479 1.296375-.8201512 1.931643-1.2248204l1.971833-1.2626701 1.436766-.9310818 1.352449-.8891294.875758-.5839335.869737-.5870191 1.352069-.9269338 1.364855-.952239 2.244097-1.5942657 4.256606-3.0804355 5.231697-3.8216202 1.487003-1.079482 1.435086-1.0326366 1.390458-.9903403c.456857-.3235695.907491-.6408479 1.353116-.9525933l1.323065-.9193954c.218411-.1507188.435874-.3002439.65254-.4486701l1.291653-.8781285c.214087-.1444096.427681-.2879099.640935-.4305955l1.27664-.8470972 1.275742-.8320961c.638862-.4130561 1.28012-.8221927 1.927874-1.2299688l1.305385-.8144964c.877652-.5427992 1.771711-1.08621263 2.691896-1.63630579l1.401088-.83090776 1.723338 2.67635855-7.895917 5.5659007-2.897751 2.0698722-2.422492 1.7597869-1.096753.8091853-1.53085 1.1432586-.388863.2927304c-1.665892 1.2558476-3.241577 2.4766981-4.784171 3.7085678l-.583402.467693-1.164969.9448723c-.388195.317314-.776447.6371502-1.165314.9600058l-1.169002.9781215c-.195326.1646956-.390947.3302703-.586929.4967862l-1.180809 1.0108868-1.192862 1.0364581-1.20826 1.0650116c-.202846.1800471-.406473.3614082-.61095.5441453l-1.237632 1.1134336-1.261394 1.1494425-1.288502 1.1884338-2.271295 2.1259458.246388-.0752166c.219766-.0689344.437118-.1375545.652178-.2059131l.63843-.2043438 1.238575-.4052465c.202422-.0672642.402922-.1344252.601624-.2015358l1.171618-.40248c4.608045-1.6108752 8.322277-3.253476 12.846613-5.6572914l1.148948-.6172347c.778531-.422625 1.583509-.8680836 2.422823-1.3397529l.606295-.3419389 1.182686-.6748387 1.144723-.664279c.187751-.1099326.374017-.2194999.558844-.3287391l1.092086-.6517968 1.059864-.6457138c2.263126-1.3937501 4.315528-2.7572757 6.262301-4.1725405l.891394-.6571715c3.538633-2.6457685 6.772362-5.5108569 10.362467-9.1109989l.905333-.9156476c.152254-.1552597.305223-.3118701.458953-.4698686l.931912-.9649461.952502-1.00005011 2.752443-2.91045556.19225-6.939 1.45675 5.197 1.922602-2.03018563-1.522602 3.45418563.979425 3.49178787c2.735625 9.7542582 6.779063 15.295859 15.230896 20.872105l.409173.2681256.780516.4998019c2.652624 1.6685807 4.537379 2.5197936 7.656958 3.506712 1.971307.6256194 3.694284.9912657 5.524105 1.193501l.674001.0669029.681698.054311.709276.0425476.787426.0334383 1.438303.0388829 3.423334.0636354c10.151717.2362875 16.250843-.6677357 25.515132-3.8772047l1.22648-.4315692 1.869994-.8268348 1.88775-.8275468 1.839296-.7984411 1.795099-.7708657 1.75516-.7448207c.289435-.1220514.577383-.2430813.863933-.3631217l1.703235-.7086225c.281313-.1162097.561406-.2314935.840366-.3458835l1.66089-.6758676 1.637982-.6559441 1.619333-.6375507 1.60494-.6206879 1.594805-.6053552 1.588929-.591553 1.58731-.5792812 1.589948-.5685396 1.596846-.5593285c.533904-.1850777 1.069667-.3688752 1.607999-.5516477l1.623412-.5454971c.27209-.0904887.544999-.1807849.818817-.2709205l1.654513-.5391409 1.680571-.5368163 1.710885-.5360221 1.745457-.5367582c.294027-.089606.589672-.1793065.887023-.2691333l1.805299-.5407318c.304533-.0904597.61095-.1811094.91934-.271981l1.87472-.5481487 1.926324-.5550062 1.982185-.5633941 2.023791-.5681451 2.289314-.6351349 2.226928-.6090561c1.098663-.2981633 2.175721-.5868957 3.233859-.8667202l2.091843-.5479266 2.046163-.5251019c.674971-.1713332 1.343124-.3390172 2.005255-.503207l1.96912-.4822417c1.301762-.3147127 2.582616-.6160684 3.848927-.90530686l1.889353-.42492462c5.326768-1.17908192 10.448311-2.15049086 15.853166-3.00939101l1.920155-.29862455 1.948456-.290211 1.981529-.28272722c.333276-.04654921.668129-.09282533 1.004659-.13884774l2.040089-.27324484c.343632-.04508502.68914-.08995508 1.036623-.13462953l2.109388-.26585439 2.161554-.26208962c.729742-.08683906 1.468975-.17320561 2.218492-.25925461l2.729465-.30707925.179787 1.58218367zm25.622674 98.71910817-.149513.19649-2.146864 2.76222-3.484868 4.461258-2.78956 3.54406-2.687964 3.386397-2.375695 2.967184-2.197266 2.722812-2.732686 3.36006-3.410765 4.160557-.857968 1.040342c3.614725-.470494 6.387618-1.636554 9.934183-4.008662 4.545071-3.040122 6.736823-5.631009 8.974081-10.609726l2.965721 1.151671c-1.977039 5.996382-2.611308 9.567112-2.823024 15.88436l-.046745 1.467706-.04688 1.800855-.012591.753493-.005116.676081.005118.807654.013028.555373.021106.52932.029365.518676.052314.701639c.179787 2.153043.590977 4.204639 1.350895 6.610582 2.699898 8.54673 6.467945 13.34853 14.476349 18.75866 6.03376 4.074746 9.550453 5.509249 15.533161 6.054406l.845993.074539c.137156.011555.272432.022669.405889.033332l.779406.058479.738705.04715c.11989.006887.238207.01328.355013.019171l.68319.029221c3.441199.118917 5.54824-.265709 8.15367-1.463199l.510993-.242006.605779-.302467c3.156331-1.606816 4.632699-2.831745 6.319863-5.329902 2.137234-3.162993 2.687997-5.621415 2.518724-10.344422-.210178-5.834629-2.201069-9.419715-7.69196-14.900004l-.417169-.414375-.803359-.786737c-1.176383-1.140279-2.230776-2.107897-3.257223-2.991409l-.681189-.57752c-.452742-.378002-.904091-.743277-1.362305-1.103601-.396602-.311875-.806294-.626512-1.246207-.957614l-.090509-.06786-12.812238-9.389706-1.29365-.967703-.657045-.501487-.594102-.462563-.55277-.440356-.730027-.598578c-.082942-.069186-.165995-.138871-.249407-.209268l-.506736-.432604-.527155-.459844-.559396-.497263-.737451-.666449c-.147521-.134253-.295213-.2692-.442995-.404764l-.887106-.820199-.885325-.83142-.879621-.839034-.869992-.843039-.856439-.843438c-.848354-.842434-1.670492-1.680053-2.448754-2.496624l-.762984-.808954-.729808-.791313-.69271-.770065c-.672853-.758239-1.284171-1.479195-1.816295-2.146632l-.648425-.822415c-1.157634-1.485897-2.06824-2.760362-2.814689-3.990526zm-251.337132-63.8743701-2.561271 2.5132454-.921457.9242709-.717063.7399683-.381206.4000203c-.974175 1.0255674-1.837468 1.990898-2.672153 2.9941357-1.174839 1.4120822-2.316538 2.9288037-3.53764 4.7091532l-.374422.5478599-.730623 1.08265c-.119753.1790231-.238499.357348-.356243.5349915l-.694457 1.0578192c-8.985995 13.8238324-11.758072 23.6047025-10.077112 37.6135751.673628 5.6107596 1.520519 8.9850946 3.554594 13.7939766l.454413 1.05377.241528.545862-2.822506 1.465223c-4.088156-6.847678-8.993454-10.134381-16.904056-11.325043-6.6179028-.9960277-11.1541953.246398-17.916571 4.533026-3.3794147 2.141822-5.373956 3.994123-7.8115893 7.397214l-.4484955.636242-.4607022.672878c-.0779366.115335-.1564835.2323-.2356916.350945l-.4835902.732439-.5019007.775219-.4948001.777314-.450499.723336-.4225318.696759c-.0681773.114136-.1352536.227332-.2012613.339672l-.3834794.664445-.3593765.647936c-1.2754147 2.350422-2.0959279 4.449146-2.8044349 7.189621l-.1907098.763985c-.062816.260412-.124964.5268-.1867015.799834l-.1842389.839712c-.0305872.143499-.0611361.288827-.0916791.436069l-.1834433.90708-.5281059 2.787611-.2065838 1.163017-.0997038.618555-.057598.402252-.0447055.363016-.0424035.444169-.0219038.335427c-.0119823.228298-.0183134.45833-.0217407.710505-.0208561 1.534568.2324322 2.960007.8523882 4.577351 1.3446603 3.502287 2.9761317 5.368387 6.4506556 7.479873 1.247118.757644 2.5452515 1.241293 3.9553625 1.504103.137.025533.2724918.049096.4072483.070717l.4028363.05907c.3351468.044424.6705284.076903 1.018222.097911l.4239149.019732.4403718.0089.4614663-.001751.4871983-.012223.5175679-.022512.5525751-.032622.5922197-.042549.972808-.082045 2.6229238-.250096.7998166-.066069.5936822-.039163 1.8498046-.097576 2.1312856-.122395 2.7589254-.174835 1.1231403-.076166 1.6960077-.12038 2.266184-.171025 1.31651-.107006.60302-.878329 1.01093-1.4875 1.030017-1.529238 1.017668-1.522745 1.432159-2.158614 1.357067-2.065638 1.286779-1.981631 1.221294-1.906598c.13224-.208008.263355-.414793.393377-.62041l.767237-1.220127.742402-1.194753.71899-1.172039c.11796-.193595.235004-.386354.351161-.578332l.686542-1.142951.666689-1.126882.648258-1.113471.631252-1.102719.615667-1.094624.601507-1.08919c.09915-.181226.19777-.362336.295888-.543387l.582934-1.08602c.096233-.18103.192024-.362111.287403-.543297l.567564-1.088833c.093849-.181831.187345-.363879.280518-.546199l.555396-1.097626c.091999-.183629.183734-.367641.275235-.552091l.54643-1.1124c.090683-.186424.18119-.373397.271552-.560974l.540667-1.133157.538604-1.150317.537964-1.170135.538747-1.192613.540953-1.217748c.090421-.2052.180994-.411559.271748-.61913l.546931-1.260436c.091596-.212647.183433-.426618.275539-.641969l.556111-1.309104.56401-1.344873.902031-2.179816.556502-1.365873c.08998-.222454.178619-.442439.265983-.660145l.509412-1.280395.481982-1.2347786c.15644-.4050008.308838-.8039149.457719-1.1982581l.436627-1.1708329.418704-1.1525032c.068466-.1910617.136318-.3817386.203621-.5722203l.397761-1.1420624c.065372-.1904585.130328-.3811006.194932-.572116l.383949-1.1520863.378703-1.1701381.376626-1.1972854c.062774-.2023151.125593-.4061404.188524-.6116652l.379452-1.2550601.385298-1.3049459.394313-1.363927.455516-1.6056985c.836175-2.9740635 1.568255-5.7324487 2.209509-8.3605551l.373959-1.5619136c2.119092-9.0279381 3.158081-16.6691902 3.685888-26.5852617l.08558-1.7228651c.026928-.5821718.052294-1.1724548.076202-1.7715321l.067461-1.8242985zm52.24-30.153-.008793.0205309-1.431099 3.2418575-2.294683 5.1579825-1.575317 3.5011308-1.532657 3.3742863-2.932631 6.3941959-.920464 1.9825225-.889952 1.8930948-.612753 1.2884932-1.015711 2.1097971-1.092942 2.2395147-1.433304 2.9032433-4.23864 8.4976215-1.349903 2.7249699-1.243906 2.5387653-.876804 1.8112018-.563044 1.1746679-.819309 1.7280358-.797375 1.7055563-.784863 1.7036421-1.043309 2.3040899-.792313 1.7791512-.538125 1.2218516-.678167 1.5178635-3.056941 6.6975176c-.629069 1.4135044-1.152067 2.6602534-1.657199 3.9647702-.459392 1.1863893-.898311 2.4085651-1.334041 3.7222506l-1.934641 5.798015-.365241 1.1487873-.218133.7110467-.201046.6785113c-.032236.1109126-.063874.2208737-.094972.3300853l-.18056.6478911c-.936293 3.4357677-1.423352 6.5584807-1.557484 10.4177767-.379989 11.029855 1.305769 18.774333 6.273467 27.190697l.471413-.502217 1.163429-1.238833.430676-13.081389c.028961-.8811.061891-1.747082.099069-2.59932l.080103-1.686557c.744747-14.465062 2.821689-25.0760112 7.684895-38.9893268l.573587-1.6204452.598813-1.6521992c.203864-.5562969.412016-1.1182932.624537-1.6863962l.650756-1.7230363.677471-1.7621194c.115166-.2970792.231465-.5958887.348909-.8964793l.713245-1.8121294.549742-1.3787373.528431-1.3055084.511989-1.2428081.500418-1.1906362c.165418-.3893532.32972-.771766.493715-1.1489929l.491884-1.1178783c.082098-.1843051.164323-.3677524.246776-.5505614l.498264-1.0909473c.167541-.3622653.336806-.7237318.508606-1.0861541l.523817-1.0918894.543897-1.1081533.568847-1.1349457.598667-1.1722668.633355-1.2201163.672915-1.2784945.313247-.5915856.332576-.8107401.371955-.8856324.381425-.8853592.336058-.7631163.344256-.7668406.358884-.7850896.379938-.8178632.62345-1.3200183 2.465489-5.1505789.119132-.2530604c.92006-1.9575162 1.720016-3.7379656 2.519627-5.630126 1.307279-3.0920737 2.09628-5.8136088 2.556773-8.6830131l.106729-.7003328.094175-.6969746.082869-.7078713.049584-.4850073.045486-.5004094.061356-.7887324.036862-.5573933.050157-.8940065.059234-1.322294.027176-.7264868zm23.857715 49.5342534-.321373.0069697-.528444.0247143-.260565.0071995c-4.888487.0841073-7.773714.7827615-12.796801 2.9964343l-.544277.24468c-2.219523 1.0174861-3.943348 2.0502407-5.759006 3.4195498l-.810569.6269373-.618715.4977101-.829509.6924053-1.92029 1.6495621-.471989.4084899c-1.952436 1.6899476-3.609708 3.3202299-5.093746 4.9973264-1.826813 2.064463-3.403833 4.2037828-5.185101 6.9702991l-.526646.8261911-.75296 1.2063867-1.099007 1.7969963-2.095979 3.4600528c-.379915.6246819-.747799 1.2368532-1.104404 1.8382771l-.698398 1.1890404c-.113968.1959593-.226739.390855-.33834.5847524l-.6558 1.1519286c-3.211075 5.7049735-5.420039 10.6290895-7.380851 16.5356395l-.389077 1.194931-.383801 1.224264-.379863 1.256733c-.063057.212335-.126006.426153-.188875.641521l-.376472 1.311311c-.125318.443647-.250539.894011-.375886 1.351616l-.376641 1.395055-3.410636 12.977803 2.191134-2.317517 3.049465-3.202863 3.193025-3.329853 2.682061-2.781497 2.815559-2.907656 4.89656-5.030893 2.416508-2.467688 2.285309-2.320464 2.782704-2.804789 2.255472-2.256193 2.975047-2.955498 2.593057-2.5615966 1.392483-1.3716328.979712-.9904451.930469-.952793c.151245-.1559834.300639-.3106395.448286-.4640891l.865707-.9071876c.282115-.2982145.558046-.5925698.828601-.8840323l.796347-.8666758c1.693984-1.8631828 3.195032-3.6449797 4.725319-5.6108038l.709171-.9213369c.237621-.3121123.476744-.6295467.718177-.9532697l.732037-.9910012c.123431-.1686333.247642-.3390804.372733-.511462l.761929-1.0584712.787924-1.1106995 3.112856-4.456153.767394-1.1274462.359258-.5441598.411518-.6338307c.734302-1.1357782 1.38601-2.2104774 2.017599-3.3339642.784676-1.3958013 1.553004-2.894131 2.367121-4.6242469l.832004-1.8031733.048793-.1169798.049325-.140891.048998-.1647383c.13573-.4486129.138448-.7837157-.008307-1.2149445-.332755-.9867201-1.152766-1.4520744-3.064971-1.7549729-.160481-.0252997-.297843-.036998-.452363-.0388685zm43.10808.1326817-.717424.2303897-.770222.2575523c-3.383604 1.1475692-5.318084 2.3032994-8.440936 5.02533l-.688333.6078341c-.118074.1054906-.237904.213121-.359611.3229622-5.258401 4.7479638-8.249884 8.9332294-10.873771 15.6017876l-.340317.8841452c-.112849.2995763-.225158.6040973-.337085.9138132l-.334789.9449833c-.055659.1601782-.111261.3217177-.166826.4846499l-.333101.9945548c-.055495.1686278-.110991.3387109-.166509.5102805l-.33352 1.0475061-.167246.537601c-.110419.3577145-.215383.7025045-.315121 1.0359858l-.28377.9681326c-1.2085 4.2184674-1.506702 6.6703289-1.461606 11.3304027.048307 4.94671 1.321357 8.909359 4.353086 12.314138.874524.981955 1.746639 1.885998 2.624792 2.72241 4.224418 4.02362 8.399994 6.443721 15.304625 9.162031l2.492124.956415 1.144674.420812c-.348477-1.060403-.650655-2.179347-.914585-3.370857-.082589-.372828-.161564-.737482-.236918-1.094627l-.215188-1.049569-.193405-1.008489c-1.216631-6.595172-.977449-10.716997.788822-17.671056l.276403-1.065014c.047979-.181263.096915-.364463.146808-.549681l.310863-1.1362c1.844669-6.6407946 3.968204-11.0125739 8.117294-16.4884769l.637773-.830088c.108901-.1398687.219122-.2805329.33069-.4220453l.685805-.8596742c.234139-.290232.473887-.5842784.719463-.8825608l.754432-.9079771.790709-.9359233c1.7553-2.0611151 3.482173-3.8489591 5.258955-5.4552211 1.560682-1.4109011 3.143287-2.6738505 4.905904-3.9193614l-3.715265-4.0389028c-3.005685-3.251685-6.855757-5.8000981-10.789722-6.3566366-2.676449-.378484-4.369533-.2079343-7.487952.7686435z" fill="#282c39"/></svg>