<svg height="100" viewBox="0 0 824 100" width="824" xmlns="http://www.w3.org/2000/svg"><path d="m163.604969 0 61.250287 100h-224.855256l61.2502866-100 25.0072169 40.826155 25.0085855-40.826155 26.166956 42.7257499zm445.774704 30.2063274-.002743.8030662c-.019049 5.237659-.130966 34.2577926-.130966 35.8609842 0 11.9966932 1.738197 20.0843511 9.225822 20.0843511 4.27864 0 7.353914-2.6958859 9.626942-6.0657435v-40.3034966c0-1.752326-.133705-2.1567089-1.203367-3.3698576l-6.551668-6.7397152v-.2695886h29.683074v56.478813c0 1.752326 0 2.2915033 1.203371 3.3698576l6.685374 6.6049208v.2695888h-29.816784v-14.4229906c-3.342689 9.1660126-10.562894 15.5013449-20.457256 15.5013449-13.237047 0-20.323547-9.7051899-20.323547-28.037215 0-8.8964241.133706-18.601614.267415-29.5199525 0-1.752326-.133709-2.1567089-1.203366-3.2350632l-4.281389-4.4078562.002744-2.6014476zm139.323271-1.0783545c6.551669 0 14.841539.9435602 23.53253 3.6394462l-7.487624 19.545174h-.267415l-10.429189-18.7364081c-.802246-1.3479431-1.203367-2.0219146-3.075274-2.0219146h-1.871907c-5.883132 0-10.83031 3.100269-10.83031 9.4356013 0 5.9309494 4.412347 8.7616296 12.301096 12.2662817l8.557282 3.7742404c8.28987 3.6394461 14.841539 8.2224524 14.841539 18.6016136 0 14.557785-12.167386 22.3758545-29.950493 22.3758545-7.621331 0-16.980858-1.4827372-24.602188-4.1786234l7.353915-20.8931169h.267415l10.696604 20.8931169c.53483 1.0783546 1.337076 1.752326 2.807859 1.752326h3.075273c7.755036 0 12.568511-4.043829 12.568511-9.8399843 0-5.5265661-4.144935-7.8180695-12.835926-11.8618984l-9.092116-4.3134178c-7.353915-3.504652-12.969632-9.5703955-12.969632-19.1407913 0-12.8054586 10.429189-21.2974998 27.41005-21.2974998zm58.430201-21.56708849v22.64544299h16.446031v2.695886h-16.446031v45.0212973c0 6.0657439 2.674153 9.5703955 7.0865 9.5703955 3.476398 0 6.284257-2.291503 7.755039-4.9873892l.267415.1347945c-1.337076 7.5484809-6.819084 15.3665504-19.521304 15.3665504-11.632556 0-17.381983-6.3353323-17.381983-18.4668196v-46.6388289h-7.353915v-2.695886h6.016843c2.139318 0 2.807858 0 4.144931-1.4827373l18.719059-21.16270569zm-237.330908-6.73971514c7.62133 0 14.306708 1.07835442 21.125793 2.96547466l-8.423576 20.21914547h-.267416l-9.359527-19.00599675c-.802246-1.61753162-1.069661-1.75232593-2.273032-1.75232593-3.20898 0-4.813471 3.10026897-4.813471 12.53587018v14.4229905h14.039293v.2695886l2.270284 2.331859.002744.0944384h-16.312321v53.5133385c0 1.752326.133709 2.1567089 2.005612 3.3698576l9.894362 6.8745093v.2695888h-41.449343v-.2695888l6.551669-6.2005379c1.069661-1.0783543 1.203371-1.4827372 1.203371-3.2350632v-54.3221043h-7.086504v-2.695886h7.086504c0-21.43229422 9.626942-29.38515813 25.805558-29.38515813zm138.922146 28.30680363c4.011229 0 7.086503 1.752326 9.092116 4.4482121l-7.353915 21.1627055h-.267415l-10.562898-12.6706645c-.668537-.8087658-1.470782-1.3479428-2.406734-.6739714-2.273032 1.6175316-3.743814 4.0438289-5.749427 7.8180694v36.3944621c0 1.4827372.13371 2.1567089 2.005613 3.3698576l13.103342 7.6832751v.2695888h-44.792033v-.2695888l6.551673-6.2005379c1.08303-.970519 1.191333-1.3951208 1.202163-2.7477819l.001204-47.1261102c0-1.752326-.13371-2.1567089-1.203367-3.3698576l-6.551673-6.7397152v-.2695886h29.683078v17.2536706c2.273028-9.5703954 7.888746-18.3320251 17.248273-18.3320251zm-334.279275-1.8184279c14.173003 0 29.281953 6.7397151 29.281953 28.441598l-.002089.4064891c-.006266.5117971-.031335 1.3458369-.131616 2.5589856h-40.112267v.2695885c0 17.5232593 8.824698 24.6673574 19.12018 24.6673574 8.022454 0 15.9112-3.5046516 20.32355-12.4010757h.267412c-3.476395 16.984082-13.905584 24.9369462-29.549368 24.9369462-16.847152 0-32.758351-10.2443672-32.758351-33.9681647 0-24.936946 15.777491-34.9117244 33.560596-34.9117244zm127.289594 0c13.370753 0 20.858378 9.8399841 20.858378 28.441598 0 8.3572468-.267416 19.0059969-.401125 29.6547466 0 1.752326.133709 2.1567089 1.203371 3.2350635l6.685378 6.2005379v.2695885h-37.571824v-.2695885l6.417964-6.2005379c1.069657-1.0783546 1.203367-1.6175319 1.203367-3.1002691 0-2.0219145.401121-20.2191455.401121-26.6892722 0-12.2662813-1.871904-20.3539396-10.161774-20.3539396-4.278641 0-7.487624 2.4262974-9.894358 5.9309494v40.977468c0 1.752326 0 2.1567089 1.203367 3.2350635l6.551669 6.2005379v.2695885h-37.438114v-.2695885l6.551669-6.2005379c1.083034-.9705193 1.191337-1.3951211 1.202167-2.7477818l.001203-47.1261106c0-1.7523259-.133709-2.1567088-1.20337-3.3698575l-6.551669-6.7397152v-.2695886h29.683078v14.2881962c3.342689-9.4356013 10.429189-15.3665506 21.259502-15.3665506zm-62.708845 1.0783544v57.0179902c0 1.752326 0 2.1567089 1.203367 3.2350635l6.551672 6.2005379v.2695885h-37.438117v-.2695885l6.551672-6.2005379c1.203367-1.0783546 1.203367-1.4827375 1.203367-3.2350635v-46.6388289c0-1.7523259-.133706-2.1567088-1.203367-3.3698575l-6.551672-6.7397152v-.2695886zm-172.215331 0v.2695886l-4.546056 7.6832753c-.802246 1.3479431-.935953 1.752326-.401123 3.3698576l13.236964 40.836775 9.225905-26.9529618-3.208981-9.7051898c-1.06966-3.2350632-1.604491-4.7178007-2.807859-7.1440981l-4.144934-8.0876582v-.2695886h33.293181v.2695886l-4.546057 7.6832753c-.802245 1.3479431-.935953 1.752326-.401122 3.3698576l13.370755 40.7078795 10.161774-30.3287183c.935953-2.5610918.668538-2.9654747-.401122-5.1221836l-7.755038-16.3101105v-.2695886h22.863991v.2695886l-9.092114 15.7709336c-1.60449 2.6958858-2.13932 3.639446-2.941566 6.0657434l-15.242661 44.6169145h-14.975246l-12.835925-37.4728164-12.835926 37.4728164h-15.108953l-17.248275-51.2218352c-1.06966-3.1002692-1.60449-4.8525948-2.807858-7.1440981l-4.144935-8.0876582v-.2695886zm-129.377481 32.066142-18.63714 30.4324157h37.279248zm26.171924-42.7248973-20.741807 33.8588595 24.070366 39.2973974 41.480505.0010561zm-77.3474655 40.8290864-19.8004782 32.3282266h39.6023247zm-25.0072169-40.8290864-44.809064 73.157313 39.154094-.0010561 25.2320699-41.1932083zm50.0158024 0-19.5822525 31.9630486 20.7403985 33.8597123 19.578693-31.9639014zm262.911604 12.1414926c-6.685378 0-10.429189 6.8745095-10.696604 26.4196837h19.65501c.133706-1.752326.133706-3.5046521.133706-4.0438294 0-17.6580536-3.610101-22.3758543-9.092112-22.3758543zm229.987384-25.67960984c4.947181 0 9.092112 3.77424049 9.092112 9.03121834 0 5.1221835-4.144931 8.896424-9.092112 8.896424-5.080887 0-9.225822-3.7742405-9.225822-8.896424 0-5.25697785 4.144935-9.03121834 9.225822-9.03121834zm26.474095 0c5.080886 0 9.225821 3.77424049 9.225821 9.03121834 0 5.1221835-4.144935 8.896424-9.225821 8.896424-4.947177 0-9.092113-3.7742405-9.092113-8.896424 0-5.25697785 4.144936-9.03121834 9.092113-9.03121834zm-204.338899 0c5.080887 0 9.225822 3.77424049 9.225822 9.03121834 0 5.1221835-4.144935 8.896424-9.225822 8.896424-4.947177 0-9.092112-3.7742405-9.092112-8.896424 0-5.25697785 4.144935-9.03121834 9.092112-9.03121834z" fill="#282c39"/></svg>