<?xml version="1.0" encoding="UTF-8"?>
<svg width="300px" height="77px" viewBox="0 0 300 77" version="1.1" xmlns="http://www.w3.org/2000/svg" xmlns:xlink="http://www.w3.org/1999/xlink">
    <!-- Generator: Sketch 52.5 (67469) - http://www.bohemiancoding.com/sketch -->
    <title>Combined Shape@3x</title>
    <desc>Created with Sketch.</desc>
    <g id="Page-1" stroke="none" stroke-width="1" fill="none" fill-rule="evenodd">
        <g id="Desktop---HOW-IT-WORKS" transform="translate(-784.000000, -6210.000000)" fill="#FFFFFF">
            <path d="M789.557208,6211.17609 L1070.43692,6210.00037 C1071.93678,6209.99409 1073.21081,6211.09649 1073.42012,6212.58168 L1083.32057,6282.8306 C1083.55179,6284.47124 1082.40923,6285.98868 1080.76859,6286.2199 C1080.61581,6286.24143 1080.46161,6286.25115 1080.30734,6286.24896 L787.467042,6282.09155 C785.810354,6282.06804 784.48641,6280.70596 784.50993,6279.04927 C784.510179,6279.03174 784.510581,6279.01422 784.511137,6278.9967 L786.571275,6214.08091 C786.6225,6212.46678 787.942285,6211.18285 789.557208,6211.17609 Z M795.848,6264 L804.192,6264 L804.192,6222.616 L795.848,6222.616 L795.848,6264 Z M819.24,6264 L819.24,6247.648 C819.24,6243.112 822.04,6239.92 826.24,6239.92 C830.104,6239.92 832.68,6242.608 832.68,6247.48 L832.68,6264 L840.576,6264 L840.576,6245.352 C840.576,6241.264 839.4,6238.128 837.104,6235.944 C834.808,6233.76 831.952,6232.64 828.648,6232.64 C824.336,6232.64 820.696,6234.768 819.072,6237.736 L819.072,6233.48 L811.344,6233.48 L811.344,6264 L819.24,6264 Z M856.744,6264.784 C860.384,6264.784 863.352,6263.888 865.536,6262.04 C867.776,6260.192 868.896,6257.84 868.896,6254.984 C868.896,6251.624 867.16,6249.048 863.744,6247.256 C862.904,6246.808 860.44,6245.8 856.408,6244.288 C854.616,6243.672 853.72,6242.776 853.72,6241.488 C853.72,6240.088 855.12,6238.912 857.192,6238.912 C859.712,6238.912 862.064,6239.92 864.192,6241.936 L868.112,6236.84 C865.312,6233.928 861.728,6232.472 857.416,6232.472 C854,6232.472 851.2,6233.312 849.128,6235.048 C847.056,6236.784 845.992,6238.968 845.992,6241.656 C845.992,6245.24 847.728,6247.872 851.256,6249.552 C851.928,6249.888 853.216,6250.448 855.176,6251.176 C857.136,6251.904 858.312,6252.352 858.816,6252.576 C860.272,6253.248 861,6254.144 861,6255.208 C861,6256.944 859.208,6258.176 856.8,6258.176 C853.72,6258.176 850.528,6256.552 848.344,6253.92 L844.144,6258.904 C847.224,6262.824 851.424,6264.784 856.744,6264.784 Z M892.736,6255.992 C890.888,6257.056 889.152,6257.56 887.64,6257.56 C884.784,6257.56 883.328,6255.768 883.328,6252.184 L883.328,6240.088 L893.408,6240.088 L893.408,6233.48 L883.328,6233.48 L883.328,6222.672 L875.488,6222.672 L875.488,6233.48 L870.448,6233.48 L870.448,6240.088 L875.432,6240.088 L875.432,6252.688 C875.432,6260.584 879.072,6264.728 886.072,6264.728 C889.6,6264.728 892.568,6263.888 895.088,6262.208 L892.736,6255.992 Z M920.832,6237.12 C918.144,6234.152 914.896,6232.696 911.088,6232.696 C906.776,6232.696 903.136,6234.208 900.28,6237.232 C897.424,6240.2 895.968,6244.008 895.968,6248.6 C895.968,6253.192 897.368,6257.056 900.224,6260.136 C903.08,6263.216 906.72,6264.728 911.088,6264.728 C914.952,6264.728 918.2,6263.328 920.832,6260.472 L920.832,6264 L928.336,6264 L928.336,6233.48 L920.832,6233.48 L920.832,6237.12 Z M920.944,6248.712 C920.944,6251.176 920.104,6253.248 918.48,6254.984 C916.856,6256.72 914.84,6257.56 912.376,6257.56 C909.912,6257.56 907.896,6256.72 906.272,6254.984 C904.648,6253.248 903.864,6251.176 903.864,6248.712 C903.864,6246.304 904.648,6244.232 906.216,6242.496 C907.84,6240.76 909.856,6239.92 912.376,6239.92 C914.84,6239.92 916.856,6240.76 918.48,6242.496 C920.104,6244.232 920.944,6246.304 920.944,6248.712 Z M942.544,6264 L942.544,6247.648 C942.544,6243.112 945.344,6239.92 949.544,6239.92 C953.408,6239.92 955.984,6242.608 955.984,6247.48 L955.984,6264 L963.88,6264 L963.88,6245.352 C963.88,6241.264 962.704,6238.128 960.408,6235.944 C958.112,6233.76 955.256,6232.64 951.952,6232.64 C947.64,6232.64 944,6234.768 942.376,6237.736 L942.376,6233.48 L934.648,6233.48 L934.648,6264 L942.544,6264 Z M989.232,6255.992 C987.384,6257.056 985.648,6257.56 984.136,6257.56 C981.28,6257.56 979.824,6255.768 979.824,6252.184 L979.824,6240.088 L989.904,6240.088 L989.904,6233.48 L979.824,6233.48 L979.824,6222.672 L971.984,6222.672 L971.984,6233.48 L966.944,6233.48 L966.944,6240.088 L971.928,6240.088 L971.928,6252.688 C971.928,6260.584 975.568,6264.728 982.568,6264.728 C986.096,6264.728 989.064,6263.888 991.584,6262.208 L989.232,6255.992 Z M1002.432,6221.44 L994.536,6221.44 L994.536,6264 L1002.432,6264 L1002.432,6221.44 Z M1022.632,6253.36 L1014.736,6233.48 L1005.608,6233.48 L1018.936,6263.664 L1018.32,6265.064 C1016.808,6268.256 1014.848,6269.88 1012.384,6269.88 C1011.208,6269.88 1009.864,6269.544 1008.464,6268.872 L1007.12,6275.48 C1008.744,6276.488 1010.704,6276.992 1013,6276.992 C1019.048,6276.992 1022.968,6273.296 1025.936,6265.512 L1038.2,6233.48 L1029.576,6233.48 L1022.632,6253.36 Z M1055.432,6253.08 L1055.432,6249.832 C1055.432,6246.472 1059.52,6243.84 1062.544,6240.984 C1064.728,6238.968 1066.464,6236 1066.464,6232.472 C1066.464,6229.056 1065.232,6226.2 1062.712,6223.904 C1060.192,6221.608 1057,6220.488 1053.08,6220.488 C1047.536,6220.488 1042.944,6222.784 1039.248,6227.32 L1044.12,6232.808 C1046.92,6229.56 1049.72,6227.936 1052.464,6227.936 C1055.656,6227.936 1058.064,6230.008 1058.064,6232.976 C1058.064,6236.504 1054.312,6238.912 1051.4,6241.6 C1049.44,6243.392 1047.816,6246.192 1047.816,6249.384 L1047.816,6253.08 L1055.432,6253.08 Z M1047.088,6260.136 C1047.088,6262.768 1049.216,6264.672 1051.736,6264.672 C1054.256,6264.672 1056.272,6262.768 1056.272,6260.136 C1056.272,6257.616 1054.256,6255.6 1051.736,6255.6 C1049.104,6255.6 1047.088,6257.616 1047.088,6260.136 Z" id="Combined-Shape"></path>
        </g>
    </g>
</svg>