<?xml version="1.0" encoding="UTF-8"?>
<svg width="24px" height="24px" viewBox="0 0 24 24" version="1.1" xmlns="http://www.w3.org/2000/svg" xmlns:xlink="http://www.w3.org/1999/xlink">
    <!-- Generator: Sketch 48.2 (47327) - http://www.bohemiancoding.com/sketch -->
    <title>iconfinder-icon</title>
    <desc>Created with Sketch.</desc>
    <defs></defs>
    <g id="Page-1" stroke="none" stroke-width="1" fill="none" fill-rule="evenodd">
        <g id="iconfinder-icon" transform="translate(-5.000000, -2.000000)">
            <g id="background">
                <rect id="canvas_background" x="0" y="0" width="582" height="402"></rect>
            </g>
            <g id="Layer-1" transform="translate(17.000000, 14.000000) rotate(90.000000) translate(-17.000000, -14.000000) translate(5.000000, 1.000000)" fill="#FFFFFF" fill-rule="nonzero">
                <path d="M0.75,4.75 L7.43036,4.75 C7.76593,6.04523 8.93427,7.00879 10.33301,7.00879 C11.73175,7.00879 12.90009,6.04523 13.23566,4.75 L23.25,4.75 C23.66406,4.75 24,4.41406 24,4 C24,3.58594 23.66406,3.25 23.25,3.25 L13.23566,3.25 C12.90009,1.95477 11.73175,0.99121 10.33301,0.99121 C8.93427,0.99121 7.76593,1.95477 7.43036,3.25 L0.75,3.25 C0.33594,3.25 0,3.58594 0,4 C0,4.41406 0.33594,4.75 0.75,4.75 Z M10.33301,2.49121 C11.16504,2.49121 11.8418,3.16797 11.8418,4 C11.8418,4.83203 11.16504,5.50879 10.33301,5.50879 C9.50098,5.50879 8.82422,4.83203 8.82422,4 C8.82422,3.16797 9.50098,2.49121 10.33301,2.49121 Z" id="svg_2"></path>
                <path d="M23.25,12.25 L21.64386,12.25 C21.30829,10.95477 20.13995,9.99121 18.74121,9.99121 C17.34247,9.99121 16.17413,10.95477 15.83856,12.25 L0.75,12.25 C0.33594,12.25 -1.77635684e-15,12.58594 -1.77635684e-15,13 C-1.77635684e-15,13.41406 0.33594,13.75 0.75,13.75 L15.83856,13.75 C16.17413,15.04523 17.34247,16.00879 18.74121,16.00879 C20.13995,16.00879 21.30829,15.04523 21.64386,13.75 L23.25,13.75 C23.66406,13.75 24,13.41406 24,13 C24,12.58594 23.66406,12.25 23.25,12.25 Z M18.74121,14.50879 C17.90918,14.50879 17.23242,13.83203 17.23242,13 C17.23242,12.16797 17.90918,11.49121 18.74121,11.49121 C19.57324,11.49121 20.25,12.16797 20.25,13 C20.25,13.83203 19.57324,14.50879 18.74121,14.50879 Z" id="svg_3"></path>
                <path d="M23.25,21.25 L8.71814,21.25 C8.38263,19.95477 7.21436,18.99121 5.81641,18.99121 C4.41766,18.99121 3.24933,19.95477 2.91376,21.25 L0.75,21.25 C0.33594,21.25 -4.4408921e-16,21.58594 -4.4408921e-16,22 C-4.4408921e-16,22.41406 0.33594,22.75 0.75,22.75 L2.91376,22.75 C3.24933,24.04523 4.41766,25.00879 5.81641,25.00879 C7.21436,25.00879 8.38263,24.04523 8.71814,22.75 L23.25,22.75 C23.66406,22.75 24,22.41406 24,22 C24,21.58594 23.66406,21.25 23.25,21.25 Z M5.81641,23.50879 C4.98438,23.50879 4.30762,22.83203 4.30762,22 C4.30762,21.16797 4.98438,20.49121 5.81641,20.49121 C6.64746,20.49121 7.32422,21.16797 7.32422,22 C7.32422,22.83203 6.64746,23.50879 5.81641,23.50879 Z" id="svg_4"></path>
            </g>
        </g>
    </g>
</svg>