<svg width="208" height="40" xmlns="http://www.w3.org/2000/svg"><g fill="#333537" fill-rule="evenodd"><path d="M58.419 31.889c-4.047 0-7.707-1.76-9.854-4.954l2.991-3.698c1.69 2.405 4.223 3.698 6.898 3.698 2.147 0 3.73-1.15 3.73-2.837 0-1.077-.774-2.01-2.358-2.764-.351-.18-1.196-.503-2.569-1.041-1.337-.539-2.357-1.041-3.061-1.436-2.745-1.616-4.118-3.806-4.118-6.606 0-2.226.81-4.057 2.464-5.529 1.654-1.472 3.8-2.226 6.405-2.226 3.378 0 6.229 1.185 8.551 3.59l-2.78 3.878c-1.443-1.58-3.765-2.477-5.701-2.477-2.076 0-3.343 1.005-3.343 2.549 0 1.04.704 1.902 2.111 2.62l2.57 1.15c1.442.61 2.498 1.076 3.167 1.4 2.956 1.471 4.434 3.661 4.434 6.605 0 2.37-.88 4.308-2.64 5.816-1.76 1.508-4.047 2.262-6.897 2.262zm22.5-20.5c2.71 0 4.962 1.006 6.756 2.98 1.795 1.975 2.675 4.416 2.675 7.288s-.915 5.313-2.71 7.288c-1.795 1.975-4.047 2.98-6.757 2.98-2.358 0-4.364-.898-6.018-2.729V39.5h-4.962V11.892h4.927v2.405c1.654-1.938 3.66-2.908 6.088-2.908zm-.88 15.905c1.583 0 2.85-.539 3.836-1.616.985-1.077 1.478-2.405 1.478-3.985s-.493-2.908-1.478-3.985c-.986-1.077-2.253-1.616-3.836-1.616-1.549 0-2.816.539-3.801 1.616-.986 1.077-1.478 2.405-1.478 3.985s.492 2.908 1.478 3.985c.985 1.077 2.252 1.616 3.8 1.616zm30.98-6.068c0 .682-.07 1.436-.175 2.226H96.45c.704 2.765 2.57 4.165 5.596 4.165 2.076 0 4.54-.826 6.194-1.975l1.97 3.554c-2.428 1.795-5.208 2.693-8.375 2.693-3.379 0-5.948-1.005-7.743-2.98-1.795-1.974-2.674-4.416-2.674-7.252 0-2.98.915-5.421 2.78-7.36 1.865-1.938 4.258-2.908 7.214-2.908 2.78 0 5.103.898 6.898 2.657 1.795 1.76 2.71 4.129 2.71 7.18zm-9.607-5.636c-2.498 0-4.364 1.544-4.962 4.092h9.748c-.457-2.548-2.252-4.092-4.786-4.092zm30.172 5.636c0 .682-.07 1.436-.176 2.226h-14.394c.704 2.765 2.57 4.165 5.596 4.165 2.076 0 4.54-.826 6.194-1.975l1.97 3.554c-2.428 1.795-5.208 2.693-8.375 2.693-3.379 0-5.948-1.005-7.743-2.98-1.795-1.974-2.674-4.416-2.674-7.252 0-2.98.915-5.421 2.78-7.36 1.865-1.938 4.258-2.908 7.214-2.908 2.78 0 5.103.898 6.898 2.657 1.795 1.76 2.71 4.129 2.71 7.18zm-9.608-5.636c-2.498 0-4.364 1.544-4.962 4.092h9.748c-.457-2.548-2.252-4.092-4.786-4.092zm25.878-1.436v-9.98h4.963v27.284h-4.857v-2.405c-1.548 1.902-3.52 2.872-5.947 2.872-2.71 0-4.998-.97-6.793-2.908-1.794-1.975-2.71-4.416-2.71-7.36 0-2.908.916-5.35 2.71-7.324 1.83-1.974 4.083-2.944 6.793-2.944 2.322 0 4.258.934 5.841 2.765zm.247 7.503c0-1.58-.493-2.908-1.478-3.985-.986-1.113-2.253-1.651-3.836-1.651-1.584 0-2.85.538-3.871 1.651-.986 1.077-1.478 2.405-1.478 3.985 0 1.616.492 2.944 1.478 4.057 1.02 1.077 2.287 1.615 3.87 1.615 1.584 0 2.851-.538 3.837-1.615.985-1.113 1.478-2.441 1.478-4.057zm37.644 9.801h-6.405l-7.214-10.519-3.203 3.913v6.606h-5.208V4.928h5.208v12.529l9.854-12.53h6.3l-9.538 12.063 10.206 14.468zm5.115-22.654c-1.162 1.185-3.203 1.185-4.364 0-1.162-1.184-1.162-3.267 0-4.415 1.161-1.185 3.202-1.185 4.364 0 1.161 1.148 1.161 3.23 0 4.415zm.281 3.088v19.566h-4.962V11.892h4.962zm15.356 14.432l1.478 3.985c-1.584 1.077-3.449 1.616-5.666 1.616-4.4 0-6.687-2.657-6.687-7.719v-8.078h-3.132v-4.236h3.168V4.963h4.927v6.929h6.334v4.236h-6.334v7.755c0 2.298.915 3.446 2.71 3.446.95 0 2.04-.323 3.202-1.005zM4.109 0h27.733a4.111 4.111 0 014.109 4.114v27.772A4.111 4.111 0 0131.842 36H4.109A4.111 4.111 0 010 31.886V4.114A4.111 4.111 0 014.109 0zm25.234 10.878c.774-2.3.787-3.996.316-4.467-.472-.474-2.167-.443-4.482.344.354.774.924 1.609 1.697 2.384.804.804 1.672 1.388 2.47 1.74zm-.213.598c-.903-.404-1.839-1.05-2.69-1.902-.824-.825-1.454-1.729-1.86-2.605-2.012.763-4.42 2.064-6.879 4.05-3.495 2.824-5.874 5.936-7.134 9.335a1.315 1.315 0 00.302 1.387l3.459 3.463a1.31 1.31 0 001.426.286c3.291-1.353 6.375-3.74 9.251-7.157 2.043-2.428 3.363-4.838 4.125-6.857zm-7.628 3.057a2.265 2.265 0 010-3.2 2.258 2.258 0 013.195 0 2.265 2.265 0 010 3.2 2.258 2.258 0 01-3.195 0zm-11.128 4.74c1.038-2.585 2.772-4.975 5.202-7.17-.994-.111-2.266.304-3.815 1.248-1.913 1.165-3.672 2.757-5.28 4.777a.41.41 0 00.268.663l3.625.481zm6.368 6.376l.481 3.63a.41.41 0 00.662.268c2.017-1.61 3.607-3.371 4.77-5.287.943-1.55 1.358-2.824 1.247-3.82-2.192 2.434-4.579 4.17-7.16 5.21zm-4.846 2.815s.182-.157.242-.218a3.092 3.092 0 00.006-4.357l-.001-.001-.005-.005a3.082 3.082 0 00-4.479.126c-1.2 1.274-.9 2.194-.888 2.233a.17.17 0 00.265.08c.01-.006.86-.634 1.459-.245-.316.32-.784.817-1.104 1.354-.459.772-.658 1.864-.506 2.783a.171.171 0 00.29.093c.566-.566 1.233-.665 2.007-.779.835-.123 1.781-.263 2.714-1.064zm-.522-3.816c.56.562.58 1.455.045 1.991-.028.029-.057.053-.085.077-.476.406-.938.461-1.384.515-.311.038-.63.077-.924.226.009-.333.093-.673.24-.927.165-.286.41-.54.626-.758.084-.084.076-.228-.017-.322-.286-.285-.636-.287-.923-.196.05-.155.156-.357.375-.59.021-.025.04-.043.058-.061.536-.537 1.428-.516 1.989.045z"/></g></svg>