<svg fill="none" height="80" viewBox="0 0 420 80" width="420" xmlns="http://www.w3.org/2000/svg"><g clip-rule="evenodd" fill-rule="evenodd"><path d="m117.977 64.5532c-8.173 0-15.564-3.5611-19.8996-10.0292l6.0406-7.4856c3.412 4.8692 8.529 7.4856 13.93 7.4856 4.335 0 7.533-2.3257 7.533-5.7414 0-2.1803-1.563-4.0698-4.761-5.596-.711-.3634-2.417-1.0175-5.188-2.1076-2.701-1.0901-4.762-2.1076-6.184-2.907-5.543-3.2704-8.315-7.7036-8.315-13.3723 0-4.5059 1.635-8.2124 4.975-11.1921s7.676-4.50586 12.935-4.50586c6.823 0 12.579 2.39826 17.27 7.26756l-5.615 7.849c-2.914-3.1978-7.604-5.0147-11.513-5.0147-4.193 0-6.752 2.035-6.752 5.16 0 2.1076 1.422 3.8518 4.265 5.3053l5.188 2.3256c2.913 1.2355 5.046 2.1803 6.396 2.8344 5.97 2.9797 8.955 7.4129 8.955 13.3723 0 4.7966-1.777 8.7211-5.331 11.7734-3.553 3.0524-8.173 4.5786-13.929 4.5786zm45.434-41.4978c5.473 0 10.021 2.0349 13.646 6.032 3.624 3.9972 5.401 8.9391 5.401 14.7532 0 5.814-1.848 10.7559-5.472 14.7531-3.625 3.9971-8.173 6.0321-13.646 6.0321-4.761 0-8.812-1.8169-12.153-5.5234v20.8579h-10.02v-55.8875h9.949v4.8693c3.341-3.9245 7.392-5.8867 12.295-5.8867zm-1.772 32.1955c3.198 0 5.757-1.0901 7.747-3.2704 1.989-2.1803 2.984-4.8693 2.984-8.067s-.995-5.8867-2.984-8.067c-1.99-2.1802-4.549-3.2704-7.747-3.2704-3.127 0-5.686 1.0902-7.676 3.2704-1.989 2.1803-2.984 4.8693-2.984 8.067s.995 5.8867 2.984 8.067c1.99 2.1803 4.549 3.2704 7.676 3.2704zm62.563-12.2825c0 1.3809-.142 2.9071-.356 4.5059h-29.067c1.421 5.5961 5.188 8.4304 11.3 8.4304 4.193 0 9.168-1.6715 12.508-3.9972l3.98 7.1949c-4.904 3.6338-10.518 5.4507-16.914 5.4507-6.823 0-12.011-2.0349-15.636-6.0321-3.624-3.9971-5.401-8.9391-5.401-14.6804 0-6.0321 1.848-10.9741 5.615-14.8985 3.766-3.9245 8.599-5.8867 14.569-5.8867 5.614 0 10.305 1.8168 13.929 5.3779 3.625 3.5611 5.473 8.3577 5.473 14.5351zm-19.398-11.4101c-5.046 0-8.812 3.125-10.021 8.285h19.687c-.924-5.16-4.549-8.285-9.666-8.285zm60.924 11.4101c0 1.3809-.142 2.9071-.356 4.5059h-29.067c1.422 5.5961 5.188 8.4304 11.3 8.4304 4.193 0 9.168-1.6715 12.508-3.9972l3.98 7.1949c-4.904 3.6338-10.518 5.4507-16.914 5.4507-6.823 0-12.011-2.0349-15.636-6.0321-3.624-3.9971-5.401-8.9391-5.401-14.6804 0-6.0321 1.848-10.9741 5.615-14.8985 3.766-3.9245 8.599-5.8867 14.569-5.8867 5.614 0 10.305 1.8168 13.93 5.3779 3.624 3.5611 5.472 8.3577 5.472 14.5351zm-19.398-11.4101c-5.046 0-8.812 3.125-10.02 8.285h19.686c-.924-5.16-4.549-8.285-9.666-8.285zm52.265-2.9069v-20.20377h10.021v55.23337h-9.807v-4.8692c-3.127 3.8518-7.107 5.814-12.011 5.814-5.473 0-10.092-1.9622-13.717-5.8867-3.624-3.9971-5.472-8.9391-5.472-14.8985 0-5.8867 1.848-10.8286 5.472-14.8258 3.696-3.9971 8.244-5.9594 13.717-5.9594 4.69 0 8.599 1.8896 11.797 5.596zm.497 15.189c0-3.1978-.995-5.8868-2.985-8.067-1.99-2.253-4.549-3.3431-7.747-3.3431s-5.756 1.0901-7.817 3.3431c-1.99 2.1802-2.985 4.8692-2.985 8.067 0 3.2704.995 5.9594 2.985 8.2123 2.061 2.1803 4.619 3.2704 7.817 3.2704s5.757-1.0901 7.747-3.2704c1.99-2.2529 2.985-4.9419 2.985-8.2123zm76.016 19.8407h-12.935l-14.569-21.2939-6.467 7.9216v13.3723h-10.519v-53.70721h10.519v25.36381l19.899-25.36381h12.722l-19.26 24.41901zm10.324-45.8583c-2.345 2.3983-6.467 2.3983-8.812 0-2.346-2.3983-2.346-6.6135 0-8.93909 2.345-2.39829 6.467-2.39829 8.812 0 2.346 2.32559 2.346 6.54079 0 8.93909zm.575 6.25v39.6082h-10.021v-39.6082zm31.007 29.2155 2.985 8.067c-3.198 2.1803-6.965 3.2704-11.442 3.2704-8.884 0-13.503-5.378-13.503-15.6252v-16.352h-6.325v-8.5757h6.396v-14.0264h9.95v14.0264h12.792v8.5757h-12.792v15.6979c0 4.6512 1.847 6.9769 5.472 6.9769 1.919 0 4.122-.6541 6.467-2.035z" fill="#282c39"/><path d="m8.2972 0h56.0061c4.5824 0 8.2972 3.72885 8.2972 8.32862v56.21818c0 4.5998-3.7148 8.3286-8.2972 8.3286h-56.0061c-4.58242 0-8.2972-3.7288-8.2972-8.3286v-56.21818c0-4.59977 3.71478-8.32862 8.2972-8.32862zm50.9535 22.0208c1.5628-4.6552 1.5882-8.0903.6385-9.0436-.9547-.9583-4.3762-.8955-9.0525.6968.7154 1.567 1.8656 3.2569 3.428 4.8252 1.6223 1.6284 3.3752 2.8108 4.986 3.5216zm-.4242 1.2096c-1.8224-.8171-3.7136-2.1231-5.4334-3.8494-1.6632-1.6695-2.9348-3.5-3.753-5.2733-4.0643 1.5434-8.9288 4.178-13.8927 8.1977-7.0599 5.717-11.8627 12.0162-14.4083 18.8975-.3607.9749-.1223 2.0715.6104 2.8068l6.985 7.0115c.7559.7588 1.892.9873 2.8808.5795 6.6455-2.7406 12.8727-7.5706 18.6817-14.4898 4.1255-4.9139 6.79-9.7922 8.3295-13.8805zm-15.4078 6.1896c-1.7821-1.7889-1.7821-4.6892 0-6.4781 1.7822-1.7889 4.6716-1.7889 6.4538 0 1.7821 1.7889 1.7821 4.6892 0 6.4781-1.7822 1.7889-4.6716 1.7889-6.4538 0zm-22.467 9.5932c2.0954-5.2322 5.5971-10.0698 10.5049-14.5126-2.0082-.2259-4.576.6159-7.7036 2.5253-3.8629 2.3583-7.4167 5.5818-10.6617 9.6705-.0936.1179-.1534.2592-.1732.4086-.0601.4551.2587.873.7121.9334zm12.8589 12.909.9712 7.3493c.0601.4551.4764.7751.9298.7147.1489-.0198.2896-.0799.4071-.1739 4.0732-3.2572 7.2846-6.8245 9.634-10.702 1.9022-3.1394 2.7408-5.717 2.5158-7.7328-4.4261 4.9264-9.2454 8.4413-14.4579 10.5447zm-9.785 5.6977s.3666-.3177.4886-.4402c2.4218-2.4309 2.4259-6.3842.0126-8.8206l-.0031-.0031c-.0021-.0036-.0062-.0067-.0098-.0098-2.4262-2.4354-6.3741-2.4356-8.8002-.0003-.0833.0836-.1664.1675-.2444.2559-2.4256 2.5785-1.8201 4.4419-1.7931 4.5197.0355.1057.1198.185.2256.2184.1055.0321.22.0119.3086-.0544.0187-.0139 1.7357-1.2841 2.9456-.4972-.6381.6487-1.5815 1.6536-2.2279 2.741-.9276 1.5628-1.3288 3.7738-1.0218 5.6328.0203.1287.1115.2341.2354.2737.1234.0395.2586.007.3502-.0851 1.1413-1.1456 2.4898-1.3451 4.0513-1.5763 1.6865-.2499 3.598-.5328 5.4824-2.1545zm-1.0554-7.7245c1.1323 1.1366 1.1732 2.9448.0912 4.0309-.0569.0572-.1144.1061-.1715.1547-.962.8214-1.8934.9344-2.7943 1.0436-.6296.0765-1.2746.1549-1.8667.4574.0173-.6736.1886-1.3635.4842-1.877.3338-.5786.8281-1.0949 1.2652-1.5337.1697-.1703.1539-.4618-.0352-.6517-.5766-.5787-1.2832-.5819-1.8643-.3972.1013-.3143.3162-.724.7588-1.1958.0426-.0487.0801-.0857.1169-.1227 1.0821-1.0861 2.8834-1.0451 4.0157.0915z" fill="#0568fd"/></g></svg>