<?xml version="1.0" encoding="UTF-8"?>
<svg width="260px" height="50px" viewBox="0 0 260 50" version="1.1" xmlns="http://www.w3.org/2000/svg" xmlns:xlink="http://www.w3.org/1999/xlink">
    <!-- Generator: Sketch 52.5 (67469) - http://www.bohemiancoding.com/sketch -->
    <title>Group@3x</title>
    <desc>Created with Sketch.</desc>
    <g id="Page-1" stroke="none" stroke-width="1" fill="none" fill-rule="evenodd">
        <g id="Analyzer" transform="translate(-590.000000, -60.000000)" fill="#333537">
            <g id="Group" transform="translate(590.000000, 60.000000)">
                <path d="M73.0234424,39.8611631 C67.9645282,39.8611631 63.3895102,37.6622102 60.7060862,33.6681937 L64.4452836,29.045905 C66.5568304,32.0526365 69.7241505,33.6681937 73.0674329,33.6681937 C75.7508569,33.6681937 77.730432,32.2321429 77.730432,30.1229432 C77.730432,28.7766455 76.7626398,27.6098542 74.7830647,26.6674458 C74.3431591,26.4430628 73.2873857,26.0391735 71.571754,25.3660247 C69.9001128,24.6928758 68.6243866,24.0646036 67.7445754,23.5709611 C64.3133119,21.5515146 62.5976802,18.8140426 62.5976802,15.3136687 C62.5976802,12.5313201 63.609463,10.2426141 65.6770192,8.4026739 C67.7445754,6.56273373 70.4279995,5.62032536 73.6833007,5.62032536 C77.9063943,5.62032536 81.4696294,7.1012528 84.3730063,10.1079843 L80.8977522,14.9546559 C79.0941393,12.980086 76.1907625,11.8581713 73.7712818,11.8581713 C71.1758389,11.8581713 69.5921789,13.1147158 69.5921789,15.0444091 C69.5921789,16.3458302 70.47199,17.4228684 72.2316123,18.3204001 L75.442923,19.756451 C77.2465359,20.519353 78.5662526,21.1027487 79.4020732,21.506638 C83.0972801,23.3465782 84.9448835,26.0840501 84.9448835,29.7639304 C84.9448835,32.7257853 83.8451196,35.1491212 81.6455917,37.0339379 C79.4460638,38.9187547 76.5866775,39.8611631 73.0234424,39.8611631 Z M101.148072,14.2366305 C104.535345,14.2366305 107.350741,15.493175 109.594259,17.9613874 C111.837778,20.4295999 112.937542,23.4812079 112.937542,27.0713351 C112.937542,30.6614622 111.793787,33.7130703 109.550269,36.1812827 C107.30675,38.6494951 104.491355,39.9060396 101.104082,39.9060396 C98.1567143,39.9060396 95.6492525,38.7841249 93.5816963,36.4954188 L93.5816963,49.375 L87.3790277,49.375 L87.3790277,14.8649028 L93.5377058,14.8649028 L93.5377058,17.8716343 C95.605262,15.4482984 98.1127238,14.2366305 101.148072,14.2366305 Z M100.048308,34.1169596 C102.027883,34.1169596 103.611543,33.4438108 104.843279,32.0975131 C106.075015,30.7512154 106.690883,29.0907816 106.690883,27.1162117 C106.690883,25.1416417 106.075015,23.4812079 104.843279,22.1349102 C103.611543,20.7886126 102.027883,20.1154637 100.048308,20.1154637 C98.1127238,20.1154637 96.5290637,20.7886126 95.2973281,22.1349102 C94.0655925,23.4812079 93.4497247,25.1416417 93.4497247,27.1162117 C93.4497247,29.0907816 94.0655925,30.7512154 95.2973281,32.0975131 C96.5290637,33.4438108 98.1127238,34.1169596 100.048308,34.1169596 Z M138.774663,26.532816 C138.774663,27.3854712 138.686682,28.3278796 138.55471,29.3151645 L120.562572,29.3151645 C121.442383,32.7706619 123.773882,34.5208489 127.55707,34.5208489 C130.152513,34.5208489 133.231852,33.4886874 135.299409,32.0526365 L137.76288,36.4954188 C134.727531,38.7392483 131.252277,39.8611631 127.293127,39.8611631 C123.070034,39.8611631 119.858723,38.6046185 117.615204,36.1364061 C115.371686,33.6681937 114.271922,30.6165856 114.271922,27.0713351 C114.271922,23.3465782 115.415676,20.2949701 117.747176,17.8716343 C120.078676,15.4482984 123.070034,14.2366305 126.76524,14.2366305 C130.240494,14.2366305 133.143871,15.3585453 135.38739,17.5574981 C137.630908,19.756451 138.774663,22.7183059 138.774663,26.532816 Z M126.76524,19.4871915 C123.641911,19.4871915 121.310411,21.4168848 120.562572,24.6031227 L132.747956,24.6031227 C132.176079,21.4168848 129.932561,19.4871915 126.76524,19.4871915 Z M164.479812,26.532816 C164.479812,27.3854712 164.391831,28.3278796 164.259859,29.3151645 L146.267721,29.3151645 C147.147532,32.7706619 149.479032,34.5208489 153.26222,34.5208489 C155.857663,34.5208489 158.937002,33.4886874 161.004558,32.0526365 L163.468029,36.4954188 C160.432681,38.7392483 156.957426,39.8611631 152.998276,39.8611631 C148.775183,39.8611631 145.563872,38.6046185 143.320354,36.1364061 C141.076835,33.6681937 139.977071,30.6165856 139.977071,27.0713351 C139.977071,23.3465782 141.120826,20.2949701 143.452325,17.8716343 C145.783825,15.4482984 148.775183,14.2366305 152.47039,14.2366305 C155.945644,14.2366305 158.84902,15.3585453 161.092539,17.5574981 C163.336057,19.756451 164.479812,22.7183059 164.479812,26.532816 Z M152.47039,19.4871915 C149.34706,19.4871915 147.01556,21.4168848 146.267721,24.6031227 L158.453105,24.6031227 C157.881228,21.4168848 155.63771,19.4871915 152.47039,19.4871915 Z M184.818113,17.6921279 L184.818113,5.21643605 L191.020782,5.21643605 L191.020782,39.322644 L184.950085,39.322644 L184.950085,36.3159125 C183.0145,38.6943717 180.551029,39.9060396 177.51568,39.9060396 C174.128408,39.9060396 171.269021,38.6943717 169.025503,36.2710359 C166.781984,33.8028235 165.63823,30.7512154 165.63823,27.0713351 C165.63823,23.4363313 166.781984,20.3847233 169.025503,17.9165108 C171.313012,15.4482984 174.128408,14.2366305 177.51568,14.2366305 C180.419057,14.2366305 182.838538,15.4034218 184.818113,17.6921279 Z M185.126047,27.0713351 C185.126047,25.0967651 184.510179,23.4363313 183.278444,22.0900337 C182.046708,20.6988594 180.463048,20.0257105 178.483473,20.0257105 C176.503898,20.0257105 174.920238,20.6988594 173.644511,22.0900337 C172.412776,23.4363313 171.796908,25.0967651 171.796908,27.0713351 C171.796908,29.0907816 172.412776,30.7512154 173.644511,32.1423897 C174.920238,33.4886874 176.503898,34.1618362 178.483473,34.1618362 C180.463048,34.1618362 182.046708,33.4886874 183.278444,32.1423897 C184.510179,30.7512154 185.126047,29.0907816 185.126047,27.0713351 Z M232.18128,39.322644 L224.174999,39.322644 L215.156934,26.1738033 L211.153794,31.0653515 L211.153794,39.322644 L204.643191,39.322644 L204.643191,6.15884443 L211.153794,6.15884443 L211.153794,21.8207741 L223.47115,6.15884443 L231.34546,6.15884443 L219.424018,21.2373785 L232.18128,39.322644 Z M238.574575,11.0055161 C237.122886,12.4864435 234.571434,12.4864435 233.119745,11.0055161 C231.668057,9.52458863 231.668057,6.92174645 233.119745,5.48569559 C234.571434,4.00476814 237.122886,4.00476814 238.574575,5.48569559 C240.026263,6.92174645 240.026263,9.52458863 238.574575,11.0055161 Z M238.926499,14.8649028 L238.926499,39.322644 L232.72383,39.322644 L232.72383,14.8649028 L238.926499,14.8649028 Z M258.121046,32.9052917 L259.968649,37.8865931 C257.989074,39.2328908 255.657574,39.9060396 252.886169,39.9060396 C247.38735,39.9060396 244.527963,36.585172 244.527963,30.2575729 L244.527963,20.1603403 L240.612804,20.1603403 L240.612804,14.8649028 L244.571954,14.8649028 L244.571954,6.20372102 L250.730632,6.20372102 L250.730632,14.8649028 L258.648932,14.8649028 L258.648932,20.1603403 L250.730632,20.1603403 L250.730632,29.8536836 C250.730632,32.7257853 251.874387,34.1618362 254.117905,34.1618362 C255.30565,34.1618362 256.669357,33.7579469 258.121046,32.9052917 Z" id="Speed-Kit-Copy"></path>
                <path d="M5.13580247,0 L39.8024691,0 C42.6388945,-5.21758608e-16 44.9382716,2.30253557 44.9382716,5.14285714 L44.9382716,39.8571429 C44.9382716,42.6974644 42.6388945,45 39.8024691,45 L5.13580247,45 C2.29937709,45 3.47361926e-16,42.6974644 0,39.8571429 L0,5.14285714 C-3.47361926e-16,2.30253557 2.29937709,5.21758608e-16 5.13580247,0 Z M36.6790882,13.5977315 C37.6464262,10.7231907 37.6621498,8.60205201 37.0743107,8.0134055 C36.4833629,7.42164596 34.3655199,7.46043901 31.4710266,8.44363298 C31.9138368,9.41124031 32.6257715,10.4547612 33.5928646,11.4231827 C34.5970238,12.4287212 35.6820382,13.1587895 36.6790891,13.597732 L36.6790882,13.5977315 Z M36.4123378,14.3445768 C35.2842874,13.8400122 34.1137046,13.0335811 33.0491899,11.9676042 C32.0196707,10.9366708 31.2325799,9.80639216 30.7261475,8.71137465 C28.2104471,9.66443233 25.1993872,11.2912829 22.1268125,13.7734156 C17.7568773,17.3036013 14.7840563,21.1932776 13.2083495,25.4424446 C12.9851034,26.0444665 13.132705,26.7215579 13.586178,27.1756539 L17.9097725,31.5051871 C18.3776746,31.9737319 19.0809024,32.1148536 19.6929688,31.8630336 C23.806345,30.1706843 27.6608705,27.1882362 31.2565454,22.9156893 C33.8101566,19.8813705 35.4593917,16.8690703 36.4123374,14.3445767 L36.4123378,14.3445768 Z M26.8769492,18.1667119 C25.7738386,17.0620861 25.7738386,15.2711337 26.8769492,14.1665079 C27.9800598,13.061882 29.7685555,13.061882 30.8716661,14.1665079 C31.9747767,15.2711337 31.9747767,17.0620861 30.8716661,18.1667119 C29.7685555,19.2713378 27.9800598,19.2713378 26.8769492,18.1667119 Z M12.9676979,24.0903411 C14.2647064,20.8595007 16.4321521,17.8723641 19.4700349,15.1289311 C18.2269948,14.9894817 16.6375246,15.5092738 14.7016243,16.6883076 C12.3105953,18.1445314 10.1108113,20.1350145 8.10227252,22.659757 C8.044343,22.7325746 8.00728192,22.8197984 7.99505736,22.9120893 C7.95783449,23.1931083 8.15515778,23.4511357 8.43579126,23.4884097 L12.9676979,24.0903411 Z M20.9278398,32.0614172 L21.5289455,36.5995491 C21.5661683,36.880568 21.8238418,37.0781623 22.1044753,37.0408884 C22.1966396,37.028647 22.2837438,36.991535 22.3564615,36.9335259 C24.8777407,34.9222281 26.8654934,32.7194225 28.3197196,30.3251091 C29.497136,28.3865496 30.0162152,26.7948961 29.8769571,25.5501485 C27.1372874,28.5922042 24.1542483,30.7626272 20.9278398,32.0614172 Z M14.870364,35.5798802 C14.870364,35.5798802 15.0973224,35.3836912 15.1728333,35.3080766 C16.6718451,33.8070057 16.6744127,31.3658726 15.1806213,29.8614209 L15.1787062,29.8595032 C15.1773727,29.8572871 15.1748619,29.8553694 15.1726489,29.8534375 C13.6708708,28.3495966 11.2271567,28.3495255 9.72549217,29.8532528 C9.67392684,29.904889 9.62248919,29.9566814 9.57417241,30.0112865 C8.07280575,31.6034984 8.44757999,32.7541111 8.46427665,32.8021959 C8.48629299,32.8674549 8.53846831,32.9164347 8.60392151,32.9370039 C8.66923286,32.9568345 8.7401476,32.9444049 8.79497566,32.9034226 C8.8065087,32.8948285 9.86933602,32.1104987 10.6182178,32.5964468 C10.2232572,32.9969786 9.63932772,33.6175358 9.23920349,34.2889905 C8.66503387,35.2539971 8.41668335,36.6192798 8.60674448,37.7672077 C8.6192989,37.8466578 8.67574414,37.9117605 8.75244667,37.9361794 C8.82883712,37.9605983 8.91247651,37.9404836 8.96921964,37.8836625 C9.67564332,37.1762685 10.5103491,37.0530378 11.4768833,36.9102748 C12.5208151,36.7559771 13.7039521,36.5812665 14.870364,35.5798802 Z M14.2172775,30.8100876 C14.9181674,31.5119403 14.9434296,32.6284765 14.2737385,33.2991671 C14.2384791,33.3344749 14.2029242,33.3646694 14.167585,33.3946876 C13.5721169,33.9018799 12.9956002,33.9716717 12.4379461,34.0391211 C12.0482228,34.0863287 11.6489859,34.1347501 11.2824858,34.3215375 C11.2931894,33.9056013 11.3992516,33.4795704 11.5822141,33.1625169 C11.7888426,32.805219 12.0947756,32.4864164 12.3653404,32.2154799 C12.4703701,32.110306 12.4606229,31.9303047 12.3435298,31.8130508 C11.9866702,31.455701 11.549297,31.4536946 11.1896027,31.5677612 C11.2522707,31.3736733 11.3852857,31.1207159 11.6592542,30.8293876 C11.6856111,30.7992955 11.7088289,30.7764435 11.7316521,30.7535889 C12.4014008,30.0829203 13.5163876,30.108235 14.2172775,30.8100876 Z" id="Shape"></path>
            </g>
        </g>
    </g>
</svg>