<?xml version="1.0" encoding="UTF-8"?>
<svg width="114px" height="114px" viewBox="0 0 114 114" version="1.1" xmlns="http://www.w3.org/2000/svg" xmlns:xlink="http://www.w3.org/1999/xlink">
    <!-- Generator: Sketch 52.5 (67469) - http://www.bohemiancoding.com/sketch -->
    <title>tool-button@3x</title>
    <desc>Created with Sketch.</desc>
    <g id="Page-1" stroke="none" stroke-width="1" fill="none" fill-rule="evenodd">
        <g id="Analyzer-Test-Failed" transform="translate(-663.000000, -900.000000)" fill="#333537">
            <g id="tool-button" transform="translate(663.000000, 900.000000)">
                <path d="M110.069111,112.716143 C110.787492,111.995349 111.370762,111.412079 111.370762,111.412079 L112.672413,110.108016 C113.390794,109.38481 112.162429,106.050762 109.926762,102.660317 L104.192683,93.955 C101.957016,90.5645556 98.4242222,87.4512698 96.2989365,87.0052222 C94.1736508,86.5564603 92.4500794,86.1936508 92.4500794,86.1936508 L75.1697302,68.9205397 L68.8792222,75.215873 L86.1450952,92.4913968 L86.9614921,96.340254 C87.410254,98.463127 90.5259524,102.000746 93.9163968,104.234 L102.62654,109.975317 C106.016683,112.208571 109.35073,113.436937 110.069111,112.716143 Z" id="Path"></path>
                <path d="M4.104,22.6784603 L29.7808413,48.3553016 L32.9873175,51.5545397 C33.0609048,51.6329524 33.1320794,51.6745714 33.2029524,51.7481587 L37.443873,47.5045238 L7.15606349,17.2164127 L9.80852381,14.5639524 L40.0866825,44.8593016 L44.810746,40.1255873 L14.5226349,9.84230159 L17.1654444,7.18984127 L47.4680317,37.4924286 L51.7017143,33.2439683 C51.6380794,33.170381 51.5913333,33.0919683 51.5252857,33.0207937 L48.1592698,29.6499524 L22.6467937,4.14471429 C17.528254,-0.983777778 9.22012698,-0.976539683 4.10369841,4.14471429 C-1.02207937,9.26144444 -1.02207937,17.559619 4.104,22.6784603 Z" id="Path"></path>
                <path d="M113.314794,24.9264921 C113.005968,20.8767778 109.42673,20.0896349 106.556222,22.9604444 L96.3553275,33.1679014 C94.793375,34.7301432 92.2607151,34.7303776 90.6984733,33.1684251 C90.697694,33.1676459 90.6969151,33.1668665 90.6961365,33.1660867 L81.363914,23.8134322 C79.8033629,22.2505888 79.8047632,19.7187181 81.3670422,18.1576018 L91.9087302,7.62171429 C94.7819524,4.75090476 94.053619,1.04198413 90.0210952,0.561555556 C82.2205397,-0.370047619 74.091254,2.15242857 68.1023333,8.13652381 C63.5402222,12.7061746 60.9930159,18.5331429 60.4537778,24.5000476 C60.2381429,26.9124444 60.3509365,29.3465556 60.784619,31.7393492 L5.11642857,87.4120635 C2.17715873,90.353746 0.55431746,94.259 0.55431746,98.4190952 C0.55431746,102.56954 2.17715873,106.469667 5.10919048,109.406524 C11.1741111,115.469032 21.0387302,115.469032 27.1136032,109.406524 C27.1136032,109.406524 67.1291111,69.3961429 83.3333968,53.172254 C85.8806032,53.5202857 88.4594762,53.4958571 90.9967302,53.0938413 C96.3556349,52.2554286 101.506143,49.799 105.64181,45.670873 C111.331556,39.9808254 113.883587,32.3591111 113.314794,24.9264921 Z M20.6608472,103.916648 C17.8715784,106.690694 13.3848501,106.690694 10.6040409,103.910304 C7.83618527,101.149211 7.82984061,96.6410567 10.6103855,93.8733555 C13.3845857,91.1056542 17.871314,91.1122628 20.6521233,93.8733555 C23.4202432,96.6410567 23.4202432,101.149211 20.6608472,103.916648 Z" id="Shape" fill-rule="nonzero"></path>
            </g>
        </g>
    </g>
</svg>