<?xml version="1.0" encoding="UTF-8"?>
<svg width="44px" height="44px" viewBox="0 0 44 44" version="1.1" xmlns="http://www.w3.org/2000/svg" xmlns:xlink="http://www.w3.org/1999/xlink">
    <!-- Generator: Sketch 52.5 (67469) - http://www.bohemiancoding.com/sketch -->
    <title>Group 24@3x</title>
    <desc>Created with Sketch.</desc>
    <g id="Page-1" stroke="none" stroke-width="1" fill="none" fill-rule="evenodd">
        <g id="Grafiken" transform="translate(-186.000000, -3571.000000)" fill="#FFFFFF">
            <g id="Group-24" transform="translate(186.000000, 3571.000000)">
                <path d="M22,44 C9.8497355,44 0,34.1502645 0,22 C0,9.8497355 9.8497355,0 22,0 C34.1502645,0 44,9.8497355 44,22 C44,34.1502645 34.1502645,44 22,44 Z M11.2860554,15.4879483 L11.2860554,27.7360376 C11.3614273,28.1778718 11.2221458,28.6292084 10.9108759,28.9517931 L8,32.4826573 L8,32.9482657 L16.2539503,32.9482657 L16.2539503,32.4826573 L13.3430744,28.9517931 C13.0295215,28.6297423 12.8816155,28.18138 12.9420204,27.7360376 L12.9420204,17.143445 L20.1868671,32.9482657 L21.0277868,32.9482657 L27.2505925,17.143445 L27.2505925,29.7407408 C27.2505925,30.0770136 27.2505925,30.1416813 27.0306598,30.3615521 L24.7925196,32.5343916 L24.7925196,33 L35.6597896,33 L35.6597896,32.5343916 L33.4992728,30.4132863 C33.3085512,30.2679072 33.2139436,30.0289664 33.2534656,29.7924751 L33.2534656,14.207525 C33.2139436,13.9710336 33.3085512,13.7320928 33.4992728,13.5867137 L35.7115385,11.4656085 L35.7115385,11 L28.0527007,11 L22.5931911,24.6190475 L16.3833226,11 L8.34930511,11 L8.34930511,11.4656085 L10.9367503,14.5825985 C11.1907615,14.8115489 11.3204849,15.1477736 11.2860554,15.4879483 Z" id="Combined-Shape"></path>
            </g>
        </g>
    </g>
</svg>