<?xml version="1.0" encoding="UTF-8"?>
<svg width="44px" height="44px" viewBox="0 0 44 44" version="1.1" xmlns="http://www.w3.org/2000/svg" xmlns:xlink="http://www.w3.org/1999/xlink">
    <!-- Generator: Sketch 52.5 (67469) - http://www.bohemiancoding.com/sketch -->
    <title>Group 23@3x</title>
    <desc>Created with Sketch.</desc>
    <g id="Page-1" stroke="none" stroke-width="1" fill="none" fill-rule="evenodd">
        <g id="Grafiken" transform="translate(-58.000000, -3571.000000)" fill="#FFFFFF">
            <g id="Group-23" transform="translate(58.000000, 3571.000000)">
                <path d="M22,44 C9.8497355,44 0,34.1502645 0,22 C0,9.8497355 9.8497355,0 22,0 C34.1502645,0 44,9.8497355 44,22 C44,34.1502645 34.1502645,44 22,44 Z M16.4344,34.3767628 C27.7552,34.3767628 33.9472,24.9975628 33.9472,16.8639628 C33.9472,16.5975628 33.9472,16.3323628 33.9292,16.0683628 C35.1337976,15.1970559 36.1736266,14.1182181 37,12.8823628 C35.8766549,13.380125 34.6849951,13.7065572 33.4648,13.8507628 C34.7496928,13.0815413 35.7113482,11.8716892 36.1708,10.4463628 C34.962589,11.1633092 33.6407753,11.6685773 32.2624,11.9403628 C30.3544993,9.91163597 27.3228632,9.41509794 24.8674591,10.7291788 C22.412055,12.0432596 21.14353,14.8411537 21.7732,17.5539628 C16.8242749,17.3058623 12.2133709,14.9683508 9.088,11.1231628 C7.45434731,13.9355365 8.28878546,17.5333942 10.9936,19.3395628 C10.0140894,19.3105319 9.05593525,19.0462987 8.2,18.5691628 C8.2,18.5943628 8.2,18.6207628 8.2,18.6471628 C8.20080176,21.5770744 10.2661018,24.100605 13.138,24.6807628 C12.2318435,24.9278909 11.2810967,24.964016 10.3588,24.7863628 C11.1651375,27.2936702 13.4758895,29.0113035 16.1092,29.0607628 C13.929682,30.7736812 11.2372714,31.7035561 8.4652,31.7007628 C7.97548428,31.6998227 7.48624488,31.6701718 7,31.6119628 C9.81476314,33.4182947 13.0898961,34.3764231 16.4344,34.3719628 L16.4344,34.3767628 Z" id="Combined-Shape"></path>
            </g>
        </g>
    </g>
</svg>